%FSLAX24Y24*%
%MOIN*%
G70*
G01*
G75*
%ADD10C,0.0100*%
%ADD11C,0.0080*%
%ADD12C,0.0120*%
%ADD13C,0.0079*%
%ADD14C,0.0150*%
%ADD15R,0.0200X0.0200*%
%ADD16C,0.0060*%
D10*
X15500Y13250D02*
X15596Y13269D01*
X15677Y13323D01*
X15731Y13404D01*
X15750Y13500D01*
X15731Y13596D01*
X15677Y13677D01*
X15596Y13731D01*
X15500Y13750D01*
X27500Y13300D02*
X27596Y13319D01*
X27677Y13373D01*
X27731Y13454D01*
X27750Y13550D01*
X27731Y13646D01*
X27677Y13727D01*
X27596Y13781D01*
X27500Y13800D01*
Y8700D02*
X27596Y8719D01*
X27677Y8773D01*
X27731Y8854D01*
X27750Y8950D01*
X27731Y9046D01*
X27677Y9127D01*
X27596Y9181D01*
X27500Y9200D01*
X27500Y1750D02*
X27596Y1769D01*
X27677Y1823D01*
X27731Y1904D01*
X27750Y2000D01*
X27731Y2096D01*
X27677Y2177D01*
X27596Y2231D01*
X27500Y2250D01*
X5300Y-7250D02*
X5204Y-7269D01*
X5123Y-7323D01*
X5069Y-7404D01*
X5050Y-7500D01*
X5069Y-7596D01*
X5123Y-7677D01*
X5204Y-7731D01*
X5300Y-7750D01*
X19500Y8750D02*
X19404Y8731D01*
X19323Y8677D01*
X19269Y8596D01*
X19250Y8500D01*
X19269Y8404D01*
X19323Y8323D01*
X19404Y8269D01*
X19500Y8250D01*
X24500Y8750D02*
X24404Y8731D01*
X24323Y8677D01*
X24269Y8596D01*
X24250Y8500D01*
X24269Y8404D01*
X24323Y8323D01*
X24404Y8269D01*
X24500Y8250D01*
X41500Y11500D02*
Y15500D01*
X27500Y15500D02*
X27500Y13800D01*
X27500Y13300D02*
X27500Y11500D01*
X41500D01*
X27500Y15500D02*
X41500Y15500D01*
X27500Y10900D02*
X41500Y10900D01*
X27500Y6900D02*
X41500D01*
X27500Y8700D02*
X27500Y6900D01*
X27500Y10900D02*
X27500Y9200D01*
X41500Y6900D02*
Y10900D01*
X15500Y7500D02*
X15500Y9500D01*
X19500D01*
X15500Y7500D02*
X19500D01*
X19500Y8250D01*
X19500Y8750D02*
Y9500D01*
X45483Y16500D02*
Y18500D01*
X25500D02*
X45483D01*
X25500Y16500D02*
X45483Y16500D01*
X25500Y17500D02*
Y18500D01*
Y17500D02*
X26500D01*
Y16500D02*
Y17500D01*
X25500Y16500D02*
Y17500D01*
X18000Y3500D02*
X23000Y3500D01*
X23000Y2500D01*
X22000D02*
Y3500D01*
X18000Y2500D02*
X18000Y3500D01*
X22000Y2500D02*
X23000D01*
X23000Y1500D02*
X23000Y2500D01*
X18000Y1500D02*
X23000Y1500D01*
X18000Y2500D02*
X18000Y1500D01*
X37200Y-4170D02*
X37200Y-4570D01*
X36600Y-3970D02*
X37000Y-3970D01*
X37200Y-4170D01*
X30350Y-4570D02*
X30350Y-3970D01*
X30950D01*
X30350Y-10820D02*
Y-10220D01*
Y-10820D02*
X30950Y-10820D01*
X37200Y-10220D02*
X37200Y-10820D01*
X36600Y-10820D02*
X37200Y-10820D01*
X17000Y15900D02*
Y16900D01*
X18000D01*
X17000Y15900D02*
X18000D01*
Y16900D01*
X14470Y-3000D02*
X14870D01*
X14270Y-3600D02*
X14270Y-3200D01*
X14470Y-3000D01*
X14270Y-14850D02*
X14870D01*
X14270D02*
Y-14250D01*
X25520Y-14850D02*
X26120D01*
Y-14250D01*
X25520Y-3000D02*
X26120D01*
Y-3600D02*
Y-3000D01*
X59000Y14500D02*
X60000D01*
X59000Y13500D02*
X60000D01*
Y14500D01*
X61000D01*
X59000Y6517D02*
Y14500D01*
X61000Y6517D02*
Y14500D01*
X59000Y6517D02*
X61000D01*
X46700Y11950D02*
X48700D01*
X46700Y10950D02*
X48700D01*
X46700D02*
Y11950D01*
X48700Y10950D02*
X48700Y11950D01*
X43700Y-17300D02*
Y-16300D01*
X44700D01*
X43700Y-17300D02*
X44700D01*
Y-16300D01*
X5500Y-3700D02*
X5850Y-4400D01*
X7250D01*
X4900Y-3500D02*
Y-1500D01*
X5900D02*
X5900Y-3500D01*
X4900Y-3500D02*
X5900Y-3500D01*
X4900Y-1500D02*
X5900D01*
X59000Y-5483D02*
X61000D01*
Y2500D01*
X59000Y-5483D02*
Y2500D01*
X60000D02*
X61000D01*
X60000Y1500D02*
Y2500D01*
X59000Y1500D02*
X60000D01*
X59000Y2500D02*
X60000D01*
Y-14500D02*
X61000D01*
Y-9500D01*
X60000D02*
X61000D01*
X60000Y-10500D02*
Y-9500D01*
X59000Y-14500D02*
X60000D01*
X59000Y-10500D02*
X60000D01*
X59000Y-9500D02*
X60000D01*
X59000Y-14500D02*
Y-9500D01*
X11500Y1500D02*
Y2500D01*
X12500D01*
X11500Y1500D02*
X12500D01*
Y2500D01*
X10950Y2700D02*
Y3700D01*
X11950D01*
X10950Y2700D02*
X11950D01*
Y3700D01*
X24500Y8750D02*
Y9500D01*
X24500Y7500D02*
X24500Y8250D01*
X20500Y7500D02*
X24500D01*
X20500Y9500D02*
X24500D01*
X20500Y7500D02*
Y9500D01*
X15500Y15900D02*
Y16900D01*
X16500D01*
X15500Y15900D02*
X16500D01*
Y16900D01*
X11100Y-16100D02*
X13100D01*
X11100Y-15100D02*
X13100Y-15100D01*
X13100Y-16100D01*
X11100D02*
X11100Y-15100D01*
X14700Y-1700D02*
Y-700D01*
X15700D01*
X14700Y-1700D02*
X15700D01*
Y-700D01*
X14700Y500D02*
Y1500D01*
X15700D01*
X14700Y500D02*
X15700D01*
Y1500D01*
X14700Y1900D02*
Y2900D01*
X15700D01*
X14700Y1900D02*
X15700D01*
Y2900D01*
X14700Y3300D02*
Y4300D01*
X15700D01*
X14700Y3300D02*
X15700D01*
Y4300D01*
X11300Y-3700D02*
Y-1700D01*
X10300Y-3700D02*
Y-1700D01*
X11300D01*
X10300Y-3700D02*
X11300D01*
X49100Y13500D02*
X51100Y13500D01*
X49100Y14500D02*
X51100Y14500D01*
X51100Y13500D02*
X51100Y14500D01*
X49100Y13500D02*
X49100Y14500D01*
X15920Y-1180D02*
X15320D01*
Y-880D01*
X15420Y-780D01*
X15520D01*
X15620Y-880D01*
Y-1180D01*
Y-880D01*
X15720Y-780D01*
X15820D01*
X15920Y-880D01*
Y-1180D01*
X15320Y-580D02*
X15720D01*
X15920Y-380D01*
X15720Y-180D01*
X15320D01*
X15620D01*
Y-580D01*
X15920Y20D02*
Y419D01*
Y220D01*
X15320D01*
X15920Y619D02*
Y1019D01*
Y819D01*
X15320D01*
X14550Y11600D02*
X15050D01*
X15150Y11700D01*
Y11900D01*
X15050Y12000D01*
X14550D01*
Y12600D02*
X14650Y12400D01*
X14850Y12200D01*
X15050D01*
X15150Y12300D01*
Y12500D01*
X15050Y12600D01*
X14950D01*
X14850Y12500D01*
Y12200D01*
X26550Y11750D02*
X27050D01*
X27150Y11850D01*
Y12050D01*
X27050Y12150D01*
X26550D01*
X27150Y12350D02*
Y12550D01*
Y12450D01*
X26550D01*
X26650Y12350D01*
X27150Y13250D02*
Y12850D01*
X26750Y13250D01*
X26650D01*
X26550Y13150D01*
Y12950D01*
X26650Y12850D01*
X26500Y7350D02*
X27000D01*
X27100Y7450D01*
Y7650D01*
X27000Y7750D01*
X26500D01*
X27100Y7950D02*
Y8150D01*
Y8050D01*
X26500D01*
X26600Y7950D01*
X27100Y8450D02*
Y8650D01*
Y8550D01*
X26500D01*
X26600Y8450D01*
X26550Y-1200D02*
X27050D01*
X27150Y-1100D01*
Y-900D01*
X27050Y-800D01*
X26550D01*
X27150Y-600D02*
Y-400D01*
Y-500D01*
X26550D01*
X26650Y-600D01*
X7600Y6420D02*
Y6003D01*
X7683Y5920D01*
X7850D01*
X7933Y6003D01*
Y6420D01*
X8100Y6337D02*
X8183Y6420D01*
X8350D01*
X8433Y6337D01*
Y6253D01*
X8350Y6170D01*
X8433Y6087D01*
Y6003D01*
X8350Y5920D01*
X8183D01*
X8100Y6003D01*
Y6087D01*
X8183Y6170D01*
X8100Y6253D01*
Y6337D01*
X8183Y6170D02*
X8350D01*
X-1867Y3100D02*
X-2033D01*
X-1950D01*
Y2683D01*
X-2033Y2600D01*
X-2117D01*
X-2200Y2683D01*
X-1700Y2600D02*
X-1534D01*
X-1617D01*
Y3100D01*
X-1700Y3017D01*
X-1284D02*
X-1200Y3100D01*
X-1034D01*
X-950Y3017D01*
Y2683D01*
X-1034Y2600D01*
X-1200D01*
X-1284Y2683D01*
Y3017D01*
X6017Y-8982D02*
X5925Y-8890D01*
X5742D01*
X5650Y-8982D01*
Y-9073D01*
X5742Y-9165D01*
X5925D01*
X6017Y-9257D01*
Y-9348D01*
X5925Y-9440D01*
X5742D01*
X5650Y-9348D01*
X6200Y-8890D02*
Y-9440D01*
X6475D01*
X6566Y-9348D01*
Y-8982D01*
X6475Y-8890D01*
X6200D01*
X7299Y-9440D02*
Y-9073D01*
X7483Y-8890D01*
X7666Y-9073D01*
Y-9440D01*
Y-9165D01*
X7299D01*
X7849Y-8890D02*
Y-9440D01*
X8124D01*
X8216Y-9348D01*
Y-8982D01*
X8124Y-8890D01*
X7849D01*
X8399Y-9440D02*
Y-9073D01*
X8582Y-8890D01*
X8766Y-9073D01*
Y-9440D01*
Y-9165D01*
X8399D01*
X8949Y-9440D02*
Y-8890D01*
X9224D01*
X9315Y-8982D01*
Y-9165D01*
X9224Y-9257D01*
X8949D01*
X9499Y-8890D02*
X9865D01*
X9682D01*
Y-9440D01*
X10415Y-8890D02*
X10049D01*
Y-9440D01*
X10415D01*
X10049Y-9165D02*
X10232D01*
X10598Y-9440D02*
Y-8890D01*
X10873D01*
X10965Y-8982D01*
Y-9165D01*
X10873Y-9257D01*
X10598D01*
X10782D02*
X10965Y-9440D01*
X5983Y-8100D02*
X5817D01*
X5900D01*
Y-8517D01*
X5817Y-8600D01*
X5733D01*
X5650Y-8517D01*
X6483Y-8100D02*
X6316Y-8183D01*
X6150Y-8350D01*
Y-8517D01*
X6233Y-8600D01*
X6400D01*
X6483Y-8517D01*
Y-8433D01*
X6400Y-8350D01*
X6150D01*
X2833Y17450D02*
X2667D01*
X2750D01*
Y17033D01*
X2667Y16950D01*
X2583D01*
X2500Y17033D01*
X3000D02*
X3083Y16950D01*
X3250D01*
X3333Y17033D01*
Y17367D01*
X3250Y17450D01*
X3083D01*
X3000Y17367D01*
Y17283D01*
X3083Y17200D01*
X3333D01*
X17000Y10700D02*
Y10600D01*
X17200Y10400D01*
X17400Y10600D01*
Y10700D01*
X17200Y10400D02*
Y10100D01*
X17600D02*
X17800D01*
X17700D01*
Y10700D01*
X17600Y10600D01*
X733Y12717D02*
X650Y12800D01*
X483D01*
X400Y12717D01*
Y12633D01*
X483Y12550D01*
X650D01*
X733Y12467D01*
Y12383D01*
X650Y12300D01*
X483D01*
X400Y12383D01*
X900Y12800D02*
Y12300D01*
X1066Y12467D01*
X1233Y12300D01*
Y12800D01*
X1400Y12300D02*
X1566D01*
X1483D01*
Y12800D01*
X1400Y12717D01*
X24100Y17800D02*
X23900D01*
X24000D01*
Y17300D01*
X23900Y17200D01*
X23800D01*
X23700Y17300D01*
X24300Y17700D02*
X24400Y17800D01*
X24600D01*
X24700Y17700D01*
Y17600D01*
X24600Y17500D01*
X24500D01*
X24600D01*
X24700Y17400D01*
Y17300D01*
X24600Y17200D01*
X24400D01*
X24300Y17300D01*
X18460Y1200D02*
X18260D01*
X18360D01*
Y700D01*
X18260Y600D01*
X18160D01*
X18060Y700D01*
X18660Y1200D02*
X19060D01*
Y1100D01*
X18660Y700D01*
Y600D01*
X32550Y-11850D02*
Y-12400D01*
Y-12125D01*
X32917D01*
Y-11850D01*
Y-12400D01*
X33100Y-11850D02*
Y-12400D01*
X33375D01*
X33466Y-12308D01*
Y-11942D01*
X33375Y-11850D01*
X33100D01*
X34016D02*
X33833Y-11942D01*
X33650Y-12125D01*
Y-12308D01*
X33741Y-12400D01*
X33925D01*
X34016Y-12308D01*
Y-12217D01*
X33925Y-12125D01*
X33650D01*
X34199Y-11942D02*
X34291Y-11850D01*
X34474D01*
X34566Y-11942D01*
Y-12033D01*
X34474Y-12125D01*
X34383D01*
X34474D01*
X34566Y-12217D01*
Y-12308D01*
X34474Y-12400D01*
X34291D01*
X34199Y-12308D01*
X35116Y-11942D02*
X35024Y-11850D01*
X34841D01*
X34749Y-11942D01*
Y-12308D01*
X34841Y-12400D01*
X35024D01*
X35116Y-12308D01*
X35299Y-11942D02*
X35391Y-11850D01*
X35574D01*
X35666Y-11942D01*
Y-12308D01*
X35574Y-12400D01*
X35391D01*
X35299Y-12308D01*
Y-11942D01*
X35849Y-12308D02*
X35941Y-12400D01*
X36124D01*
X36215Y-12308D01*
Y-11942D01*
X36124Y-11850D01*
X35941D01*
X35849Y-11942D01*
Y-12033D01*
X35941Y-12125D01*
X36215D01*
X36765Y-11850D02*
X36399D01*
Y-12400D01*
X36765D01*
X36399Y-12125D02*
X36582D01*
X37315Y-11942D02*
X37223Y-11850D01*
X37040D01*
X36949Y-11942D01*
Y-12308D01*
X37040Y-12400D01*
X37223D01*
X37315Y-12308D01*
X37498Y-12400D02*
Y-11850D01*
X37773D01*
X37865Y-11942D01*
Y-12125D01*
X37773Y-12217D01*
X37498D01*
X37414Y-3166D02*
X37061Y-3519D01*
Y-3661D01*
X37202Y-3802D01*
X37343D01*
X37697Y-3449D01*
X37768Y-3661D02*
X37909D01*
X38050Y-3802D01*
Y-3943D01*
X37980Y-4014D01*
X37838D01*
X37768Y-3943D01*
X37838Y-4014D01*
Y-4155D01*
X37768Y-4226D01*
X37626D01*
X37485Y-4085D01*
Y-3943D01*
X6900Y17600D02*
Y17100D01*
X7150D01*
X7233Y17183D01*
Y17517D01*
X7150Y17600D01*
X6900D01*
X7733Y17100D02*
X7400D01*
X7733Y17433D01*
Y17517D01*
X7650Y17600D01*
X7483D01*
X7400Y17517D01*
X10650Y1950D02*
X10233D01*
X10150Y1867D01*
Y1700D01*
X10233Y1617D01*
X10650D01*
X10150Y1450D02*
Y1284D01*
Y1367D01*
X10650D01*
X10567Y1450D01*
Y1034D02*
X10650Y950D01*
Y784D01*
X10567Y700D01*
X10233D01*
X10150Y784D01*
Y950D01*
X10233Y1034D01*
X10567D01*
X17333Y17650D02*
X17000D01*
Y17400D01*
X17167D01*
X17000D01*
Y17150D01*
X17750Y17650D02*
X17583D01*
X17500Y17567D01*
Y17233D01*
X17583Y17150D01*
X17750D01*
X17833Y17233D01*
Y17567D01*
X17750Y17650D01*
X18000D02*
Y17233D01*
X18083Y17150D01*
X18250D01*
X18333Y17233D01*
Y17650D01*
X18500D02*
X18833D01*
X18666D01*
Y17150D01*
X17150Y-16350D02*
X16750D01*
Y-16950D01*
X17150D01*
X16750Y-16650D02*
X16950D01*
X17350Y-16950D02*
Y-16350D01*
X17650D01*
X17750Y-16450D01*
Y-16650D01*
X17650Y-16750D01*
X17350D01*
X17950Y-16950D02*
Y-16350D01*
X18150Y-16550D01*
X18349Y-16350D01*
Y-16950D01*
X18549Y-16350D02*
X18949D01*
Y-16450D01*
X18549Y-16850D01*
Y-16950D01*
X19149D02*
X19349D01*
X19249D01*
Y-16350D01*
X19149Y-16450D01*
X20049Y-16950D02*
X19649D01*
X20049Y-16550D01*
Y-16450D01*
X19949Y-16350D01*
X19749D01*
X19649Y-16450D01*
X20249D02*
X20349Y-16350D01*
X20549D01*
X20649Y-16450D01*
Y-16550D01*
X20549Y-16650D01*
X20649Y-16750D01*
Y-16850D01*
X20549Y-16950D01*
X20349D01*
X20249Y-16850D01*
Y-16750D01*
X20349Y-16650D01*
X20249Y-16550D01*
Y-16450D01*
X20349Y-16650D02*
X20549D01*
X21249Y-16450D02*
X21149Y-16350D01*
X20949D01*
X20849Y-16450D01*
Y-16550D01*
X20949Y-16650D01*
X21149D01*
X21249Y-16750D01*
Y-16850D01*
X21149Y-16950D01*
X20949D01*
X20849Y-16850D01*
X21448Y-16950D02*
X21848Y-16550D01*
X22048Y-16350D02*
Y-16950D01*
X22448D01*
X23048Y-16450D02*
X22948Y-16350D01*
X22748D01*
X22648Y-16450D01*
Y-16850D01*
X22748Y-16950D01*
X22948D01*
X23048Y-16850D01*
X23648Y-16450D02*
X23548Y-16350D01*
X23348D01*
X23248Y-16450D01*
Y-16850D01*
X23348Y-16950D01*
X23548D01*
X23648Y-16850D01*
X13276Y-2676D02*
X13629Y-3029D01*
X13771D01*
X13912Y-2888D01*
Y-2747D01*
X13559Y-2393D01*
X13700Y-2252D02*
X13983Y-1969D01*
X14053Y-2040D01*
X14053Y-2605D01*
X14124Y-2676D01*
X58600Y14000D02*
Y14200D01*
Y14100D01*
X58100D01*
X58000Y14200D01*
Y14300D01*
X58100Y14400D01*
X58000Y13800D02*
Y13600D01*
Y13700D01*
X58600D01*
X58500Y13800D01*
X9000Y12500D02*
Y12000D01*
X9250D01*
X9333Y12083D01*
Y12417D01*
X9250Y12500D01*
X9000D01*
X9500Y12000D02*
X9666D01*
X9583D01*
Y12500D01*
X9500Y12417D01*
X400Y-11300D02*
Y-11800D01*
X650D01*
X733Y-11717D01*
Y-11383D01*
X650Y-11300D01*
X400D01*
X900Y-11383D02*
X983Y-11300D01*
X1150D01*
X1233Y-11383D01*
Y-11467D01*
X1150Y-11550D01*
X1066D01*
X1150D01*
X1233Y-11633D01*
Y-11717D01*
X1150Y-11800D01*
X983D01*
X900Y-11717D01*
X8733Y13617D02*
X8650Y13700D01*
X8483D01*
X8400Y13617D01*
Y13283D01*
X8483Y13200D01*
X8650D01*
X8733Y13283D01*
X8900Y13200D02*
X9066D01*
X8983D01*
Y13700D01*
X8900Y13617D01*
X9019Y14806D02*
Y14273D01*
X9285Y14540D02*
X8752D01*
X25417Y14917D02*
X25500Y15000D01*
Y15167D01*
X25417Y15250D01*
X25083D01*
X25000Y15167D01*
Y15000D01*
X25083Y14917D01*
X25000Y14500D02*
X25500D01*
X25250Y14750D01*
Y14417D01*
X46900Y10600D02*
X47100D01*
X47000D01*
Y10000D01*
X46900D01*
X47100D01*
X47400D02*
Y10600D01*
X47700D01*
X47800Y10500D01*
Y10300D01*
X47700Y10200D01*
X47400D01*
X47600D02*
X47800Y10000D01*
X48400Y10100D02*
Y10500D01*
X48300Y10600D01*
X48100D01*
X48000Y10500D01*
Y10100D01*
X48100Y10000D01*
X48300D01*
X48200Y10200D02*
X48400Y10000D01*
X48300D02*
X48400Y10100D01*
X47350Y12750D02*
X47150D01*
X47250D01*
Y12250D01*
X47150Y12150D01*
X47050D01*
X46950Y12250D01*
X47550Y12150D02*
Y12750D01*
X47850D01*
X47950Y12650D01*
Y12450D01*
X47850Y12350D01*
X47550D01*
X48150Y12150D02*
X48350D01*
X48250D01*
Y12750D01*
X48150Y12650D01*
X44700Y9550D02*
X44100D01*
Y9850D01*
X44200Y9950D01*
X44400D01*
X44500Y9850D01*
Y9550D01*
Y9750D02*
X44700Y9950D01*
Y10550D02*
Y10150D01*
X44300Y10550D01*
X44200D01*
X44100Y10450D01*
Y10250D01*
X44200Y10150D01*
X44700Y11050D02*
X44100D01*
X44400Y10750D01*
Y11149D01*
X43600Y-17550D02*
Y-18050D01*
X43933D01*
X44100Y-17550D02*
X44266D01*
X44183D01*
Y-18050D01*
X44100D01*
X44266D01*
X44850Y-17633D02*
X44766Y-17550D01*
X44600D01*
X44516Y-17633D01*
Y-17967D01*
X44600Y-18050D01*
X44766D01*
X44850Y-17967D01*
X4200Y-2817D02*
Y-2983D01*
Y-2900D01*
X4617D01*
X4700Y-2983D01*
Y-3067D01*
X4617Y-3150D01*
X4700Y-2650D02*
X4200D01*
Y-2400D01*
X4283Y-2317D01*
X4450D01*
X4533Y-2400D01*
Y-2650D01*
X4283Y-2150D02*
X4200Y-2067D01*
Y-1900D01*
X4283Y-1817D01*
X4367D01*
X4450Y-1900D01*
Y-1984D01*
Y-1900D01*
X4533Y-1817D01*
X4617D01*
X4700Y-1900D01*
Y-2067D01*
X4617Y-2150D01*
X12033Y11517D02*
X11950Y11600D01*
X11783D01*
X11700Y11517D01*
Y11183D01*
X11783Y11100D01*
X11950D01*
X12033Y11183D01*
X12200Y11600D02*
X12533D01*
Y11517D01*
X12200Y11183D01*
Y11100D01*
X13300Y7700D02*
Y8200D01*
X13550D01*
X13633Y8117D01*
Y7950D01*
X13550Y7867D01*
X13300D01*
X13467D02*
X13633Y7700D01*
X13800D02*
X13966D01*
X13883D01*
Y8200D01*
X13800Y8117D01*
X14216Y8200D02*
X14550D01*
Y8117D01*
X14216Y7783D01*
Y7700D01*
X48750Y-4650D02*
X49117D01*
Y-4742D01*
X48750Y-5108D01*
Y-5200D01*
X49117D01*
X49300Y-4742D02*
X49391Y-4650D01*
X49575D01*
X49666Y-4742D01*
Y-4833D01*
X49575Y-4925D01*
X49666Y-5017D01*
Y-5108D01*
X49575Y-5200D01*
X49391D01*
X49300Y-5108D01*
Y-5017D01*
X49391Y-4925D01*
X49300Y-4833D01*
Y-4742D01*
X49391Y-4925D02*
X49575D01*
X50216Y-4650D02*
X49850D01*
Y-4925D01*
X50033Y-4833D01*
X50125D01*
X50216Y-4925D01*
Y-5108D01*
X50125Y-5200D01*
X49941D01*
X49850Y-5108D01*
X50766Y-4742D02*
X50674Y-4650D01*
X50491D01*
X50399Y-4742D01*
Y-5108D01*
X50491Y-5200D01*
X50674D01*
X50766Y-5108D01*
X50949Y-4742D02*
X51041Y-4650D01*
X51224D01*
X51316Y-4742D01*
Y-4833D01*
X51224Y-4925D01*
X51133D01*
X51224D01*
X51316Y-5017D01*
Y-5108D01*
X51224Y-5200D01*
X51041D01*
X50949Y-5108D01*
X51499Y-4742D02*
X51591Y-4650D01*
X51774D01*
X51866Y-4742D01*
Y-5108D01*
X51774Y-5200D01*
X51591D01*
X51499Y-5108D01*
Y-4742D01*
X52049Y-5200D02*
X52415Y-4833D01*
X52599Y-4650D02*
Y-5200D01*
X52965D01*
X53515Y-4742D02*
X53423Y-4650D01*
X53240D01*
X53149Y-4742D01*
Y-5108D01*
X53240Y-5200D01*
X53423D01*
X53515Y-5108D01*
X54065Y-4742D02*
X53973Y-4650D01*
X53790D01*
X53698Y-4742D01*
Y-5108D01*
X53790Y-5200D01*
X53973D01*
X54065Y-5108D01*
X47524Y-12676D02*
X47171Y-13029D01*
Y-13171D01*
X47312Y-13312D01*
X47453D01*
X47807Y-12959D01*
X48231Y-13383D02*
X47948Y-13100D01*
X47736Y-13312D01*
X47948Y-13383D01*
X48019Y-13453D01*
Y-13595D01*
X47878Y-13736D01*
X47736D01*
X47595Y-13595D01*
Y-13453D01*
X22000Y10700D02*
Y10600D01*
X22200Y10400D01*
X22400Y10600D01*
Y10700D01*
X22200Y10400D02*
Y10100D01*
X23000D02*
X22600D01*
X23000Y10500D01*
Y10600D01*
X22900Y10700D01*
X22700D01*
X22600Y10600D01*
X12200Y3400D02*
X12533D01*
X12367D01*
Y2900D01*
X12700Y3400D02*
X13033Y2900D01*
Y3400D02*
X12700Y2900D01*
X13200Y3400D02*
Y2900D01*
X13450D01*
X13533Y2983D01*
Y3317D01*
X13450Y3400D01*
X13200D01*
X12780Y1750D02*
Y2250D01*
X13030D01*
X13113Y2167D01*
Y2000D01*
X13030Y1917D01*
X12780D01*
X12947D02*
X13113Y1750D01*
X13280Y2250D02*
X13613Y1750D01*
Y2250D02*
X13280Y1750D01*
X13780Y2250D02*
Y1750D01*
X14030D01*
X14113Y1833D01*
Y2167D01*
X14030Y2250D01*
X13780D01*
X15900Y-1100D02*
X16233D01*
X16067D01*
Y-1600D01*
X16400D02*
Y-1100D01*
X16650D01*
X16733Y-1183D01*
Y-1350D01*
X16650Y-1433D01*
X16400D01*
X16900Y-1600D02*
X17066D01*
X16983D01*
Y-1100D01*
X16900Y-1183D01*
X17566Y-1600D02*
Y-1100D01*
X17316Y-1350D01*
X17649D01*
X15900Y1250D02*
X16233D01*
X16067D01*
Y750D01*
X16400D02*
Y1250D01*
X16650D01*
X16733Y1167D01*
Y1000D01*
X16650Y917D01*
X16400D01*
X16900Y750D02*
X17066D01*
X16983D01*
Y1250D01*
X16900Y1167D01*
X17316D02*
X17400Y1250D01*
X17566D01*
X17649Y1167D01*
Y1083D01*
X17566Y1000D01*
X17483D01*
X17566D01*
X17649Y917D01*
Y833D01*
X17566Y750D01*
X17400D01*
X17316Y833D01*
X15900Y2650D02*
X16233D01*
X16067D01*
Y2150D01*
X16400D02*
Y2650D01*
X16650D01*
X16733Y2567D01*
Y2400D01*
X16650Y2317D01*
X16400D01*
X16900Y2150D02*
X17066D01*
X16983D01*
Y2650D01*
X16900Y2567D01*
X17649Y2150D02*
X17316D01*
X17649Y2483D01*
Y2567D01*
X17566Y2650D01*
X17400D01*
X17316Y2567D01*
X15950Y4020D02*
X16283D01*
X16117D01*
Y3520D01*
X16450D02*
Y4020D01*
X16700D01*
X16783Y3937D01*
Y3770D01*
X16700Y3687D01*
X16450D01*
X16950Y3520D02*
X17116D01*
X17033D01*
Y4020D01*
X16950Y3937D01*
X17366Y3520D02*
X17533D01*
X17450D01*
Y4020D01*
X17366Y3937D01*
X58600Y-9800D02*
Y-9600D01*
Y-9700D01*
X58100D01*
X58000Y-9600D01*
Y-9500D01*
X58100Y-9400D01*
X58000Y-10000D02*
Y-10200D01*
Y-10100D01*
X58600D01*
X58500Y-10000D01*
X58000Y-10500D02*
Y-10700D01*
Y-10600D01*
X58600D01*
X58500Y-10500D01*
X14650Y17650D02*
Y17317D01*
X14817Y17150D01*
X14983Y17317D01*
Y17650D01*
X15150Y17150D02*
Y17650D01*
X15400D01*
X15483Y17567D01*
Y17400D01*
X15400Y17317D01*
X15150D01*
X15316D02*
X15483Y17150D01*
X15650Y17650D02*
X15983D01*
X15816D01*
Y17150D01*
X16483Y17567D02*
X16399Y17650D01*
X16233D01*
X16150Y17567D01*
Y17233D01*
X16233Y17150D01*
X16399D01*
X16483Y17233D01*
X17000Y5350D02*
X17500D01*
Y5100D01*
X17417Y5017D01*
X17250D01*
X17167Y5100D01*
Y5350D01*
Y5183D02*
X17000Y5017D01*
X17083Y4850D02*
X17000Y4767D01*
Y4600D01*
X17083Y4517D01*
X17417D01*
X17500Y4600D01*
Y4767D01*
X17417Y4850D01*
X17333D01*
X17250Y4767D01*
Y4517D01*
X23600Y5300D02*
X24100D01*
Y5050D01*
X24017Y4967D01*
X23850D01*
X23767Y5050D01*
Y5300D01*
Y5133D02*
X23600Y4967D01*
X24017Y4800D02*
X24100Y4717D01*
Y4550D01*
X24017Y4467D01*
X23933D01*
X23850Y4550D01*
X23767Y4467D01*
X23683D01*
X23600Y4550D01*
Y4717D01*
X23683Y4800D01*
X23767D01*
X23850Y4717D01*
X23933Y4800D01*
X24017D01*
X23850Y4717D02*
Y4550D01*
X19150Y5300D02*
X19650D01*
Y5050D01*
X19567Y4967D01*
X19400D01*
X19317Y5050D01*
Y5300D01*
Y5133D02*
X19150Y4967D01*
X19650Y4800D02*
Y4467D01*
X19567D01*
X19233Y4800D01*
X19150D01*
X24450Y5300D02*
X24950D01*
Y5050D01*
X24867Y4967D01*
X24700D01*
X24617Y5050D01*
Y5300D01*
Y5133D02*
X24450Y4967D01*
X24950Y4467D02*
X24867Y4634D01*
X24700Y4800D01*
X24533D01*
X24450Y4717D01*
Y4550D01*
X24533Y4467D01*
X24617D01*
X24700Y4550D01*
Y4800D01*
X11650Y-18150D02*
Y-17650D01*
X11900D01*
X11983Y-17733D01*
Y-17900D01*
X11900Y-17983D01*
X11650D01*
X11817D02*
X11983Y-18150D01*
X12483Y-17650D02*
X12150D01*
Y-17900D01*
X12316Y-17817D01*
X12400D01*
X12483Y-17900D01*
Y-18067D01*
X12400Y-18150D01*
X12233D01*
X12150Y-18067D01*
X4000Y8750D02*
Y9250D01*
X4250D01*
X4333Y9167D01*
Y9000D01*
X4250Y8917D01*
X4000D01*
X4167D02*
X4333Y8750D01*
X4500D02*
X4666D01*
X4583D01*
Y9250D01*
X4500Y9167D01*
X4916Y8833D02*
X5000Y8750D01*
X5166D01*
X5250Y8833D01*
Y9167D01*
X5166Y9250D01*
X5000D01*
X4916Y9167D01*
Y9083D01*
X5000Y9000D01*
X5250D01*
X4000Y4300D02*
Y4800D01*
X4250D01*
X4333Y4717D01*
Y4550D01*
X4250Y4467D01*
X4000D01*
X4167D02*
X4333Y4300D01*
X4500D02*
X4666D01*
X4583D01*
Y4800D01*
X4500Y4717D01*
X4916D02*
X5000Y4800D01*
X5166D01*
X5250Y4717D01*
Y4633D01*
X5166Y4550D01*
X5250Y4467D01*
Y4383D01*
X5166Y4300D01*
X5000D01*
X4916Y4383D01*
Y4467D01*
X5000Y4550D01*
X4916Y4633D01*
Y4717D01*
X5000Y4550D02*
X5166D01*
X4000Y7600D02*
Y8100D01*
X4250D01*
X4333Y8017D01*
Y7850D01*
X4250Y7767D01*
X4000D01*
X4167D02*
X4333Y7600D01*
X4500D02*
X4666D01*
X4583D01*
Y8100D01*
X4500Y8017D01*
X5250Y8100D02*
X5083Y8017D01*
X4916Y7850D01*
Y7683D01*
X5000Y7600D01*
X5166D01*
X5250Y7683D01*
Y7767D01*
X5166Y7850D01*
X4916D01*
X8500Y-5850D02*
Y-5350D01*
X8750D01*
X8833Y-5433D01*
Y-5600D01*
X8750Y-5683D01*
X8500D01*
X8667D02*
X8833Y-5850D01*
X9000D02*
X9166D01*
X9083D01*
Y-5350D01*
X9000Y-5433D01*
X9416D02*
X9500Y-5350D01*
X9666D01*
X9750Y-5433D01*
Y-5767D01*
X9666Y-5850D01*
X9500D01*
X9416Y-5767D01*
Y-5433D01*
X10883Y-14333D02*
X10800Y-14250D01*
X10633D01*
X10550Y-14333D01*
Y-14667D01*
X10633Y-14750D01*
X10800D01*
X10883Y-14667D01*
X11300Y-14250D02*
X11133D01*
X11050Y-14333D01*
Y-14667D01*
X11133Y-14750D01*
X11300D01*
X11383Y-14667D01*
Y-14333D01*
X11300Y-14250D01*
X11550Y-14750D02*
Y-14250D01*
X11883Y-14750D01*
Y-14250D01*
X12383D02*
X12050D01*
Y-14500D01*
X12216D01*
X12050D01*
Y-14750D01*
X12549Y-14250D02*
X12716D01*
X12633D01*
Y-14750D01*
X12549D01*
X12716D01*
X13299Y-14333D02*
X13216Y-14250D01*
X13049D01*
X12966Y-14333D01*
Y-14667D01*
X13049Y-14750D01*
X13216D01*
X13299Y-14667D01*
Y-14500D01*
X13132D01*
X11400Y-13300D02*
X11200D01*
X11300D01*
Y-13800D01*
X11200Y-13900D01*
X11100D01*
X11000Y-13800D01*
X11600Y-13900D02*
Y-13300D01*
X11900D01*
X12000Y-13400D01*
Y-13600D01*
X11900Y-13700D01*
X11600D01*
X12500Y-13900D02*
Y-13300D01*
X12200Y-13600D01*
X12599D01*
X51800Y14200D02*
X51700Y14300D01*
X51500D01*
X51400Y14200D01*
Y13800D01*
X51500Y13700D01*
X51700D01*
X51800Y13800D01*
Y14000D01*
X51600D01*
X52000Y13700D02*
Y14300D01*
X52400Y13700D01*
Y14300D01*
X52600D02*
Y13700D01*
X52900D01*
X52999Y13800D01*
Y14200D01*
X52900Y14300D01*
X52600D01*
X6200Y9700D02*
Y9283D01*
X6283Y9200D01*
X6450D01*
X6533Y9283D01*
Y9700D01*
X6700Y9283D02*
X6783Y9200D01*
X6950D01*
X7033Y9283D01*
Y9617D01*
X6950Y9700D01*
X6783D01*
X6700Y9617D01*
Y9533D01*
X6783Y9450D01*
X7033D01*
X49020Y8700D02*
X49387D01*
Y8608D01*
X49020Y8242D01*
Y8150D01*
X49387D01*
X49570Y8608D02*
X49661Y8700D01*
X49845D01*
X49936Y8608D01*
Y8517D01*
X49845Y8425D01*
X49936Y8333D01*
Y8242D01*
X49845Y8150D01*
X49661D01*
X49570Y8242D01*
Y8333D01*
X49661Y8425D01*
X49570Y8517D01*
Y8608D01*
X49661Y8425D02*
X49845D01*
X50486Y8700D02*
X50120D01*
Y8425D01*
X50303Y8517D01*
X50395D01*
X50486Y8425D01*
Y8242D01*
X50395Y8150D01*
X50211D01*
X50120Y8242D01*
X50669Y8608D02*
X50761Y8700D01*
X50944D01*
X51036Y8608D01*
Y8517D01*
X50944Y8425D01*
X50853D01*
X50944D01*
X51036Y8333D01*
Y8242D01*
X50944Y8150D01*
X50761D01*
X50669Y8242D01*
X51586Y8700D02*
X51403Y8608D01*
X51219Y8425D01*
Y8242D01*
X51311Y8150D01*
X51494D01*
X51586Y8242D01*
Y8333D01*
X51494Y8425D01*
X51219D01*
X51769D02*
X52136D01*
X52685Y8608D02*
X52594Y8700D01*
X52411D01*
X52319Y8608D01*
Y8242D01*
X52411Y8150D01*
X52594D01*
X52685Y8242D01*
X52869Y8700D02*
X53052D01*
X52960D01*
Y8150D01*
X52869D01*
X53052D01*
X53602Y8700D02*
X53419D01*
X53327Y8608D01*
Y8242D01*
X53419Y8150D01*
X53602D01*
X53693Y8242D01*
Y8608D01*
X53602Y8700D01*
X47824Y574D02*
X47471Y221D01*
Y79D01*
X47612Y-62D01*
X47753D01*
X48107Y291D01*
Y-557D02*
X47824Y-274D01*
X48390D01*
X48460Y-203D01*
Y-62D01*
X48319Y79D01*
X48178D01*
X833Y8217D02*
X750Y8300D01*
X583D01*
X500Y8217D01*
Y8133D01*
X583Y8050D01*
X750D01*
X833Y7967D01*
Y7883D01*
X750Y7800D01*
X583D01*
X500Y7883D01*
X1000Y8300D02*
Y7800D01*
X1166Y7967D01*
X1333Y7800D01*
Y8300D01*
X1833Y7800D02*
X1500D01*
X1833Y8133D01*
Y8217D01*
X1750Y8300D01*
X1583D01*
X1500Y8217D01*
X58500Y2300D02*
Y2500D01*
Y2400D01*
X58000D01*
X57900Y2500D01*
Y2600D01*
X58000Y2700D01*
X57900Y1700D02*
Y2100D01*
X58300Y1700D01*
X58400D01*
X58500Y1800D01*
Y2000D01*
X58400Y2100D01*
X300Y-16700D02*
Y-17200D01*
X550D01*
X633Y-17117D01*
Y-16783D01*
X550Y-16700D01*
X300D01*
X1050Y-17200D02*
Y-16700D01*
X800Y-16950D01*
X1133D01*
X6533Y-283D02*
X6450Y-200D01*
X6283D01*
X6200Y-283D01*
Y-617D01*
X6283Y-700D01*
X6450D01*
X6533Y-617D01*
X6700Y-700D02*
X6866D01*
X6783D01*
Y-200D01*
X6700Y-283D01*
X7366Y-700D02*
Y-200D01*
X7116Y-450D01*
X7450D01*
X6533Y3317D02*
X6450Y3400D01*
X6283D01*
X6200Y3317D01*
Y2983D01*
X6283Y2900D01*
X6450D01*
X6533Y2983D01*
X6700Y2900D02*
X6866D01*
X6783D01*
Y3400D01*
X6700Y3317D01*
X7116D02*
X7200Y3400D01*
X7366D01*
X7450Y3317D01*
Y3233D01*
X7366Y3150D01*
X7283D01*
X7366D01*
X7450Y3067D01*
Y2983D01*
X7366Y2900D01*
X7200D01*
X7116Y2983D01*
X5200Y12100D02*
Y12600D01*
X5450D01*
X5533Y12517D01*
Y12350D01*
X5450Y12267D01*
X5200D01*
X5367D02*
X5533Y12100D01*
X5700D02*
X5866D01*
X5783D01*
Y12600D01*
X5700Y12517D01*
X6450Y12600D02*
X6116D01*
Y12350D01*
X6283Y12433D01*
X6366D01*
X6450Y12350D01*
Y12183D01*
X6366Y12100D01*
X6200D01*
X6116Y12183D01*
X8460Y-1800D02*
Y-1300D01*
X8710D01*
X8793Y-1383D01*
Y-1550D01*
X8710Y-1633D01*
X8460D01*
X8627D02*
X8793Y-1800D01*
X9293D02*
X8960D01*
X9293Y-1467D01*
Y-1383D01*
X9210Y-1300D01*
X9043D01*
X8960Y-1383D01*
X9460D02*
X9543Y-1300D01*
X9710D01*
X9793Y-1383D01*
Y-1717D01*
X9710Y-1800D01*
X9543D01*
X9460Y-1717D01*
Y-1383D01*
X4600Y-18000D02*
Y-17500D01*
X4850D01*
X4933Y-17583D01*
Y-17750D01*
X4850Y-17833D01*
X4600D01*
X4767D02*
X4933Y-18000D01*
X5100D02*
X5266D01*
X5183D01*
Y-17500D01*
X5100Y-17583D01*
X5766Y-18000D02*
Y-17500D01*
X5516Y-17750D01*
X5850D01*
X6200Y1700D02*
Y2200D01*
X6450D01*
X6533Y2117D01*
Y1950D01*
X6450Y1867D01*
X6200D01*
X6367D02*
X6533Y1700D01*
X7033D02*
X6700D01*
X7033Y2033D01*
Y2117D01*
X6950Y2200D01*
X6783D01*
X6700Y2117D01*
X7200D02*
X7283Y2200D01*
X7450D01*
X7533Y2117D01*
Y2033D01*
X7450Y1950D01*
X7366D01*
X7450D01*
X7533Y1867D01*
Y1783D01*
X7450Y1700D01*
X7283D01*
X7200Y1783D01*
X6200Y500D02*
Y1000D01*
X6450D01*
X6533Y917D01*
Y750D01*
X6450Y667D01*
X6200D01*
X6367D02*
X6533Y500D01*
X7033D02*
X6700D01*
X7033Y833D01*
Y917D01*
X6950Y1000D01*
X6783D01*
X6700Y917D01*
X7533Y500D02*
X7200D01*
X7533Y833D01*
Y917D01*
X7450Y1000D01*
X7283D01*
X7200Y917D01*
X11733Y13617D02*
X11650Y13700D01*
X11483D01*
X11400Y13617D01*
Y13283D01*
X11483Y13200D01*
X11650D01*
X11733Y13283D01*
X12233Y13700D02*
X12066Y13617D01*
X11900Y13450D01*
Y13283D01*
X11983Y13200D01*
X12150D01*
X12233Y13283D01*
Y13367D01*
X12150Y13450D01*
X11900D01*
X4400Y-11600D02*
Y-11100D01*
X4650D01*
X4733Y-11183D01*
Y-11350D01*
X4650Y-11433D01*
X4400D01*
X4567D02*
X4733Y-11600D01*
X4900D02*
X5066D01*
X4983D01*
Y-11100D01*
X4900Y-11183D01*
X5650Y-11600D02*
X5316D01*
X5650Y-11267D01*
Y-11183D01*
X5566Y-11100D01*
X5400D01*
X5316Y-11183D01*
X4600Y-17200D02*
Y-16700D01*
X4850D01*
X4933Y-16783D01*
Y-16950D01*
X4850Y-17033D01*
X4600D01*
X4767D02*
X4933Y-17200D01*
X5100D02*
X5266D01*
X5183D01*
Y-16700D01*
X5100Y-16783D01*
X5516Y-17200D02*
X5683D01*
X5600D01*
Y-16700D01*
X5516Y-16783D01*
X8450Y-3050D02*
Y-2550D01*
X8700D01*
X8783Y-2633D01*
Y-2800D01*
X8700Y-2883D01*
X8450D01*
X8617D02*
X8783Y-3050D01*
X9283D02*
X8950D01*
X9283Y-2717D01*
Y-2633D01*
X9200Y-2550D01*
X9033D01*
X8950Y-2633D01*
X9450Y-3050D02*
X9616D01*
X9533D01*
Y-2550D01*
X9450Y-2633D01*
X4600Y-18700D02*
Y-18200D01*
X4850D01*
X4933Y-18283D01*
Y-18450D01*
X4850Y-18533D01*
X4600D01*
X4767D02*
X4933Y-18700D01*
X5100D02*
X5266D01*
X5183D01*
Y-18200D01*
X5100Y-18283D01*
X5516D02*
X5600Y-18200D01*
X5766D01*
X5850Y-18283D01*
Y-18367D01*
X5766Y-18450D01*
X5683D01*
X5766D01*
X5850Y-18533D01*
Y-18617D01*
X5766Y-18700D01*
X5600D01*
X5516Y-18617D01*
X8633Y4967D02*
X8550Y5050D01*
X8383D01*
X8300Y4967D01*
Y4633D01*
X8383Y4550D01*
X8550D01*
X8633Y4633D01*
X8800Y4550D02*
X8966D01*
X8883D01*
Y5050D01*
X8800Y4967D01*
X9550Y5050D02*
X9216D01*
Y4800D01*
X9383Y4883D01*
X9466D01*
X9550Y4800D01*
Y4633D01*
X9466Y4550D01*
X9300D01*
X9216Y4633D01*
X47650Y-16250D02*
Y-15750D01*
X47900D01*
X47983Y-15833D01*
Y-16000D01*
X47900Y-16083D01*
X47650D01*
X47817D02*
X47983Y-16250D01*
X48400D02*
Y-15750D01*
X48150Y-16000D01*
X48483D01*
X44700Y11900D02*
X44200D01*
Y12150D01*
X44283Y12233D01*
X44450D01*
X44533Y12150D01*
Y11900D01*
Y12067D02*
X44700Y12233D01*
X44283Y12400D02*
X44200Y12483D01*
Y12650D01*
X44283Y12733D01*
X44367D01*
X44450Y12650D01*
Y12566D01*
Y12650D01*
X44533Y12733D01*
X44617D01*
X44700Y12650D01*
Y12483D01*
X44617Y12400D01*
X19800Y17900D02*
Y18400D01*
X20050D01*
X20133Y18317D01*
Y18150D01*
X20050Y18067D01*
X19800D01*
X19967D02*
X20133Y17900D01*
X20633D02*
X20300D01*
X20633Y18233D01*
Y18317D01*
X20550Y18400D01*
X20383D01*
X20300Y18317D01*
X25617Y10267D02*
X25700Y10350D01*
Y10517D01*
X25617Y10600D01*
X25283D01*
X25200Y10517D01*
Y10350D01*
X25283Y10267D01*
X25700Y9767D02*
Y10100D01*
X25450D01*
X25533Y9934D01*
Y9850D01*
X25450Y9767D01*
X25283D01*
X25200Y9850D01*
Y10017D01*
X25283Y10100D01*
X25617Y5467D02*
X25700Y5550D01*
Y5717D01*
X25617Y5800D01*
X25283D01*
X25200Y5717D01*
Y5550D01*
X25283Y5467D01*
X25200Y4967D02*
Y5300D01*
X25533Y4967D01*
X25617D01*
X25700Y5050D01*
Y5217D01*
X25617Y5300D01*
X25200Y4800D02*
Y4634D01*
Y4717D01*
X25700D01*
X25617Y4800D01*
X7167Y-11508D02*
Y-11142D01*
X7075Y-11050D01*
X6892D01*
X6800Y-11142D01*
Y-11508D01*
X6892Y-11600D01*
X7075D01*
X6983Y-11417D02*
X7167Y-11600D01*
X7075D02*
X7167Y-11508D01*
X7350Y-11600D02*
X7533D01*
X7441D01*
Y-11050D01*
X7350Y-11142D01*
X7067Y-10608D02*
Y-10242D01*
X6975Y-10150D01*
X6792D01*
X6700Y-10242D01*
Y-10608D01*
X6792Y-10700D01*
X6975D01*
X6883Y-10517D02*
X7067Y-10700D01*
X6975D02*
X7067Y-10608D01*
X7616Y-10700D02*
X7250D01*
X7616Y-10333D01*
Y-10242D01*
X7525Y-10150D01*
X7341D01*
X7250Y-10242D01*
X7167Y-17408D02*
Y-17042D01*
X7075Y-16950D01*
X6892D01*
X6800Y-17042D01*
Y-17408D01*
X6892Y-17500D01*
X7075D01*
X6983Y-17317D02*
X7167Y-17500D01*
X7075D02*
X7167Y-17408D01*
X7350Y-17042D02*
X7441Y-16950D01*
X7625D01*
X7716Y-17042D01*
Y-17133D01*
X7625Y-17225D01*
X7533D01*
X7625D01*
X7716Y-17317D01*
Y-17408D01*
X7625Y-17500D01*
X7441D01*
X7350Y-17408D01*
X48286Y16800D02*
Y16314D01*
X48314Y16229D01*
X48371Y16200D01*
X48429D01*
X48200Y16600D02*
X48400D01*
X48657D02*
X48600Y16571D01*
X48543Y16514D01*
X48514Y16429D01*
Y16371D01*
X48543Y16286D01*
X48600Y16229D01*
X48657Y16200D01*
X48743D01*
X48800Y16229D01*
X48857Y16286D01*
X48886Y16371D01*
Y16429D01*
X48857Y16514D01*
X48800Y16571D01*
X48743Y16600D01*
X48657D01*
X49017D02*
Y16200D01*
Y16486D02*
X49103Y16571D01*
X49160Y16600D01*
X49245D01*
X49303Y16571D01*
X49331Y16486D01*
Y16200D01*
Y16486D02*
X49417Y16571D01*
X49474Y16600D01*
X49560D01*
X49617Y16571D01*
X49645Y16486D01*
Y16200D01*
X50177Y16514D02*
X50120Y16571D01*
X50062Y16600D01*
X49977D01*
X49920Y16571D01*
X49862Y16514D01*
X49834Y16429D01*
Y16371D01*
X49862Y16286D01*
X49920Y16229D01*
X49977Y16200D01*
X50062D01*
X50120Y16229D01*
X50177Y16286D01*
X50362Y16800D02*
X50391Y16771D01*
X50420Y16800D01*
X50391Y16828D01*
X50362Y16800D01*
X50391Y16600D02*
Y16200D01*
X50525Y16600D02*
Y16200D01*
Y16429D02*
X50554Y16514D01*
X50611Y16571D01*
X50668Y16600D01*
X50754D01*
X51151Y16514D02*
X51094Y16571D01*
X51037Y16600D01*
X50951D01*
X50894Y16571D01*
X50837Y16514D01*
X50808Y16429D01*
Y16371D01*
X50837Y16286D01*
X50894Y16229D01*
X50951Y16200D01*
X51037D01*
X51094Y16229D01*
X51151Y16286D01*
X51279Y16600D02*
Y16314D01*
X51308Y16229D01*
X51365Y16200D01*
X51451D01*
X51508Y16229D01*
X51594Y16314D01*
Y16600D02*
Y16200D01*
X51808Y16800D02*
X51836Y16771D01*
X51865Y16800D01*
X51836Y16828D01*
X51808Y16800D01*
X51836Y16600D02*
Y16200D01*
X52056Y16800D02*
Y16314D01*
X52085Y16229D01*
X52142Y16200D01*
X52199D01*
X51971Y16600D02*
X52171D01*
X52756Y16686D02*
X52813Y16714D01*
X52899Y16800D01*
Y16200D01*
X53225Y16657D02*
Y16686D01*
X53253Y16743D01*
X53282Y16771D01*
X53339Y16800D01*
X53453D01*
X53510Y16771D01*
X53539Y16743D01*
X53567Y16686D01*
Y16628D01*
X53539Y16571D01*
X53482Y16486D01*
X53196Y16200D01*
X53596D01*
X53730Y16114D02*
X54130Y16800D01*
X54199Y16657D02*
Y16686D01*
X54227Y16743D01*
X54256Y16771D01*
X54313Y16800D01*
X54427D01*
X54484Y16771D01*
X54513Y16743D01*
X54542Y16686D01*
Y16628D01*
X54513Y16571D01*
X54456Y16486D01*
X54170Y16200D01*
X54570D01*
X54876Y16800D02*
X54790Y16771D01*
X54733Y16686D01*
X54704Y16543D01*
Y16457D01*
X54733Y16314D01*
X54790Y16229D01*
X54876Y16200D01*
X54933D01*
X55019Y16229D01*
X55076Y16314D01*
X55104Y16457D01*
Y16543D01*
X55076Y16686D01*
X55019Y16771D01*
X54933Y16800D01*
X54876D01*
X55238Y16686D02*
X55296Y16714D01*
X55381Y16800D01*
Y16200D01*
X55736Y16800D02*
X56050D01*
X55878Y16571D01*
X55964D01*
X56021Y16543D01*
X56050Y16514D01*
X56078Y16429D01*
Y16371D01*
X56050Y16286D01*
X55993Y16229D01*
X55907Y16200D01*
X55821D01*
X55736Y16229D01*
X55707Y16257D01*
X55678Y16314D01*
X12219Y14806D02*
Y14273D01*
X12485Y14540D02*
X11952D01*
D11*
X-200Y-12400D02*
X-299Y-12408D01*
X-395Y-12433D01*
X-486Y-12472D01*
X-569Y-12527D01*
X-641Y-12594D01*
X-702Y-12672D01*
X-749Y-12759D01*
X-782Y-12853D01*
X-798Y-12950D01*
Y-13050D01*
X-782Y-13147D01*
X-749Y-13241D01*
X-702Y-13328D01*
X-641Y-13406D01*
X-569Y-13473D01*
X-486Y-13528D01*
X-395Y-13567D01*
X-299Y-13592D01*
X-200Y-13600D01*
X-200Y-14900D02*
X-299Y-14908D01*
X-395Y-14933D01*
X-486Y-14972D01*
X-569Y-15027D01*
X-641Y-15094D01*
X-702Y-15172D01*
X-749Y-15259D01*
X-782Y-15353D01*
X-798Y-15450D01*
Y-15550D01*
X-782Y-15647D01*
X-749Y-15741D01*
X-702Y-15828D01*
X-641Y-15906D01*
X-569Y-15973D01*
X-486Y-16028D01*
X-395Y-16067D01*
X-299Y-16092D01*
X-200Y-16100D01*
X7250Y6000D02*
X7250Y6500D01*
X6000Y6500D02*
X6000Y6000D01*
X0Y16772D02*
X5669Y16772D01*
X0Y13228D02*
X5669Y13228D01*
Y16772D01*
X0Y13228D02*
Y16772D01*
X914Y9057D02*
Y11971D01*
X3414Y9057D02*
Y11971D01*
X-602Y9806D02*
Y11223D01*
X934Y9057D02*
X2115D01*
X-602Y9806D02*
X914Y9806D01*
X-602Y11223D02*
X914Y11223D01*
X934Y11971D02*
X2115D01*
X7750Y2000D02*
X9900Y2000D01*
X7750Y600D02*
X9900Y600D01*
X7750Y600D02*
X7750Y2000D01*
X9900Y600D02*
X9900Y2000D01*
X-200Y-13600D02*
X200D01*
X-200Y-12400D02*
X200D01*
Y-14000D02*
X3800D01*
Y-12000D01*
X200D02*
X3800D01*
X200Y-14000D02*
Y-12000D01*
X7250Y10500D02*
X7250Y11000D01*
X6000Y11000D02*
X6000Y10500D01*
X200Y-16500D02*
Y-14500D01*
X3800D01*
Y-16500D02*
Y-14500D01*
X200Y-16500D02*
X3800D01*
X-200Y-14900D02*
X200D01*
X-200Y-16100D02*
X200D01*
X934Y7471D02*
X2115D01*
X-602Y6723D02*
X914D01*
X-602Y5306D02*
X914D01*
X934Y4557D02*
X2115D01*
X-602Y5306D02*
Y6723D01*
X3414Y4557D02*
Y7471D01*
X914Y4557D02*
Y7471D01*
X9100Y8600D02*
Y9050D01*
X9325D01*
X9400Y8975D01*
Y8825D01*
X9325Y8750D01*
X9100D01*
X9250D02*
X9400Y8600D01*
X9550Y9050D02*
X9850D01*
X9700D01*
Y8600D01*
X10300Y8975D02*
X10225Y9050D01*
X10075D01*
X10000Y8975D01*
Y8675D01*
X10075Y8600D01*
X10225D01*
X10300Y8675D01*
X10899Y9050D02*
Y8600D01*
X11124D01*
X11199Y8675D01*
Y8750D01*
X11124Y8825D01*
X10899D01*
X11124D01*
X11199Y8900D01*
Y8975D01*
X11124Y9050D01*
X10899D01*
X11349Y8600D02*
Y8900D01*
X11499Y9050D01*
X11649Y8900D01*
Y8600D01*
Y8825D01*
X11349D01*
X11799Y9050D02*
X12099D01*
X11949D01*
Y8600D01*
X12249Y9050D02*
X12549D01*
X12399D01*
Y8600D01*
X7500Y-4150D02*
Y-4567D01*
X7583Y-4650D01*
X7750D01*
X7833Y-4567D01*
Y-4150D01*
X8333Y-4233D02*
X8250Y-4150D01*
X8083D01*
X8000Y-4233D01*
Y-4317D01*
X8083Y-4400D01*
X8250D01*
X8333Y-4483D01*
Y-4567D01*
X8250Y-4650D01*
X8083D01*
X8000Y-4567D01*
X8500Y-4150D02*
Y-4650D01*
X8750D01*
X8833Y-4567D01*
Y-4483D01*
X8750Y-4400D01*
X8500D01*
X8750D01*
X8833Y-4317D01*
Y-4233D01*
X8750Y-4150D01*
X8500D01*
X9499Y-4650D02*
Y-4150D01*
X9749D01*
X9833Y-4233D01*
Y-4400D01*
X9749Y-4483D01*
X9499D01*
X10249Y-4150D02*
X10082D01*
X9999Y-4233D01*
Y-4567D01*
X10082Y-4650D01*
X10249D01*
X10332Y-4567D01*
Y-4233D01*
X10249Y-4150D01*
X10499D02*
Y-4650D01*
X10666Y-4483D01*
X10832Y-4650D01*
Y-4150D01*
X11332D02*
X10999D01*
Y-4650D01*
X11332D01*
X10999Y-4400D02*
X11165D01*
X11499Y-4650D02*
Y-4150D01*
X11749D01*
X11832Y-4233D01*
Y-4400D01*
X11749Y-4483D01*
X11499D01*
X11665D02*
X11832Y-4650D01*
X9000Y11000D02*
Y11500D01*
X9250D01*
X9333Y11417D01*
Y11250D01*
X9250Y11167D01*
X9000D01*
X9167D02*
X9333Y11000D01*
X9833Y11500D02*
X9500D01*
Y11000D01*
X9833D01*
X9500Y11250D02*
X9666D01*
X10333Y11417D02*
X10250Y11500D01*
X10083D01*
X10000Y11417D01*
Y11333D01*
X10083Y11250D01*
X10250D01*
X10333Y11167D01*
Y11083D01*
X10250Y11000D01*
X10083D01*
X10000Y11083D01*
X10833Y11500D02*
X10500D01*
Y11000D01*
X10833D01*
X10500Y11250D02*
X10666D01*
X10999Y11500D02*
X11333D01*
X11166D01*
Y11000D01*
D12*
X15500Y11500D02*
X24500D01*
Y15500D01*
X15500D02*
X24500D01*
X15500Y13750D02*
X15500Y15500D01*
X15500Y13250D02*
X15500Y11500D01*
X41500Y-1500D02*
Y5500D01*
X27500D02*
X41500D01*
X27500D02*
X27500Y2250D01*
X27500Y-1500D02*
X27500Y1750D01*
X27500Y-1500D02*
X41500D01*
X300Y-5000D02*
X5300D01*
X300Y-10000D02*
X5300D01*
X300D02*
X300Y-5000D01*
X5300Y-10000D02*
Y-7750D01*
X5300Y-7250D02*
Y-5000D01*
X6600Y13350D02*
Y14300D01*
X8000Y14300D02*
X8000Y13350D01*
X6600Y15850D02*
Y16600D01*
X8000Y15850D02*
Y16600D01*
X6600Y13350D02*
X8000D01*
X6850Y16850D02*
X7750D01*
X8000Y16600D01*
X6600D02*
X6850Y16850D01*
X10400Y12780D02*
X10850D01*
X10400Y11630D02*
X10850D01*
Y12580D02*
Y12780D01*
X9950Y12180D02*
Y12230D01*
X10850Y11630D02*
X10850Y11830D01*
X10321Y13940D02*
X10824D01*
X11099Y14216D01*
X8776Y13940D02*
X9297D01*
X8501Y14216D02*
X8776Y13940D01*
X11099Y14216D02*
Y16539D01*
X8501Y14216D02*
Y16539D01*
X10312Y16539D02*
X11099Y16539D01*
X8501D02*
X9288Y16539D01*
X25650Y14250D02*
X25650Y14700D01*
X26350Y14250D02*
Y14700D01*
X26350Y15500D02*
X26350Y15000D01*
X25650Y15500D02*
X25650Y15000D01*
X25650Y14250D02*
X26350Y14250D01*
X25650Y15500D02*
X26350Y15500D01*
X45850Y10550D02*
Y11300D01*
X44950Y10550D02*
Y11300D01*
Y9400D02*
Y10150D01*
X45850Y9400D02*
Y10150D01*
X44950Y11300D02*
X45850D01*
X44950Y9400D02*
X45850Y9400D01*
X7700Y10750D02*
Y11750D01*
X8700D01*
X7700Y10750D02*
X8700D01*
Y11750D01*
X48000Y7420D02*
X48600D01*
X48000D02*
X48000Y6820D01*
X54250Y7420D02*
X54850D01*
Y6820D02*
Y7420D01*
X54250Y570D02*
X54850D01*
Y1170D01*
X48000Y770D02*
X48200Y570D01*
X48600D01*
X48000Y1170D02*
X48000Y770D01*
X11550Y12550D02*
X12000Y12550D01*
X11550Y11850D02*
X12000Y11850D01*
X12300D02*
X12800Y11850D01*
X12300Y12550D02*
X12800D01*
X11550Y11850D02*
X11550Y12550D01*
X12800Y11850D02*
X12800Y12550D01*
X14900Y6550D02*
X14900Y7450D01*
X13000Y6550D02*
Y7450D01*
X14150D02*
X14900D01*
X14150Y6550D02*
X14900D01*
X13000D02*
X13750D01*
X13000Y7450D02*
X13750D01*
X48000Y-6080D02*
X48600D01*
X48000D02*
X48000Y-6680D01*
X54250Y-6080D02*
X54850D01*
Y-6680D02*
Y-6080D01*
X54250Y-12930D02*
X54850D01*
Y-12330D01*
X48000Y-12730D02*
X48200Y-12930D01*
X48600D01*
X48000Y-12330D02*
X48000Y-12730D01*
X8200Y-2050D02*
X8200Y-1150D01*
X6300Y-2050D02*
Y-1150D01*
X7450D02*
X8200D01*
X7450Y-2050D02*
X8200D01*
X6300D02*
X7050D01*
X6300Y-1150D02*
X7050D01*
X18650Y5150D02*
Y5900D01*
X17750Y5150D02*
Y5900D01*
Y4000D02*
Y4750D01*
X18650Y4000D02*
X18650Y4750D01*
X17750Y5900D02*
X18650D01*
X17750Y4000D02*
X18650Y4000D01*
X22050Y5150D02*
X22050Y5900D01*
X21150Y5150D02*
Y5900D01*
X21150Y4000D02*
Y4750D01*
X22050Y4000D02*
X22050Y4750D01*
X21150Y5900D02*
X22050Y5900D01*
X21150Y4000D02*
X22050Y4000D01*
X20850Y5150D02*
Y5900D01*
X19950Y5900D02*
X19950Y5150D01*
X19950Y4000D02*
Y4750D01*
X20850Y4000D02*
X20850Y4750D01*
X19950Y5900D02*
X20850Y5900D01*
X19950Y4000D02*
X20850Y4000D01*
X23250Y5150D02*
Y5900D01*
X22350Y5150D02*
Y5900D01*
Y4000D02*
Y4750D01*
X23250Y4000D02*
Y4750D01*
X22350Y5900D02*
X23250D01*
X22350Y4000D02*
X23250D01*
X12350Y-17450D02*
X13100D01*
X12350Y-16550D02*
X13100D01*
X11200D02*
X11950D01*
X11200Y-17450D02*
X11950D01*
X13100D02*
Y-16550D01*
X11200Y-17450D02*
X11200Y-16550D01*
X3700Y10500D02*
X4450D01*
X3700Y9600D02*
X4450D01*
X4850D02*
X5600D01*
X4850Y10500D02*
X5600D01*
X3700Y9600D02*
Y10500D01*
X5600Y9600D02*
Y10500D01*
X3700Y6050D02*
X4450D01*
X3700Y5150D02*
X4450D01*
X4850D02*
X5600D01*
X4850Y6050D02*
X5600D01*
X3700Y5150D02*
Y6050D01*
X5600Y5150D02*
Y6050D01*
X3700Y7250D02*
X4450D01*
X3700Y6350D02*
X4450D01*
X4850D02*
X5600D01*
X4850Y7250D02*
X5600D01*
X3700Y6350D02*
Y7250D01*
X5600Y6350D02*
Y7250D01*
X6300Y-5150D02*
X7050D01*
X6300Y-6050D02*
X7050D01*
X7450D02*
X8200D01*
X7450Y-5150D02*
X8200D01*
X6300Y-6050D02*
Y-5150D01*
X8200Y-6050D02*
X8200Y-5150D01*
X6000Y2750D02*
X6000Y3650D01*
X4100Y2750D02*
Y3650D01*
X5250D02*
X6000D01*
X5250Y2750D02*
X6000D01*
X4100D02*
X4850D01*
X4100Y3650D02*
X4850D01*
X3700Y11750D02*
X4450D01*
X3700Y10850D02*
X4450D01*
X4850D02*
X5600D01*
X4850Y11750D02*
X5600D01*
X3700Y10850D02*
Y11750D01*
X5600Y10850D02*
X5600Y11750D01*
X11701Y16539D02*
X12488D01*
X13512D02*
X14299D01*
X11701Y14216D02*
Y16539D01*
X14299D02*
X14299Y14216D01*
X11701Y14216D02*
X11976Y13940D01*
X12497D01*
X14024Y13940D02*
X14299Y14216D01*
X13521Y13940D02*
X14024D01*
X4100Y50D02*
X4850D01*
X4100Y-850D02*
X4850D01*
X5250D02*
X6000D01*
X5250Y50D02*
X6000D01*
X4100Y-850D02*
Y50D01*
X6000Y-850D02*
X6000Y50D01*
X4100Y1250D02*
X4850D01*
X4100Y350D02*
X4850D01*
X5250D02*
X6000D01*
X5250Y1250D02*
X6000D01*
X4100Y350D02*
Y1250D01*
X6000Y350D02*
X6000Y1250D01*
X4100Y2450D02*
X4850D01*
X4100Y1550D02*
X4850D01*
X5250D02*
X6000D01*
X5250Y2450D02*
X6000D01*
X4100Y1550D02*
Y2450D01*
X6000Y1550D02*
X6000Y2450D01*
X7450Y-3250D02*
X8200D01*
X7450Y-2350D02*
X8200D01*
X6300D02*
X7050D01*
X6300Y-3250D02*
X7050D01*
X8200D02*
Y-2350D01*
X6300Y-3250D02*
X6300Y-2350D01*
X5350Y-12850D02*
X6100D01*
X5350Y-11950D02*
X6100D01*
X4200D02*
X4950D01*
X4200Y-12850D02*
X4950D01*
X6100D02*
Y-11950D01*
X4200Y-12850D02*
X4200Y-11950D01*
X5350Y-14050D02*
X6100D01*
X5350Y-13150D02*
X6100D01*
X4200D02*
X4950D01*
X4200Y-14050D02*
X4950D01*
X6100D02*
Y-13150D01*
X4200Y-14050D02*
X4200Y-13150D01*
X5350Y-15250D02*
X6100D01*
X5350Y-14350D02*
X6100D01*
X4200D02*
X4950D01*
X4200Y-15250D02*
X4950D01*
X6100D02*
Y-14350D01*
X4200Y-15250D02*
X4200Y-14350D01*
X5350Y-16450D02*
X6100D01*
X5350Y-15550D02*
X6100D01*
X4200D02*
X4950D01*
X4200Y-16450D02*
X4950D01*
X6100D02*
Y-15550D01*
X4200Y-16450D02*
X4200Y-15550D01*
X8300Y3650D02*
X8300Y4350D01*
X9550Y4350D02*
X9550Y3650D01*
X8300Y3650D02*
X8800Y3650D01*
X8300Y4350D02*
X8800Y4350D01*
X9100Y4350D02*
X9550Y4350D01*
X9100Y3650D02*
X9550Y3650D01*
X26550Y10750D02*
X26550Y10300D01*
X25850Y10300D02*
X25850Y10750D01*
X25850Y9500D02*
X25850Y10000D01*
X26550Y9500D02*
X26550Y10000D01*
X25850Y10750D02*
X26550D01*
X25850Y9500D02*
X26550Y9500D01*
X25850Y4650D02*
X25850Y5100D01*
X26550D02*
X26550Y4650D01*
X26550Y5400D02*
Y5900D01*
X25850Y5400D02*
X25850Y5900D01*
X25850Y4650D02*
X26550D01*
X25850Y5900D02*
X26550Y5900D01*
X21200Y16750D02*
Y17650D01*
X19300D02*
X19300Y16750D01*
X20450Y17650D02*
X21200D01*
X20450Y16750D02*
X21200D01*
X19300D02*
X20050D01*
X19300Y17650D02*
X20050D01*
X44950Y11600D02*
X45850D01*
X44950Y13500D02*
X45850Y13500D01*
Y11600D02*
Y12350D01*
X44950Y11600D02*
Y12350D01*
Y12750D02*
Y13500D01*
X45850Y12750D02*
Y13500D01*
X49000Y-15450D02*
Y-14550D01*
X47100D02*
X47100Y-15450D01*
X48250Y-14550D02*
X49000D01*
X48250Y-15450D02*
X49000D01*
X47100D02*
X47850D01*
X47100Y-14550D02*
X47850D01*
X6750Y-16580D02*
X7200D01*
X6750Y-15630D02*
Y-15430D01*
X7650Y-16030D02*
Y-15980D01*
X6750Y-16580D02*
Y-16380D01*
Y-15430D02*
X7200D01*
X6750Y-14380D02*
X7200D01*
X6750Y-13430D02*
Y-13230D01*
X7650Y-13830D02*
Y-13780D01*
X6750Y-14380D02*
Y-14180D01*
Y-13230D02*
X7200D01*
X6750Y-12980D02*
X7200D01*
X6750Y-12030D02*
Y-11830D01*
X7650Y-12430D02*
Y-12380D01*
X6750Y-12980D02*
Y-12780D01*
Y-11830D02*
X7200D01*
X18800Y15700D02*
Y16300D01*
X19100D01*
X19200Y16200D01*
Y16000D01*
X19100Y15900D01*
X18800D01*
X19000D02*
X19200Y15700D01*
X19400Y16300D02*
X19800D01*
X19600D01*
Y15700D01*
X20399Y16200D02*
X20300Y16300D01*
X20100D01*
X20000Y16200D01*
Y15800D01*
X20100Y15700D01*
X20300D01*
X20399Y15800D01*
X20599Y16300D02*
X20999D01*
Y16200D01*
X20599Y15800D01*
Y15700D01*
X21199Y16200D02*
X21299Y16300D01*
X21499D01*
X21599Y16200D01*
Y16100D01*
X21499Y16000D01*
X21399D01*
X21499D01*
X21599Y15900D01*
Y15800D01*
X21499Y15700D01*
X21299D01*
X21199Y15800D01*
X21799Y16200D02*
X21899Y16300D01*
X22099D01*
X22199Y16200D01*
Y15800D01*
X22099Y15700D01*
X21899D01*
X21799Y15800D01*
Y16200D01*
X22399Y15700D02*
X22599D01*
X22499D01*
Y16300D01*
X22399Y16200D01*
X22899Y16300D02*
Y15700D01*
X23199D01*
X23299Y15800D01*
Y16200D01*
X23199Y16300D01*
X22899D01*
X23898Y16200D02*
X23798Y16300D01*
X23598D01*
X23498Y16200D01*
Y15800D01*
X23598Y15700D01*
X23798D01*
X23898Y15800D01*
Y16000D01*
X23698D01*
X42200Y7450D02*
X42100Y7550D01*
Y7750D01*
X42200Y7850D01*
X42300D01*
X42400Y7750D01*
Y7650D01*
Y7750D01*
X42500Y7850D01*
X42600D01*
X42700Y7750D01*
Y7550D01*
X42600Y7450D01*
X42700Y8450D02*
Y8050D01*
X42300Y8450D01*
X42200D01*
X42100Y8350D01*
Y8150D01*
X42200Y8050D01*
X42100Y8650D02*
X42700D01*
X42500D01*
X42100Y9049D01*
X42400Y8750D01*
X42700Y9049D01*
X42200Y10249D02*
X42100Y10149D01*
Y9949D01*
X42200Y9849D01*
X42300D01*
X42400Y9949D01*
Y10149D01*
X42500Y10249D01*
X42600D01*
X42700Y10149D01*
Y9949D01*
X42600Y9849D01*
X42700Y10449D02*
X42100D01*
Y10749D01*
X42200Y10849D01*
X42400D01*
X42500Y10749D01*
Y10449D01*
Y10649D02*
X42700Y10849D01*
Y11049D02*
X42300D01*
X42100Y11249D01*
X42300Y11449D01*
X42700D01*
X42400D01*
Y11049D01*
X42700Y11649D02*
X42100D01*
X42300Y11849D01*
X42100Y12049D01*
X42700D01*
Y13048D02*
X42500Y12848D01*
X42300D01*
X42100Y13048D01*
X42300Y13348D02*
X42700Y13748D01*
X42500Y13548D01*
X42300Y13748D01*
X42700Y13348D01*
Y14348D02*
Y13948D01*
X42300Y14348D01*
X42200D01*
X42100Y14248D01*
Y14048D01*
X42200Y13948D01*
X42700Y14548D02*
X42500Y14748D01*
X42300D01*
X42100Y14548D01*
X42700Y421D02*
Y21D01*
X42300Y421D01*
X42200D01*
X42100Y321D01*
Y121D01*
X42200Y21D01*
X42100Y621D02*
Y1020D01*
X42200D01*
X42600Y621D01*
X42700D01*
X42200Y1620D02*
X42100Y1520D01*
Y1320D01*
X42200Y1220D01*
X42600D01*
X42700Y1320D01*
Y1520D01*
X42600Y1620D01*
X42700Y2220D02*
Y1820D01*
X42300Y2220D01*
X42200D01*
X42100Y2120D01*
Y1920D01*
X42200Y1820D01*
X42100Y2820D02*
Y2420D01*
X42400D01*
X42300Y2620D01*
Y2720D01*
X42400Y2820D01*
X42600D01*
X42700Y2720D01*
Y2520D01*
X42600Y2420D01*
X42100Y3420D02*
X42200Y3220D01*
X42400Y3020D01*
X42600D01*
X42700Y3120D01*
Y3320D01*
X42600Y3420D01*
X42500D01*
X42400Y3320D01*
Y3020D01*
X21250Y1200D02*
X21050D01*
X21150D01*
Y700D01*
X21050Y600D01*
X20950D01*
X20850Y700D01*
X21450Y1200D02*
X21850D01*
X21650D01*
Y600D01*
X22050D02*
Y1000D01*
X22250Y1200D01*
X22449Y1000D01*
Y600D01*
Y900D01*
X22050D01*
X23049Y1100D02*
X22949Y1200D01*
X22749D01*
X22649Y1100D01*
Y700D01*
X22749Y600D01*
X22949D01*
X23049Y700D01*
Y900D01*
X22849D01*
X11650Y-3160D02*
X11550Y-3260D01*
Y-3460D01*
X11650Y-3560D01*
X12050D01*
X12150Y-3460D01*
Y-3260D01*
X12050Y-3160D01*
X11850D01*
Y-3360D01*
X12150Y-2960D02*
X11550D01*
X12150Y-2560D01*
X11550D01*
Y-2360D02*
X12150D01*
Y-2060D01*
X12050Y-1961D01*
X11650D01*
X11550Y-2060D01*
Y-2360D01*
X9200Y9700D02*
X9667D01*
X9433Y9933D02*
Y9467D01*
D13*
X-2800Y-2362D02*
Y2362D01*
Y-2362D02*
X3696D01*
Y2362D01*
X-2800D02*
X3696D01*
D14*
X58500Y12100D02*
X58600Y12200D01*
Y12400D01*
X58500Y12500D01*
X58100D01*
X58000Y12400D01*
Y12200D01*
X58100Y12100D01*
X58600Y11900D02*
Y11700D01*
Y11800D01*
X58000D01*
Y11900D01*
Y11700D01*
X58600Y11100D02*
Y11300D01*
X58500Y11400D01*
X58100D01*
X58000Y11300D01*
Y11100D01*
X58100Y11000D01*
X58500D01*
X58600Y11100D01*
X58000Y10201D02*
X58600D01*
Y9901D01*
X58500Y9801D01*
X58300D01*
X58200Y9901D01*
Y10201D01*
X58600Y9301D02*
Y9501D01*
X58500Y9601D01*
X58100D01*
X58000Y9501D01*
Y9301D01*
X58100Y9201D01*
X58500D01*
X58600Y9301D01*
X58000Y9001D02*
X58600D01*
Y8701D01*
X58500Y8601D01*
X58300D01*
X58200Y8701D01*
Y9001D01*
Y8801D02*
X58000Y8601D01*
X58600Y8401D02*
Y8001D01*
Y8201D01*
X58000D01*
Y7202D02*
X58400D01*
X58600Y7002D01*
X58400Y6802D01*
X58000D01*
X58300D01*
Y7202D01*
X58500Y-12500D02*
X58600Y-12400D01*
Y-12200D01*
X58500Y-12100D01*
X58400D01*
X58300Y-12200D01*
Y-12400D01*
X58200Y-12500D01*
X58100D01*
X58000Y-12400D01*
Y-12200D01*
X58100Y-12100D01*
X58500Y-13100D02*
X58600Y-13000D01*
Y-12800D01*
X58500Y-12700D01*
X58100D01*
X58000Y-12800D01*
Y-13000D01*
X58100Y-13100D01*
X58500Y-13699D02*
X58600Y-13600D01*
Y-13400D01*
X58500Y-13300D01*
X58100D01*
X58000Y-13400D01*
Y-13600D01*
X58100Y-13699D01*
X58000Y-13899D02*
X58100D01*
Y-13999D01*
X58000D01*
Y-13899D01*
X58600Y-14399D02*
X58000D01*
Y-14699D01*
X58100Y-14799D01*
X58200D01*
X58300Y-14699D01*
Y-14399D01*
Y-14699D01*
X58400Y-14799D01*
X58500D01*
X58600Y-14699D01*
Y-14399D01*
X58300Y0D02*
X58400Y100D01*
Y300D01*
X58300Y400D01*
X57900D01*
X57800Y300D01*
Y100D01*
X57900Y0D01*
X58400Y-200D02*
Y-400D01*
Y-300D01*
X57800D01*
Y-200D01*
Y-400D01*
X58400Y-1000D02*
Y-800D01*
X58300Y-700D01*
X57900D01*
X57800Y-800D01*
Y-1000D01*
X57900Y-1100D01*
X58300D01*
X58400Y-1000D01*
X57800Y-1899D02*
X58400D01*
Y-2199D01*
X58300Y-2299D01*
X58100D01*
X58000Y-2199D01*
Y-1899D01*
X58400Y-2799D02*
Y-2599D01*
X58300Y-2499D01*
X57900D01*
X57800Y-2599D01*
Y-2799D01*
X57900Y-2899D01*
X58300D01*
X58400Y-2799D01*
X57800Y-3099D02*
X58400D01*
Y-3399D01*
X58300Y-3499D01*
X58100D01*
X58000Y-3399D01*
Y-3099D01*
Y-3299D02*
X57800Y-3499D01*
X58400Y-3699D02*
Y-4099D01*
Y-3899D01*
X57800D01*
X58400Y-4898D02*
X57800D01*
Y-5198D01*
X57900Y-5298D01*
X58000D01*
X58100Y-5198D01*
Y-4898D01*
Y-5198D01*
X58200Y-5298D01*
X58300D01*
X58400Y-5198D01*
Y-4898D01*
X46600Y18300D02*
Y17400D01*
X47200Y18300D02*
Y17400D01*
X46600Y17871D02*
X47200D01*
X47448Y18300D02*
Y17400D01*
Y18300D02*
X47748D01*
X47877Y18257D01*
X47963Y18171D01*
X48005Y18086D01*
X48048Y17957D01*
Y17743D01*
X48005Y17614D01*
X47963Y17529D01*
X47877Y17443D01*
X47748Y17400D01*
X47448D01*
X48764Y18171D02*
X48721Y18257D01*
X48592Y18300D01*
X48507D01*
X48378Y18257D01*
X48292Y18128D01*
X48250Y17914D01*
Y17700D01*
X48292Y17529D01*
X48378Y17443D01*
X48507Y17400D01*
X48550D01*
X48678Y17443D01*
X48764Y17529D01*
X48807Y17657D01*
Y17700D01*
X48764Y17828D01*
X48678Y17914D01*
X48550Y17957D01*
X48507D01*
X48378Y17914D01*
X48292Y17828D01*
X48250Y17700D01*
X49089Y18300D02*
X49561D01*
X49304Y17957D01*
X49432D01*
X49518Y17914D01*
X49561Y17871D01*
X49604Y17743D01*
Y17657D01*
X49561Y17529D01*
X49475Y17443D01*
X49347Y17400D01*
X49218D01*
X49089Y17443D01*
X49047Y17486D01*
X49004Y17571D01*
X50062Y18300D02*
X49934Y18257D01*
X49848Y18128D01*
X49805Y17914D01*
Y17786D01*
X49848Y17571D01*
X49934Y17443D01*
X50062Y17400D01*
X50148D01*
X50276Y17443D01*
X50362Y17571D01*
X50405Y17786D01*
Y17914D01*
X50362Y18128D01*
X50276Y18257D01*
X50148Y18300D01*
X50062D01*
X51163Y18000D02*
X51120Y17871D01*
X51035Y17786D01*
X50906Y17743D01*
X50863D01*
X50735Y17786D01*
X50649Y17871D01*
X50606Y18000D01*
Y18043D01*
X50649Y18171D01*
X50735Y18257D01*
X50863Y18300D01*
X50906D01*
X51035Y18257D01*
X51120Y18171D01*
X51163Y18000D01*
Y17786D01*
X51120Y17571D01*
X51035Y17443D01*
X50906Y17400D01*
X50821D01*
X50692Y17443D01*
X50649Y17529D01*
X52714Y18171D02*
X52629Y18257D01*
X52500Y18300D01*
X52329D01*
X52200Y18257D01*
X52115Y18171D01*
Y18086D01*
X52157Y18000D01*
X52200Y17957D01*
X52286Y17914D01*
X52543Y17828D01*
X52629Y17786D01*
X52672Y17743D01*
X52714Y17657D01*
Y17529D01*
X52629Y17443D01*
X52500Y17400D01*
X52329D01*
X52200Y17443D01*
X52115Y17529D01*
X52916Y18300D02*
Y17400D01*
Y18300D02*
X53301D01*
X53430Y18257D01*
X53473Y18214D01*
X53516Y18128D01*
Y18043D01*
X53473Y17957D01*
X53430Y17914D01*
X53301Y17871D01*
X52916D02*
X53301D01*
X53430Y17828D01*
X53473Y17786D01*
X53516Y17700D01*
Y17571D01*
X53473Y17486D01*
X53430Y17443D01*
X53301Y17400D01*
X52916D01*
X54360Y18086D02*
X54317Y18171D01*
X54231Y18257D01*
X54146Y18300D01*
X53974D01*
X53888Y18257D01*
X53803Y18171D01*
X53760Y18086D01*
X53717Y17957D01*
Y17743D01*
X53760Y17614D01*
X53803Y17529D01*
X53888Y17443D01*
X53974Y17400D01*
X54146D01*
X54231Y17443D01*
X54317Y17529D01*
X54360Y17614D01*
X55320Y18300D02*
X55662Y17400D01*
X56005Y18300D02*
X55662Y17400D01*
X56121Y18128D02*
X56207Y18171D01*
X56335Y18300D01*
Y17400D01*
X56824Y17486D02*
X56781Y17443D01*
X56824Y17400D01*
X56866Y17443D01*
X56824Y17486D01*
X57321Y18300D02*
X57192Y18257D01*
X57106Y18128D01*
X57063Y17914D01*
Y17786D01*
X57106Y17571D01*
X57192Y17443D01*
X57321Y17400D01*
X57406D01*
X57535Y17443D01*
X57621Y17571D01*
X57663Y17786D01*
Y17914D01*
X57621Y18128D01*
X57535Y18257D01*
X57406Y18300D01*
X57321D01*
D15*
X9600Y1700D02*
D03*
D16*
X61819Y-19700D02*
X63000D01*
X61819Y19700D02*
X63000D01*
X0Y19700D02*
X1181D01*
X0Y-19691D02*
X1181D01*
X63000Y-19700D02*
Y-18519D01*
X63000Y18519D02*
Y19700D01*
X0Y18519D02*
Y19700D01*
Y-19691D02*
Y-18510D01*
M02*
