%FSLAX24Y24*%
%MOIN*%
G70*
G01*
G75*
%ADD10C,0.0100*%
%ADD11R,0.0270X0.0550*%
%ADD12R,0.0240X0.0550*%
%ADD13R,0.0300X0.0900*%
%ADD14R,0.0300X0.1000*%
%ADD15R,0.0900X0.0300*%
%ADD16R,0.1000X0.0300*%
%ADD17R,0.1000X0.0750*%
%ADD18R,0.0160X0.0600*%
%ADD19R,0.0550X0.0400*%
%ADD20R,0.0400X0.0400*%
%ADD21R,0.0630X0.1417*%
%ADD22R,0.0500X0.0600*%
%ADD23O,0.1000X0.0300*%
%ADD24R,0.0600X0.0500*%
%ADD25C,0.0300*%
%ADD26C,0.0150*%
%ADD27C,0.0120*%
%ADD28C,0.0200*%
%ADD29C,0.0300*%
%ADD30C,0.0100*%
%ADD31C,0.0120*%
%ADD32O,0.0700X0.0900*%
%ADD33C,0.0800*%
%ADD34O,0.0500X0.0800*%
%ADD35R,0.0600X0.0800*%
%ADD36O,0.0600X0.0800*%
%ADD37C,0.0680*%
%ADD38C,0.1575*%
%ADD39R,0.0600X0.0600*%
%ADD40C,0.0600*%
%ADD41C,0.1500*%
%ADD42O,0.1000X0.1200*%
%ADD43O,0.0700X0.0800*%
%ADD44R,0.0700X0.0700*%
%ADD45C,0.0750*%
%ADD46C,0.0700*%
%ADD47O,0.0800X0.0600*%
%ADD48P,0.0700X8X0*%
%ADD49R,0.0800X0.0600*%
%ADD50C,0.0400*%
%ADD51C,0.0500*%
%ADD52C,0.0410*%
%ADD53C,0.0420*%
%ADD54C,0.0050*%
%ADD55R,0.0350X0.0630*%
%ADD56R,0.0320X0.0630*%
%ADD57R,0.0380X0.0980*%
%ADD58R,0.0380X0.1080*%
%ADD59R,0.0980X0.0380*%
%ADD60R,0.1080X0.0380*%
%ADD61R,0.1080X0.0830*%
%ADD62R,0.0240X0.0680*%
%ADD63R,0.0630X0.0480*%
%ADD64R,0.0480X0.0480*%
%ADD65R,0.0710X0.1497*%
%ADD66R,0.0580X0.0680*%
%ADD67O,0.1080X0.0380*%
%ADD68R,0.0680X0.0580*%
%ADD69O,0.0780X0.0980*%
%ADD70C,0.0880*%
%ADD71O,0.0580X0.0880*%
%ADD72R,0.0680X0.0880*%
%ADD73O,0.0680X0.0880*%
%ADD74C,0.0760*%
%ADD75C,0.1655*%
%ADD76R,0.0680X0.0680*%
%ADD77C,0.1580*%
%ADD78O,0.1080X0.1280*%
%ADD79O,0.0780X0.0880*%
%ADD80R,0.0780X0.0780*%
%ADD81C,0.0830*%
%ADD82C,0.0780*%
%ADD83O,0.0880X0.0680*%
%ADD84P,0.0780X8X0*%
%ADD85R,0.0880X0.0680*%
%ADD86C,0.0480*%
%ADD87C,0.0580*%
%ADD88C,0.0490*%
D10*
X0Y19685D02*
X62992D01*
Y-19685D02*
Y19685D01*
X0Y-19685D02*
X62992D01*
X0D02*
Y19685D01*
D51*
X47300Y700D02*
D03*
X46850Y7500D02*
D03*
X46600Y8000D02*
D03*
X46850Y5500D02*
D03*
X46600Y5000D02*
D03*
Y6000D02*
D03*
X46850Y4500D02*
D03*
X46600Y4000D02*
D03*
X46850Y3500D02*
D03*
X46600Y3000D02*
D03*
X46850Y2500D02*
D03*
D64*
X23400Y-5000D02*
D03*
X23950Y-5000D02*
D03*
X19800Y-4800D02*
D03*
X20350Y-4800D02*
D03*
X16200Y-4800D02*
D03*
X16750Y-4800D02*
D03*
X16800Y-13000D02*
D03*
X16250D02*
D03*
X52800Y4600D02*
D03*
X52250D02*
D03*
X35100Y-5600D02*
D03*
X34550Y-5600D02*
D03*
X52800Y5600D02*
D03*
X52250Y5600D02*
D03*
X51200Y-11300D02*
D03*
X51750D02*
D03*
X24200Y-12800D02*
D03*
X23650D02*
D03*
D69*
X11300Y9700D02*
D03*
X10300D02*
D03*
D70*
X10800Y-930D02*
D03*
Y-2200D02*
D03*
D72*
X16000Y12000D02*
D03*
X28000D02*
D03*
Y7400D02*
D03*
Y-1000D02*
D03*
X19000Y10000D02*
D03*
X24000D02*
D03*
D73*
X24000Y12000D02*
D03*
X16000Y15000D02*
D03*
X18000Y12000D02*
D03*
X19000Y15000D02*
D03*
X22000Y12000D02*
D03*
X20000Y12000D02*
D03*
X19000Y12000D02*
D03*
X21000D02*
D03*
X20000Y15000D02*
D03*
X21000Y15000D02*
D03*
X17000Y12000D02*
D03*
X22000Y15000D02*
D03*
X23000Y15000D02*
D03*
X23000Y12000D02*
D03*
X24000Y15000D02*
D03*
X18000Y15000D02*
D03*
X17000D02*
D03*
X34000Y12000D02*
D03*
X35000D02*
D03*
X37000Y15000D02*
D03*
X30000Y12000D02*
D03*
X32000D02*
D03*
X31000Y12000D02*
D03*
X29000D02*
D03*
X39000Y12000D02*
D03*
X36000Y15000D02*
D03*
X35000D02*
D03*
X30000D02*
D03*
X39000D02*
D03*
X29000D02*
D03*
X31000D02*
D03*
X37000Y12000D02*
D03*
X32000Y15000D02*
D03*
X36000Y12000D02*
D03*
X28000Y15000D02*
D03*
X33000D02*
D03*
X34000Y15000D02*
D03*
X38000D02*
D03*
X40000D02*
D03*
X41000D02*
D03*
X41000Y12000D02*
D03*
X40000Y12000D02*
D03*
X38000D02*
D03*
X33000Y12000D02*
D03*
Y7400D02*
D03*
X38000Y7400D02*
D03*
X40000D02*
D03*
X41000Y7400D02*
D03*
X41000Y10400D02*
D03*
X40000D02*
D03*
X38000D02*
D03*
X34000D02*
D03*
X33000Y10400D02*
D03*
X28000D02*
D03*
X36000Y7400D02*
D03*
X32000Y10400D02*
D03*
X37000Y7400D02*
D03*
X31000Y10400D02*
D03*
X29000D02*
D03*
X39000D02*
D03*
X30000D02*
D03*
X35000D02*
D03*
X36000D02*
D03*
X39000Y7400D02*
D03*
X29000Y7400D02*
D03*
X31000D02*
D03*
X32000Y7400D02*
D03*
X30000D02*
D03*
X37000Y10400D02*
D03*
X35000Y7400D02*
D03*
X34000D02*
D03*
X29000Y5000D02*
D03*
X30000D02*
D03*
X31000D02*
D03*
X32000D02*
D03*
X33000Y5000D02*
D03*
X34000Y5000D02*
D03*
X35000D02*
D03*
X36000D02*
D03*
X38000D02*
D03*
X39000D02*
D03*
X40000D02*
D03*
X41000D02*
D03*
Y-1000D02*
D03*
X40000Y-1000D02*
D03*
X39000D02*
D03*
X38000D02*
D03*
X37000Y-1000D02*
D03*
X36000Y-1000D02*
D03*
X35000D02*
D03*
X34000D02*
D03*
X33000Y-1000D02*
D03*
X32000Y-1000D02*
D03*
X30000Y-1000D02*
D03*
X31000D02*
D03*
X28000Y5000D02*
D03*
X37000D02*
D03*
X29000Y-1000D02*
D03*
X16000Y7000D02*
D03*
X19000Y7000D02*
D03*
X16000Y10000D02*
D03*
X27000Y17000D02*
D03*
Y18000D02*
D03*
X44000Y17000D02*
D03*
X42000Y18000D02*
D03*
X32000Y17000D02*
D03*
X33000D02*
D03*
X36000Y17000D02*
D03*
X37000Y17000D02*
D03*
X29000Y18000D02*
D03*
X34000D02*
D03*
X32000D02*
D03*
X31000D02*
D03*
X30000Y17000D02*
D03*
X31000D02*
D03*
X34000Y17000D02*
D03*
X35000Y17000D02*
D03*
X28000D02*
D03*
X30000Y18000D02*
D03*
X29000Y17000D02*
D03*
X33000Y18000D02*
D03*
X35000D02*
D03*
X42000Y17000D02*
D03*
X41000Y18000D02*
D03*
X40000Y17000D02*
D03*
X39000D02*
D03*
X38000Y17000D02*
D03*
X37000Y18000D02*
D03*
X38000D02*
D03*
X39000D02*
D03*
X40000D02*
D03*
X43000Y17000D02*
D03*
Y18000D02*
D03*
X41000Y17000D02*
D03*
X28000Y18000D02*
D03*
X36000D02*
D03*
X21000Y10000D02*
D03*
X24000Y7000D02*
D03*
X21000D02*
D03*
D74*
X3106Y-492D02*
D03*
Y492D02*
D03*
X2318D02*
D03*
Y-492D02*
D03*
D75*
X1255Y2370D02*
D03*
Y-2370D02*
D03*
D77*
X4213Y13150D02*
D03*
X3031Y15000D02*
D03*
X5394D02*
D03*
D78*
X2784Y9136D02*
D03*
Y11892D02*
D03*
Y7392D02*
D03*
Y4636D02*
D03*
D79*
X1800Y9628D02*
D03*
X1800Y11400D02*
D03*
Y6900D02*
D03*
X1800Y5128D02*
D03*
D80*
X4800Y-4500D02*
D03*
X26000Y17000D02*
D03*
X22500Y3000D02*
D03*
X59500Y14000D02*
D03*
X48200Y11450D02*
D03*
X5400Y-2000D02*
D03*
X59500Y2000D02*
D03*
Y-10000D02*
D03*
X11600Y-15600D02*
D03*
X10800Y-3200D02*
D03*
X49600Y14000D02*
D03*
D81*
X26000Y18000D02*
D03*
X44000D02*
D03*
X45000Y17000D02*
D03*
Y18000D02*
D03*
X21500Y3000D02*
D03*
X20500D02*
D03*
X19500Y3000D02*
D03*
X18500D02*
D03*
X18500Y2000D02*
D03*
X19500D02*
D03*
X20500D02*
D03*
X21500D02*
D03*
X22500D02*
D03*
X59500Y7000D02*
D03*
X60500D02*
D03*
X59500Y8000D02*
D03*
X60500D02*
D03*
X59500Y13000D02*
D03*
Y12000D02*
D03*
Y11000D02*
D03*
Y10000D02*
D03*
X60500D02*
D03*
Y11000D02*
D03*
Y12000D02*
D03*
Y13000D02*
D03*
Y14000D02*
D03*
X59500Y9000D02*
D03*
X60500D02*
D03*
X47200Y11450D02*
D03*
X5400Y-3000D02*
D03*
X60500Y-3000D02*
D03*
X59500D02*
D03*
X60500Y2000D02*
D03*
Y1000D02*
D03*
Y0D02*
D03*
Y-1000D02*
D03*
Y-2000D02*
D03*
X59500D02*
D03*
Y-1000D02*
D03*
Y-0D02*
D03*
Y1000D02*
D03*
X60500Y-4000D02*
D03*
X59500D02*
D03*
X60500Y-5000D02*
D03*
X59500Y-5000D02*
D03*
Y-12000D02*
D03*
Y-14000D02*
D03*
Y-13000D02*
D03*
X60500Y-10000D02*
D03*
Y-11000D02*
D03*
Y-12000D02*
D03*
Y-13000D02*
D03*
Y-14000D02*
D03*
X59500Y-11000D02*
D03*
X12600Y-15600D02*
D03*
X50600Y14000D02*
D03*
D82*
X800Y-4500D02*
D03*
X1800Y-10500D02*
D03*
X800Y-10500D02*
D03*
X3800Y-4500D02*
D03*
X1800D02*
D03*
X2800D02*
D03*
X4800Y-10500D02*
D03*
X2800D02*
D03*
X3800D02*
D03*
X17500Y16400D02*
D03*
X3200Y-12500D02*
D03*
X2200D02*
D03*
X3200Y-13500D02*
D03*
X2200D02*
D03*
X44200Y-16800D02*
D03*
X8200Y11250D02*
D03*
X12000Y2000D02*
D03*
X11450Y3200D02*
D03*
X3200Y-15000D02*
D03*
X2200D02*
D03*
Y-16000D02*
D03*
X3200D02*
D03*
X16000Y16400D02*
D03*
X15200Y-1200D02*
D03*
Y1000D02*
D03*
Y2400D02*
D03*
Y3800D02*
D03*
D86*
X59970Y18580D02*
D03*
Y-18580D02*
D03*
X3030D02*
D03*
Y18580D02*
D03*
X55600Y10450D02*
D03*
X52200D02*
D03*
X55600Y6900D02*
D03*
X18500Y13200D02*
D03*
X15200D02*
D03*
X10750Y11250D02*
D03*
X25550Y3550D02*
D03*
X28650Y2800D02*
D03*
X27500D02*
D03*
X43850Y5200D02*
D03*
X24450Y2400D02*
D03*
X44550Y13400D02*
D03*
X42800D02*
D03*
X56600Y2000D02*
D03*
X36000Y8500D02*
D03*
X37500Y8850D02*
D03*
X45250Y7800D02*
D03*
X46350Y-4950D02*
D03*
X44900Y7400D02*
D03*
X46000Y-5750D02*
D03*
X57200Y-7200D02*
D03*
X53450D02*
D03*
X57600Y-7550D02*
D03*
X52900D02*
D03*
X55600Y-13850D02*
D03*
X56000Y-8800D02*
D03*
X52400D02*
D03*
D87*
X13000Y17450D02*
D03*
X9800Y17500D02*
D03*
X13250Y12200D02*
D03*
X25650Y15950D02*
D03*
X17200Y-2200D02*
D03*
X21700Y-2200D02*
D03*
X24800Y-4900D02*
D03*
X15600Y-7450D02*
D03*
X19650Y-13600D02*
D03*
X15600D02*
D03*
X22150D02*
D03*
X24800Y-11450D02*
D03*
X38050Y-8250D02*
D03*
Y-7500D02*
D03*
Y-6900D02*
D03*
X50100Y6100D02*
D03*
X49350D02*
D03*
X46100Y6950D02*
D03*
X22800Y6400D02*
D03*
X7700Y-10300D02*
D03*
X10050D02*
D03*
X26950Y5550D02*
D03*
X26200Y9200D02*
D03*
X6300Y16850D02*
D03*
X8300Y-15600D02*
D03*
Y-13450D02*
D03*
X7750Y-11000D02*
D03*
X6250Y7600D02*
D03*
X7400Y11900D02*
D03*
X20700Y-1400D02*
D03*
X19200D02*
D03*
X27100Y7000D02*
D03*
X46850Y-6200D02*
D03*
X49950Y-7550D02*
D03*
X49350D02*
D03*
X35800Y-6300D02*
D03*
X31850Y-7900D02*
D03*
X24800D02*
D03*
X32500D02*
D03*
X24200D02*
D03*
X23700Y-4250D02*
D03*
X24450D02*
D03*
X50500Y-11300D02*
D03*
X53600Y5600D02*
D03*
Y4600D02*
D03*
X16200Y-5500D02*
D03*
X19800D02*
D03*
X23400Y-5850D02*
D03*
X24200Y-12100D02*
D03*
X17500Y-13000D02*
D03*
X27000Y15000D02*
D03*
X57000Y7000D02*
D03*
Y8000D02*
D03*
X49950Y1650D02*
D03*
D88*
X31300Y-11900D02*
D03*
X38300Y-9400D02*
D03*
X43850Y-10150D02*
D03*
X46700Y-12000D02*
D03*
X46000D02*
D03*
X44550Y6500D02*
D03*
X38500Y3100D02*
D03*
X39500Y2750D02*
D03*
X40500Y2400D02*
D03*
X41000Y2000D02*
D03*
X40000Y1650D02*
D03*
X39000Y1300D02*
D03*
X38000Y950D02*
D03*
X37000Y600D02*
D03*
X46000Y-6650D02*
D03*
X44900Y-5350D02*
D03*
X45600Y-7000D02*
D03*
X44200Y-9200D02*
D03*
X45250Y-7500D02*
D03*
X40900Y-8000D02*
D03*
X39850D02*
D03*
X40200Y-8800D02*
D03*
X41700Y-9800D02*
D03*
X39500Y-10000D02*
D03*
X40550Y-10500D02*
D03*
X39150Y-11000D02*
D03*
X38450Y-5400D02*
D03*
X20550Y-400D02*
D03*
X23750D02*
D03*
X50700Y-7500D02*
D03*
X9250Y1200D02*
D03*
X10200Y2400D02*
D03*
X8750Y3200D02*
D03*
X8350Y1550D02*
D03*
X8000Y4000D02*
D03*
X6800Y-3500D02*
D03*
X6400Y-400D02*
D03*
Y3200D02*
D03*
X6800Y-6400D02*
D03*
X7700Y-3500D02*
D03*
X9700D02*
D03*
X29000Y1900D02*
D03*
X24500D02*
D03*
Y-800D02*
D03*
X18700D02*
D03*
X24850Y6400D02*
D03*
X28500D02*
D03*
X24150Y1500D02*
D03*
X34000D02*
D03*
X47650Y-5350D02*
D03*
X36150Y-2000D02*
D03*
X38000D02*
D03*
X49200Y2050D02*
D03*
X46850Y6500D02*
D03*
X44200Y11450D02*
D03*
X38450Y-5900D02*
D03*
X44200Y-7000D02*
D03*
X40150Y13300D02*
D03*
X36500Y14050D02*
D03*
X37500Y14400D02*
D03*
X43150Y250D02*
D03*
X38500Y13800D02*
D03*
X39250Y13450D02*
D03*
X46700Y2000D02*
D03*
Y-7000D02*
D03*
X45250Y700D02*
D03*
X46850Y-7500D02*
D03*
X44900Y1100D02*
D03*
X48050Y-4950D02*
D03*
Y-5750D02*
D03*
X46850Y-9500D02*
D03*
X41700Y-2000D02*
D03*
X40200Y-13800D02*
D03*
X46850Y-11500D02*
D03*
X41300Y-2350D02*
D03*
Y-11550D02*
D03*
X37800Y-2700D02*
D03*
X40900D02*
D03*
Y-12050D02*
D03*
X46700Y-8000D02*
D03*
X46850Y-8500D02*
D03*
X46700Y-9000D02*
D03*
Y-10000D02*
D03*
X46850Y-10500D02*
D03*
X46700Y-11000D02*
D03*
X40550Y-12700D02*
D03*
X39850Y-13300D02*
D03*
Y-12600D02*
D03*
X38900Y-13650D02*
D03*
X39150Y-12250D02*
D03*
X34800Y-14350D02*
D03*
X24200Y-13600D02*
D03*
X27150Y1150D02*
D03*
X35000D02*
D03*
X28300Y-6400D02*
D03*
X27850Y-9400D02*
D03*
X34250Y-14000D02*
D03*
X33800Y-13650D02*
D03*
X33250Y-13300D02*
D03*
X32800Y-12950D02*
D03*
X32250Y-12600D02*
D03*
X31750Y-12250D02*
D03*
X33250Y-2950D02*
D03*
X25650Y-1700D02*
D03*
X32750Y-2850D02*
D03*
X25200Y-2050D02*
D03*
X32250Y-2950D02*
D03*
X25600Y-2400D02*
D03*
X31150Y-2950D02*
D03*
X26650Y-3400D02*
D03*
X26900Y-3900D02*
D03*
X28450Y-8400D02*
D03*
X27600Y800D02*
D03*
X33000D02*
D03*
X28900Y-6950D02*
D03*
X28850Y-4400D02*
D03*
X29000Y450D02*
D03*
X32000D02*
D03*
X29900Y-4400D02*
D03*
X26900D02*
D03*
X29600Y-11550D02*
D03*
X27150Y-9400D02*
D03*
X27000Y-8900D02*
D03*
X27150Y-8400D02*
D03*
X29250Y-7450D02*
D03*
X27000D02*
D03*
X29600Y-6950D02*
D03*
X27150D02*
D03*
X29600Y-6400D02*
D03*
X27000D02*
D03*
X29600Y-5900D02*
D03*
X27150D02*
D03*
X30600Y-3400D02*
D03*
X31750Y-2850D02*
D03*
X41000Y13050D02*
D03*
X19500Y14400D02*
D03*
X20500Y14050D02*
D03*
X20000Y13700D02*
D03*
X21000Y13500D02*
D03*
X22000Y13300D02*
D03*
X23000Y13050D02*
D03*
X35000Y12800D02*
D03*
X21000Y12950D02*
D03*
X33500Y12550D02*
D03*
X23700Y-15500D02*
D03*
X35800Y-14350D02*
D03*
X23200Y-15650D02*
D03*
X36300Y-14700D02*
D03*
X41850Y-14150D02*
D03*
X42000Y-14700D02*
D03*
X24850Y-15500D02*
D03*
X21700Y-15600D02*
D03*
X41900Y12000D02*
D03*
X36000Y9200D02*
D03*
X42450D02*
D03*
X35000Y-2000D02*
D03*
X42100Y-3050D02*
D03*
X38500Y-8900D02*
D03*
X21200Y-15800D02*
D03*
X45250Y-14900D02*
D03*
X26100Y-16350D02*
D03*
X45600Y-15350D02*
D03*
X19200Y-15600D02*
D03*
X44900D02*
D03*
X18700Y-15800D02*
D03*
X44550Y-16000D02*
D03*
X35500Y12700D02*
D03*
X51900Y-14200D02*
D03*
X56000Y-14550D02*
D03*
X28100Y-5900D02*
D03*
Y-8900D02*
D03*
X38800Y-3400D02*
D03*
X25700Y-1200D02*
D03*
X25950Y3000D02*
D03*
X13400Y-8950D02*
D03*
Y-8450D02*
D03*
Y-7950D02*
D03*
Y-6900D02*
D03*
Y-6400D02*
D03*
X12900Y-400D02*
D03*
X20000D02*
D03*
X13400Y0D02*
D03*
X19000D02*
D03*
X13000Y-11400D02*
D03*
X8400D02*
D03*
X12850Y-11950D02*
D03*
X8800D02*
D03*
X13000Y-12450D02*
D03*
X9600D02*
D03*
X15650Y-15600D02*
D03*
X52450Y-14900D02*
D03*
X16100Y-17400D02*
D03*
X53450Y-15300D02*
D03*
X15750Y-17800D02*
D03*
X13400Y-5400D02*
D03*
X12400D02*
D03*
X12600Y5600D02*
D03*
X10200D02*
D03*
X14300Y6000D02*
D03*
Y8600D02*
D03*
M02*
