%FSLAX24Y24*%
%MOIN*%
G70*
G01*
G75*
%ADD10C,0.0100*%
%ADD11R,0.0270X0.0550*%
%ADD12R,0.0240X0.0550*%
%ADD13R,0.0300X0.0900*%
%ADD14R,0.0300X0.1000*%
%ADD15R,0.0900X0.0300*%
%ADD16R,0.1000X0.0300*%
%ADD17R,0.1000X0.0750*%
%ADD18R,0.0160X0.0600*%
%ADD19R,0.0550X0.0400*%
%ADD20R,0.0400X0.0400*%
%ADD21R,0.0630X0.1417*%
%ADD22R,0.0500X0.0600*%
%ADD23O,0.1000X0.0300*%
%ADD24R,0.0600X0.0500*%
%ADD25C,0.0300*%
%ADD26C,0.0150*%
%ADD27C,0.0120*%
%ADD28C,0.0200*%
%ADD29C,0.0300*%
%ADD30C,0.0100*%
%ADD31C,0.0120*%
%ADD32O,0.0700X0.0900*%
%ADD33C,0.0800*%
%ADD34O,0.0500X0.0800*%
%ADD35R,0.0600X0.0800*%
%ADD36O,0.0600X0.0800*%
%ADD37C,0.0680*%
%ADD38C,0.1575*%
%ADD39R,0.0600X0.0600*%
%ADD40C,0.0600*%
%ADD41C,0.1500*%
%ADD42O,0.1000X0.1200*%
%ADD43O,0.0700X0.0800*%
%ADD44R,0.0700X0.0700*%
%ADD45C,0.0750*%
%ADD46C,0.0700*%
%ADD47O,0.0800X0.0600*%
%ADD48P,0.0700X8X0*%
%ADD49R,0.0800X0.0600*%
%ADD50C,0.0400*%
%ADD51C,0.0500*%
%ADD52C,0.0410*%
%ADD53C,0.0420*%
D10*
X21500Y10100D02*
X21489Y10206D01*
X21455Y10308D01*
X21400Y10400D01*
X20600D02*
X20545Y10308D01*
X20511Y10206D01*
X20500Y10100D01*
Y9900D02*
X20510Y9802D01*
X20538Y9709D01*
X20584Y9622D01*
X20646Y9546D01*
X20722Y9484D01*
X20809Y9438D01*
X20902Y9410D01*
X21000Y9400D01*
X21098Y9410D01*
X21191Y9438D01*
X21278Y9484D01*
X21354Y9546D01*
X21416Y9622D01*
X21462Y9709D01*
X21490Y9802D01*
X21500Y9900D01*
X24300Y7620D02*
X24213Y7661D01*
X24120Y7688D01*
X24024Y7700D01*
X23928Y7696D01*
X23833Y7676D01*
X23743Y7642D01*
X23659Y7594D01*
X23584Y7533D01*
X23520Y7460D01*
X23469Y7379D01*
X23431Y7290D01*
X23408Y7196D01*
X23400Y7100D01*
X23155Y7254D02*
X23080Y7312D01*
X22993Y7348D01*
X22900Y7360D01*
X23155Y7255D02*
X23080Y7312D01*
X22993Y7348D01*
X22900Y7360D01*
X21541D02*
X21490Y7447D01*
X21424Y7524D01*
X21347Y7589D01*
X21261Y7640D01*
X21166Y7676D01*
X21067Y7696D01*
X20967Y7699D01*
X20867Y7685D01*
X20771Y7654D01*
X20681Y7608D01*
X20600Y7547D01*
X20531Y7474D01*
X20475Y7390D01*
X20434Y7298D01*
X20408Y7201D01*
X20400Y7100D01*
Y6900D02*
X20409Y6796D01*
X20436Y6695D01*
X20480Y6600D01*
X16500Y10100D02*
X16489Y10206D01*
X16455Y10308D01*
X16400Y10400D01*
X15700Y9500D02*
X15786Y9448D01*
X15881Y9414D01*
X15980Y9400D01*
X16080Y9407D01*
X16178Y9433D01*
X16267Y9478D01*
X16346Y9540D01*
X16412Y9616D01*
X16460Y9704D01*
X16490Y9800D01*
X16500Y9900D01*
X19600Y7100D02*
X19592Y7199D01*
X19567Y7295D01*
X19528Y7386D01*
X19473Y7469D01*
X19406Y7541D01*
X19328Y7602D01*
X19241Y7649D01*
X19147Y7682D01*
X19050Y7698D01*
X18950D01*
X18853Y7682D01*
X18759Y7649D01*
X18672Y7602D01*
X18594Y7541D01*
X18527Y7469D01*
X18472Y7386D01*
X18433Y7295D01*
X18408Y7199D01*
X18400Y7100D01*
X19520Y6600D02*
X19564Y6695D01*
X19591Y6796D01*
X19600Y6900D01*
X18400D02*
X18409Y6796D01*
X18436Y6695D01*
X18480Y6600D01*
X16600Y7100D02*
X16592Y7196D01*
X16569Y7290D01*
X16531Y7379D01*
X16480Y7460D01*
X16416Y7533D01*
X16341Y7594D01*
X16257Y7642D01*
X16167Y7676D01*
X16072Y7696D01*
X15976Y7700D01*
X15880Y7688D01*
X15787Y7661D01*
X15700Y7620D01*
X25120Y-4584D02*
X25041Y-4520D01*
X24951Y-4476D01*
X24852Y-4453D01*
X24751Y-4453D01*
X24653Y-4475D01*
X24562Y-4518D01*
X24482Y-4581D01*
X24419Y-4660D01*
X24375Y-4751D01*
X24353Y-4850D01*
Y-4951D01*
X24375Y-5049D01*
X24419Y-5140D01*
X24482Y-5219D01*
X24562Y-5282D01*
X24653Y-5325D01*
X24751Y-5347D01*
X24852Y-5347D01*
X24951Y-5324D01*
X25041Y-5280D01*
X25120Y-5216D01*
X25120Y-11134D02*
X25041Y-11070D01*
X24951Y-11026D01*
X24852Y-11003D01*
X24751Y-11003D01*
X24653Y-11025D01*
X24562Y-11068D01*
X24482Y-11131D01*
X24419Y-11210D01*
X24375Y-11301D01*
X24353Y-11399D01*
Y-11501D01*
X24375Y-11599D01*
X24419Y-11690D01*
X24482Y-11769D01*
X24562Y-11832D01*
X24653Y-11875D01*
X24751Y-11897D01*
X24852Y-11897D01*
X24951Y-11874D01*
X25041Y-11830D01*
X25120Y-11766D01*
X24705Y-13600D02*
X24695Y-13498D01*
X24664Y-13400D01*
X24614Y-13311D01*
X24547Y-13233D01*
X24466Y-13171D01*
X24374Y-13126D01*
X24274Y-13101D01*
X24172Y-13096D01*
X24071Y-13112D01*
X23975Y-13148D01*
X23888Y-13203D01*
X23814Y-13274D01*
X23756Y-13359D01*
X23717Y-13453D01*
X23697Y-13554D01*
X23698Y-13656D01*
X23720Y-13756D01*
X23761Y-13850D01*
X22600Y-13600D02*
X22589Y-13502D01*
X22557Y-13409D01*
X22506Y-13325D01*
X22437Y-13254D01*
X22355Y-13200D01*
X22263Y-13164D01*
X22166Y-13150D01*
X22067Y-13158D01*
X21973Y-13186D01*
X21887Y-13235D01*
X21814Y-13301D01*
X21757Y-13381D01*
X21719Y-13472D01*
X21701Y-13569D01*
X21705Y-13667D01*
X21730Y-13763D01*
X21776Y-13850D01*
X24639Y-13850D02*
X24675Y-13771D01*
X24697Y-13687D01*
X24705Y-13600D01*
X22524Y-13850D02*
X22566Y-13772D01*
X22591Y-13688D01*
X22600Y-13600D01*
X20024Y-13850D02*
X20066Y-13772D01*
X20091Y-13688D01*
X20100Y-13600D01*
X20089Y-13502D01*
X20057Y-13409D01*
X20006Y-13325D01*
X19937Y-13254D01*
X19855Y-13200D01*
X19763Y-13164D01*
X19666Y-13150D01*
X19567Y-13158D01*
X19473Y-13186D01*
X19387Y-13235D01*
X19314Y-13301D01*
X19257Y-13381D01*
X19219Y-13472D01*
X19201Y-13569D01*
X19205Y-13667D01*
X19230Y-13763D01*
X19276Y-13850D01*
X16050Y-7450D02*
X16039Y-7353D01*
X16008Y-7260D01*
X15957Y-7177D01*
X15890Y-7106D01*
X15809Y-7051D01*
X15718Y-7016D01*
X15621Y-7000D01*
X15524Y-7007D01*
X15430Y-7033D01*
X15344Y-7080D01*
X15270Y-7144D01*
Y-7756D02*
X15344Y-7820D01*
X15430Y-7867D01*
X15524Y-7893D01*
X15621Y-7900D01*
X15718Y-7884D01*
X15809Y-7849D01*
X15890Y-7794D01*
X15957Y-7723D01*
X16008Y-7640D01*
X16039Y-7547D01*
X16050Y-7450D01*
X15974Y-13850D02*
X16016Y-13772D01*
X16041Y-13688D01*
X16050Y-13600D01*
X16039Y-13503D01*
X16008Y-13410D01*
X15957Y-13327D01*
X15890Y-13256D01*
X15809Y-13201D01*
X15718Y-13166D01*
X15621Y-13151D01*
X15524Y-13157D01*
X15430Y-13183D01*
X15344Y-13230D01*
X15270Y-13294D01*
X53379Y-7695D02*
X53485Y-7699D01*
X53591Y-7680D01*
X53689Y-7639D01*
X53777Y-7578D01*
X53850Y-7500D01*
X51124Y-7464D02*
X51184Y-7375D01*
X51205Y-7270D01*
X51124Y-7465D02*
X51184Y-7375D01*
X51205Y-7270D01*
X52760Y-8030D02*
X52856Y-8048D01*
X52953Y-8047D01*
X53048Y-8027D01*
X53138Y-7990D01*
X53219Y-7935D01*
X53287Y-7866D01*
X53341Y-7785D01*
X53379Y-7695D01*
X52900Y-8800D02*
X52891Y-8705D01*
X52864Y-8613D01*
X52820Y-8528D01*
X52760Y-8453D01*
X52040D02*
X51979Y-8530D01*
X51935Y-8616D01*
X51908Y-8710D01*
X51900Y-8807D01*
X51911Y-8904D01*
X51941Y-8997D01*
X51988Y-9083D01*
X52050Y-9157D01*
X52126Y-9219D01*
X52213Y-9264D01*
X52307Y-9291D01*
X52404Y-9300D01*
X52501Y-9290D01*
X52594Y-9261D01*
X52680Y-9214D01*
X52755Y-9152D01*
X52817Y-9077D01*
X52862Y-8990D01*
X52890Y-8897D01*
X52900Y-8800D01*
X50295Y-7484D02*
X50304Y-7583D01*
X50335Y-7676D01*
X50389Y-7759D01*
X50461Y-7827D01*
X50547Y-7875D01*
X50643Y-7901D01*
X50742Y-7903D01*
X50838Y-7881D01*
X50926Y-7836D01*
X51001Y-7771D01*
X51057Y-7690D01*
X51093Y-7598D01*
X51105Y-7500D01*
X50155Y-7230D02*
X50176Y-7335D01*
X50236Y-7424D01*
X50155Y-7230D02*
X50176Y-7335D01*
X50236Y-7425D01*
X53398Y2297D02*
X53325Y2353D01*
X53241Y2388D01*
X53150Y2400D01*
X53397Y2297D02*
X53325Y2353D01*
X53241Y2388D01*
X53150Y2400D01*
X49564D02*
X49486Y2466D01*
X49397Y2515D01*
X49300Y2545D01*
X49198Y2555D01*
X49097Y2544D01*
X49000Y2514D01*
X21490Y10200D02*
X23400D01*
X21500Y10100D02*
X23400D01*
X21500Y10000D02*
X23400D01*
X21500Y9900D02*
X23400D01*
Y9300D02*
Y10400D01*
Y9300D02*
Y10400D01*
X21400D02*
X23400D01*
X21458Y10300D02*
X23400D01*
X21490Y9800D02*
X23400D01*
X21458Y9700D02*
X23400D01*
X21400Y9600D02*
X23400D01*
X21300Y9500D02*
X23400D01*
X21000Y9400D02*
X23400D01*
X24100Y7692D02*
Y9300D01*
X24001Y7700D02*
X24300D01*
X24000Y7700D02*
Y9300D01*
X23900Y7692D02*
Y9300D01*
X24300Y7620D02*
Y9300D01*
X24200Y7666D02*
Y9300D01*
X23800Y7666D02*
Y9300D01*
X23400D02*
X24300D01*
X23400D02*
X24300D01*
X19600D02*
X23400D01*
X21001Y7700D02*
X23999D01*
X23700Y7620D02*
Y9300D01*
X21332Y7600D02*
X23668D01*
X23600Y7547D02*
Y9300D01*
X21500Y10100D02*
Y10400D01*
X20500Y10100D02*
Y10400D01*
X21500Y9900D02*
Y10100D01*
X20500Y9900D02*
Y10100D01*
Y9900D02*
Y10100D01*
X19600Y10400D02*
X20600D01*
X19600Y10300D02*
X20542D01*
X19600Y10200D02*
X20510D01*
X19600Y10100D02*
X20500D01*
X19600Y9300D02*
Y10400D01*
Y10000D02*
X20500D01*
X19600Y9300D02*
Y10400D01*
X21200Y7666D02*
Y9442D01*
X21100Y7692D02*
Y9410D01*
X21000Y7700D02*
Y9400D01*
X20900Y7692D02*
Y9410D01*
X21300Y7620D02*
Y9500D01*
X20800Y7666D02*
Y9442D01*
X20700Y7620D02*
Y9500D01*
X19600Y9700D02*
X20542D01*
X19600Y9600D02*
X20600D01*
X19600Y9900D02*
X20500D01*
X19600Y9800D02*
X20510D01*
X19600Y9400D02*
X21000D01*
X19600Y9500D02*
X20700D01*
X23000Y7346D02*
Y10400D01*
X23500Y7432D02*
Y9300D01*
X22900Y7360D02*
Y10400D01*
X22800Y7360D02*
Y10400D01*
X23300Y7109D02*
Y10400D01*
X23200Y7209D02*
Y10400D01*
X23100Y7299D02*
Y10400D01*
X22700Y7360D02*
Y10400D01*
X22600Y7360D02*
Y10400D01*
X22500Y7360D02*
Y10400D01*
X22400Y7360D02*
Y10400D01*
X22300Y7360D02*
Y10400D01*
X22200Y7360D02*
Y10400D01*
X22100Y7360D02*
Y10400D01*
X23209Y7200D02*
X23408D01*
X23400Y7101D02*
Y9300D01*
X23309Y7100D02*
X23400D01*
Y7009D02*
Y7100D01*
X21447Y7500D02*
X23553D01*
X21520Y7400D02*
X23480D01*
X21541Y7360D02*
X22900D01*
X23099Y7300D02*
X23434D01*
X23155Y7254D02*
X23400Y7009D01*
X22000Y7360D02*
Y10400D01*
X21900Y7360D02*
Y10400D01*
X21800Y7360D02*
Y10400D01*
X21500Y7432D02*
Y10100D01*
X21700Y7360D02*
Y10400D01*
X21600Y7360D02*
Y10400D01*
X20400Y6600D02*
Y10400D01*
X20300Y6600D02*
Y10400D01*
X20200Y6600D02*
Y10400D01*
X20100Y6600D02*
Y10400D01*
X20000Y6600D02*
Y10400D01*
X19900Y6600D02*
Y10400D01*
X19800Y6600D02*
Y10400D01*
X19700Y6600D02*
Y10400D01*
X21400Y7547D02*
Y9600D01*
X20500Y7432D02*
Y9900D01*
X20600Y7547D02*
Y9600D01*
X20400Y6900D02*
Y7100D01*
X19600Y7100D02*
Y9300D01*
X19592Y7200D02*
X20408D01*
X19600Y7100D02*
X20400D01*
X19600Y6900D02*
Y7100D01*
Y7000D02*
X20400D01*
X19600Y6900D02*
X20400D01*
X19592Y6800D02*
X20408D01*
X19600Y6600D02*
Y7100D01*
X19100Y7692D02*
Y9300D01*
X19000Y7700D02*
Y9300D01*
X19300Y7620D02*
Y9300D01*
X19200Y7666D02*
Y9300D01*
X18900Y7692D02*
Y9300D01*
X18800Y7666D02*
Y9300D01*
X18400D02*
X19600D01*
X15700Y9200D02*
X24300D01*
X18400Y9300D02*
X19600D01*
X15700Y9100D02*
X24300D01*
X15700Y9000D02*
X24300D01*
X18700Y7620D02*
Y9300D01*
X15700Y8900D02*
X24300D01*
X15700Y8800D02*
X24300D01*
X15700Y8700D02*
X24300D01*
X15700Y8600D02*
X24300D01*
X15700Y8500D02*
X24300D01*
X19000Y7700D02*
X20999D01*
X16001D02*
X19000D01*
X15700Y8400D02*
X24300D01*
X15700Y8300D02*
X24300D01*
X15700Y8200D02*
X24300D01*
X15700Y8100D02*
X24300D01*
X15700Y8000D02*
X24300D01*
X15700Y7900D02*
X24300D01*
X15700Y7800D02*
X24300D01*
X16490Y10200D02*
X18400D01*
X16500Y10100D02*
X18400D01*
X16500Y10101D02*
Y10400D01*
Y9899D02*
Y10101D01*
X18400Y9300D02*
Y10400D01*
Y9300D02*
Y10400D01*
X16500Y9900D02*
Y10100D01*
X16400Y10400D02*
X18400D01*
X16458Y10300D02*
X18400D01*
X16500Y10000D02*
X18400D01*
X16500Y9900D02*
X18400D01*
X16490Y9800D02*
X18400D01*
X16458Y9700D02*
X18400D01*
X16400Y9600D02*
X18400D01*
X16300Y9500D02*
X18400D01*
X16001Y9400D02*
X18400D01*
X16300Y7620D02*
Y9500D01*
X16200Y7666D02*
Y9442D01*
X16100Y7692D02*
Y9410D01*
X15700Y9400D02*
X15999D01*
X15700Y9300D02*
X18400D01*
X16000Y7700D02*
Y9400D01*
X15700Y7700D02*
X15999D01*
X15800Y7666D02*
Y9442D01*
X15900Y7692D02*
Y9410D01*
X15700Y7620D02*
Y9500D01*
X19332Y7600D02*
X20668D01*
X19447Y7500D02*
X20553D01*
X19500Y7432D02*
Y9300D01*
X19400Y7547D02*
Y9300D01*
X19520Y7400D02*
X20480D01*
X19566Y7300D02*
X20434D01*
X18600Y7547D02*
Y9300D01*
X16332Y7600D02*
X18668D01*
X18500Y7432D02*
Y9300D01*
X16447Y7500D02*
X18553D01*
X16520Y7400D02*
X18480D01*
X18400Y7100D02*
Y9300D01*
Y6900D02*
Y7100D01*
Y6900D02*
Y7100D01*
X19566Y6700D02*
X20434D01*
X19520Y6600D02*
X20480D01*
X16566Y7300D02*
X18434D01*
X16592Y7200D02*
X18408D01*
X16600Y7100D02*
X18400D01*
X16600Y7000D02*
X18400D01*
X17400Y6600D02*
X18480D01*
X16809Y6700D02*
X18434D01*
X18300Y6600D02*
Y10400D01*
X18200Y6600D02*
Y10400D01*
X18100Y6600D02*
Y10400D01*
X18000Y6600D02*
Y10400D01*
X17900Y6600D02*
Y10400D01*
X17800Y6600D02*
Y10400D01*
X17700Y6600D02*
Y10400D01*
X17600Y6600D02*
Y10400D01*
X17500Y6600D02*
Y10400D01*
X17400Y6600D02*
Y10400D01*
X17300Y6600D02*
Y10400D01*
X17200Y6600D02*
Y10400D01*
X17100Y6600D02*
Y10400D01*
X17000Y6600D02*
Y10400D01*
X16609Y6900D02*
X18400D01*
X16709Y6800D02*
X18408D01*
X16800Y6709D02*
Y10400D01*
X16700Y6809D02*
Y10400D01*
X18400Y6600D02*
Y6900D01*
X16909Y6600D02*
X17400D01*
X16900Y6609D02*
Y10400D01*
X16600Y7101D02*
Y10400D01*
X16500Y7432D02*
Y9899D01*
X16400Y7547D02*
Y9600D01*
X15700Y7620D02*
Y9500D01*
X16600Y6909D02*
X16909Y6600D01*
X16600Y6909D02*
Y7100D01*
X25120Y-4584D02*
Y-4000D01*
X25006Y-4500D02*
X25120D01*
X25120Y-5480D02*
Y-5216D01*
X25006Y-5300D02*
X25120D01*
X25100Y-4565D02*
Y-4000D01*
X25000Y-4497D02*
Y-4000D01*
X25120Y-5870D02*
Y-5480D01*
X25120Y-6380D02*
Y-5480D01*
X25120Y-6380D02*
Y-5980D01*
Y-6480D02*
Y-6380D01*
Y-6880D02*
Y-6480D01*
X25120Y-6980D02*
Y-6480D01*
X25100Y-11115D02*
Y-5235D01*
X25120Y-7380D02*
Y-6980D01*
X24650Y-4000D02*
X25120D01*
X21650D02*
X25120D01*
X24900Y-4461D02*
Y-4000D01*
X24800Y-4450D02*
Y-4000D01*
X24700Y-4461D02*
Y-4000D01*
X24250D02*
X24650D01*
X24250D02*
X24650D01*
X25000Y-11047D02*
Y-5303D01*
X24900Y-11011D02*
Y-5339D01*
X24800Y-11000D02*
Y-5350D01*
X24600Y-4497D02*
Y-4000D01*
Y-11047D02*
Y-5303D01*
X24700Y-11011D02*
Y-5339D01*
X25120Y-7380D02*
Y-6980D01*
Y-7880D02*
Y-7380D01*
X25120Y-7880D02*
Y-7480D01*
Y-7980D02*
Y-7880D01*
Y-8380D02*
Y-7980D01*
X25120Y-8880D02*
Y-7980D01*
X25120Y-8880D02*
Y-8480D01*
Y-8980D02*
Y-8880D01*
Y-9380D02*
Y-8980D01*
X25120Y-9880D02*
Y-8980D01*
X25120Y-9880D02*
Y-9480D01*
Y-10380D02*
Y-9880D01*
X25120Y-10380D02*
Y-9980D01*
Y-10480D02*
Y-10380D01*
Y-10880D02*
Y-10480D01*
X25120Y-11134D02*
Y-10480D01*
X24800Y-11000D02*
X25120D01*
Y-11980D02*
Y-11766D01*
X24800Y-11900D02*
X25120D01*
Y-12380D02*
Y-11980D01*
X25120Y-12880D02*
Y-11980D01*
X25120Y-12880D02*
Y-12480D01*
Y-12980D02*
Y-12880D01*
X24271Y-13100D02*
X25120D01*
X24508Y-13200D02*
X25120D01*
X24150Y-4000D02*
X24250D01*
X23750D02*
X24150D01*
X23750D02*
X24150D01*
X23650D02*
X23750D01*
X23250D02*
X23650D01*
X23250D02*
X23650D01*
X24500Y-4565D02*
Y-4000D01*
X24400Y-4694D02*
Y-4000D01*
X24300Y-13105D02*
Y-4000D01*
X24200Y-13095D02*
Y-4000D01*
X24100Y-13105D02*
Y-4000D01*
X24000Y-13136D02*
Y-4000D01*
X23900Y-13194D02*
Y-4000D01*
X23150D02*
X23250D01*
X22750D02*
X23150D01*
X22750D02*
X23150D01*
X22250D02*
X22750D01*
X21650Y-3900D02*
X21750D01*
X21650D02*
X21750D01*
X22300Y-13176D02*
Y-4000D01*
X22250Y-4000D02*
X22650D01*
X22200Y-13153D02*
Y-4000D01*
X21750D02*
X22250D01*
X21750D02*
Y-3900D01*
X21650Y-4000D02*
Y-3900D01*
X22100Y-13153D02*
Y-4000D01*
X21150Y-4000D02*
X21650D01*
X20750D02*
X21150D01*
X20750D02*
X21150D01*
X20650D02*
X20750D01*
X20250D02*
X20650D01*
X20250D02*
X20650D01*
X20150D02*
X20250D01*
X24500Y-11115D02*
Y-5235D01*
X24400Y-11244D02*
Y-5106D01*
X24500Y-13194D02*
Y-11785D01*
X24400Y-13136D02*
Y-11656D01*
X22000Y-13176D02*
Y-4000D01*
X19750Y-4000D02*
X20150D01*
X19800Y-13176D02*
Y-4000D01*
X19750D02*
X20150D01*
X19650D02*
X19750D01*
X19250D02*
X19650D01*
X19250D02*
X19650D01*
X19150D02*
X19250D01*
X18750D02*
X19150D01*
X18750D02*
X19150D01*
X19700Y-13153D02*
Y-4000D01*
X19600Y-13153D02*
Y-4000D01*
X19500Y-13176D02*
Y-4000D01*
X18650D02*
X18750D01*
X18250D02*
X18650D01*
X18250D02*
X18650D01*
X25100Y-13850D02*
Y-11785D01*
X24700Y-13529D02*
Y-11889D01*
X25120Y-13380D02*
Y-12980D01*
X25120Y-13850D02*
Y-12980D01*
X23800Y-13292D02*
Y-4000D01*
X23700Y-13529D02*
Y-4000D01*
X24600Y-13292D02*
Y-11853D01*
X25000Y-13850D02*
Y-11853D01*
X24900Y-13850D02*
Y-11889D01*
X24800Y-13850D02*
Y-11900D01*
X23600Y-13850D02*
Y-4000D01*
X23500Y-13850D02*
Y-4000D01*
X23400Y-13850D02*
Y-4000D01*
X23300Y-13850D02*
Y-4000D01*
X22600Y-13600D02*
Y-4000D01*
X22500Y-13317D02*
Y-4000D01*
X22356Y-13200D02*
X23892D01*
X22400Y-13226D02*
Y-4000D01*
X21900Y-13226D02*
Y-4000D01*
X21800Y-13317D02*
Y-4000D01*
X23200Y-13850D02*
Y-4000D01*
X23100Y-13850D02*
Y-4000D01*
X23000Y-13850D02*
Y-4000D01*
X22900Y-13850D02*
Y-4000D01*
X22800Y-13850D02*
Y-4000D01*
X22700Y-13850D02*
Y-4000D01*
X24664Y-13400D02*
X25120D01*
X24606Y-13300D02*
X25120D01*
X24695Y-13500D02*
X25120D01*
X24705Y-13600D02*
X25120D01*
X24700Y-13850D02*
Y-13671D01*
X24695Y-13700D02*
X25120D01*
X24664Y-13800D02*
X25120D01*
X23700Y-13850D02*
Y-13671D01*
X24639Y-13850D02*
X25120D01*
X23650Y-13850D02*
X23761D01*
X23250D02*
X23650D01*
X23250D02*
X23650D01*
X22750D02*
X23250D01*
X22553Y-13400D02*
X23736D01*
X22485Y-13300D02*
X23794D01*
X22589Y-13500D02*
X23705D01*
X22589Y-13700D02*
X23705D01*
X19985Y-13300D02*
X21815D01*
X19856Y-13200D02*
X21944D01*
X22600Y-13600D02*
X23695D01*
X22750Y-13850D02*
X23150D01*
X22553Y-13800D02*
X23736D01*
X22524Y-13850D02*
X22750D01*
X22600D02*
Y-13600D01*
X21650Y-13850D02*
X21776D01*
X21700Y-13600D02*
Y-3900D01*
X21600Y-13850D02*
Y-4000D01*
X21500Y-13850D02*
Y-4000D01*
X21400Y-13850D02*
Y-4000D01*
X21300Y-13850D02*
Y-4000D01*
X21200Y-13850D02*
Y-4000D01*
X21100Y-13850D02*
Y-4000D01*
X21000Y-13850D02*
Y-4000D01*
X20900Y-13850D02*
Y-4000D01*
X20800Y-13850D02*
Y-4000D01*
X20700Y-13850D02*
Y-4000D01*
X20600Y-13850D02*
Y-4000D01*
X20500Y-13850D02*
Y-4000D01*
X20400Y-13850D02*
Y-4000D01*
X20300Y-13850D02*
Y-4000D01*
X20100Y-13600D02*
Y-4000D01*
X20000Y-13317D02*
Y-4000D01*
X19900Y-13226D02*
Y-4000D01*
X19400Y-13226D02*
Y-4000D01*
X19300Y-13317D02*
Y-4000D01*
X19200Y-13600D02*
Y-4000D01*
X20200Y-13850D02*
Y-4000D01*
X19100Y-13850D02*
Y-4000D01*
X19000Y-13850D02*
Y-4000D01*
X18900Y-13850D02*
Y-4000D01*
X18800Y-13850D02*
Y-4000D01*
X18700Y-13850D02*
Y-4000D01*
X18600Y-13850D02*
Y-4000D01*
X20089Y-13500D02*
X21711D01*
X20053Y-13400D02*
X21747D01*
X20100Y-13600D02*
X21700D01*
X20089Y-13700D02*
X21711D01*
X21700Y-13850D02*
Y-13600D01*
X21250Y-13850D02*
X21650D01*
X21250D02*
X21650D01*
X21150D02*
X21250D01*
X20750D02*
X21150D01*
X20650Y-13850D02*
X21150D01*
X20250D02*
X20650D01*
X20250D02*
X20650D01*
X20100D02*
Y-13600D01*
X20053Y-13800D02*
X21747D01*
X20024Y-13850D02*
X20250D01*
X19200Y-13850D02*
Y-13600D01*
X19150Y-13850D02*
X19276D01*
X18750D02*
X19150D01*
X18750D02*
X19150D01*
X18650D02*
X18750D01*
X18250D02*
X18650D01*
X18500Y-13850D02*
Y-4000D01*
X18400Y-13850D02*
Y-4000D01*
X18300Y-13850D02*
Y-4000D01*
X15270Y-4100D02*
X25120D01*
X15270Y-4200D02*
X25120D01*
X15270Y-4300D02*
X25120D01*
X15270Y-4400D02*
X25120D01*
X15270Y-4500D02*
X24594D01*
X15270Y-4600D02*
X24465D01*
X15270Y-4700D02*
X24397D01*
X15270Y-5100D02*
X24397D01*
X15270Y-5200D02*
X24465D01*
X15270Y-5300D02*
X24594D01*
X15270Y-5400D02*
X25120D01*
X15270Y-4800D02*
X24361D01*
X15270Y-4900D02*
X24350D01*
X15270Y-5000D02*
X24361D01*
X15270Y-5500D02*
X25120D01*
X15270Y-5600D02*
X25120D01*
X15270Y-5700D02*
X25120D01*
X15270Y-5800D02*
X25120D01*
X15270Y-5900D02*
X25120D01*
X15270Y-6000D02*
X25120D01*
X15270Y-6100D02*
X25120D01*
X15270Y-6200D02*
X25120D01*
X15270Y-6300D02*
X25120D01*
X15270Y-6400D02*
X25120D01*
X15270Y-6500D02*
X25120D01*
X15270Y-6600D02*
X25120D01*
X15270Y-6700D02*
X25120D01*
X15270Y-6800D02*
X25120D01*
X15600Y-7000D02*
X25120D01*
X15270Y-6900D02*
X25120D01*
X15974Y-7200D02*
X25120D01*
X15883Y-7100D02*
X25120D01*
X16024Y-7300D02*
X25120D01*
X16047Y-7400D02*
X25120D01*
X16047Y-7500D02*
X25120D01*
X16024Y-7600D02*
X25120D01*
X15974Y-7700D02*
X25120D01*
X15883Y-7800D02*
X25120D01*
X15600Y-7900D02*
X25120D01*
X15270Y-8000D02*
X25120D01*
X15270Y-8100D02*
X25120D01*
X15270Y-8200D02*
X25120D01*
X15270Y-8300D02*
X25120D01*
X15270Y-8400D02*
X25120D01*
X15270Y-8500D02*
X25120D01*
X15270Y-8600D02*
X25120D01*
X15270Y-8700D02*
X25120D01*
X15270Y-8800D02*
X25120D01*
X15270Y-8900D02*
X25120D01*
X15270Y-9000D02*
X25120D01*
X15270Y-9100D02*
X25120D01*
X15270Y-9200D02*
X25120D01*
X15270Y-9300D02*
X25120D01*
X15270Y-9400D02*
X25120D01*
X15270Y-9500D02*
X25120D01*
X18150Y-4000D02*
X18250D01*
X17250D02*
X21650D01*
X17750D02*
X18150D01*
X17750D02*
X18150D01*
X17140Y-3900D02*
X17250D01*
X17140Y-3900D02*
X17250D01*
Y-4000D02*
Y-3900D01*
Y-4000D02*
X17750D01*
X17140D02*
Y-3900D01*
Y-4000D02*
X17250D01*
X16640D02*
X17140D01*
X16240D02*
X16640D01*
X16240D02*
X16640D01*
X16140D02*
X16240D01*
X15740D02*
X16140D01*
X15270D02*
X17140D01*
X15740D02*
X16140D01*
X15270D02*
X15740D01*
X15700Y-7011D02*
Y-4000D01*
X15270Y-4470D02*
Y-4000D01*
X16000Y-7244D02*
Y-4000D01*
X15900Y-7115D02*
Y-4000D01*
X15800Y-7047D02*
Y-4000D01*
X15600Y-7000D02*
Y-4000D01*
X15500Y-7011D02*
Y-4000D01*
X15400Y-7047D02*
Y-4000D01*
X15300Y-7115D02*
Y-4000D01*
X15270Y-4870D02*
Y-4470D01*
Y-4870D02*
Y-4470D01*
Y-4970D02*
Y-4870D01*
Y-5370D02*
Y-4970D01*
Y-5370D02*
Y-4970D01*
Y-5870D02*
Y-5370D01*
X15270Y-5870D02*
Y-5480D01*
Y-5980D02*
Y-5870D01*
Y-6380D02*
Y-5980D01*
X15270Y-6480D02*
Y-5980D01*
Y-6880D02*
Y-6480D01*
Y-6880D02*
Y-6480D01*
Y-7144D02*
Y-6880D01*
Y-7000D02*
X15600D01*
X15270Y-7980D02*
Y-7756D01*
Y-7900D02*
X15600D01*
X15270Y-8380D02*
Y-7980D01*
Y-8380D02*
Y-7980D01*
Y-8480D02*
Y-8380D01*
Y-8880D02*
Y-8480D01*
Y-8880D02*
Y-8480D01*
Y-8980D02*
Y-8880D01*
Y-9380D02*
Y-8980D01*
Y-9380D02*
Y-8980D01*
Y-9480D02*
Y-9380D01*
Y-9600D02*
X25120D01*
X15270Y-9700D02*
X25120D01*
X15270Y-9800D02*
X25120D01*
X15270Y-9900D02*
X25120D01*
X15270Y-10000D02*
X25120D01*
X15270Y-10100D02*
X25120D01*
X15270Y-10200D02*
X25120D01*
X18200Y-13850D02*
Y-4000D01*
X18100Y-13850D02*
Y-4000D01*
X18000Y-13850D02*
Y-4000D01*
X17900Y-13850D02*
Y-4000D01*
X17800Y-13850D02*
Y-4000D01*
X17700Y-13850D02*
Y-4000D01*
X17600Y-13850D02*
Y-4000D01*
X15270Y-10300D02*
X25120D01*
X15270Y-10400D02*
X25120D01*
X15270Y-10500D02*
X25120D01*
X15270Y-10600D02*
X25120D01*
X15270Y-10700D02*
X25120D01*
X15270Y-10800D02*
X25120D01*
X15270Y-10900D02*
X25120D01*
X15270Y-11000D02*
X24800D01*
X15270Y-11100D02*
X24517D01*
X15270Y-11200D02*
X24426D01*
X15270Y-11300D02*
X24376D01*
X15270Y-11400D02*
X24353D01*
X15270Y-11500D02*
X24353D01*
X15270Y-11600D02*
X24376D01*
X15270Y-11700D02*
X24426D01*
X15270Y-11800D02*
X24517D01*
X15935Y-13300D02*
X19315D01*
X15806Y-13200D02*
X19444D01*
X16039Y-13500D02*
X19211D01*
X16003Y-13400D02*
X19247D01*
X16050Y-13600D02*
X19200D01*
X16039Y-13700D02*
X19211D01*
X16003Y-13800D02*
X19247D01*
X17750Y-13850D02*
X18650D01*
X17750Y-13850D02*
X18150D01*
X17250D02*
X17750D01*
X17250Y-13850D02*
X17650D01*
X15270Y-12000D02*
X25120D01*
X15270Y-12100D02*
X25120D01*
X15270Y-12200D02*
X25120D01*
X15270Y-12300D02*
X25120D01*
X15270Y-11900D02*
X24800D01*
X15270Y-12400D02*
X25120D01*
X15270Y-12500D02*
X25120D01*
X15270Y-12600D02*
X25120D01*
X15270Y-12700D02*
X25120D01*
X15270Y-12800D02*
X25120D01*
X15270Y-12900D02*
X25120D01*
X15270Y-13000D02*
X25120D01*
X15270Y-13100D02*
X24129D01*
X17500Y-13850D02*
Y-4000D01*
X17200Y-13850D02*
Y-3900D01*
X17400Y-13850D02*
Y-4000D01*
X17300Y-13850D02*
Y-4000D01*
X17100Y-13850D02*
Y-4000D01*
X17000Y-13850D02*
Y-4000D01*
X16900Y-13850D02*
Y-4000D01*
X16800Y-13850D02*
Y-4000D01*
X16700Y-13850D02*
Y-4000D01*
X16600Y-13850D02*
Y-4000D01*
X16500Y-13850D02*
Y-4000D01*
X16400Y-13850D02*
Y-4000D01*
X16300Y-13850D02*
Y-4000D01*
X16200Y-13850D02*
Y-4000D01*
X15700Y-13161D02*
Y-7889D01*
X15600Y-13150D02*
Y-7900D01*
X15270Y-9880D02*
Y-9480D01*
Y-9880D02*
Y-9480D01*
Y-9980D02*
Y-9880D01*
Y-10380D02*
Y-9980D01*
Y-10380D02*
Y-9980D01*
X16100Y-13850D02*
Y-4000D01*
X16000Y-13394D02*
Y-7656D01*
X15900Y-13265D02*
Y-7785D01*
X15800Y-13197D02*
Y-7853D01*
X15400Y-13197D02*
Y-7853D01*
X15300Y-13265D02*
Y-7785D01*
X15500Y-13161D02*
Y-7889D01*
X15270Y-10480D02*
Y-10380D01*
Y-10880D02*
Y-10480D01*
X17140Y-13850D02*
X17250D01*
X16750D02*
X17140D01*
X15270Y-10880D02*
Y-10480D01*
Y-11380D02*
Y-10880D01*
X15270Y-11380D02*
Y-10980D01*
X16640Y-13850D02*
X17140D01*
X16240D02*
X16640D01*
X16240D02*
X16640D01*
X16140D02*
X16240D01*
X15974D02*
X16140D01*
X15974Y-13850D02*
X16140D01*
X15270Y-11480D02*
Y-11380D01*
Y-11880D02*
Y-11480D01*
X15270Y-12380D02*
Y-11480D01*
X15270Y-12380D02*
Y-11980D01*
Y-12480D02*
Y-12380D01*
Y-12880D02*
Y-12480D01*
Y-12880D02*
Y-12480D01*
Y-13200D02*
X15394D01*
X15270Y-12980D02*
Y-12880D01*
Y-13294D02*
Y-12980D01*
Y-13294D02*
Y-12980D01*
X36200Y-5450D02*
Y-4970D01*
Y-5840D02*
Y-5450D01*
X36200Y-5950D02*
Y-5450D01*
X36300Y-7050D02*
Y-6850D01*
Y-7450D02*
Y-6850D01*
X36200D02*
Y-4970D01*
X35720D02*
X36200D01*
X36200Y-6350D02*
Y-5950D01*
Y-6350D02*
Y-5950D01*
Y-6850D02*
Y-6350D01*
Y-6850D02*
X36300D01*
X36200Y-8450D02*
Y-6850D01*
X36300Y-7250D02*
Y-7050D01*
Y-7250D02*
Y-7050D01*
Y-7450D02*
Y-7250D01*
Y-8450D02*
Y-8350D01*
Y-8450D02*
Y-8350D01*
X36200Y-7450D02*
X36300D01*
X36200Y-8350D02*
X36300D01*
X36200D02*
Y-7450D01*
X36200Y-8450D02*
X36300D01*
X36200Y-8950D02*
Y-8450D01*
Y-9350D02*
Y-8950D01*
X36100Y-9820D02*
Y-4970D01*
X35330D02*
X35720D01*
X36000Y-9820D02*
Y-4970D01*
X35900Y-9820D02*
Y-4970D01*
X35800Y-9820D02*
Y-4970D01*
X35330D02*
X35720D01*
X35220D02*
X35330D01*
X34820D02*
X35220D01*
X34820D02*
X35220D01*
X34720D02*
X34820D01*
X34320D02*
X34720D01*
X34320D02*
X34720D01*
X33820D02*
X34320D01*
X33820Y-4970D02*
X34220D01*
X36200Y-9820D02*
Y-8450D01*
Y-9350D02*
Y-8950D01*
Y-9820D02*
Y-9350D01*
X33720Y-4970D02*
X33820D01*
X33320D02*
X33720D01*
X33220Y-4970D02*
X33720D01*
X32820D02*
X33220D01*
X32820D02*
X33220D01*
X35700Y-9820D02*
Y-4970D01*
X35600Y-9820D02*
Y-4970D01*
X35500Y-9820D02*
Y-4970D01*
X35400Y-9820D02*
Y-4970D01*
X35300Y-9820D02*
Y-4970D01*
X35200Y-9820D02*
Y-4970D01*
X35100Y-9820D02*
Y-4970D01*
X35000Y-9820D02*
Y-4970D01*
X34900Y-9820D02*
Y-4970D01*
X34800Y-9820D02*
Y-4970D01*
X34700Y-9820D02*
Y-4970D01*
X34600Y-9820D02*
Y-4970D01*
X35720Y-9820D02*
X36200D01*
X35330D02*
X35720D01*
X35330D02*
X35720D01*
X34820D02*
X35330D01*
X34820Y-9820D02*
X35220D01*
X34720D02*
X34820D01*
X34500D02*
Y-4970D01*
X34320Y-9820D02*
X34720D01*
X34400D02*
Y-4970D01*
X34320Y-9820D02*
X34720D01*
X34300D02*
Y-4970D01*
X34200Y-9820D02*
Y-4970D01*
X34100Y-9820D02*
Y-4970D01*
X34000Y-9820D02*
Y-4970D01*
X33900Y-9820D02*
Y-4970D01*
X33800Y-9820D02*
Y-4970D01*
X33700Y-9820D02*
Y-4970D01*
X33600Y-9820D02*
Y-4970D01*
X33500Y-9820D02*
Y-4970D01*
X33400Y-9820D02*
Y-4970D01*
X33300Y-9820D02*
Y-4970D01*
X33200Y-9820D02*
Y-4970D01*
X33100Y-9820D02*
Y-4970D01*
X34220Y-9820D02*
X34320D01*
X33820D02*
X34220D01*
X33820D02*
X34220D01*
X33720D02*
X33820D01*
X33320D02*
X33720D01*
X33220Y-9820D02*
X33720D01*
X33000D02*
Y-4970D01*
X32820Y-9820D02*
X33220D01*
X32900D02*
Y-4970D01*
X32820Y-9820D02*
X33220D01*
X32800D02*
Y-4970D01*
X31350Y-5000D02*
X36200D01*
X31350Y-5100D02*
X36200D01*
X31350Y-5200D02*
X36200D01*
X31350Y-5300D02*
X36200D01*
X31350Y-5400D02*
X36200D01*
X31350Y-5500D02*
X36200D01*
X31350Y-5600D02*
X36200D01*
X31350Y-5700D02*
X36200D01*
X31350Y-5800D02*
X36200D01*
X31350Y-5900D02*
X36200D01*
X31350Y-6000D02*
X36200D01*
X31350Y-6100D02*
X36200D01*
X31350Y-6200D02*
X36200D01*
X31350Y-6300D02*
X36200D01*
X31350Y-6400D02*
X36200D01*
X31350Y-6500D02*
X36200D01*
X31350Y-6600D02*
X36200D01*
X31350Y-6700D02*
X36200D01*
X31350Y-6900D02*
X36300D01*
X31350Y-7000D02*
X36300D01*
X31350Y-7100D02*
X36300D01*
X31350Y-7200D02*
X36300D01*
X31350Y-7300D02*
X36300D01*
X31350Y-7400D02*
X36300D01*
X32720Y-4970D02*
X32820D01*
X32320D02*
X32720D01*
X32320D02*
X32720D01*
X32220D02*
X32320D01*
X31820D02*
X32220D01*
X31820D02*
X32220D01*
X31350D02*
X31820D01*
X31350Y-5840D02*
Y-4970D01*
X31350Y-5840D02*
Y-5450D01*
Y-5950D02*
Y-5840D01*
Y-6350D02*
Y-5950D01*
X31350Y-6850D02*
Y-5950D01*
X31350Y-6850D02*
Y-6450D01*
X31350Y-6800D02*
X36200D01*
X31350Y-7350D02*
Y-6850D01*
X31350Y-7350D02*
Y-6950D01*
Y-7450D02*
Y-7350D01*
Y-7850D02*
Y-7450D01*
X31350Y-7500D02*
X36200D01*
X31350Y-7600D02*
X36200D01*
X31350Y-7700D02*
X36200D01*
X31350Y-7800D02*
X36200D01*
X31350Y-7900D02*
X36200D01*
X31350Y-8000D02*
X36200D01*
X31350Y-8100D02*
X36200D01*
X31350Y-8200D02*
X36200D01*
X32700Y-9820D02*
Y-4970D01*
X31350Y-8300D02*
X36200D01*
X32600Y-9820D02*
Y-4970D01*
X31350Y-8400D02*
X36300D01*
X31350Y-8500D02*
X36200D01*
X31350Y-8600D02*
X36200D01*
X31350Y-8700D02*
X36200D01*
X31350Y-8800D02*
X36200D01*
X31350Y-8900D02*
X36200D01*
X31350Y-9000D02*
X36200D01*
X31350Y-9100D02*
X36200D01*
X31350Y-9200D02*
X36200D01*
X31350Y-9300D02*
X36200D01*
X32320Y-9820D02*
X32820D01*
X32320Y-9820D02*
X32720D01*
X31350Y-9400D02*
X36200D01*
X31350Y-9500D02*
X36200D01*
X31350Y-9600D02*
X36200D01*
X31350Y-9700D02*
X36200D01*
X31350Y-9800D02*
X36200D01*
X32500Y-9820D02*
Y-4970D01*
X32400Y-9820D02*
Y-4970D01*
X32300Y-9820D02*
Y-4970D01*
X32200Y-9820D02*
Y-4970D01*
X32100Y-9820D02*
Y-4970D01*
X32000Y-9820D02*
Y-4970D01*
X31900Y-9820D02*
Y-4970D01*
X31800Y-9820D02*
Y-4970D01*
X31700Y-9820D02*
Y-4970D01*
X31600Y-9820D02*
Y-4970D01*
X31500Y-9820D02*
Y-4970D01*
X31400Y-9820D02*
Y-4970D01*
X31350Y-8350D02*
Y-7450D01*
X31350Y-8350D02*
Y-7950D01*
Y-8450D02*
Y-8350D01*
X32220Y-9820D02*
X32320D01*
X31820D02*
X32220D01*
X31350Y-8850D02*
Y-8450D01*
X31350Y-8950D02*
Y-8450D01*
Y-9350D02*
Y-8950D01*
Y-9350D02*
Y-8950D01*
Y-9820D02*
X32220D01*
X31350D02*
Y-9350D01*
X53750Y-7600D02*
X53850D01*
X53450Y-7700D02*
X53850D01*
Y-7950D02*
Y-7500D01*
X53850Y-7950D02*
Y-7550D01*
Y-8050D02*
Y-7950D01*
Y-8450D02*
Y-8050D01*
Y-8450D02*
Y-8050D01*
X53333Y-7800D02*
X53850D01*
X53257Y-7900D02*
X53850D01*
X53118Y-8000D02*
X53850D01*
X52760Y-8100D02*
X53850D01*
X52760Y-8200D02*
X53850D01*
X52760Y-8300D02*
X53850D01*
Y-8550D02*
Y-8450D01*
X52890Y-8700D02*
X53850D01*
X52900Y-8800D02*
X53850D01*
Y-8950D02*
Y-8550D01*
Y-8950D02*
Y-8550D01*
X52760Y-8400D02*
X53850D01*
X52800Y-8500D02*
X53850D01*
X52858Y-8600D02*
X53850D01*
X52890Y-8900D02*
X53850D01*
X52858Y-9000D02*
X53850D01*
X52800Y-9100D02*
X53850D01*
X52700Y-9200D02*
X53850D01*
X51480Y-7080D02*
X51980D01*
X51480Y-7080D02*
X51880D01*
X51205D02*
X51480D01*
X51205Y-7270D02*
Y-7080D01*
X52040Y-8453D02*
Y-7080D01*
X53377Y-7700D02*
X53450D01*
X51900Y-8800D02*
Y-7080D01*
X51205Y-7100D02*
X52040D01*
X51205Y-7200D02*
X52040D01*
X51203Y-7300D02*
X52040D01*
X51172Y-7400D02*
X52040D01*
X51092Y-7600D02*
X52040D01*
X53850Y-9450D02*
Y-8950D01*
X52900Y-8800D02*
Y-8050D01*
X52800Y-8500D02*
Y-8040D01*
X53850Y-9450D02*
Y-9050D01*
Y-9550D02*
Y-9450D01*
Y-9950D02*
Y-9550D01*
X51052Y-7700D02*
X52040D01*
X52760Y-8453D02*
Y-8030D01*
X50972Y-7800D02*
X52040D01*
X52400Y-9300D02*
X53850D01*
Y-10050D02*
Y-9550D01*
X53800Y-11930D02*
Y-7557D01*
X53850Y-10450D02*
Y-10050D01*
X53700Y-11930D02*
Y-7633D01*
X53600Y-11930D02*
Y-7677D01*
X53500Y-11930D02*
Y-7697D01*
X53400Y-11930D02*
Y-7697D01*
X53300Y-11930D02*
Y-7850D01*
X53200Y-11930D02*
Y-7950D01*
X53100Y-11930D02*
Y-8008D01*
X53000Y-11930D02*
Y-8040D01*
X52900Y-11930D02*
Y-8800D01*
X52800Y-11930D02*
Y-9100D01*
X53850Y-10450D02*
Y-10050D01*
Y-10550D02*
Y-10450D01*
Y-10950D02*
Y-10550D01*
Y-10950D02*
Y-10550D01*
Y-11060D02*
Y-10950D01*
Y-11450D02*
Y-11060D01*
Y-11450D02*
Y-11060D01*
Y-11930D02*
Y-11450D01*
X52980Y-11930D02*
X53850D01*
X52980Y-11930D02*
X53380D01*
X52880D02*
X52980D01*
X52480D02*
X52880D01*
X52480D02*
X52880D01*
X52000D02*
Y-9100D01*
X52700Y-11930D02*
Y-9200D01*
X51800Y-11930D02*
Y-7080D01*
X51900Y-11930D02*
Y-8800D01*
X51700Y-11930D02*
Y-7080D01*
X51600Y-11930D02*
Y-7080D01*
X51500Y-11930D02*
Y-7080D01*
X51400Y-11930D02*
Y-7080D01*
X51300Y-11930D02*
Y-7080D01*
X51200Y-11930D02*
Y-7322D01*
X51100Y-11930D02*
Y-7563D01*
X51000Y-11930D02*
Y-7772D01*
X50900Y-11930D02*
Y-7852D01*
X50800Y-11930D02*
Y-7892D01*
X52600Y-11930D02*
Y-9258D01*
X52500Y-11930D02*
Y-9290D01*
X52400Y-11930D02*
Y-9300D01*
X52380Y-11930D02*
X52480D01*
X52200D02*
Y-9258D01*
X52300Y-11930D02*
Y-9290D01*
X52100Y-11930D02*
Y-9200D01*
X51980Y-11930D02*
X52380D01*
X51980D02*
X52380D01*
X51480D02*
X51980D01*
X51480Y-11930D02*
X51880D01*
X51380D02*
X51480D01*
X50980D02*
X51380D01*
X49000Y-7800D02*
X50428D01*
X50763Y-7900D02*
X52040D01*
X50236Y-7425D02*
X50295Y-7484D01*
X49000Y-7700D02*
X50348D01*
X49000Y-8000D02*
X52040D01*
X49000Y-7900D02*
X50637D01*
X49000Y-8100D02*
X52040D01*
X49000Y-8200D02*
X52040D01*
X49000Y-8300D02*
X52040D01*
X49000Y-8400D02*
X52040D01*
X49000Y-8500D02*
X52000D01*
X49000Y-8600D02*
X51942D01*
X49000Y-8700D02*
X51910D01*
X49000Y-9000D02*
X51942D01*
X49000Y-9100D02*
X52000D01*
X49000Y-8800D02*
X51900D01*
X49000Y-8900D02*
X51910D01*
X49000Y-9300D02*
X52400D01*
X49000Y-9400D02*
X53850D01*
X49000Y-9200D02*
X52100D01*
X49000Y-9500D02*
X53850D01*
X49000Y-9600D02*
X53850D01*
X49000Y-9700D02*
X53850D01*
X49000Y-9800D02*
X53850D01*
X49000Y-9900D02*
X53850D01*
X49000Y-10000D02*
X53850D01*
X49000Y-10100D02*
X53850D01*
X49870Y-7080D02*
X50155D01*
X49480D02*
X49870D01*
X49480D02*
X49870D01*
X49000D02*
X49480D01*
X50155Y-7230D02*
Y-7080D01*
X49000Y-7300D02*
X50164D01*
X49000Y-7400D02*
X50214D01*
X49000Y-7100D02*
X50155D01*
X49000Y-7200D02*
X50155D01*
X49000Y-7550D02*
Y-7080D01*
Y-7500D02*
X50295D01*
X49000Y-7950D02*
Y-7550D01*
Y-7950D02*
Y-7550D01*
Y-7600D02*
X50308D01*
X49000Y-8050D02*
Y-7950D01*
Y-8450D02*
Y-8050D01*
Y-8450D02*
Y-8050D01*
Y-8550D02*
Y-8450D01*
Y-8950D02*
Y-8550D01*
Y-8950D02*
Y-8550D01*
Y-9450D02*
Y-8950D01*
X49000Y-9450D02*
Y-9275D01*
Y-9550D02*
Y-9450D01*
Y-9725D02*
Y-9550D01*
X49000Y-10050D02*
Y-9550D01*
Y-10200D02*
X53850D01*
X49000Y-10300D02*
X53850D01*
X50700Y-11930D02*
Y-7905D01*
X49000Y-10400D02*
X53850D01*
X50500Y-11930D02*
Y-7852D01*
X50600Y-11930D02*
Y-7892D01*
X50400Y-11930D02*
Y-7772D01*
X49000Y-10500D02*
X53850D01*
X49000Y-10600D02*
X53850D01*
X49000Y-10700D02*
X53850D01*
X49000Y-10800D02*
X53850D01*
X49000Y-10900D02*
X53850D01*
X49000Y-11000D02*
X53850D01*
X49000Y-11100D02*
X53850D01*
X49000Y-11200D02*
X53850D01*
X49000Y-11300D02*
X53850D01*
X50480Y-11930D02*
X51380D01*
X50480Y-11930D02*
X50880D01*
X50380D02*
X50480D01*
X49980D02*
X50380D01*
X49000Y-11400D02*
X53850D01*
X49000Y-11500D02*
X53850D01*
X49000Y-11600D02*
X53850D01*
X49000Y-11700D02*
X53850D01*
X49000Y-11800D02*
X53850D01*
X49000Y-11900D02*
X53850D01*
X50200Y-11930D02*
Y-7381D01*
X50300Y-11930D02*
Y-7563D01*
X50100Y-11930D02*
Y-7080D01*
X50000Y-11930D02*
Y-7080D01*
X49900Y-11930D02*
Y-7080D01*
X49800Y-11930D02*
Y-7080D01*
X49700Y-11930D02*
Y-7080D01*
X49600Y-11930D02*
Y-7080D01*
X49500Y-11930D02*
Y-7080D01*
X49400Y-11930D02*
Y-7080D01*
X49000Y-10450D02*
Y-10050D01*
X49300Y-11930D02*
Y-7080D01*
X49200Y-11930D02*
Y-7080D01*
X49100Y-11930D02*
Y-7080D01*
X49980Y-11930D02*
X50380D01*
X49480D02*
X49980D01*
X49000Y-10450D02*
Y-10050D01*
Y-10550D02*
Y-10450D01*
X49480Y-11930D02*
X49870D01*
X49000Y-10950D02*
Y-10550D01*
Y-10950D02*
Y-10550D01*
Y-11450D02*
Y-10950D01*
X49000Y-11450D02*
Y-11060D01*
Y-11930D02*
X49480D01*
X49000D02*
Y-11450D01*
X53850Y5550D02*
Y6420D01*
X53850Y5550D02*
Y5950D01*
Y5450D02*
Y5550D01*
Y5050D02*
Y5450D01*
X53380Y6420D02*
X53850D01*
X53850Y5050D02*
Y5450D01*
Y4950D02*
Y5050D01*
Y4550D02*
Y4950D01*
Y4550D02*
Y4950D01*
Y4050D02*
Y4550D01*
X53850Y4050D02*
Y4450D01*
Y3950D02*
Y4050D01*
Y3550D02*
Y3950D01*
X53850Y3450D02*
Y3950D01*
Y3050D02*
Y3450D01*
Y3050D02*
Y3450D01*
Y2950D02*
Y3050D01*
Y2550D02*
Y2950D01*
Y2550D02*
Y2950D01*
X52980Y6420D02*
X53380D01*
X52980D02*
X53380D01*
X53200Y2396D02*
Y6420D01*
X53100Y2400D02*
Y6420D01*
X53000Y2400D02*
Y6420D01*
X52900Y2400D02*
Y6420D01*
X52880D02*
X52980D01*
X52480D02*
X52880D01*
X52480D02*
X52880D01*
X52380D02*
X52480D01*
X51980D02*
X52380D01*
X51980D02*
X52380D01*
X51480D02*
X51980D01*
X51480Y6420D02*
X51880D01*
X53850Y2440D02*
Y2550D01*
X53150Y2400D02*
X53850D01*
X51380Y6420D02*
X51480D01*
X50980D02*
X51380D01*
X50880Y6420D02*
X51380D01*
X50480D02*
X50880D01*
X50480D02*
X50880D01*
X53600Y2095D02*
Y6420D01*
X53850Y2050D02*
Y2440D01*
X53500Y2195D02*
Y6420D01*
X53800Y1895D02*
Y6420D01*
X53850Y2050D02*
Y2440D01*
X53700Y1995D02*
Y6420D01*
X52800Y2400D02*
Y6420D01*
X52700Y2400D02*
Y6420D01*
X52600Y2400D02*
Y6420D01*
X53400Y2295D02*
Y6420D01*
X53300Y2366D02*
Y6420D01*
X53595Y2100D02*
X53850D01*
X53695Y2000D02*
X53850D01*
X53795Y1900D02*
X53850D01*
Y1845D02*
Y2050D01*
X53395Y2300D02*
X53850D01*
X53495Y2200D02*
X53850D01*
X53398Y2297D02*
X53850Y1845D01*
X52500Y2400D02*
Y6420D01*
X52400Y2400D02*
Y6420D01*
X52300Y2400D02*
Y6420D01*
X52200Y2400D02*
Y6420D01*
X52100Y2400D02*
Y6420D01*
X52000Y2400D02*
Y6420D01*
X51900Y2400D02*
Y6420D01*
X51800Y2400D02*
Y6420D01*
X51700Y2400D02*
Y6420D01*
X51600Y2400D02*
Y6420D01*
X51500Y2400D02*
Y6420D01*
X51400Y2400D02*
Y6420D01*
X51300Y2400D02*
Y6420D01*
X51200Y2400D02*
Y6420D01*
X51100Y2400D02*
Y6420D01*
X51000Y2400D02*
Y6420D01*
X50900Y2400D02*
Y6420D01*
X50800Y2400D02*
Y6420D01*
X50700Y2400D02*
Y6420D01*
X50600Y2400D02*
Y6420D01*
X50500Y2400D02*
Y6420D01*
X49000Y6400D02*
X53850D01*
X49000Y6300D02*
X53850D01*
X49000Y6200D02*
X53850D01*
X49000Y6100D02*
X53850D01*
X49000Y6000D02*
X53850D01*
X49000Y5900D02*
X53850D01*
X49000Y5800D02*
X53850D01*
X49000Y5700D02*
X53850D01*
X49000Y5600D02*
X53850D01*
X49000Y5500D02*
X53850D01*
X49000Y5400D02*
X53850D01*
X49000Y5300D02*
X53850D01*
X49000Y5200D02*
X53850D01*
X49000Y5100D02*
X53850D01*
X49000Y5000D02*
X53850D01*
X49000Y4900D02*
X53850D01*
X49000Y4800D02*
X53850D01*
X49000Y4700D02*
X53850D01*
X49000Y4600D02*
X53850D01*
X49000Y4500D02*
X53850D01*
X49000Y4400D02*
X53850D01*
X50380Y6420D02*
X50480D01*
X49980D02*
X50380D01*
X49980D02*
X50380D01*
X49870D02*
X49980D01*
X49480D02*
X49870D01*
X49480D02*
X49870D01*
X49000D02*
X49480D01*
X49000Y5950D02*
Y6420D01*
Y5550D02*
Y5950D01*
Y5550D02*
Y5950D01*
Y5450D02*
Y5550D01*
Y5050D02*
Y5450D01*
Y5050D02*
Y5450D01*
Y4950D02*
Y5050D01*
Y4550D02*
Y4950D01*
Y4550D02*
Y4950D01*
Y4300D02*
X53850D01*
X49000Y4200D02*
X53850D01*
X49000Y4100D02*
X53850D01*
X49000Y4050D02*
Y4550D01*
X49000Y4050D02*
Y4225D01*
Y4000D02*
X53850D01*
X49000Y3900D02*
X53850D01*
X49000Y3800D02*
X53850D01*
X50400Y2400D02*
Y6420D01*
X50300Y2400D02*
Y6420D01*
X50200Y2400D02*
Y6420D01*
X49000Y3700D02*
X53850D01*
X49000Y3600D02*
X53850D01*
X49000Y3500D02*
X53850D01*
X49000Y3400D02*
X53850D01*
X49000Y3300D02*
X53850D01*
X49000Y3200D02*
X53850D01*
X49000Y3100D02*
X53850D01*
X49429Y2500D02*
X53850D01*
X49564Y2400D02*
X53150D01*
X49564D02*
X53150D01*
X49000Y3000D02*
X53850D01*
X49000Y2900D02*
X53850D01*
X49000Y2800D02*
X53850D01*
X49000Y2700D02*
X53850D01*
X49000Y2600D02*
X53850D01*
X50100Y2400D02*
Y6420D01*
X50000Y2400D02*
Y6420D01*
X49900Y2400D02*
Y6420D01*
X49800Y2400D02*
Y6420D01*
X49700Y2400D02*
Y6420D01*
X49400Y2514D02*
Y6420D01*
X49300Y2545D02*
Y6420D01*
X49200Y2555D02*
Y6420D01*
X49600Y2400D02*
Y6420D01*
X49500Y2456D02*
Y6420D01*
X49000Y3950D02*
Y4050D01*
Y3775D02*
Y3950D01*
X49000Y3450D02*
Y3950D01*
X49100Y2545D02*
Y6420D01*
X49000Y3050D02*
Y3450D01*
Y3050D02*
Y3450D01*
Y2950D02*
Y3050D01*
Y2550D02*
Y2950D01*
Y2550D02*
Y2950D01*
X44200Y11450D02*
Y14100D01*
Y-7000D02*
Y11450D01*
X44550Y9150D02*
Y13400D01*
X17450Y-17950D02*
X38400D01*
X48200Y7500D02*
X48450Y7250D01*
X43850Y-10150D02*
Y13950D01*
X37000Y-2050D02*
Y-1000D01*
X36450Y-2600D02*
X37000Y-2050D01*
X35750Y-2600D02*
X36450D01*
X40200Y-12950D02*
Y-2700D01*
X39500Y-13050D02*
Y-2950D01*
X8750Y3200D02*
X8950Y2900D01*
X25200Y-700D02*
Y8300D01*
X24850Y-1000D02*
Y6400D01*
X28500Y3000D02*
X28650Y2800D01*
X27500Y1700D02*
X28000Y1200D01*
Y500D02*
Y1200D01*
X27500Y1700D02*
Y2800D01*
X28000Y11400D02*
Y13200D01*
Y6300D02*
Y8600D01*
X28500Y3890D02*
Y5800D01*
X27050Y-13450D02*
X27250Y-13650D01*
X27050Y-12400D02*
X27600Y-12950D01*
X26850Y-14000D02*
X34250D01*
X27600Y-12950D02*
X32800D01*
X27400Y-13300D02*
X33250D01*
X27250Y-13650D02*
X33800D01*
X27050Y-11900D02*
X27750Y-12600D01*
X27050Y-12950D02*
X27400Y-13300D01*
X27750Y-12600D02*
X32250D01*
X28150Y-12250D02*
X31750D01*
X26850Y-10950D02*
X28150Y-12250D01*
X27200Y-10400D02*
X28700Y-11900D01*
X31300D01*
X12900Y-600D02*
Y-400D01*
X46700Y-5300D02*
Y-4700D01*
X46300Y-4300D02*
X46700Y-4700D01*
X45600Y1850D02*
X46300Y1150D01*
Y-4300D02*
Y1150D01*
X45250Y1750D02*
X45950Y1050D01*
Y-4550D02*
Y1050D01*
X45600Y-4650D02*
Y950D01*
X44900Y1650D02*
X45600Y950D01*
X44550Y9150D02*
X45600Y8100D01*
Y1850D02*
Y8100D01*
X48450Y7250D02*
X48800D01*
X35000Y11400D02*
Y13200D01*
X35000Y6400D02*
Y8600D01*
X34990Y-1510D02*
Y-210D01*
X8700Y-200D02*
Y200D01*
X46350Y-5650D02*
X46700Y-5300D01*
X37000Y-9400D02*
X38050D01*
X38300Y-9400D01*
X38950Y-17400D02*
X44850D01*
X46350Y-15900D01*
Y-5650D01*
X45250Y1750D02*
Y7800D01*
X44900Y1650D02*
Y7400D01*
X41600Y14600D02*
X42800Y13400D01*
X41600Y14600D02*
Y16400D01*
X41000Y17000D02*
X41600Y16400D01*
X41000Y17000D02*
Y17000D01*
X38400Y-17950D02*
X38950Y-17400D01*
X15190Y-15690D02*
X17450Y-17950D01*
X15190Y-15690D02*
Y-14650D01*
X12010Y-13300D02*
X16100Y-17400D01*
X18100Y-17650D02*
X38250D01*
X39100Y-16800D01*
X44200D01*
X46000Y-12000D02*
Y-6650D01*
X37100Y-6400D02*
X38550D01*
X36000Y6400D02*
Y8600D01*
X35990Y-1540D02*
Y-210D01*
X37500Y13700D02*
Y15600D01*
Y8500D02*
Y10900D01*
X36990Y11410D02*
Y13190D01*
X37000Y6400D02*
Y8000D01*
X36990Y-210D02*
X37000Y-1000D01*
X45950Y-4550D02*
X46350Y-4950D01*
X45600Y-4650D02*
X46000Y-5050D01*
Y-5750D02*
Y-5050D01*
X43150Y-12850D02*
Y13650D01*
X44550Y-16000D02*
Y6500D01*
X41700Y-12350D02*
Y-2000D01*
X38500Y300D02*
Y6000D01*
X38000Y-2000D02*
Y-200D01*
X39500Y300D02*
Y6000D01*
X38990Y13190D02*
X39450Y13650D01*
X38990Y11410D02*
Y13190D01*
X39000Y6500D02*
Y8000D01*
X40500Y300D02*
Y6000D01*
X40000Y6500D02*
Y8000D01*
X41000Y8500D02*
Y10900D01*
X41000Y300D02*
Y6000D01*
X40550Y-12700D02*
Y-2550D01*
X39990Y13690D02*
Y15560D01*
X40000Y8500D02*
Y10900D01*
X40000Y300D02*
Y6000D01*
X39850Y-12600D02*
Y-2850D01*
X39000Y8500D02*
Y10900D01*
X39150Y-12250D02*
Y-3100D01*
X39000Y300D02*
Y6000D01*
X39500Y-200D02*
X40000Y300D01*
X39500Y-2500D02*
Y-200D01*
X39000Y-200D02*
X39500Y300D01*
X39000Y-1000D02*
Y-200D01*
X40900Y-12050D02*
Y-2700D01*
X37000Y300D02*
Y5900D01*
X36500Y8000D02*
X37000Y8500D01*
X45250Y-14900D02*
Y-5150D01*
X44900Y-4800D02*
Y1100D01*
X45600Y-15350D02*
Y-5050D01*
X45250Y-4700D02*
Y700D01*
X44900Y-15600D02*
Y-5350D01*
X44200Y-16800D02*
Y-9200D01*
X37500Y-2400D02*
Y-200D01*
X39850Y-13300D02*
X40200Y-12950D01*
X38900Y-13650D02*
X39500Y-13050D01*
X41300Y-11550D02*
Y-2350D01*
X42100Y-12450D02*
Y-3050D01*
X42450Y-12550D02*
Y9200D01*
X42800Y-12650D02*
Y11100D01*
X43500Y-13200D02*
Y13800D01*
X37220Y-5400D02*
X38450D01*
X9200Y2900D02*
X9200Y1750D01*
X8200Y750D02*
X9200Y1750D01*
X11450Y1200D02*
Y3200D01*
Y1200D02*
X11650Y1000D01*
X12000Y2000D02*
X12010Y-13300D01*
X9700Y2400D02*
X10200D01*
X9200Y3000D02*
Y3400D01*
Y3500D01*
X9200Y4000D01*
X9200Y2900D02*
Y3000D01*
X11650Y-13700D02*
Y1000D01*
X8750Y3200D02*
X8750Y3200D01*
X8950Y2900D02*
X8950Y2400D01*
X8450Y200D02*
Y1000D01*
X9200Y4000D02*
X9200Y4000D01*
X8200Y200D02*
Y750D01*
X5500Y2000D02*
X6600D01*
X7000Y2400D01*
X7950D01*
X5500Y800D02*
X6400D01*
X7000Y200D01*
X7950D01*
X7700Y-3500D02*
Y-1600D01*
X9450Y-3250D02*
X9700Y-3500D01*
X9450Y-3250D02*
Y200D01*
X9200Y-550D02*
X9200Y-550D01*
Y200D01*
X34000Y1500D02*
Y5900D01*
X22200Y-3200D02*
Y-2250D01*
X23450Y-1000D01*
X23900D01*
X23600Y-1400D02*
X24450D01*
X22700Y-2300D02*
X23600Y-1400D01*
X22700Y-3200D02*
Y-2300D01*
X23900Y-1000D02*
X24150Y-750D01*
Y1500D01*
X29000Y13700D02*
Y15600D01*
X29000Y9100D02*
Y10900D01*
X24450Y-1400D02*
X24850Y-1000D01*
X29000Y5000D02*
X29000Y5000D01*
Y1900D02*
Y5000D01*
X24500Y-800D02*
Y1900D01*
X18700Y-3200D02*
Y-800D01*
X23900Y-1700D02*
X25650D01*
X23200Y-2400D02*
X23900Y-1700D01*
X28500Y6400D02*
Y8600D01*
X29000Y9100D01*
X23200Y-3000D02*
Y-2400D01*
X36990Y13690D02*
Y15590D01*
X36150Y-2000D02*
X36500Y-1650D01*
Y-200D01*
X35250Y-3950D02*
Y-3200D01*
X36500Y-200D02*
X37000Y300D01*
X36990Y-210D02*
X37500Y300D01*
Y-200D02*
X38000Y300D01*
Y13700D02*
Y15650D01*
X38000Y8500D02*
Y10900D01*
X38000Y300D02*
Y900D01*
Y-200D02*
X38500Y300D01*
X37500Y-2400D02*
X37800Y-2700D01*
X46850Y5500D02*
X47900D01*
X49400Y7240D02*
Y7850D01*
X49250Y8000D02*
X49400Y7850D01*
X47400Y8000D02*
X49250D01*
X46600D02*
X47400D01*
X49200Y2050D02*
X53150D01*
X53710Y1490D01*
X54650D01*
X46850Y6500D02*
X48200D01*
X37210Y-5390D02*
X37220Y-5400D01*
X37000Y-5390D02*
X37210D01*
X37000Y-5900D02*
X37150D01*
X37150Y-5900D01*
X38450D01*
X43500Y14800D02*
X44200Y14100D01*
X43000Y18000D02*
X43500Y17500D01*
X43000Y14800D02*
X43850Y13950D01*
X43000Y14800D02*
Y17000D01*
X42500Y14800D02*
X43500Y13800D01*
X42500Y14800D02*
Y17500D01*
X42000Y14800D02*
X43150Y13650D01*
X42000Y18000D02*
X42500Y17500D01*
X39990Y12010D02*
Y13140D01*
X40000Y-200D02*
X40500Y300D01*
X40000Y11400D02*
Y12000D01*
Y11400D02*
X40500Y10900D01*
X38000Y13250D02*
X38500Y13800D01*
X46850Y7500D02*
X48200D01*
X48880Y7220D02*
X48920D01*
X48850Y7200D02*
X48880Y7220D01*
X49400Y7240D02*
X49420Y7220D01*
X38500Y13700D02*
Y15600D01*
X42000Y14800D02*
Y17000D01*
X40500Y17500D02*
X41000Y18000D01*
X40500Y16100D02*
Y17500D01*
Y16100D02*
X41000Y15600D01*
X39500Y17500D02*
X40000Y18000D01*
X39500Y16050D02*
Y17500D01*
Y16050D02*
X39990Y15560D01*
X39000Y15000D02*
Y15600D01*
X38500Y16100D02*
X39000Y15600D01*
X38500Y16100D02*
Y17500D01*
X39000Y18000D01*
X37500Y17500D02*
X38000Y18000D01*
X37500Y16150D02*
Y17500D01*
Y16150D02*
X38000Y15650D01*
X40000Y16100D02*
Y17000D01*
Y16100D02*
X40500Y15600D01*
X39000Y16050D02*
Y17000D01*
Y16050D02*
X39450Y15600D01*
X38000Y16100D02*
Y17000D01*
Y16100D02*
X38500Y15600D01*
X37000Y16100D02*
Y17000D01*
Y16100D02*
X37500Y15600D01*
X36500Y16080D02*
X36990Y15590D01*
X36500Y16080D02*
Y17500D01*
X37000Y18000D01*
X36000Y16100D02*
Y17000D01*
Y16100D02*
X36500Y15600D01*
X48850Y700D02*
X48920Y770D01*
X47300Y700D02*
X48850D01*
X40500Y13650D02*
Y15600D01*
X39990Y13140D02*
X40150Y13300D01*
X39450Y13650D02*
Y15600D01*
X38500Y13700D02*
Y13800D01*
X46700Y2000D02*
X47950D01*
X47960Y1990D01*
X48200D01*
X35990Y12010D02*
Y13190D01*
X47900Y5500D02*
X48200D01*
X47900Y5500D02*
X47900Y5500D01*
Y5000D02*
X48200D01*
X47900Y5000D02*
X47900Y5000D01*
X46600Y5000D02*
X47900D01*
X47900Y6000D02*
X48200D01*
X47900Y6000D02*
X47900Y6000D01*
X46850Y4500D02*
X48200D01*
X46600Y4000D02*
X48200D01*
X46850Y3500D02*
X48100D01*
X48100Y3500D01*
X48200D01*
X38000Y5000D02*
Y6000D01*
Y5000D02*
X38000Y900D01*
X47900Y3000D02*
X48200D01*
X47900Y3000D02*
X47900Y3000D01*
X46600Y3000D02*
X47900D01*
X37000Y10400D02*
X37000Y8500D01*
X37000Y10400D02*
Y10900D01*
X46850Y2500D02*
X47000Y2500D01*
X48200D01*
X40500Y-200D02*
X41000Y300D01*
X38500Y-200D02*
X39000Y300D01*
X34770Y-10970D02*
Y-10620D01*
X24200Y-14650D02*
Y-13600D01*
X31770Y-10830D02*
Y-10620D01*
X31270Y-10770D02*
Y-10620D01*
Y-10770D02*
X31300Y-10800D01*
X41000Y15000D02*
X41000Y13050D01*
X40500Y8000D02*
X41000Y8500D01*
X40500Y6500D02*
Y8000D01*
Y6500D02*
X41000Y6000D01*
X37000Y8000D02*
X37500Y8500D01*
X36500Y6400D02*
Y8000D01*
Y6400D02*
X37000Y5900D01*
X36990Y11410D02*
X37500Y10900D01*
Y8000D02*
X38000Y8500D01*
X37500Y6500D02*
Y8000D01*
X39500Y13200D02*
X39990Y13690D01*
X40500Y8500D02*
Y10900D01*
X40000Y8000D02*
X40500Y8500D01*
X39500Y11400D02*
Y13200D01*
Y11400D02*
X40000Y10900D01*
X38990Y13690D02*
Y15010D01*
X38500Y13200D02*
X38990Y13690D01*
X38500Y11400D02*
Y13200D01*
Y11400D02*
X39000Y10900D01*
X38990Y11410D02*
X39500Y10900D01*
Y8500D02*
Y10900D01*
X39000Y8000D02*
X39500Y8500D01*
X40000Y6500D02*
X40500Y6000D01*
X39500Y8000D02*
X40000Y8500D01*
X39500Y6500D02*
Y8000D01*
Y6500D02*
X40000Y6000D01*
X39000Y6500D02*
X39500Y6000D01*
X38500Y8000D02*
X39000Y8500D01*
X38500Y6500D02*
Y8000D01*
Y6500D02*
X39000Y6000D01*
X38000Y7400D02*
X38000Y7400D01*
Y6500D02*
Y7400D01*
Y6500D02*
X38500Y6000D01*
X37990Y15010D02*
X38000Y15000D01*
X37500Y11400D02*
X38000Y10900D01*
X37990Y12010D02*
X38000Y12000D01*
Y11400D02*
X38500Y10900D01*
Y8500D02*
Y10900D01*
X38000Y8000D02*
X38500Y8500D01*
X38000Y7400D02*
Y8000D01*
X37500Y6500D02*
X38000Y6000D01*
X29000Y300D02*
Y450D01*
X29000Y6400D02*
X29500Y5900D01*
Y300D02*
Y5900D01*
Y6400D02*
Y8600D01*
Y6400D02*
X30000Y5900D01*
X30000Y6400D02*
X30500Y5900D01*
X29000Y-200D02*
X29500Y300D01*
Y8600D02*
X30000Y9100D01*
X30500Y8600D02*
X31000Y9100D01*
X30500Y6400D02*
Y8600D01*
Y6400D02*
X30990Y5910D01*
X28500Y-1700D02*
Y-200D01*
X31500Y8600D02*
X32000Y9100D01*
X31500Y6400D02*
Y8600D01*
Y6400D02*
X32000Y5900D01*
X34500Y6400D02*
X35000Y5900D01*
X34000Y10400D02*
X34000Y10400D01*
Y9100D02*
Y10400D01*
X33500Y6400D02*
Y8600D01*
Y6400D02*
X34000Y5900D01*
X32500Y8600D02*
X33000Y9100D01*
X32500Y6400D02*
Y8600D01*
Y6400D02*
X33000Y5900D01*
X37000Y6400D02*
X37500Y5900D01*
X36000Y6400D02*
X36500Y5900D01*
X35990Y-210D02*
X36500Y300D01*
X35000Y6400D02*
X35500Y5900D01*
Y300D02*
Y5900D01*
X34990Y-210D02*
X35500Y300D01*
X34000Y6400D02*
X34500Y5900D01*
Y300D02*
Y5900D01*
X33990Y-210D02*
X34500Y300D01*
X33000Y7400D02*
X33000Y7400D01*
Y6400D02*
Y7400D01*
Y6400D02*
X33500Y5900D01*
Y300D02*
Y5900D01*
X32990Y-210D02*
X33500Y300D01*
X28300Y-6400D02*
X28500Y-6200D01*
X28450Y-8400D02*
Y-6800D01*
X35000Y1250D02*
X35000Y1150D01*
X30300Y-9400D02*
X30550D01*
X34270Y-10930D02*
Y-10620D01*
X33770Y-10870D02*
Y-10620D01*
X33270Y-10980D02*
Y-10620D01*
X32770Y-10870D02*
Y-10620D01*
X32270Y-10930D02*
Y-10620D01*
X33250Y-4150D02*
Y-2950D01*
X23200Y-3000D02*
X23200Y-3000D01*
X23200Y-3200D02*
Y-3000D01*
X32750Y-3900D02*
Y-2850D01*
X24200Y-3200D02*
Y-2350D01*
X24500Y-2050D02*
X25200D01*
X24200Y-2350D02*
X24500Y-2050D01*
X24900Y-2400D02*
X25600D01*
X24700Y-2600D02*
X24900Y-2400D01*
X24700Y-3200D02*
Y-2600D01*
X25200Y-3200D02*
X25300D01*
X26080Y-3920D02*
X26100Y-3900D01*
X25920Y-3920D02*
X26080D01*
X28000Y6300D02*
X28500Y5800D01*
X28900Y-6950D02*
Y-6650D01*
X29200Y-3200D02*
Y-1800D01*
X31990Y-210D02*
X32500Y300D01*
X31500D02*
Y5900D01*
X30990Y-210D02*
X31500Y300D01*
X32500D02*
Y5900D01*
X29250Y-7350D02*
Y-5000D01*
X29500Y-4750D01*
Y-200D01*
X30000Y300D01*
X29990Y-210D02*
X30500Y300D01*
X30100Y-5400D02*
X30540D01*
X26080Y-4420D02*
X26100Y-4400D01*
X25920Y-4420D02*
X26080D01*
X30150Y-8900D02*
X30550D01*
X30200Y-8400D02*
X30550D01*
X30550Y-7900D02*
X30550Y-7900D01*
X26170Y-7430D02*
X26200Y-7450D01*
X25920Y-7430D02*
X26170D01*
X30250Y-6900D02*
X30550D01*
X26180Y-6930D02*
X26200Y-6950D01*
X26130Y-6930D02*
X26180D01*
X25920D02*
X26130D01*
X30250Y-6400D02*
X30550D01*
X26170Y-6430D02*
X26200Y-6400D01*
X25920Y-6430D02*
X26170D01*
X30550Y-5900D02*
X30550Y-5900D01*
X29600Y-5900D02*
X30550D01*
X26070Y-5930D02*
X26100Y-5900D01*
X25920Y-5930D02*
X26070D01*
X31250Y-4150D02*
X31270Y-4170D01*
X30600Y-3400D02*
X31000D01*
X30500Y-1600D02*
X31750Y-2850D01*
X30500Y-1600D02*
Y-200D01*
X32000Y6400D02*
X32500Y5900D01*
X31000Y6400D02*
X31500Y5900D01*
X30500Y-200D02*
X30990Y290D01*
X30500Y300D02*
Y5900D01*
X29000Y7400D02*
X29000Y7400D01*
X30550Y-5390D02*
X30560Y-5400D01*
X31240Y-4200D02*
X31270Y-4170D01*
X31250Y-3900D02*
X31270Y-3920D01*
X30540Y-5400D02*
X30550Y-5390D01*
X35270Y-4170D02*
Y-3970D01*
X35250Y-3950D02*
X35270Y-3970D01*
X31770Y-4170D02*
Y-3920D01*
X31750Y-3900D02*
X31770Y-3920D01*
X31750Y-3900D02*
Y-3550D01*
X34770Y-4170D02*
Y-3970D01*
X34750Y-3950D02*
X34770Y-3970D01*
X32270Y-4170D02*
Y-3920D01*
X32250Y-3900D02*
X32270Y-3920D01*
X32250Y-3900D02*
Y-2950D01*
X32770Y-4170D02*
Y-3920D01*
X32750Y-3900D02*
X32770Y-3920D01*
X34250Y-4150D02*
X34270Y-4170D01*
X34250Y-4150D02*
Y-2250D01*
X34990Y-1510D01*
X33750Y-4150D02*
X33770Y-4170D01*
X33750Y-4150D02*
Y-2200D01*
X33990Y-1960D01*
X33250Y-2950D02*
Y-2200D01*
X40500Y11400D02*
X41000Y10900D01*
X48800Y7250D02*
X48850Y7200D01*
X37500Y300D02*
Y5900D01*
X46600Y6000D02*
X47900D01*
X38000Y11400D02*
Y13250D01*
X40500Y11400D02*
Y12550D01*
X41000Y15000D02*
X41000Y15600D01*
X35000Y13200D02*
X35500Y13700D01*
Y15600D01*
X34500Y17500D02*
X35000Y18000D01*
Y16100D02*
Y17000D01*
Y16100D02*
X35500Y15600D01*
X34500Y16100D02*
X35000Y15600D01*
X34500Y16100D02*
Y17500D01*
X34000Y16100D02*
X34500Y15600D01*
X34000Y16100D02*
Y17000D01*
X33500Y16100D02*
X34000Y15600D01*
X33500Y16100D02*
Y17500D01*
X34000Y18000D01*
X34000Y10400D02*
Y10900D01*
X34500Y6400D02*
Y8600D01*
X35000Y9100D01*
X34000Y8600D02*
X34500Y9100D01*
Y10900D01*
X34000Y11400D02*
X34500Y10900D01*
X33990Y-1960D02*
Y-210D01*
X34000Y6400D02*
Y8600D01*
X34000Y11400D02*
Y13200D01*
X34500Y11400D02*
X35000Y10900D01*
X33500Y13200D02*
X34000Y13700D01*
Y13200D02*
X34500Y13700D01*
Y15600D01*
Y11400D02*
Y13200D01*
X35000Y13700D01*
X35000Y8600D02*
X35500Y9100D01*
X36000Y8600D02*
X36500Y9100D01*
Y11400D02*
X37000Y10900D01*
X36500Y9100D02*
Y10900D01*
X36000Y11400D02*
X36500Y10900D01*
X36000Y11400D02*
Y12000D01*
X36500Y300D02*
Y5900D01*
Y13700D02*
Y15600D01*
X34000Y13700D02*
Y15600D01*
X23700Y-15500D02*
X23700Y-15500D01*
X35780Y-10980D02*
Y-10620D01*
X36280Y-10830D02*
Y-10620D01*
X21700Y-14650D02*
X21700Y-15000D01*
X22700Y-14650D02*
X22700Y-15800D01*
X22950Y-16050D01*
X24300D01*
X24850Y-15500D01*
X35000Y11400D02*
X35500Y10900D01*
Y9100D02*
Y10900D01*
X35990Y13190D02*
X36500Y13700D01*
Y13200D02*
X36990Y13690D01*
X36500Y11400D02*
Y13200D01*
X36990Y13190D02*
X37500Y13700D01*
Y11400D02*
Y13200D01*
X38000Y13700D01*
X41900Y12000D02*
X42800Y11100D01*
X36000Y9650D02*
Y10400D01*
Y9650D02*
X36000Y9200D01*
X38500Y-2450D02*
X38700Y-2650D01*
X36000Y300D02*
Y5000D01*
X35500Y-200D02*
X36000Y300D01*
X35250Y-3200D02*
X35750Y-2600D01*
X34750Y-3950D02*
Y-2780D01*
X35990Y-1540D01*
X35500Y-1500D02*
Y-200D01*
X35000Y-2000D02*
X35500Y-1500D01*
X38100Y-17350D02*
X42800Y-12650D01*
X41850Y-14150D02*
X43150Y-12850D01*
X42000Y-14700D02*
X43500Y-13200D01*
X40200Y-13800D02*
X40250D01*
X37950Y-17050D02*
X42450Y-12550D01*
X37000Y-8900D02*
X37300D01*
X37300Y-8900D01*
X38500D01*
X40500Y-2350D02*
Y-200D01*
Y-2350D02*
X40550Y-2550D01*
X40000Y-1000D02*
Y-200D01*
Y-2500D02*
Y-1000D01*
Y-2500D02*
X40200Y-2700D01*
X39500Y-2500D02*
X39850Y-2850D01*
X39000Y-2450D02*
X39000Y-1000D01*
X39000Y-2450D02*
X39150Y-2600D01*
X39500Y-2950D01*
X38500Y-2450D02*
Y-200D01*
X38700Y-2650D02*
X39150Y-3100D01*
X21200Y-15800D02*
X21200Y-15800D01*
X20700Y-14650D02*
X20700Y-16000D01*
X21050Y-16350D01*
X26100D01*
X19200Y-15600D02*
X19200Y-15600D01*
X18700Y-15800D02*
X18700Y-15800D01*
X40250Y-13800D02*
X41700Y-12350D01*
X18200Y-14650D02*
X18200Y-16000D01*
X18950Y-16750D01*
X37800D01*
X42100Y-12450D01*
X17200Y-15700D02*
Y-14650D01*
X16690Y-15690D02*
Y-14650D01*
X18550Y-17050D02*
X37950D01*
X17200Y-15700D02*
X18550Y-17050D01*
X16690Y-15690D02*
X18350Y-17350D01*
X38100D01*
X43500Y14800D02*
Y17500D01*
X44900Y-4800D02*
X45250Y-5150D01*
Y-4700D02*
X45600Y-5050D01*
X40500Y12550D02*
X41000Y13050D01*
X40150Y13300D02*
X40500Y13650D01*
X36000Y13600D02*
Y15000D01*
X35500Y13100D02*
X36000Y13600D01*
X35500Y12700D02*
Y13100D01*
X33000Y7400D02*
Y8600D01*
X33500Y8600D02*
X34000Y9100D01*
X33000Y8600D02*
X33500Y9100D01*
Y11400D02*
X34000Y10900D01*
X33500Y11400D02*
Y13200D01*
Y9100D02*
Y10900D01*
X32990Y-210D02*
X33000Y-1000D01*
X32000Y8600D02*
X32500Y9100D01*
Y10900D01*
X32000Y11400D02*
X32500Y10900D01*
X32000Y12000D02*
X32000Y12000D01*
X31000Y8600D02*
X31500Y9100D01*
Y10900D01*
X31000Y11400D02*
X31500Y10900D01*
X31000Y12000D02*
X31000Y12000D01*
X30000Y8600D02*
X30500Y9100D01*
Y10900D01*
X30000Y11400D02*
X30500Y10900D01*
X29000Y8600D02*
X29500Y9100D01*
Y10900D01*
X29000Y11400D02*
X29500Y10900D01*
X28000Y8600D02*
X28500Y9100D01*
Y10900D01*
X28000Y11400D02*
X28500Y10900D01*
Y11400D02*
X29000Y10900D01*
X29500Y11400D02*
X30000Y10900D01*
X29500Y11400D02*
Y13200D01*
X30000Y13700D01*
X30500Y11500D02*
X31000Y11000D01*
X30500Y11500D02*
Y13200D01*
X31000Y13700D01*
X31500Y11500D02*
X32000Y11000D01*
X31500Y11500D02*
Y13200D01*
X32000Y13700D01*
X28500Y-200D02*
X29000Y300D01*
X33000Y11400D02*
X33500Y10900D01*
X32500Y11500D02*
X33000Y11000D01*
X32500Y11500D02*
Y13200D01*
X33000Y13700D01*
Y13200D02*
X33500Y13700D01*
Y15600D01*
X33000Y16100D02*
X33500Y15600D01*
X33000Y16100D02*
Y17000D01*
X33000Y17000D02*
X33000Y17000D01*
X33000Y11400D02*
Y13200D01*
X32500Y16100D02*
X33000Y15600D01*
X32500Y16100D02*
Y17500D01*
X33000Y18000D01*
Y800D02*
Y5900D01*
Y9100D02*
Y11000D01*
X33000Y13700D02*
Y15600D01*
X32000Y13200D02*
X32500Y13700D01*
Y15600D01*
X32000Y16100D02*
X32500Y15600D01*
X32000Y16100D02*
Y17000D01*
X32000Y17000D01*
X32000Y-1600D02*
Y-1000D01*
X32000Y6400D02*
Y8600D01*
X32000Y11400D02*
Y13200D01*
X31000D02*
X31500Y13700D01*
Y15600D01*
X31000Y16100D02*
X31500Y15600D01*
X31000Y16100D02*
Y17000D01*
Y-1200D02*
X32250Y-2450D01*
X31000Y-1200D02*
Y-1000D01*
X31000Y6400D02*
Y8600D01*
X31000Y11400D02*
Y13200D01*
X31500Y16100D02*
X32000Y15600D01*
X31500Y16100D02*
Y17500D01*
X32000Y18000D01*
Y450D02*
Y5900D01*
X32000Y9100D02*
Y11000D01*
X32000Y13700D02*
Y15600D01*
X30500Y17500D02*
X31000Y18000D01*
X30500Y16100D02*
Y17500D01*
Y16100D02*
X31000Y15600D01*
X30990Y290D02*
Y5910D01*
X31000Y9100D02*
Y11000D01*
Y13700D02*
Y15600D01*
X30000Y13200D02*
X30500Y13700D01*
Y15600D01*
X30000Y16100D02*
X30500Y15600D01*
X30000Y16100D02*
Y17000D01*
Y-1800D02*
X31150Y-2950D01*
X30000Y-1800D02*
X30000Y-1000D01*
X30000Y6400D02*
Y8600D01*
Y11400D02*
Y13200D01*
X29500Y17500D02*
X30000Y18000D01*
X29500Y16100D02*
Y17500D01*
Y16100D02*
X30000Y15600D01*
X30000Y300D02*
Y5900D01*
X30000Y9100D02*
Y10900D01*
X30000Y13700D02*
Y15600D01*
X29000Y13200D02*
X29500Y13700D01*
Y15600D01*
X29000Y16100D02*
X29500Y15600D01*
X29000Y16100D02*
Y17000D01*
Y-1600D02*
Y-1000D01*
X29000Y6400D02*
Y8600D01*
X29000Y11400D02*
Y13200D01*
X28500Y17500D02*
X29000Y18000D01*
X28500Y16100D02*
Y17500D01*
Y16100D02*
X29000Y15600D01*
X28500Y13700D02*
Y15600D01*
X28000Y16100D02*
X28500Y15600D01*
X28000Y16100D02*
Y17000D01*
X28900Y-6650D02*
X29000Y-6550D01*
Y-4850D01*
X28850Y-4400D02*
Y-2050D01*
X28500Y-1700D02*
X28850Y-2050D01*
X31250Y-4150D02*
Y-3600D01*
X31000Y-3400D02*
X31250Y-3600D01*
X31150Y-2950D02*
X31750Y-3550D01*
X32000Y-1600D02*
X32750Y-2350D01*
X33000Y-1950D02*
X33250Y-2200D01*
X33000Y-1000D02*
X33000Y-1950D01*
X31990Y-210D02*
X32000Y-1000D01*
X30990Y-210D02*
X31000Y-1000D01*
X29990Y-210D02*
X30000Y-1000D01*
X29000D02*
Y-200D01*
X32750Y-2850D02*
Y-2350D01*
X32250Y-2950D02*
Y-2450D01*
X29000Y-1600D02*
X29200Y-1800D01*
Y-4650D02*
Y-3200D01*
X29000Y-4850D02*
X29200Y-4650D01*
X28450Y-6800D02*
X28750Y-6500D01*
Y-5300D01*
X28500Y-5050D02*
X28750Y-5300D01*
X28500Y-6200D02*
Y-5750D01*
X35000Y1250D02*
Y5900D01*
Y9100D02*
Y10900D01*
Y13700D02*
Y15600D01*
X28500Y-5750D02*
Y-5450D01*
X28250Y-5200D02*
X28500Y-5450D01*
X28100Y-5900D02*
Y-5450D01*
X28000Y-5350D02*
X28100Y-5450D01*
X27200Y-9900D02*
X27500Y-9600D01*
Y-3100D01*
X27750Y-8550D02*
X28100Y-8900D01*
X28000Y-5350D02*
Y-2850D01*
X28250Y-5200D02*
Y-2700D01*
X28500Y-5050D02*
Y-2550D01*
X27750Y-8550D02*
Y-3000D01*
X25920Y-5420D02*
X27030D01*
X27250Y-5200D01*
X38550Y-6400D02*
X38800Y-6150D01*
Y-3400D01*
X28500Y3000D02*
Y3890D01*
Y13200D02*
X29000Y13700D01*
X28500Y11400D02*
Y13200D01*
X28000D02*
X28500Y13700D01*
X27500Y17500D02*
X28000Y18000D01*
X27500Y14700D02*
Y17500D01*
X25600Y12800D02*
X27500Y14700D01*
X25600Y11300D02*
Y12800D01*
X25200Y-700D02*
X25700Y-1200D01*
X27250Y-5200D02*
Y-3200D01*
X26100Y-2050D02*
X27250Y-3200D01*
X25600Y4350D02*
Y6200D01*
Y6000D02*
Y6200D01*
Y6000D02*
Y11300D01*
X25650Y2650D02*
X26100Y2200D01*
Y-2050D02*
Y2200D01*
X26350Y-1950D02*
X27500Y-3100D01*
Y-1550D02*
X28500Y-2550D01*
X27500Y-1550D02*
Y0D01*
X28000Y500D01*
X26600Y-1850D02*
X27750Y-3000D01*
X26850Y-1700D02*
X28000Y-2850D01*
X27200Y300D02*
X27600Y800D01*
X27200Y-1650D02*
X28250Y-2700D01*
X27200Y-1650D02*
Y300D01*
X25600Y4350D02*
X26600Y3350D01*
Y-1850D02*
Y3350D01*
X26850Y750D02*
X27150Y1150D01*
X26850Y-1700D02*
Y750D01*
X25950Y3000D02*
X26350Y2600D01*
Y-1950D02*
Y2600D01*
X21500Y4400D02*
X21600Y4500D01*
X20400D02*
X20500Y4400D01*
X14370Y-11930D02*
X14470D01*
X14230Y-11430D02*
X14470D01*
X14370Y-8930D02*
X14470D01*
X14350Y-8950D02*
X14370Y-8930D01*
X14470Y-8430D02*
Y-8430D01*
X14450Y-8450D02*
X14470Y-8430D01*
X14420Y-7930D02*
X14470D01*
X14400Y-7950D02*
X14420Y-7930D01*
X14380Y-6930D02*
X14470D01*
X14350Y-6900D02*
X14380Y-6930D01*
X14370Y-6430D02*
X14470D01*
X14350Y-6400D02*
X14370Y-6430D01*
X13230Y-9430D02*
X14470D01*
X12900Y-9100D02*
X13230Y-9430D01*
X20000Y-400D02*
Y2500D01*
X20500Y3000D01*
X13830Y-4920D02*
X14470D01*
X13410Y-4500D02*
X13830Y-4920D01*
X13400Y-4500D02*
X13410D01*
X13400D02*
Y0D01*
X19000D02*
Y2500D01*
X18500Y3000D02*
X19000Y2500D01*
X18500Y3000D02*
X18500D01*
X7680Y-14180D02*
X7700Y-14200D01*
X7600Y-14180D02*
X7680D01*
X14370Y-12430D02*
X14470D01*
X7600Y-16380D02*
X7620Y-16400D01*
X15690Y-14710D02*
Y-14650D01*
X15650Y-14750D02*
X15690Y-14710D01*
X12900Y-9100D02*
Y-600D01*
X12650Y-14700D02*
X15750Y-17800D01*
X12400Y-14450D02*
X12650Y-14700D01*
X11650Y-13700D02*
X12400Y-14450D01*
X16200Y-15750D02*
X18100Y-17650D01*
X16200Y-15750D02*
Y-14900D01*
X16190Y-14890D02*
X16200Y-14900D01*
X16190Y-14890D02*
Y-14650D01*
X0Y19685D02*
X62992D01*
Y-19685D02*
Y19685D01*
X0Y-19685D02*
X62992D01*
X0D02*
Y19685D01*
D11*
X7000Y6800D02*
D03*
X6252Y6800D02*
D03*
X7000Y5700D02*
D03*
X6252D02*
D03*
X7000Y11300D02*
D03*
X6252D02*
D03*
X7000Y10200D02*
D03*
X6252Y10200D02*
D03*
D12*
X6626Y6800D02*
D03*
Y11300D02*
D03*
D13*
X36280Y-10620D02*
D03*
X31270D02*
D03*
Y-4170D02*
D03*
X36280D02*
D03*
X25200Y-14650D02*
D03*
Y-3200D02*
D03*
X15190D02*
D03*
Y-14650D02*
D03*
X48920Y7220D02*
D03*
Y770D02*
D03*
X53930D02*
D03*
Y7220D02*
D03*
X48920Y-6280D02*
D03*
Y-12730D02*
D03*
X53930D02*
D03*
Y-6280D02*
D03*
D14*
X35780Y-10620D02*
D03*
X35270D02*
D03*
X34770Y-10620D02*
D03*
X34270D02*
D03*
X33770D02*
D03*
X33270Y-10620D02*
D03*
X32770D02*
D03*
X32270Y-10620D02*
D03*
X31770Y-10620D02*
D03*
Y-4170D02*
D03*
X32270D02*
D03*
X32770D02*
D03*
X33270D02*
D03*
X33770Y-4170D02*
D03*
X34270Y-4170D02*
D03*
X34770D02*
D03*
X35270D02*
D03*
X35780D02*
D03*
X22700Y-3200D02*
D03*
X16190Y-14650D02*
D03*
X22200Y-3200D02*
D03*
X18200Y-14650D02*
D03*
X16690Y-14650D02*
D03*
X17200Y-14650D02*
D03*
X18200Y-3200D02*
D03*
X17700D02*
D03*
X16690D02*
D03*
X18700D02*
D03*
X19700Y-14650D02*
D03*
X22200Y-14650D02*
D03*
X17200Y-3200D02*
D03*
X21700Y-3200D02*
D03*
X24700Y-14650D02*
D03*
X20200Y-3200D02*
D03*
X19200D02*
D03*
X17700Y-14650D02*
D03*
X20200Y-14650D02*
D03*
X23700Y-3200D02*
D03*
X15690Y-14650D02*
D03*
X22700Y-14650D02*
D03*
X21700D02*
D03*
X21200D02*
D03*
X20700Y-14650D02*
D03*
X19200Y-14650D02*
D03*
X18700D02*
D03*
X24200D02*
D03*
X23700Y-14650D02*
D03*
X23200D02*
D03*
X21200Y-3200D02*
D03*
X20700D02*
D03*
X24200D02*
D03*
X19700D02*
D03*
X16190D02*
D03*
X24700D02*
D03*
X15690D02*
D03*
X23200D02*
D03*
X49420Y770D02*
D03*
X49420Y7220D02*
D03*
X52930Y770D02*
D03*
X52430Y7220D02*
D03*
X51430Y7220D02*
D03*
X53430Y770D02*
D03*
X51930Y770D02*
D03*
X49930Y7220D02*
D03*
X52930D02*
D03*
X50430D02*
D03*
Y770D02*
D03*
X51430Y770D02*
D03*
X51930Y7220D02*
D03*
X53430D02*
D03*
X52430Y770D02*
D03*
X50930Y7220D02*
D03*
Y770D02*
D03*
X49930Y770D02*
D03*
X49420Y-6280D02*
D03*
X52930Y-12730D02*
D03*
X52430Y-6280D02*
D03*
X51430Y-6280D02*
D03*
X53430Y-12730D02*
D03*
X51930Y-12730D02*
D03*
X49930Y-6280D02*
D03*
X52930D02*
D03*
X50430D02*
D03*
Y-12730D02*
D03*
X51430Y-12730D02*
D03*
X51930Y-6280D02*
D03*
X53430D02*
D03*
X52430Y-12730D02*
D03*
X50930Y-6280D02*
D03*
Y-12730D02*
D03*
X49930Y-12730D02*
D03*
X49420Y-12730D02*
D03*
D15*
X30550Y-9900D02*
D03*
Y-4890D02*
D03*
X37000D02*
D03*
Y-9900D02*
D03*
X25920Y-3920D02*
D03*
X14470Y-13930D02*
D03*
X25920D02*
D03*
X14470Y-3920D02*
D03*
X48200Y1490D02*
D03*
Y6500D02*
D03*
X54650Y1490D02*
D03*
Y6500D02*
D03*
X48200Y-7000D02*
D03*
X54650Y-12010D02*
D03*
X48200D02*
D03*
X54650Y-7000D02*
D03*
D16*
X30550Y-9400D02*
D03*
Y-8900D02*
D03*
X30550Y-8400D02*
D03*
X30550Y-7900D02*
D03*
X30550Y-7400D02*
D03*
X30550Y-6900D02*
D03*
X30550Y-6400D02*
D03*
X30550Y-5900D02*
D03*
X30550Y-5390D02*
D03*
X37000Y-5390D02*
D03*
X37000Y-5900D02*
D03*
Y-6400D02*
D03*
Y-6900D02*
D03*
Y-7400D02*
D03*
X37000Y-7900D02*
D03*
X37000Y-8400D02*
D03*
Y-8900D02*
D03*
Y-9400D02*
D03*
X14470Y-5930D02*
D03*
X14470Y-11930D02*
D03*
X14470Y-11430D02*
D03*
X14470Y-12430D02*
D03*
X25920Y-7430D02*
D03*
Y-6930D02*
D03*
X25920Y-6430D02*
D03*
X25920Y-5930D02*
D03*
X25920Y-4420D02*
D03*
X14470Y-7430D02*
D03*
X25920Y-11430D02*
D03*
X25920Y-4920D02*
D03*
X14470Y-4420D02*
D03*
Y-10930D02*
D03*
X25920Y-7930D02*
D03*
X14470Y-7930D02*
D03*
Y-9430D02*
D03*
Y-4920D02*
D03*
X25920Y-5420D02*
D03*
X25920Y-9930D02*
D03*
Y-10930D02*
D03*
Y-11930D02*
D03*
X25920Y-12430D02*
D03*
X25920Y-12930D02*
D03*
X25920Y-8430D02*
D03*
X25920Y-8930D02*
D03*
X25920Y-9430D02*
D03*
X25920Y-10430D02*
D03*
X14470Y-8430D02*
D03*
Y-5420D02*
D03*
Y-6930D02*
D03*
Y-6430D02*
D03*
Y-8930D02*
D03*
Y-9930D02*
D03*
Y-10430D02*
D03*
X25920Y-13430D02*
D03*
X14470Y-12930D02*
D03*
Y-13430D02*
D03*
X54650Y5500D02*
D03*
X48200Y2500D02*
D03*
X54650Y6000D02*
D03*
X54650Y5000D02*
D03*
Y1990D02*
D03*
X48200Y3000D02*
D03*
Y3500D02*
D03*
Y4500D02*
D03*
Y5000D02*
D03*
Y5500D02*
D03*
Y6000D02*
D03*
X48200Y1990D02*
D03*
X54650Y4000D02*
D03*
X54650Y4500D02*
D03*
Y3500D02*
D03*
Y3000D02*
D03*
Y2500D02*
D03*
X48200Y-11000D02*
D03*
X54650Y-7500D02*
D03*
X54650Y-8500D02*
D03*
Y-11510D02*
D03*
X48200Y-10500D02*
D03*
Y-10000D02*
D03*
Y-9000D02*
D03*
Y-8500D02*
D03*
Y-8000D02*
D03*
Y-7500D02*
D03*
X48200Y-11510D02*
D03*
X54650Y-9500D02*
D03*
X54650Y-9000D02*
D03*
Y-10000D02*
D03*
Y-10500D02*
D03*
Y-8000D02*
D03*
Y-11000D02*
D03*
D17*
X7300Y16200D02*
D03*
X7300Y13950D02*
D03*
D18*
X7950Y2400D02*
D03*
X8700Y2400D02*
D03*
X7950Y200D02*
D03*
X8200Y200D02*
D03*
X8450Y200D02*
D03*
X8200Y2400D02*
D03*
X8950Y200D02*
D03*
Y2400D02*
D03*
X8450Y2400D02*
D03*
X9200Y200D02*
D03*
Y2400D02*
D03*
X9450D02*
D03*
X9450Y200D02*
D03*
X9700Y2400D02*
D03*
X9700Y200D02*
D03*
X8700Y200D02*
D03*
D19*
X10800Y12200D02*
D03*
X6800Y-16000D02*
D03*
Y-13800D02*
D03*
Y-12400D02*
D03*
D20*
X10000Y11830D02*
D03*
Y12580D02*
D03*
X26000Y15150D02*
D03*
X26000Y14600D02*
D03*
X12450Y12200D02*
D03*
X11900D02*
D03*
X9200Y4000D02*
D03*
X8650Y4000D02*
D03*
X26200Y10400D02*
D03*
X26200Y9850D02*
D03*
X26200Y5000D02*
D03*
X26200Y5550D02*
D03*
X7600Y-16380D02*
D03*
Y-15630D02*
D03*
Y-14180D02*
D03*
Y-13430D02*
D03*
Y-12780D02*
D03*
Y-12030D02*
D03*
D21*
X9800Y16342D02*
D03*
Y14058D02*
D03*
X13000Y14058D02*
D03*
Y16342D02*
D03*
D22*
X45400Y9900D02*
D03*
Y10800D02*
D03*
X18200Y4500D02*
D03*
X18200Y5400D02*
D03*
X21600Y4500D02*
D03*
Y5400D02*
D03*
X20400Y4500D02*
D03*
X20400Y5400D02*
D03*
X22800Y4500D02*
D03*
Y5400D02*
D03*
X45400Y12100D02*
D03*
Y13000D02*
D03*
D23*
X48200Y4000D02*
D03*
Y-9500D02*
D03*
D24*
X14400Y7000D02*
D03*
X13500D02*
D03*
X7700Y-1600D02*
D03*
X6800D02*
D03*
X11700Y-17000D02*
D03*
X12600D02*
D03*
X5100Y10050D02*
D03*
X4200D02*
D03*
X5100Y5600D02*
D03*
X4200D02*
D03*
X5100Y6800D02*
D03*
X4200D02*
D03*
X7700Y-5600D02*
D03*
X6800D02*
D03*
X5500Y3200D02*
D03*
X4600D02*
D03*
X5100Y11300D02*
D03*
X4200D02*
D03*
X4600Y-400D02*
D03*
X5500D02*
D03*
Y800D02*
D03*
X4600D02*
D03*
X5500Y2000D02*
D03*
X4600D02*
D03*
X7700Y-2800D02*
D03*
X6800D02*
D03*
X4700Y-12400D02*
D03*
Y-13600D02*
D03*
Y-14800D02*
D03*
X5600D02*
D03*
X4700Y-16000D02*
D03*
X20700Y17200D02*
D03*
X19800D02*
D03*
X48500Y-15000D02*
D03*
X47600D02*
D03*
X5600Y-13600D02*
D03*
Y-16000D02*
D03*
Y-12400D02*
D03*
D25*
X3600Y-3000D02*
X5400D01*
X1500Y-900D02*
X3600Y-3000D01*
X3000Y-3600D02*
X3600Y-3000D01*
X5394Y15000D02*
X6444Y13950D01*
X5400Y16300D02*
Y18200D01*
X13000Y17450D02*
X13000Y17450D01*
X13000Y16342D02*
Y17450D01*
X9800Y16342D02*
Y17500D01*
X9850Y13950D02*
Y14150D01*
X46100Y1850D02*
Y18350D01*
X61400Y500D02*
Y14500D01*
X6100Y18900D02*
X45500D01*
X6444Y13950D02*
X9850D01*
X5394Y15000D02*
X5400Y16300D01*
X60500Y11000D02*
X61400D01*
X46100Y15000D02*
X60900D01*
X27000Y18000D02*
Y18900D01*
X6500Y16200D02*
X7300D01*
X6300Y16400D02*
X6500Y16200D01*
X6300Y16400D02*
Y16850D01*
X9850Y13950D02*
X9850Y13950D01*
X45500Y18900D02*
X46100Y18350D01*
X28450Y250D02*
Y1450D01*
X27100Y6600D02*
Y8300D01*
X28000Y1900D02*
X28450Y1450D01*
X46850Y-6200D02*
Y-5700D01*
X47050Y-5500D01*
Y-4500D01*
X46700Y-4150D02*
X47050Y-4500D01*
X46700Y-4150D02*
Y1250D01*
X46100Y1850D02*
X46700Y1250D01*
X24000Y11550D02*
Y12000D01*
X23450Y11000D02*
X24000Y11550D01*
X21200Y11000D02*
X23450D01*
X21000Y10800D02*
X21200Y11000D01*
X21000Y10000D02*
Y10800D01*
X1150Y-3600D02*
X3000D01*
X800Y-3950D02*
X1150Y-3600D01*
X800Y-4500D02*
Y-3950D01*
X5444Y18244D02*
X6100Y18900D01*
X5400Y18200D02*
X5444Y18244D01*
X500Y4400D02*
Y15200D01*
X28000Y9200D02*
Y10600D01*
Y1900D02*
Y5650D01*
X60900Y15000D02*
X61400Y14500D01*
X60500Y0D02*
X60900D01*
X61400Y500D01*
X24200Y-7900D02*
X24400D01*
X27000Y15000D02*
Y17000D01*
X3600Y-2000D02*
X5400D01*
X3106Y-1506D02*
X3600Y-2000D01*
X3106Y-1506D02*
Y-492D01*
X28000Y-1000D02*
Y-200D01*
X28450Y250D01*
X27100Y8300D02*
X28000Y9200D01*
X27100Y11500D02*
X28000Y10600D01*
Y14100D02*
Y15000D01*
X27100Y11500D02*
Y13200D01*
X28000Y14100D01*
X27100Y6600D02*
X28000Y5650D01*
X1500Y-900D02*
Y800D01*
X2600Y1900D01*
Y3000D01*
X1900Y3700D02*
X2600Y3000D01*
X1200Y3700D02*
X1900D01*
X500Y4400D02*
X1200Y3700D01*
X500Y15200D02*
X1600Y16300D01*
X5400D01*
D26*
X23450Y10000D02*
X24000D01*
Y9350D02*
Y10000D01*
X24000Y7000D02*
Y7650D01*
X23450Y7000D02*
X24000D01*
X19000Y10000D02*
X19550D01*
X19000Y9350D02*
Y10000D01*
X18450D02*
X19000D01*
Y7000D02*
Y7650D01*
Y7000D02*
X19550D01*
X18450D02*
X19000D01*
X10300Y9700D02*
X11300D01*
X10300D02*
Y10300D01*
X10000Y10600D02*
X10300Y10300D01*
X10000Y10600D02*
Y11830D01*
X10800Y12200D02*
X11900D01*
X11400D02*
Y12900D01*
X14500Y13500D02*
X16000Y15000D01*
X13000Y13500D02*
X14500D01*
X12000D02*
X13000D01*
X11400Y12900D02*
X12000Y13500D01*
X12450Y12200D02*
X13250D01*
X10000Y12580D02*
Y13450D01*
X9800Y13650D02*
X10000Y13450D01*
X9800Y13650D02*
Y14058D01*
X6600Y12200D02*
X7300Y12900D01*
X20700Y17200D02*
Y18900D01*
X45400Y12100D02*
X46100D01*
X7300Y12900D02*
Y13950D01*
X49420Y-12920D02*
Y-12730D01*
Y-12920D02*
X49450Y-12950D01*
Y-14700D02*
Y-12950D01*
X49150Y-15000D02*
X49450Y-14700D01*
X48500Y-15000D02*
X49150D01*
X25170Y-7930D02*
X25920D01*
X23700Y-3950D02*
Y-3200D01*
X19200Y-3950D02*
Y-3200D01*
X20200Y-14650D02*
Y-13900D01*
X14470Y-4420D02*
X15220D01*
X17700Y-14650D02*
Y-13900D01*
X14470Y-10930D02*
X15220D01*
X36250Y-7900D02*
X37000D01*
X35780Y-4920D02*
Y-4170D01*
X53900Y-8500D02*
X54650D01*
X53900Y-9000D02*
X54650D01*
X53900Y-10000D02*
X54650D01*
X53900Y-10500D02*
X54650D01*
X50430Y-12730D02*
Y-11980D01*
X49930Y-12730D02*
Y-11980D01*
X49420Y-12730D02*
Y-11980D01*
X53900Y6000D02*
X54650D01*
X53900Y5000D02*
X54650D01*
X53900Y1990D02*
X54650D01*
X45400Y10800D02*
X46050D01*
X26600Y14600D02*
X27000Y15000D01*
X26000Y14600D02*
X26600D01*
X26000Y15150D02*
Y15600D01*
X25650Y15950D02*
X26000Y15600D01*
X24800Y-11450D02*
X25800D01*
X37800Y-8250D02*
X38050D01*
X37650Y-8400D02*
X37800Y-8250D01*
X37000Y-8400D02*
X37650D01*
X37750Y-7500D02*
X38050D01*
X37650Y-7400D02*
X37750Y-7500D01*
X37000Y-7400D02*
X37650D01*
X38050Y-6900D02*
X38050Y-6900D01*
X37000Y-6900D02*
X38050D01*
X18000Y12000D02*
X18000Y12000D01*
X25000Y-13750D02*
X25200Y-13950D01*
Y-14650D02*
Y-13950D01*
X22800Y5400D02*
Y6400D01*
X10050Y-16300D02*
Y-10300D01*
Y-16300D02*
X10750Y-17000D01*
X11700D01*
X14300Y-12000D02*
X14400Y-11950D01*
X26950Y5550D02*
X26950Y5550D01*
X26200Y5550D02*
X26950D01*
X26200Y9200D02*
X26200Y9200D01*
X26200Y9200D02*
Y9850D01*
X4600Y12200D02*
X6600D01*
X4200Y11800D02*
X4600Y12200D01*
X4200Y11300D02*
Y11800D01*
X550Y8300D02*
X3500D01*
X4200Y7600D01*
Y6800D02*
Y7600D01*
X23200Y7800D02*
X24000Y8600D01*
Y10000D01*
X19000Y8600D02*
X19800Y7800D01*
X19000Y8600D02*
Y10000D01*
X18200Y5400D02*
X20400D01*
X19000D02*
Y7000D01*
X23200Y7800D02*
X24000Y7000D01*
X19800Y7800D02*
X23200D01*
X19000Y7000D02*
X19800Y7800D01*
X20400Y5400D02*
X21600D01*
X21500Y-600D02*
Y2000D01*
X20700Y-1400D02*
X21500Y-600D01*
X19200Y-1400D02*
X19200Y-1400D01*
X19200Y-3200D02*
Y-1400D01*
X26200Y5000D02*
X28000D01*
X26200Y10400D02*
X28000D01*
X54650Y5000D02*
X54650Y5000D01*
X59500Y-5000D02*
X59500Y-5000D01*
X53150Y-5000D02*
X59500D01*
X50430Y-2280D02*
X53150Y-5000D01*
X50430Y-2280D02*
Y770D01*
X53150Y-4000D02*
X59500D01*
X50930Y-1780D02*
X53150Y-4000D01*
X50930Y-1780D02*
Y770D01*
X53150Y-3000D02*
X59500D01*
X51430Y-1280D02*
X53150Y-3000D01*
X51430Y-1280D02*
Y770D01*
X53150Y-2000D02*
X59500D01*
X51930Y-780D02*
X53150Y-2000D01*
X51930Y-780D02*
Y770D01*
X53150Y-1000D02*
X59500D01*
X52430Y-280D02*
X53150Y-1000D01*
X52430Y-280D02*
Y770D01*
X59500Y0D02*
X59500Y-0D01*
X56400Y0D02*
X59500D01*
X55800Y-600D02*
X56400Y0D01*
X53500Y-600D02*
X55800D01*
X52930Y-30D02*
X53500Y-600D01*
X52930Y-30D02*
Y770D01*
X56600Y1000D02*
X59500D01*
X55400Y-200D02*
X56600Y1000D01*
X53700Y-200D02*
X55400D01*
X53430Y70D02*
X53700Y-200D01*
X53430Y70D02*
Y770D01*
X55370Y770D02*
X56600Y2000D01*
X53930Y770D02*
X55370D01*
X60000Y1500D02*
X60500Y1000D01*
X58000Y1500D02*
X60000D01*
X57600Y1900D02*
X58000Y1500D01*
X57600Y1900D02*
Y2600D01*
X57200Y3000D02*
X57600Y2600D01*
X54650Y3000D02*
X57200D01*
X60500Y2000D02*
Y2800D01*
X59800Y3500D02*
X60500Y2800D01*
X54650Y3500D02*
X59800D01*
X57450Y-13000D02*
X59500D01*
X56800Y-12350D02*
X57450Y-13000D01*
X56800Y-12350D02*
Y-7400D01*
X57000Y-14000D02*
X59500D01*
X56400Y-13400D02*
X57000Y-14000D01*
X55680Y-6280D02*
X56800Y-7400D01*
X53930Y-6280D02*
X55680D01*
X57900Y-12000D02*
X59500D01*
X57200Y-11300D02*
X57900Y-12000D01*
X57200Y-11300D02*
Y-7200D01*
X58050Y-11000D02*
X59500D01*
X57600Y-10550D02*
X58050Y-11000D01*
X57600Y-10550D02*
Y-7550D01*
X56400Y-13400D02*
Y-8600D01*
X55800Y-8000D02*
X56400Y-8600D01*
X54650Y-8000D02*
X55800D01*
X55600Y-13850D02*
Y-9750D01*
X56000Y-14550D02*
Y-8800D01*
X53450Y-15300D02*
Y-12950D01*
X55350Y-9500D02*
X55600Y-9750D01*
X54650Y-9500D02*
X55350D01*
X57500Y4000D02*
X60500Y7000D01*
X54650Y4000D02*
X57500D01*
X60000Y7500D02*
X60500Y8000D01*
X58100Y7500D02*
X60000D01*
X57600Y7000D02*
X58100Y7500D01*
X57600Y5000D02*
Y7000D01*
X57100Y4500D02*
X57600Y5000D01*
X54650Y4500D02*
X57100D01*
X55800Y8200D02*
X57000Y7000D01*
X53800Y8200D02*
X55800D01*
X53430Y7830D02*
X53800Y8200D01*
X53430Y7220D02*
Y7830D01*
X56400Y8600D02*
X57000Y8000D01*
X53300Y8600D02*
X56400D01*
X52930Y8230D02*
X53300Y8600D01*
X52930Y7220D02*
Y8230D01*
X53000Y9000D02*
X59500D01*
X52430Y8430D02*
X53000Y9000D01*
X52430Y7220D02*
Y8430D01*
X52600Y10000D02*
X59500D01*
X51930Y9330D02*
X52600Y10000D01*
X51930Y7220D02*
Y9330D01*
X52000Y11000D02*
X59500D01*
X51430Y10430D02*
X52000Y11000D01*
X51430Y7220D02*
Y10430D01*
X59500Y12000D02*
X59500Y12000D01*
X52000Y12000D02*
X59500D01*
X50930Y10930D02*
X52000Y12000D01*
X50930Y7220D02*
Y10930D01*
X52000Y13000D02*
X59500D01*
X50430Y11430D02*
X52000Y13000D01*
X50430Y7220D02*
Y11430D01*
X52000Y14000D02*
X59500D01*
X49930Y11930D02*
X52000Y14000D01*
X49930Y7220D02*
Y11930D01*
X52450Y-14900D02*
Y-12890D01*
X51900Y-14200D02*
Y-12930D01*
X5100Y10050D02*
Y11300D01*
X2300Y10050D02*
X4200D01*
X1872Y9628D02*
X2300Y10050D01*
X2350Y5600D02*
X4200D01*
X1878Y5128D02*
X2350Y5600D01*
X1800Y9628D02*
X1872D01*
X5100Y5600D02*
Y6800D01*
X1800Y5128D02*
X1878D01*
X49930Y1630D02*
X49950Y1650D01*
X49930Y770D02*
Y1630D01*
X50700Y-7500D02*
X50930Y-7270D01*
Y-6280D01*
X50430Y-7230D02*
X50700Y-7500D01*
X50430Y-7230D02*
Y-6280D01*
X17200Y-3200D02*
Y-2200D01*
X14550Y-7450D02*
X15600D01*
X14530Y-7430D02*
X14550Y-7450D01*
X14470Y-7430D02*
X14530D01*
X15300Y-13900D02*
X15600Y-13600D01*
X14600Y-13900D02*
X15300D01*
X14570Y-13930D02*
X14600Y-13900D01*
X14470Y-13930D02*
X14570D01*
X19650Y-14550D02*
Y-13600D01*
Y-14550D02*
X19700Y-14600D01*
Y-14650D02*
Y-14600D01*
X22150Y-14500D02*
Y-13600D01*
Y-14500D02*
X22200Y-14550D01*
Y-14650D02*
Y-14550D01*
X25800Y-11450D02*
X25820Y-11430D01*
X25920D01*
X24800Y-4900D02*
X24820Y-4920D01*
X25920D01*
X21700Y-2200D02*
X21700Y-2200D01*
X21700Y-3200D02*
Y-2200D01*
X8000Y4000D02*
X8000Y4000D01*
X8650D01*
X6800Y-3500D02*
Y-2800D01*
X5500Y-400D02*
X6400D01*
X5500Y3200D02*
X6400D01*
X20000Y12000D02*
X20000Y12000D01*
X53400Y7250D02*
X53430Y7220D01*
X52400Y7250D02*
X52430Y7220D01*
X51400Y7250D02*
X51430Y7220D01*
X50900Y7250D02*
X50930Y7220D01*
X53930Y-6280D02*
Y-6170D01*
X53950Y-6150D01*
X23700Y-15500D02*
Y-14650D01*
X23200Y-15650D02*
Y-14650D01*
X21700Y-15600D02*
Y-15000D01*
X21200Y-15800D02*
Y-14650D01*
X19200Y-15600D02*
Y-14650D01*
X18700Y-15800D02*
Y-14650D01*
X22500Y3600D02*
X22800Y3900D01*
Y4500D01*
X22500Y3000D02*
Y3600D01*
X21500Y3000D02*
Y4400D01*
X20500Y3000D02*
Y4400D01*
X18500Y3000D02*
Y3600D01*
X18200Y3900D02*
X18500Y3600D01*
X18200Y3900D02*
Y4500D01*
X12600Y-17000D02*
X12600Y-15600D01*
X5600Y-16000D02*
X6800D01*
X5600Y-13600D02*
X5700Y-13700D01*
X6700D01*
X6800Y-13800D01*
X5600Y-12400D02*
X6800D01*
X3200Y-16000D02*
X4400Y-14800D01*
X4700D01*
X4300Y-16000D02*
X4700D01*
X2200Y-16300D02*
X2600Y-16700D01*
X2200Y-16300D02*
Y-16000D01*
X3200Y-13500D02*
X4300Y-12400D01*
X4700D01*
X2600Y-16700D02*
X3600D01*
X4300Y-16000D01*
X2200Y-13800D02*
Y-13500D01*
Y-13800D02*
X2600Y-14200D01*
X3600D01*
X4200Y-13600D01*
X4700D01*
X14300Y-12000D02*
X14370Y-11930D01*
X14200Y-11400D02*
X14230Y-11430D01*
X13400Y-8950D02*
X14350D01*
X13400Y-8450D02*
X14450D01*
X13400Y-7950D02*
X14400D01*
X13400Y-6900D02*
X14350D01*
X13400Y-6400D02*
X14350D01*
X13000Y-11400D02*
X14200D01*
X12850Y-11950D02*
X14400D01*
X14350Y-12450D02*
X14370Y-12430D01*
X13000Y-12450D02*
X14350D01*
X15650Y-15600D02*
Y-14750D01*
D27*
X13000Y13500D02*
Y14058D01*
Y13500D02*
X13000Y13500D01*
X47000Y-15000D02*
X47600D01*
X46700Y-14700D02*
X47000Y-15000D01*
X46700Y-14700D02*
Y-12000D01*
X52200Y10450D02*
X55600D01*
Y5800D02*
Y6900D01*
X55300Y5500D02*
X55600Y5800D01*
X54650Y5500D02*
X55300D01*
X44550Y9900D02*
X45400D01*
Y13000D02*
Y13750D01*
X45050Y14100D02*
X45400Y13750D01*
X44200Y14100D02*
X45050D01*
X19200Y16350D02*
X24500D01*
X19800D02*
Y17200D01*
X25200Y8300D02*
Y15650D01*
X18000Y12000D02*
Y13500D01*
X18500Y14000D01*
Y15650D01*
X19200Y16350D01*
X24500D02*
X25200Y15650D01*
X13250Y11250D02*
X15200Y13200D01*
X10750Y11250D02*
X13250D01*
X14800Y12000D02*
X16000D01*
X14300Y11500D02*
X14800Y12000D01*
X14300Y8600D02*
Y11500D01*
X19000Y15000D02*
X19000Y15000D01*
X19000Y15000D02*
Y15550D01*
X19400Y15950D01*
X24300D01*
X24800Y15450D01*
Y6950D02*
Y15450D01*
X24450Y6600D02*
X24800Y6950D01*
X29950Y-5380D02*
X30150D01*
X30100Y-5400D02*
X30150Y-5380D01*
X29800Y-4500D02*
X29900Y-4400D01*
X25550Y2750D02*
Y3550D01*
Y2750D02*
X25650Y2650D01*
X24450Y2400D02*
Y6600D01*
X23450Y750D02*
Y6450D01*
X26100Y-9900D02*
X27200D01*
X29250Y-7450D02*
X29700Y-7900D01*
X26300Y-14000D02*
X26850D01*
X7700Y-15600D02*
X8300D01*
X7670Y-15630D02*
X7700Y-15600D01*
X7600Y-15630D02*
X7670D01*
X7700Y-13450D02*
X8300D01*
X7680Y-13430D02*
X7700Y-13450D01*
X7600Y-13430D02*
X7680D01*
X7600Y-11400D02*
X7750Y-11000D01*
X7600Y-12030D02*
Y-11400D01*
X6250Y7600D02*
X6252Y7398D01*
Y6800D02*
Y7398D01*
X6450Y11900D02*
X7400D01*
X6252Y11702D02*
X6450Y11900D01*
X6252Y11300D02*
Y11702D01*
X9200Y-14200D02*
Y-550D01*
X7700Y-4450D02*
X8300Y-3850D01*
Y-600D01*
X8700Y-200D01*
X49400Y-6000D02*
X49420Y-6280D01*
X52900Y-7550D02*
Y-6400D01*
X29600Y-11550D02*
Y-9400D01*
X53450Y-7200D02*
Y-6500D01*
X53430Y-6280D02*
X53450Y-6500D01*
X52900Y-6400D02*
X52930Y-6370D01*
Y-6280D01*
X52400Y-8800D02*
Y-6400D01*
X52430Y-6370D01*
Y-6280D01*
X46700Y-12000D02*
X47950D01*
X53430Y-12930D02*
Y-12730D01*
Y-12930D02*
X53450Y-12950D01*
X47960Y-12010D02*
X48200D01*
X47950Y-12000D02*
X47960Y-12010D01*
X48850Y-6250D02*
X48920Y-6280D01*
X48550Y-6250D02*
X48850D01*
X20200Y-3200D02*
Y-1100D01*
X20550Y-750D01*
Y-400D01*
X23750D02*
Y1700D01*
X24450Y2400D01*
X18500Y13200D02*
X19000Y13700D01*
Y15000D01*
X19000Y13200D02*
X19500Y13700D01*
X19000Y12000D02*
Y13200D01*
X16000Y7000D02*
X16000Y7000D01*
X14400Y7000D02*
X16000D01*
X10600Y6600D02*
X11000Y7000D01*
X10600Y-100D02*
Y6600D01*
X10300Y-400D02*
X10600Y-100D01*
X9850Y-400D02*
X10300D01*
X9700Y-250D02*
X9850Y-400D01*
X9700Y-250D02*
Y200D01*
X21000Y7000D02*
X22900D01*
X16000D02*
X17400Y5600D01*
X19700Y-3000D02*
Y-1250D01*
X21200Y-3200D02*
Y-1500D01*
X23450Y750D01*
X21000Y7000D02*
X21000Y7000D01*
X22900D02*
X23450Y6450D01*
X19700Y-3200D02*
Y-3000D01*
X19700Y-3000D01*
X5100Y10700D02*
X6500D01*
X6626Y11274D02*
Y11300D01*
Y11274D02*
X6650Y11250D01*
Y10850D02*
Y11250D01*
X6500Y10700D02*
X6650Y10850D01*
X5100Y6200D02*
X6400D01*
X6626Y6800D02*
X6650Y6776D01*
Y6450D02*
Y6776D01*
X6400Y6200D02*
X6650Y6450D01*
X8950Y900D02*
X9250Y1200D01*
X8950Y200D02*
Y900D01*
X8350Y1550D02*
X8700Y1900D01*
X8700Y2400D01*
X6800Y-6400D02*
Y-5600D01*
X5400Y-2000D02*
X5650Y-1750D01*
X6600D01*
X6750Y-1600D01*
X6800D01*
X4600Y2000D02*
Y3200D01*
X2318Y492D02*
Y618D01*
X3413Y800D02*
X4600D01*
X3106Y492D02*
X3413Y800D01*
X4600Y-400D02*
Y800D01*
X8600Y-14800D02*
X9200Y-14200D01*
X5600Y-14800D02*
X8600D01*
X47650Y-5350D02*
X49150D01*
X49200Y-5400D01*
X49400Y-5600D01*
Y-6000D02*
Y-5600D01*
X49900Y-5950D02*
X49930Y-6280D01*
X46700Y-7000D02*
X48200D01*
X47800Y-7500D02*
X48200D01*
X47800Y-7500D02*
X47800Y-7500D01*
X46850Y-7500D02*
X47800D01*
X48050Y-4950D02*
X49450D01*
X49900Y-5400D01*
Y-5950D02*
Y-5400D01*
X48050Y-5750D02*
X48550Y-6250D01*
X46850Y-9500D02*
X48200D01*
X48190Y-11500D02*
X48200Y-11510D01*
X46850Y-11500D02*
X48190D01*
X46700Y-8000D02*
X47000Y-8000D01*
X48200D01*
X46850Y-8500D02*
X47000Y-8500D01*
X48200D01*
X46700Y-9000D02*
X48200D01*
X46700Y-10000D02*
X48200Y-10000D01*
X46850Y-10500D02*
X47000Y-10500D01*
X48200D01*
X46700Y-11000D02*
X47000Y-11000D01*
X48200D01*
X34770Y-10970D02*
X34800Y-11000D01*
Y-14350D02*
Y-11000D01*
X31750Y-10850D02*
X31770Y-10830D01*
X31750Y-12250D02*
Y-10850D01*
X31300Y-11900D02*
Y-10800D01*
X26200Y-6400D02*
X27000D01*
X27850Y-9400D02*
X29600D01*
X27850D02*
X30300D01*
X30300Y-9400D01*
X34250Y-10950D02*
X34270Y-10930D01*
X34250Y-14000D02*
Y-10950D01*
X26200Y-13950D02*
X26300Y-14000D01*
X26180Y-13930D02*
X26200Y-13950D01*
X25920Y-13930D02*
X26180D01*
X33770Y-10870D02*
X33800Y-10900D01*
Y-13650D02*
Y-10900D01*
X26090Y-13450D02*
X27050D01*
X26070Y-13430D02*
X26090Y-13450D01*
X25920Y-13430D02*
X26070D01*
X33250Y-11000D02*
X33270Y-10980D01*
X33250Y-13300D02*
Y-11000D01*
X26090Y-12950D02*
X27050D01*
X26070Y-12930D02*
X26090Y-12950D01*
X25920Y-12930D02*
X26070D01*
X32770Y-10870D02*
X32800Y-10900D01*
Y-12950D02*
Y-10900D01*
X26200Y-12400D02*
X27050D01*
X26170Y-12430D02*
X26200Y-12400D01*
X26120Y-12430D02*
X26170D01*
X25920D02*
X26120D01*
X32250Y-10950D02*
X32270Y-10930D01*
X32250Y-12600D02*
Y-10950D01*
X26100Y-11900D02*
X27050D01*
X26070Y-11930D02*
X26100Y-11900D01*
X25920Y-11930D02*
X26070D01*
X26150Y-10950D02*
X26850D01*
X26130Y-10930D02*
X26150Y-10950D01*
X25920Y-10930D02*
X26130D01*
X26200Y-10400D02*
X27200D01*
X26170Y-10430D02*
X26200Y-10400D01*
X25920Y-10430D02*
X26170D01*
X26350Y-3200D02*
X26650Y-3400D01*
X25300Y-3200D02*
X26350Y-3200D01*
X26100Y-3900D02*
X26900D01*
X29800Y-5250D02*
Y-4500D01*
Y-5250D02*
X29950Y-5380D01*
X26100Y-4400D02*
X26900D01*
X26200Y-9400D02*
X27150D01*
X26170Y-9430D02*
X26200Y-9400D01*
X25920Y-9430D02*
X26170D01*
X30150Y-8900D02*
X30150Y-8900D01*
X28100Y-8900D02*
X30150D01*
X26200D02*
X27000D01*
X26170Y-8930D02*
X26200Y-8900D01*
X25920Y-8930D02*
X26170D01*
X30200Y-8400D02*
X30200Y-8400D01*
X28450Y-8400D02*
X30200D01*
X26150D02*
X27150D01*
X26120Y-8430D02*
X26150Y-8400D01*
X25920Y-8430D02*
X26120D01*
X29700Y-7900D02*
X30550D01*
X26200Y-7450D02*
X27000D01*
X30200Y-6950D02*
X30250Y-6900D01*
X29600Y-6950D02*
X30200D01*
X26200D02*
X27150D01*
X30250Y-6400D02*
X30250Y-6400D01*
X29600Y-6400D02*
X30250D01*
X26100Y-5900D02*
X27150D01*
X19500Y13700D02*
Y14400D01*
X20000Y12000D02*
Y13000D01*
X20500Y13500D01*
Y14050D01*
X20000Y13700D02*
Y15000D01*
X21000Y13500D02*
Y15000D01*
X22000Y13300D02*
Y15000D01*
X23000Y13050D02*
Y15000D01*
X21000Y12000D02*
Y12950D01*
X35800Y-14350D02*
Y-11000D01*
X35780Y-10980D02*
X35800Y-11000D01*
X36300Y-10950D02*
Y-10850D01*
X36280Y-10830D02*
X36300Y-10850D01*
Y-14700D02*
Y-10950D01*
X29250Y-7450D02*
Y-7350D01*
X51900Y-12930D02*
X51930Y-12900D01*
X25920Y-9930D02*
X26080D01*
X26100Y-9900D01*
X7600Y-12780D02*
X8050D01*
X8400Y-12430D01*
Y-11400D01*
X7700Y-14200D02*
X8400D01*
X7620Y-16400D02*
X8700D01*
X52430Y-12870D02*
Y-12730D01*
Y-12870D02*
X52450Y-12890D01*
X8400Y-14200D02*
X8800Y-13800D01*
Y-11950D01*
X8700Y-16400D02*
X9600Y-15500D01*
Y-12450D01*
X14220Y-5420D02*
X14470D01*
X14200Y-5400D02*
X14220Y-5420D01*
X13400Y-5400D02*
X14200D01*
X11000Y7000D02*
X13500D01*
X12400Y-5400D02*
Y1000D01*
X12600Y1200D01*
Y5600D01*
X10200D02*
Y6350D01*
X9750Y6800D02*
X10200Y6350D01*
X7000Y6800D02*
X9750D01*
X14370Y-3920D02*
X14470D01*
X14300Y-3850D02*
X14370Y-3920D01*
X14300Y-3850D02*
Y6000D01*
X17000Y12000D02*
Y13200D01*
X17500Y13700D01*
Y16400D01*
X7000Y11300D02*
X7100Y11250D01*
X8200D01*
X16190Y-3200D02*
Y-2190D01*
X15200Y-1200D02*
X16190Y-2190D01*
X16690Y-3200D02*
Y-490D01*
X15200Y1000D02*
X16690Y-490D01*
X17400Y1050D02*
Y5600D01*
Y1050D02*
X19700Y-1250D01*
X17700Y-3200D02*
Y-800D01*
X16200Y700D02*
X17700Y-800D01*
X16200Y700D02*
Y1400D01*
X15200Y2400D02*
X16200Y1400D01*
X18200Y-3200D02*
Y-500D01*
X16800Y900D02*
X18200Y-500D01*
X16800Y900D02*
Y2200D01*
X15200Y3800D02*
X16800Y2200D01*
X2318Y618D02*
X3700Y2000D01*
X4600D01*
D28*
X7700Y-5600D02*
Y-4450D01*
Y-10300D02*
Y-5600D01*
X6600Y-11400D02*
X7700Y-10300D01*
X3600Y-11400D02*
X6600D01*
X3200Y-11800D02*
X3600Y-11400D01*
X3200Y-12500D02*
Y-11800D01*
X2200Y-12500D02*
X3200D01*
X1600D02*
X2200D01*
X1400Y-12700D02*
X1600Y-12500D01*
X1400Y-14800D02*
Y-12700D01*
Y-14800D02*
X1600Y-15000D01*
X2200D01*
X3200D01*
X7250Y-4000D02*
X7700Y-4450D01*
X5800Y-4000D02*
X7250D01*
X5400Y-3600D02*
X5800Y-4000D01*
X5400Y-3600D02*
Y-3000D01*
X28000Y15000D02*
X28000Y15000D01*
X16000Y15000D02*
Y16400D01*
D29*
X5400Y16300D02*
D03*
D30*
X24850Y-15500D02*
D03*
X39150Y-2600D02*
D03*
X38700Y-2650D02*
D03*
X31750Y-2850D02*
D03*
X12010Y-13300D02*
D03*
D31*
X15200Y2400D02*
D03*
Y3800D02*
D03*
D32*
X11300Y9700D02*
D03*
X10300D02*
D03*
D33*
X10800Y-930D02*
D03*
Y-2200D02*
D03*
D34*
X24000Y12000D02*
D03*
X16000Y15000D02*
D03*
X18000Y12000D02*
D03*
X19000Y15000D02*
D03*
X22000Y12000D02*
D03*
X20000Y12000D02*
D03*
X19000Y12000D02*
D03*
X21000D02*
D03*
X20000Y15000D02*
D03*
X21000Y15000D02*
D03*
X17000Y12000D02*
D03*
X22000Y15000D02*
D03*
X23000Y15000D02*
D03*
X23000Y12000D02*
D03*
X24000Y15000D02*
D03*
X18000Y15000D02*
D03*
X17000D02*
D03*
X29000Y5000D02*
D03*
X30000D02*
D03*
X31000D02*
D03*
X32000D02*
D03*
X33000Y5000D02*
D03*
X34000Y5000D02*
D03*
X35000D02*
D03*
X36000D02*
D03*
X38000D02*
D03*
X39000D02*
D03*
X40000D02*
D03*
X41000D02*
D03*
Y-1000D02*
D03*
X40000Y-1000D02*
D03*
X39000D02*
D03*
X38000D02*
D03*
X37000Y-1000D02*
D03*
X36000Y-1000D02*
D03*
X35000D02*
D03*
X34000D02*
D03*
X33000Y-1000D02*
D03*
X32000Y-1000D02*
D03*
X30000Y-1000D02*
D03*
X31000D02*
D03*
X28000Y5000D02*
D03*
X37000D02*
D03*
X29000Y-1000D02*
D03*
D35*
X16000Y12000D02*
D03*
X28000D02*
D03*
Y7400D02*
D03*
Y-1000D02*
D03*
X19000Y10000D02*
D03*
X24000D02*
D03*
D36*
X34000Y12000D02*
D03*
X35000D02*
D03*
X37000Y15000D02*
D03*
X30000Y12000D02*
D03*
X32000D02*
D03*
X31000Y12000D02*
D03*
X29000D02*
D03*
X39000Y12000D02*
D03*
X36000Y15000D02*
D03*
X35000D02*
D03*
X30000D02*
D03*
X39000D02*
D03*
X29000D02*
D03*
X31000D02*
D03*
X37000Y12000D02*
D03*
X32000Y15000D02*
D03*
X36000Y12000D02*
D03*
X28000Y15000D02*
D03*
X33000D02*
D03*
X34000Y15000D02*
D03*
X38000D02*
D03*
X40000D02*
D03*
X41000D02*
D03*
X41000Y12000D02*
D03*
X40000Y12000D02*
D03*
X38000D02*
D03*
X33000Y12000D02*
D03*
Y7400D02*
D03*
X38000Y7400D02*
D03*
X40000D02*
D03*
X41000Y7400D02*
D03*
X41000Y10400D02*
D03*
X40000D02*
D03*
X38000D02*
D03*
X34000D02*
D03*
X33000Y10400D02*
D03*
X28000D02*
D03*
X36000Y7400D02*
D03*
X32000Y10400D02*
D03*
X37000Y7400D02*
D03*
X31000Y10400D02*
D03*
X29000D02*
D03*
X39000D02*
D03*
X30000D02*
D03*
X35000D02*
D03*
X36000D02*
D03*
X39000Y7400D02*
D03*
X29000Y7400D02*
D03*
X31000D02*
D03*
X32000Y7400D02*
D03*
X30000D02*
D03*
X37000Y10400D02*
D03*
X35000Y7400D02*
D03*
X34000D02*
D03*
X16000Y7000D02*
D03*
X19000Y7000D02*
D03*
X16000Y10000D02*
D03*
X27000Y17000D02*
D03*
Y18000D02*
D03*
X44000Y17000D02*
D03*
X42000Y18000D02*
D03*
X32000Y17000D02*
D03*
X33000D02*
D03*
X36000Y17000D02*
D03*
X37000Y17000D02*
D03*
X29000Y18000D02*
D03*
X34000D02*
D03*
X32000D02*
D03*
X31000D02*
D03*
X30000Y17000D02*
D03*
X31000D02*
D03*
X34000Y17000D02*
D03*
X35000Y17000D02*
D03*
X28000D02*
D03*
X30000Y18000D02*
D03*
X29000Y17000D02*
D03*
X33000Y18000D02*
D03*
X35000D02*
D03*
X42000Y17000D02*
D03*
X41000Y18000D02*
D03*
X40000Y17000D02*
D03*
X39000D02*
D03*
X38000Y17000D02*
D03*
X37000Y18000D02*
D03*
X38000D02*
D03*
X39000D02*
D03*
X40000D02*
D03*
X43000Y17000D02*
D03*
Y18000D02*
D03*
X41000Y17000D02*
D03*
X28000Y18000D02*
D03*
X36000D02*
D03*
X18500Y2000D02*
D03*
X19500D02*
D03*
X20500D02*
D03*
X21000Y10000D02*
D03*
X24000Y7000D02*
D03*
X21000D02*
D03*
D37*
X3106Y-492D02*
D03*
Y492D02*
D03*
X2318D02*
D03*
Y-492D02*
D03*
D38*
X1255Y2370D02*
D03*
Y-2370D02*
D03*
D39*
X4800Y-4500D02*
D03*
D40*
X800D02*
D03*
X1800Y-10500D02*
D03*
X800Y-10500D02*
D03*
X3800Y-4500D02*
D03*
X1800D02*
D03*
X2800D02*
D03*
X4800Y-10500D02*
D03*
X2800D02*
D03*
X3800D02*
D03*
D41*
X4213Y13150D02*
D03*
X3031Y15000D02*
D03*
X5394D02*
D03*
D42*
X2784Y9136D02*
D03*
Y11892D02*
D03*
Y7392D02*
D03*
Y4636D02*
D03*
D43*
X1800Y9628D02*
D03*
X1800Y11400D02*
D03*
Y6900D02*
D03*
X1800Y5128D02*
D03*
D44*
X26000Y17000D02*
D03*
X22500Y3000D02*
D03*
X59500Y14000D02*
D03*
X48200Y11450D02*
D03*
X5400Y-2000D02*
D03*
X59500Y-10000D02*
D03*
X11600Y-15600D02*
D03*
X10800Y-3200D02*
D03*
X49600Y14000D02*
D03*
D45*
X26000Y18000D02*
D03*
X44000D02*
D03*
X45000Y17000D02*
D03*
Y18000D02*
D03*
X21500Y3000D02*
D03*
X20500D02*
D03*
X19500Y3000D02*
D03*
X18500D02*
D03*
X21500Y2000D02*
D03*
X22500D02*
D03*
X60500Y7000D02*
D03*
Y8000D02*
D03*
X59500Y13000D02*
D03*
Y12000D02*
D03*
Y11000D02*
D03*
Y10000D02*
D03*
X60500D02*
D03*
Y11000D02*
D03*
Y12000D02*
D03*
Y13000D02*
D03*
Y14000D02*
D03*
X59500Y9000D02*
D03*
X60500D02*
D03*
X47200Y11450D02*
D03*
X5400Y-3000D02*
D03*
X60500Y-3000D02*
D03*
X59500D02*
D03*
X60500Y2000D02*
D03*
Y1000D02*
D03*
Y0D02*
D03*
Y-1000D02*
D03*
Y-2000D02*
D03*
X59500Y-0D02*
D03*
X60500Y-4000D02*
D03*
X59500D02*
D03*
X60500Y-5000D02*
D03*
X59500Y-5000D02*
D03*
Y-12000D02*
D03*
Y-14000D02*
D03*
Y-13000D02*
D03*
X60500Y-10000D02*
D03*
Y-11000D02*
D03*
Y-12000D02*
D03*
Y-13000D02*
D03*
Y-14000D02*
D03*
X59500Y-11000D02*
D03*
X12600Y-15600D02*
D03*
X50600Y14000D02*
D03*
D46*
X17500Y16400D02*
D03*
X3200Y-13500D02*
D03*
X2200D02*
D03*
X44200Y-16800D02*
D03*
X8200Y11250D02*
D03*
X12000Y2000D02*
D03*
X11450Y3200D02*
D03*
X2200Y-16000D02*
D03*
X3200D02*
D03*
X16000Y16400D02*
D03*
X15200Y-1200D02*
D03*
Y1000D02*
D03*
Y2400D02*
D03*
Y3800D02*
D03*
D47*
X59500Y7000D02*
D03*
Y8000D02*
D03*
Y-2000D02*
D03*
Y-1000D02*
D03*
Y1000D02*
D03*
D48*
X3200Y-12500D02*
D03*
X2200D02*
D03*
X3200Y-15000D02*
D03*
X2200D02*
D03*
D49*
X59500Y2000D02*
D03*
D50*
X59970Y18580D02*
D03*
Y-18580D02*
D03*
X3030D02*
D03*
Y18580D02*
D03*
X55600Y10450D02*
D03*
X52200D02*
D03*
X55600Y6900D02*
D03*
X18500Y13200D02*
D03*
X15200D02*
D03*
X10750Y11250D02*
D03*
X25550Y3550D02*
D03*
X28650Y2800D02*
D03*
X27500D02*
D03*
X43850Y5200D02*
D03*
X24450Y2400D02*
D03*
X44550Y13400D02*
D03*
X42800D02*
D03*
X56600Y2000D02*
D03*
X36000Y8500D02*
D03*
X37500Y8850D02*
D03*
X45250Y7800D02*
D03*
X46350Y-4950D02*
D03*
X44900Y7400D02*
D03*
X46000Y-5750D02*
D03*
X57200Y-7200D02*
D03*
X53450D02*
D03*
X57600Y-7550D02*
D03*
X52900D02*
D03*
X55600Y-13850D02*
D03*
X56000Y-8800D02*
D03*
X52400D02*
D03*
D51*
X13000Y17450D02*
D03*
X9800Y17500D02*
D03*
X13250Y12200D02*
D03*
X25650Y15950D02*
D03*
X17200Y-2200D02*
D03*
X21700Y-2200D02*
D03*
X24800Y-4900D02*
D03*
X15600Y-7450D02*
D03*
X19650Y-13600D02*
D03*
X15600D02*
D03*
X22150D02*
D03*
X24800Y-11450D02*
D03*
X38050Y-8250D02*
D03*
Y-7500D02*
D03*
Y-6900D02*
D03*
X50100Y6100D02*
D03*
X49350D02*
D03*
X46100Y6950D02*
D03*
X22800Y6400D02*
D03*
X7700Y-10300D02*
D03*
X10050D02*
D03*
X26950Y5550D02*
D03*
X26200Y9200D02*
D03*
X6300Y16850D02*
D03*
X8300Y-15600D02*
D03*
Y-13450D02*
D03*
X7750Y-11000D02*
D03*
X6250Y7600D02*
D03*
X7400Y11900D02*
D03*
X20700Y-1400D02*
D03*
X19200D02*
D03*
X27100Y7000D02*
D03*
X46850Y-6200D02*
D03*
X49950Y-7550D02*
D03*
X49350D02*
D03*
X35800Y-6300D02*
D03*
X31850Y-7900D02*
D03*
X24800D02*
D03*
X32500D02*
D03*
X24200D02*
D03*
X23700Y-4250D02*
D03*
X24450D02*
D03*
X50500Y-11300D02*
D03*
X53600Y5600D02*
D03*
Y4600D02*
D03*
X16200Y-5500D02*
D03*
X19800D02*
D03*
X23400Y-5850D02*
D03*
X24200Y-12100D02*
D03*
X17500Y-13000D02*
D03*
X27000Y15000D02*
D03*
X57000Y7000D02*
D03*
Y8000D02*
D03*
X49950Y1650D02*
D03*
D52*
X31300Y-11900D02*
D03*
X38300Y-9400D02*
D03*
X43850Y-10150D02*
D03*
X46700Y-12000D02*
D03*
X46000D02*
D03*
X44550Y6500D02*
D03*
X38500Y3100D02*
D03*
X39500Y2750D02*
D03*
X40500Y2400D02*
D03*
X41000Y2000D02*
D03*
X40000Y1650D02*
D03*
X39000Y1300D02*
D03*
X38000Y950D02*
D03*
X37000Y600D02*
D03*
X46000Y-6650D02*
D03*
X44900Y-5350D02*
D03*
X45600Y-7000D02*
D03*
X44200Y-9200D02*
D03*
X45250Y-7500D02*
D03*
X40900Y-8000D02*
D03*
X39850D02*
D03*
X40200Y-8800D02*
D03*
X41700Y-9800D02*
D03*
X39500Y-10000D02*
D03*
X40550Y-10500D02*
D03*
X39150Y-11000D02*
D03*
X38450Y-5400D02*
D03*
X20550Y-400D02*
D03*
X23750D02*
D03*
X50700Y-7500D02*
D03*
X9250Y1200D02*
D03*
X10200Y2400D02*
D03*
X8750Y3200D02*
D03*
X8350Y1550D02*
D03*
X8000Y4000D02*
D03*
X6800Y-3500D02*
D03*
X6400Y-400D02*
D03*
Y3200D02*
D03*
X6800Y-6400D02*
D03*
X7700Y-3500D02*
D03*
X9700D02*
D03*
X29000Y1900D02*
D03*
X24500D02*
D03*
Y-800D02*
D03*
X18700D02*
D03*
X24850Y6400D02*
D03*
X28500D02*
D03*
X24150Y1500D02*
D03*
X34000D02*
D03*
X47650Y-5350D02*
D03*
X36150Y-2000D02*
D03*
X38000D02*
D03*
X49200Y2050D02*
D03*
X46850Y6500D02*
D03*
X44200Y11450D02*
D03*
X38450Y-5900D02*
D03*
X44200Y-7000D02*
D03*
X40150Y13300D02*
D03*
X36500Y14050D02*
D03*
X37500Y14400D02*
D03*
X43150Y250D02*
D03*
X38500Y13800D02*
D03*
X39250Y13450D02*
D03*
X46700Y2000D02*
D03*
Y-7000D02*
D03*
X45250Y700D02*
D03*
X46850Y-7500D02*
D03*
X44900Y1100D02*
D03*
X48050Y-4950D02*
D03*
Y-5750D02*
D03*
X46850Y-9500D02*
D03*
X41700Y-2000D02*
D03*
X40200Y-13800D02*
D03*
X46850Y-11500D02*
D03*
X41300Y-2350D02*
D03*
Y-11550D02*
D03*
X37800Y-2700D02*
D03*
X40900D02*
D03*
Y-12050D02*
D03*
X46700Y-8000D02*
D03*
X46850Y-8500D02*
D03*
X46700Y-9000D02*
D03*
Y-10000D02*
D03*
X46850Y-10500D02*
D03*
X46700Y-11000D02*
D03*
X40550Y-12700D02*
D03*
X39850Y-13300D02*
D03*
Y-12600D02*
D03*
X38900Y-13650D02*
D03*
X39150Y-12250D02*
D03*
X34800Y-14350D02*
D03*
X24200Y-13600D02*
D03*
X27150Y1150D02*
D03*
X35000D02*
D03*
X28300Y-6400D02*
D03*
X27850Y-9400D02*
D03*
X34250Y-14000D02*
D03*
X33800Y-13650D02*
D03*
X33250Y-13300D02*
D03*
X32800Y-12950D02*
D03*
X32250Y-12600D02*
D03*
X31750Y-12250D02*
D03*
X33250Y-2950D02*
D03*
X25650Y-1700D02*
D03*
X32750Y-2850D02*
D03*
X25200Y-2050D02*
D03*
X32250Y-2950D02*
D03*
X25600Y-2400D02*
D03*
X31150Y-2950D02*
D03*
X26650Y-3400D02*
D03*
X26900Y-3900D02*
D03*
X28450Y-8400D02*
D03*
X27600Y800D02*
D03*
X33000D02*
D03*
X28900Y-6950D02*
D03*
X28850Y-4400D02*
D03*
X29000Y450D02*
D03*
X32000D02*
D03*
X29900Y-4400D02*
D03*
X26900D02*
D03*
X29600Y-11550D02*
D03*
X27150Y-9400D02*
D03*
X27000Y-8900D02*
D03*
X27150Y-8400D02*
D03*
X29250Y-7450D02*
D03*
X27000D02*
D03*
X29600Y-6950D02*
D03*
X27150D02*
D03*
X29600Y-6400D02*
D03*
X27000D02*
D03*
X29600Y-5900D02*
D03*
X27150D02*
D03*
X30600Y-3400D02*
D03*
X31750Y-2850D02*
D03*
X41000Y13050D02*
D03*
X19500Y14400D02*
D03*
X20500Y14050D02*
D03*
X20000Y13700D02*
D03*
X21000Y13500D02*
D03*
X22000Y13300D02*
D03*
X23000Y13050D02*
D03*
X35000Y12800D02*
D03*
X21000Y12950D02*
D03*
X33500Y12550D02*
D03*
X23700Y-15500D02*
D03*
X35800Y-14350D02*
D03*
X23200Y-15650D02*
D03*
X36300Y-14700D02*
D03*
X41850Y-14150D02*
D03*
X42000Y-14700D02*
D03*
X24850Y-15500D02*
D03*
X21700Y-15600D02*
D03*
X41900Y12000D02*
D03*
X36000Y9200D02*
D03*
X42450D02*
D03*
X35000Y-2000D02*
D03*
X42100Y-3050D02*
D03*
X38500Y-8900D02*
D03*
X21200Y-15800D02*
D03*
X45250Y-14900D02*
D03*
X26100Y-16350D02*
D03*
X45600Y-15350D02*
D03*
X19200Y-15600D02*
D03*
X44900D02*
D03*
X18700Y-15800D02*
D03*
X44550Y-16000D02*
D03*
X35500Y12700D02*
D03*
X51900Y-14200D02*
D03*
X56000Y-14550D02*
D03*
X28100Y-5900D02*
D03*
Y-8900D02*
D03*
X38800Y-3400D02*
D03*
X25700Y-1200D02*
D03*
X25950Y3000D02*
D03*
X13400Y-8950D02*
D03*
Y-8450D02*
D03*
Y-7950D02*
D03*
Y-6900D02*
D03*
Y-6400D02*
D03*
X12900Y-400D02*
D03*
X20000D02*
D03*
X13400Y0D02*
D03*
X19000D02*
D03*
X13000Y-11400D02*
D03*
X8400D02*
D03*
X12850Y-11950D02*
D03*
X8800D02*
D03*
X13000Y-12450D02*
D03*
X9600D02*
D03*
X15650Y-15600D02*
D03*
X52450Y-14900D02*
D03*
X16100Y-17400D02*
D03*
X53450Y-15300D02*
D03*
X15750Y-17800D02*
D03*
X13400Y-5400D02*
D03*
X12400D02*
D03*
X12600Y5600D02*
D03*
X10200D02*
D03*
X14300Y6000D02*
D03*
Y8600D02*
D03*
D53*
X47300Y700D02*
D03*
X46850Y7500D02*
D03*
X46600Y8000D02*
D03*
X46850Y5500D02*
D03*
X46600Y5000D02*
D03*
Y6000D02*
D03*
X46850Y4500D02*
D03*
X46600Y4000D02*
D03*
X46850Y3500D02*
D03*
X46600Y3000D02*
D03*
X46850Y2500D02*
D03*
M02*
