%FSLAX24Y24*%
%MOIN*%
G70*
G01*
G75*
%ADD10C,0.0100*%
%ADD11C,0.0080*%
%ADD12C,0.0120*%
%ADD13C,0.0079*%
%ADD14C,0.0150*%
%ADD15R,0.0200X0.0200*%
%ADD16C,0.0060*%
%ADD17C,0.0040*%
%ADD18C,0.0067*%
D11*
X33723Y-22850D02*
X33390D01*
X33723Y-22517D01*
Y-22433D01*
X33640Y-22350D01*
X33473D01*
X33390Y-22433D01*
X33890D02*
X33973Y-22350D01*
X34140D01*
X34223Y-22433D01*
Y-22517D01*
X34140Y-22600D01*
X34056D01*
X34140D01*
X34223Y-22683D01*
Y-22767D01*
X34140Y-22850D01*
X33973D01*
X33890Y-22767D01*
X34390Y-22433D02*
X34473Y-22350D01*
X34640D01*
X34723Y-22433D01*
Y-22517D01*
X34640Y-22600D01*
X34723Y-22683D01*
Y-22767D01*
X34640Y-22850D01*
X34473D01*
X34390Y-22767D01*
Y-22683D01*
X34473Y-22600D01*
X34390Y-22517D01*
Y-22433D01*
X34473Y-22600D02*
X34640D01*
X37783Y-22850D02*
X37450D01*
X37783Y-22517D01*
Y-22433D01*
X37700Y-22350D01*
X37533D01*
X37450Y-22433D01*
X37950D02*
X38033Y-22350D01*
X38200D01*
X38283Y-22433D01*
Y-22767D01*
X38200Y-22850D01*
X38033D01*
X37950Y-22767D01*
Y-22433D01*
X38450Y-22850D02*
Y-22517D01*
X38533D01*
X38616Y-22600D01*
Y-22850D01*
Y-22600D01*
X38700Y-22517D01*
X38783Y-22600D01*
Y-22850D01*
X38950D02*
X39116D01*
X39033D01*
Y-22517D01*
X38950D01*
X39366Y-22850D02*
X39533D01*
X39449D01*
Y-22350D01*
X39366D01*
X43250Y-22433D02*
X43333Y-22350D01*
X43500D01*
X43583Y-22433D01*
Y-22767D01*
X43500Y-22850D01*
X43333D01*
X43250Y-22767D01*
Y-22433D01*
X43750Y-22850D02*
Y-22767D01*
X43833D01*
Y-22850D01*
X43750D01*
X44500Y-22350D02*
X44166D01*
Y-22600D01*
X44333Y-22517D01*
X44416D01*
X44500Y-22600D01*
Y-22767D01*
X44416Y-22850D01*
X44250D01*
X44166Y-22767D01*
X44666Y-22433D02*
X44750Y-22350D01*
X44916D01*
X44999Y-22433D01*
Y-22767D01*
X44916Y-22850D01*
X44750D01*
X44666Y-22767D01*
Y-22433D01*
X45166D02*
X45249Y-22350D01*
X45416D01*
X45499Y-22433D01*
Y-22517D01*
X45416Y-22600D01*
X45499Y-22683D01*
Y-22767D01*
X45416Y-22850D01*
X45249D01*
X45166Y-22767D01*
Y-22683D01*
X45249Y-22600D01*
X45166Y-22517D01*
Y-22433D01*
X45249Y-22600D02*
X45416D01*
X45666Y-22850D02*
Y-22517D01*
X45749D01*
X45833Y-22600D01*
Y-22850D01*
Y-22600D01*
X45916Y-22517D01*
X45999Y-22600D01*
Y-22850D01*
X46166D02*
Y-22517D01*
X46249D01*
X46332Y-22600D01*
Y-22850D01*
Y-22600D01*
X46416Y-22517D01*
X46499Y-22600D01*
Y-22850D01*
X49050D02*
Y-22350D01*
X49300D01*
X49383Y-22433D01*
Y-22600D01*
X49300Y-22683D01*
X49050D01*
X49550Y-22350D02*
X49883D01*
X49716D01*
Y-22850D01*
X50050Y-22350D02*
Y-22850D01*
Y-22600D01*
X50383D01*
Y-22350D01*
Y-22850D01*
X33723Y-23350D02*
X33390D01*
Y-23600D01*
X33557Y-23517D01*
X33640D01*
X33723Y-23600D01*
Y-23767D01*
X33640Y-23850D01*
X33473D01*
X33390Y-23767D01*
X34140Y-23850D02*
Y-23350D01*
X33890Y-23600D01*
X34223D01*
X37783Y-23850D02*
X37450D01*
X37783Y-23517D01*
Y-23433D01*
X37700Y-23350D01*
X37533D01*
X37450Y-23433D01*
X37950D02*
X38033Y-23350D01*
X38200D01*
X38283Y-23433D01*
Y-23517D01*
X38200Y-23600D01*
X38283Y-23683D01*
Y-23767D01*
X38200Y-23850D01*
X38033D01*
X37950Y-23767D01*
Y-23683D01*
X38033Y-23600D01*
X37950Y-23517D01*
Y-23433D01*
X38033Y-23600D02*
X38200D01*
X38450Y-23850D02*
Y-23517D01*
X38533D01*
X38616Y-23600D01*
Y-23850D01*
Y-23600D01*
X38700Y-23517D01*
X38783Y-23600D01*
Y-23850D01*
X38950D02*
X39116D01*
X39033D01*
Y-23517D01*
X38950D01*
X39366Y-23850D02*
X39533D01*
X39449D01*
Y-23350D01*
X39366D01*
X43250Y-23433D02*
X43333Y-23350D01*
X43500D01*
X43583Y-23433D01*
Y-23767D01*
X43500Y-23850D01*
X43333D01*
X43250Y-23767D01*
Y-23433D01*
X43750Y-23850D02*
Y-23767D01*
X43833D01*
Y-23850D01*
X43750D01*
X44166Y-23350D02*
X44500D01*
Y-23433D01*
X44166Y-23767D01*
Y-23850D01*
X44666D02*
X44833D01*
X44750D01*
Y-23350D01*
X44666Y-23433D01*
X45083Y-23850D02*
X45249D01*
X45166D01*
Y-23350D01*
X45083Y-23433D01*
X45833Y-23850D02*
X45499D01*
X45833Y-23517D01*
Y-23433D01*
X45749Y-23350D01*
X45583D01*
X45499Y-23433D01*
X45999Y-23850D02*
Y-23517D01*
X46082D01*
X46166Y-23600D01*
Y-23850D01*
Y-23600D01*
X46249Y-23517D01*
X46332Y-23600D01*
Y-23850D01*
X46499D02*
Y-23517D01*
X46582D01*
X46666Y-23600D01*
Y-23850D01*
Y-23600D01*
X46749Y-23517D01*
X46832Y-23600D01*
Y-23850D01*
X49050D02*
Y-23350D01*
X49300D01*
X49383Y-23433D01*
Y-23600D01*
X49300Y-23683D01*
X49050D01*
X49550Y-23350D02*
X49883D01*
X49716D01*
Y-23850D01*
X50050Y-23350D02*
Y-23850D01*
Y-23600D01*
X50383D01*
Y-23350D01*
Y-23850D01*
X33390Y-24850D02*
X33557D01*
X33473D01*
Y-24350D01*
X33390Y-24433D01*
X33807D02*
X33890Y-24350D01*
X34056D01*
X34140Y-24433D01*
Y-24517D01*
X34056Y-24600D01*
X33973D01*
X34056D01*
X34140Y-24683D01*
Y-24767D01*
X34056Y-24850D01*
X33890D01*
X33807Y-24767D01*
X34306Y-24433D02*
X34390Y-24350D01*
X34556D01*
X34640Y-24433D01*
Y-24517D01*
X34556Y-24600D01*
X34640Y-24683D01*
Y-24767D01*
X34556Y-24850D01*
X34390D01*
X34306Y-24767D01*
Y-24683D01*
X34390Y-24600D01*
X34306Y-24517D01*
Y-24433D01*
X34390Y-24600D02*
X34556D01*
X37450Y-24433D02*
X37533Y-24350D01*
X37700D01*
X37783Y-24433D01*
Y-24517D01*
X37700Y-24600D01*
X37617D01*
X37700D01*
X37783Y-24683D01*
Y-24767D01*
X37700Y-24850D01*
X37533D01*
X37450Y-24767D01*
X38283Y-24350D02*
X37950D01*
Y-24600D01*
X38116Y-24517D01*
X38200D01*
X38283Y-24600D01*
Y-24767D01*
X38200Y-24850D01*
X38033D01*
X37950Y-24767D01*
X38450Y-24850D02*
Y-24517D01*
X38533D01*
X38616Y-24600D01*
Y-24850D01*
Y-24600D01*
X38700Y-24517D01*
X38783Y-24600D01*
Y-24850D01*
X38950D02*
X39116D01*
X39033D01*
Y-24517D01*
X38950D01*
X39366Y-24850D02*
X39533D01*
X39449D01*
Y-24350D01*
X39366D01*
X43250Y-24433D02*
X43333Y-24350D01*
X43500D01*
X43583Y-24433D01*
Y-24767D01*
X43500Y-24850D01*
X43333D01*
X43250Y-24767D01*
Y-24433D01*
X43750Y-24850D02*
Y-24767D01*
X43833D01*
Y-24850D01*
X43750D01*
X44166Y-24433D02*
X44250Y-24350D01*
X44416D01*
X44500Y-24433D01*
Y-24517D01*
X44416Y-24600D01*
X44500Y-24683D01*
Y-24767D01*
X44416Y-24850D01*
X44250D01*
X44166Y-24767D01*
Y-24683D01*
X44250Y-24600D01*
X44166Y-24517D01*
Y-24433D01*
X44250Y-24600D02*
X44416D01*
X44666Y-24433D02*
X44750Y-24350D01*
X44916D01*
X44999Y-24433D01*
Y-24517D01*
X44916Y-24600D01*
X44999Y-24683D01*
Y-24767D01*
X44916Y-24850D01*
X44750D01*
X44666Y-24767D01*
Y-24683D01*
X44750Y-24600D01*
X44666Y-24517D01*
Y-24433D01*
X44750Y-24600D02*
X44916D01*
X45166Y-24767D02*
X45249Y-24850D01*
X45416D01*
X45499Y-24767D01*
Y-24433D01*
X45416Y-24350D01*
X45249D01*
X45166Y-24433D01*
Y-24517D01*
X45249Y-24600D01*
X45499D01*
X45666Y-24850D02*
Y-24517D01*
X45749D01*
X45833Y-24600D01*
Y-24850D01*
Y-24600D01*
X45916Y-24517D01*
X45999Y-24600D01*
Y-24850D01*
X46166D02*
Y-24517D01*
X46249D01*
X46332Y-24600D01*
Y-24850D01*
Y-24600D01*
X46416Y-24517D01*
X46499Y-24600D01*
Y-24850D01*
X49050D02*
Y-24350D01*
X49300D01*
X49383Y-24433D01*
Y-24600D01*
X49300Y-24683D01*
X49050D01*
X49550Y-24350D02*
X49883D01*
X49716D01*
Y-24850D01*
X50050Y-24350D02*
Y-24850D01*
Y-24600D01*
X50383D01*
Y-24350D01*
Y-24850D01*
X33390Y-25350D02*
X33723D01*
Y-25433D01*
X33390Y-25767D01*
Y-25850D01*
X37450Y-25433D02*
X37533Y-25350D01*
X37700D01*
X37783Y-25433D01*
Y-25517D01*
X37700Y-25600D01*
X37617D01*
X37700D01*
X37783Y-25683D01*
Y-25767D01*
X37700Y-25850D01*
X37533D01*
X37450Y-25767D01*
X37950Y-25433D02*
X38033Y-25350D01*
X38200D01*
X38283Y-25433D01*
Y-25517D01*
X38200Y-25600D01*
X38283Y-25683D01*
Y-25767D01*
X38200Y-25850D01*
X38033D01*
X37950Y-25767D01*
Y-25683D01*
X38033Y-25600D01*
X37950Y-25517D01*
Y-25433D01*
X38033Y-25600D02*
X38200D01*
X38450Y-25850D02*
Y-25517D01*
X38533D01*
X38616Y-25600D01*
Y-25850D01*
Y-25600D01*
X38700Y-25517D01*
X38783Y-25600D01*
Y-25850D01*
X38950D02*
X39116D01*
X39033D01*
Y-25517D01*
X38950D01*
X39366Y-25850D02*
X39533D01*
X39449D01*
Y-25350D01*
X39366D01*
X43250Y-25433D02*
X43333Y-25350D01*
X43500D01*
X43583Y-25433D01*
Y-25767D01*
X43500Y-25850D01*
X43333D01*
X43250Y-25767D01*
Y-25433D01*
X43750Y-25850D02*
Y-25767D01*
X43833D01*
Y-25850D01*
X43750D01*
X44166Y-25767D02*
X44250Y-25850D01*
X44416D01*
X44500Y-25767D01*
Y-25433D01*
X44416Y-25350D01*
X44250D01*
X44166Y-25433D01*
Y-25517D01*
X44250Y-25600D01*
X44500D01*
X44999Y-25350D02*
X44833Y-25433D01*
X44666Y-25600D01*
Y-25767D01*
X44750Y-25850D01*
X44916D01*
X44999Y-25767D01*
Y-25683D01*
X44916Y-25600D01*
X44666D01*
X45499Y-25350D02*
X45166D01*
Y-25600D01*
X45333Y-25517D01*
X45416D01*
X45499Y-25600D01*
Y-25767D01*
X45416Y-25850D01*
X45249D01*
X45166Y-25767D01*
X45999Y-25850D02*
X45666D01*
X45999Y-25517D01*
Y-25433D01*
X45916Y-25350D01*
X45749D01*
X45666Y-25433D01*
X46166Y-25850D02*
Y-25517D01*
X46249D01*
X46332Y-25600D01*
Y-25850D01*
Y-25600D01*
X46416Y-25517D01*
X46499Y-25600D01*
Y-25850D01*
X46666D02*
Y-25517D01*
X46749D01*
X46832Y-25600D01*
Y-25850D01*
Y-25600D01*
X46915Y-25517D01*
X46999Y-25600D01*
Y-25850D01*
X49050D02*
Y-25350D01*
X49300D01*
X49383Y-25433D01*
Y-25600D01*
X49300Y-25683D01*
X49050D01*
X49550Y-25350D02*
X49883D01*
X49716D01*
Y-25850D01*
X50050Y-25350D02*
Y-25850D01*
Y-25600D01*
X50383D01*
Y-25350D01*
Y-25850D01*
X33390Y-26850D02*
X33557D01*
X33473D01*
Y-26350D01*
X33390Y-26433D01*
X33807D02*
X33890Y-26350D01*
X34056D01*
X34140Y-26433D01*
Y-26767D01*
X34056Y-26850D01*
X33890D01*
X33807Y-26767D01*
Y-26433D01*
X34640Y-26350D02*
X34473Y-26433D01*
X34306Y-26600D01*
Y-26767D01*
X34390Y-26850D01*
X34556D01*
X34640Y-26767D01*
Y-26683D01*
X34556Y-26600D01*
X34306D01*
X37700Y-26850D02*
Y-26350D01*
X37450Y-26600D01*
X37783D01*
X38283Y-26850D02*
X37950D01*
X38283Y-26517D01*
Y-26433D01*
X38200Y-26350D01*
X38033D01*
X37950Y-26433D01*
X38450Y-26850D02*
Y-26517D01*
X38533D01*
X38616Y-26600D01*
Y-26850D01*
Y-26600D01*
X38700Y-26517D01*
X38783Y-26600D01*
Y-26850D01*
X38950D02*
X39116D01*
X39033D01*
Y-26517D01*
X38950D01*
X39366Y-26850D02*
X39533D01*
X39449D01*
Y-26350D01*
X39366D01*
X43250Y-26850D02*
X43417D01*
X43333D01*
Y-26350D01*
X43250Y-26433D01*
X43667Y-26850D02*
Y-26767D01*
X43750D01*
Y-26850D01*
X43667D01*
X44083Y-26433D02*
X44166Y-26350D01*
X44333D01*
X44416Y-26433D01*
Y-26767D01*
X44333Y-26850D01*
X44166D01*
X44083Y-26767D01*
Y-26433D01*
X44916Y-26350D02*
X44750Y-26433D01*
X44583Y-26600D01*
Y-26767D01*
X44666Y-26850D01*
X44833D01*
X44916Y-26767D01*
Y-26683D01*
X44833Y-26600D01*
X44583D01*
X45416Y-26350D02*
X45249Y-26433D01*
X45083Y-26600D01*
Y-26767D01*
X45166Y-26850D01*
X45333D01*
X45416Y-26767D01*
Y-26683D01*
X45333Y-26600D01*
X45083D01*
X45583Y-26433D02*
X45666Y-26350D01*
X45833D01*
X45916Y-26433D01*
Y-26517D01*
X45833Y-26600D01*
X45916Y-26683D01*
Y-26767D01*
X45833Y-26850D01*
X45666D01*
X45583Y-26767D01*
Y-26683D01*
X45666Y-26600D01*
X45583Y-26517D01*
Y-26433D01*
X45666Y-26600D02*
X45833D01*
X46082Y-26850D02*
Y-26517D01*
X46166D01*
X46249Y-26600D01*
Y-26850D01*
Y-26600D01*
X46332Y-26517D01*
X46416Y-26600D01*
Y-26850D01*
X46582D02*
Y-26517D01*
X46666D01*
X46749Y-26600D01*
Y-26850D01*
Y-26600D01*
X46832Y-26517D01*
X46915Y-26600D01*
Y-26850D01*
X49050D02*
Y-26350D01*
X49300D01*
X49383Y-26433D01*
Y-26600D01*
X49300Y-26683D01*
X49050D01*
X49550Y-26350D02*
X49883D01*
X49716D01*
Y-26850D01*
X50050Y-26350D02*
Y-26850D01*
Y-26600D01*
X50383D01*
Y-26350D01*
Y-26850D01*
X33640Y-27850D02*
Y-27350D01*
X33390Y-27600D01*
X33723D01*
X37783Y-27350D02*
X37450D01*
Y-27600D01*
X37617Y-27517D01*
X37700D01*
X37783Y-27600D01*
Y-27767D01*
X37700Y-27850D01*
X37533D01*
X37450Y-27767D01*
X37950D02*
X38033Y-27850D01*
X38200D01*
X38283Y-27767D01*
Y-27433D01*
X38200Y-27350D01*
X38033D01*
X37950Y-27433D01*
Y-27517D01*
X38033Y-27600D01*
X38283D01*
X38450Y-27850D02*
Y-27767D01*
X38533D01*
Y-27850D01*
X38450D01*
X39199Y-27350D02*
X38866D01*
Y-27600D01*
X39033Y-27517D01*
X39116D01*
X39199Y-27600D01*
Y-27767D01*
X39116Y-27850D01*
X38950D01*
X38866Y-27767D01*
X39366Y-27850D02*
Y-27517D01*
X39449D01*
X39533Y-27600D01*
Y-27850D01*
Y-27600D01*
X39616Y-27517D01*
X39699Y-27600D01*
Y-27850D01*
X39866D02*
X40033D01*
X39949D01*
Y-27517D01*
X39866D01*
X40282Y-27850D02*
X40449D01*
X40366D01*
Y-27350D01*
X40282D01*
X43250Y-27850D02*
X43417D01*
X43333D01*
Y-27350D01*
X43250Y-27433D01*
X43667Y-27850D02*
Y-27767D01*
X43750D01*
Y-27850D01*
X43667D01*
X44416Y-27350D02*
X44083D01*
Y-27600D01*
X44250Y-27517D01*
X44333D01*
X44416Y-27600D01*
Y-27767D01*
X44333Y-27850D01*
X44166D01*
X44083Y-27767D01*
X44583Y-27850D02*
X44750D01*
X44666D01*
Y-27350D01*
X44583Y-27433D01*
X44999Y-27850D02*
X45166D01*
X45083D01*
Y-27350D01*
X44999Y-27433D01*
X45416D02*
X45499Y-27350D01*
X45666D01*
X45749Y-27433D01*
Y-27517D01*
X45666Y-27600D01*
X45583D01*
X45666D01*
X45749Y-27683D01*
Y-27767D01*
X45666Y-27850D01*
X45499D01*
X45416Y-27767D01*
X45916Y-27850D02*
Y-27517D01*
X45999D01*
X46082Y-27600D01*
Y-27850D01*
Y-27600D01*
X46166Y-27517D01*
X46249Y-27600D01*
Y-27850D01*
X46416D02*
Y-27517D01*
X46499D01*
X46582Y-27600D01*
Y-27850D01*
Y-27600D01*
X46666Y-27517D01*
X46749Y-27600D01*
Y-27850D01*
X49050D02*
Y-27350D01*
X49300D01*
X49383Y-27433D01*
Y-27600D01*
X49300Y-27683D01*
X49050D01*
X49550Y-27350D02*
X49883D01*
X49716D01*
Y-27850D01*
X50050Y-27350D02*
Y-27850D01*
Y-27600D01*
X50383D01*
Y-27350D01*
Y-27850D01*
X33723Y-28350D02*
X33390D01*
Y-28600D01*
X33557Y-28517D01*
X33640D01*
X33723Y-28600D01*
Y-28767D01*
X33640Y-28850D01*
X33473D01*
X33390Y-28767D01*
X37450D02*
X37533Y-28850D01*
X37700D01*
X37783Y-28767D01*
Y-28433D01*
X37700Y-28350D01*
X37533D01*
X37450Y-28433D01*
Y-28517D01*
X37533Y-28600D01*
X37783D01*
X38283Y-28350D02*
X38116Y-28433D01*
X37950Y-28600D01*
Y-28767D01*
X38033Y-28850D01*
X38200D01*
X38283Y-28767D01*
Y-28683D01*
X38200Y-28600D01*
X37950D01*
X38450Y-28850D02*
Y-28517D01*
X38533D01*
X38616Y-28600D01*
Y-28850D01*
Y-28600D01*
X38700Y-28517D01*
X38783Y-28600D01*
Y-28850D01*
X38950D02*
X39116D01*
X39033D01*
Y-28517D01*
X38950D01*
X39366Y-28850D02*
X39533D01*
X39449D01*
Y-28350D01*
X39366D01*
X43583Y-28850D02*
X43250D01*
X43583Y-28517D01*
Y-28433D01*
X43500Y-28350D01*
X43333D01*
X43250Y-28433D01*
X43750Y-28850D02*
Y-28767D01*
X43833D01*
Y-28850D01*
X43750D01*
X44416D02*
Y-28350D01*
X44166Y-28600D01*
X44500D01*
X44666Y-28433D02*
X44750Y-28350D01*
X44916D01*
X44999Y-28433D01*
Y-28517D01*
X44916Y-28600D01*
X44833D01*
X44916D01*
X44999Y-28683D01*
Y-28767D01*
X44916Y-28850D01*
X44750D01*
X44666Y-28767D01*
X45166Y-28433D02*
X45249Y-28350D01*
X45416D01*
X45499Y-28433D01*
Y-28517D01*
X45416Y-28600D01*
X45499Y-28683D01*
Y-28767D01*
X45416Y-28850D01*
X45249D01*
X45166Y-28767D01*
Y-28683D01*
X45249Y-28600D01*
X45166Y-28517D01*
Y-28433D01*
X45249Y-28600D02*
X45416D01*
X45916Y-28850D02*
Y-28350D01*
X45666Y-28600D01*
X45999D01*
X46166Y-28850D02*
Y-28517D01*
X46249D01*
X46332Y-28600D01*
Y-28850D01*
Y-28600D01*
X46416Y-28517D01*
X46499Y-28600D01*
Y-28850D01*
X46666D02*
Y-28517D01*
X46749D01*
X46832Y-28600D01*
Y-28850D01*
Y-28600D01*
X46915Y-28517D01*
X46999Y-28600D01*
Y-28850D01*
X49050D02*
Y-28350D01*
X49300D01*
X49383Y-28433D01*
Y-28600D01*
X49300Y-28683D01*
X49050D01*
X49550Y-28350D02*
X49883D01*
X49716D01*
Y-28850D01*
X50050Y-28350D02*
Y-28850D01*
Y-28600D01*
X50383D01*
Y-28350D01*
Y-28850D01*
X33640Y-29850D02*
Y-29350D01*
X33390Y-29600D01*
X33723D01*
X37450Y-29850D02*
X37617D01*
X37533D01*
Y-29350D01*
X37450Y-29433D01*
X38116Y-29850D02*
Y-29350D01*
X37867Y-29600D01*
X38200D01*
X38616Y-29850D02*
Y-29350D01*
X38366Y-29600D01*
X38700D01*
X38866Y-29850D02*
Y-29517D01*
X38950D01*
X39033Y-29600D01*
Y-29850D01*
Y-29600D01*
X39116Y-29517D01*
X39199Y-29600D01*
Y-29850D01*
X39366D02*
X39533D01*
X39449D01*
Y-29517D01*
X39366D01*
X39783Y-29850D02*
X39949D01*
X39866D01*
Y-29350D01*
X39783D01*
X43250Y-29433D02*
X43333Y-29350D01*
X43500D01*
X43583Y-29433D01*
Y-29517D01*
X43500Y-29600D01*
X43417D01*
X43500D01*
X43583Y-29683D01*
Y-29767D01*
X43500Y-29850D01*
X43333D01*
X43250Y-29767D01*
X43750Y-29850D02*
Y-29767D01*
X43833D01*
Y-29850D01*
X43750D01*
X44500Y-29350D02*
X44333Y-29433D01*
X44166Y-29600D01*
Y-29767D01*
X44250Y-29850D01*
X44416D01*
X44500Y-29767D01*
Y-29683D01*
X44416Y-29600D01*
X44166D01*
X44999Y-29350D02*
X44666D01*
Y-29600D01*
X44833Y-29517D01*
X44916D01*
X44999Y-29600D01*
Y-29767D01*
X44916Y-29850D01*
X44750D01*
X44666Y-29767D01*
X45166Y-29350D02*
X45499D01*
Y-29433D01*
X45166Y-29767D01*
Y-29850D01*
X45999Y-29350D02*
X45833Y-29433D01*
X45666Y-29600D01*
Y-29767D01*
X45749Y-29850D01*
X45916D01*
X45999Y-29767D01*
Y-29683D01*
X45916Y-29600D01*
X45666D01*
X46166Y-29850D02*
Y-29517D01*
X46249D01*
X46332Y-29600D01*
Y-29850D01*
Y-29600D01*
X46416Y-29517D01*
X46499Y-29600D01*
Y-29850D01*
X46666D02*
Y-29517D01*
X46749D01*
X46832Y-29600D01*
Y-29850D01*
Y-29600D01*
X46915Y-29517D01*
X46999Y-29600D01*
Y-29850D01*
X49050D02*
Y-29350D01*
X49383Y-29850D01*
Y-29350D01*
X49550Y-29850D02*
Y-29350D01*
X49800D01*
X49883Y-29433D01*
Y-29600D01*
X49800Y-29683D01*
X49550D01*
X50050Y-29350D02*
X50383D01*
X50216D01*
Y-29850D01*
X50550Y-29350D02*
Y-29850D01*
Y-29600D01*
X50883D01*
Y-29350D01*
Y-29850D01*
X33723Y-30350D02*
X33390D01*
Y-30600D01*
X33557Y-30517D01*
X33640D01*
X33723Y-30600D01*
Y-30767D01*
X33640Y-30850D01*
X33473D01*
X33390Y-30767D01*
X34223Y-30350D02*
X33890D01*
Y-30600D01*
X34056Y-30517D01*
X34140D01*
X34223Y-30600D01*
Y-30767D01*
X34140Y-30850D01*
X33973D01*
X33890Y-30767D01*
X34723Y-30350D02*
X34556Y-30433D01*
X34390Y-30600D01*
Y-30767D01*
X34473Y-30850D01*
X34640D01*
X34723Y-30767D01*
Y-30683D01*
X34640Y-30600D01*
X34390D01*
X37450Y-30350D02*
X37783D01*
X37617D01*
Y-30850D01*
X38033D02*
X38200D01*
X38283Y-30767D01*
Y-30600D01*
X38200Y-30517D01*
X38033D01*
X37950Y-30600D01*
Y-30767D01*
X38033Y-30850D01*
X38533Y-30433D02*
Y-30517D01*
X38450D01*
X38616D01*
X38533D01*
Y-30767D01*
X38616Y-30850D01*
X38950Y-30517D02*
X39116D01*
X39199Y-30600D01*
Y-30850D01*
X38950D01*
X38866Y-30767D01*
X38950Y-30683D01*
X39199D01*
X39366Y-30850D02*
X39533D01*
X39449D01*
Y-30350D01*
X39366D01*
D16*
X61819Y-19700D02*
X63000D01*
X61819Y19700D02*
X63000D01*
X0Y19700D02*
X1181D01*
X0Y-19691D02*
X1181D01*
X63000Y-19700D02*
Y-18519D01*
X63000Y18519D02*
Y19700D01*
X0Y18519D02*
Y19700D01*
Y-19691D02*
Y-18510D01*
D17*
X-100Y-29800D02*
Y-31000D01*
X500D01*
X700Y-30800D01*
Y-30000D01*
X500Y-29800D01*
X-100D01*
X1100Y-31000D02*
Y-29800D01*
X1699D01*
X1899Y-30000D01*
Y-30400D01*
X1699Y-30600D01*
X1100D01*
X1499D02*
X1899Y-31000D01*
X2299Y-29800D02*
X2699D01*
X2499D01*
Y-31000D01*
X2299D01*
X2699D01*
X3299Y-29800D02*
Y-31000D01*
X4099D01*
X4499Y-29800D02*
Y-31000D01*
X5298D01*
X6898Y-29800D02*
Y-31000D01*
X7498D01*
X7697Y-30800D01*
Y-30000D01*
X7498Y-29800D01*
X6898D01*
X8097Y-31000D02*
Y-29800D01*
X8697D01*
X8897Y-30000D01*
Y-30400D01*
X8697Y-30600D01*
X8097D01*
X8497D02*
X8897Y-31000D01*
X9297D02*
Y-30200D01*
X9697Y-29800D01*
X10097Y-30200D01*
Y-31000D01*
Y-30400D01*
X9297D01*
X10497Y-29800D02*
Y-31000D01*
X10896Y-30600D01*
X11296Y-31000D01*
Y-29800D01*
X11696D02*
X12096D01*
X11896D01*
Y-31000D01*
X11696D01*
X12096D01*
X12696D02*
Y-29800D01*
X13496Y-31000D01*
Y-29800D01*
X14695Y-30000D02*
X14495Y-29800D01*
X14095D01*
X13895Y-30000D01*
Y-30800D01*
X14095Y-31000D01*
X14495D01*
X14695Y-30800D01*
Y-30400D01*
X14295D01*
X15900Y-29800D02*
Y-31000D01*
X16500D01*
X16700Y-30800D01*
Y-30000D01*
X16500Y-29800D01*
X15900D01*
X17699D02*
X17300D01*
X17100Y-30000D01*
Y-30800D01*
X17300Y-31000D01*
X17699D01*
X17899Y-30800D01*
Y-30000D01*
X17699Y-29800D01*
X19499Y-31000D02*
Y-29800D01*
X20299Y-31000D01*
Y-29800D01*
X21298D02*
X20898D01*
X20698Y-30000D01*
Y-30800D01*
X20898Y-31000D01*
X21298D01*
X21498Y-30800D01*
Y-30000D01*
X21298Y-29800D01*
X21898D02*
X22698D01*
X22298D01*
Y-31000D01*
X25097Y-29800D02*
X24297D01*
Y-30400D01*
X24697D01*
X24297D01*
Y-31000D01*
X25497D02*
Y-30200D01*
X25897Y-29800D01*
X26297Y-30200D01*
Y-31000D01*
Y-30400D01*
X25497D01*
X26697Y-29800D02*
Y-31000D01*
X27296D01*
X27496Y-30800D01*
Y-30600D01*
X27296Y-30400D01*
X26697D01*
X27296D01*
X27496Y-30200D01*
Y-30000D01*
X27296Y-29800D01*
X26697D01*
X27896Y-30600D02*
Y-29600D01*
Y-30800D02*
Y-31000D01*
X11100Y9500D02*
Y9900D01*
X11500D01*
Y9500D01*
X11100D01*
X10100D02*
Y9900D01*
X10500D01*
Y9500D01*
X10100D01*
X10600Y-1130D02*
Y-730D01*
X11000D01*
Y-1130D01*
X10600D01*
X2906Y-692D02*
Y-292D01*
X3306D01*
Y-692D01*
X2906D01*
Y292D02*
Y692D01*
X3306D01*
Y292D01*
X2906D01*
X2118D02*
Y692D01*
X2518D01*
Y292D01*
X2118D01*
Y-692D02*
Y-292D01*
X2518D01*
Y-692D01*
X2118D01*
X1255Y2170D02*
X1055Y2570D01*
X1455D01*
X1255Y2170D01*
Y-2570D02*
X1055Y-2170D01*
X1455D01*
X1255Y-2570D01*
X4213Y12950D02*
X4013Y13350D01*
X4413D01*
X4213Y12950D01*
X3031Y14800D02*
X2831Y15200D01*
X3232D01*
X3031Y14800D01*
X5394D02*
X5194Y15200D01*
X5594D01*
X5394Y14800D01*
X2784Y8936D02*
X2884Y9036D01*
X2984D01*
X2884Y9136D01*
X2984Y9236D01*
X2884D01*
X2784Y9336D01*
X2684Y9236D01*
X2584D01*
X2684Y9136D01*
X2584Y9036D01*
X2684D01*
X2784Y8936D01*
Y11692D02*
X2884Y11792D01*
X2984D01*
X2884Y11892D01*
X2984Y11992D01*
X2884D01*
X2784Y12092D01*
X2684Y11992D01*
X2584D01*
X2684Y11892D01*
X2584Y11792D01*
X2684D01*
X2784Y11692D01*
X1600Y9428D02*
X1700Y9628D01*
X1600Y9828D01*
X1800Y9728D01*
X2000Y9828D01*
X1900Y9628D01*
X2000Y9428D01*
X1800Y9528D01*
X1600Y9428D01*
X1600Y11200D02*
X1700Y11400D01*
X1600Y11600D01*
X1800Y11500D01*
X2000Y11600D01*
X1900Y11400D01*
X2000Y11200D01*
X1800Y11300D01*
X1600Y11200D01*
X25800Y16800D02*
X25900Y17000D01*
X25800Y17200D01*
X26000Y17100D01*
X26200Y17200D01*
X26100Y17000D01*
X26200Y16800D01*
X26000Y16900D01*
X25800Y16800D01*
Y17800D02*
X25900Y18000D01*
X25800Y18200D01*
X26000Y18100D01*
X26200Y18200D01*
X26100Y18000D01*
X26200Y17800D01*
X26000Y17900D01*
X25800Y17800D01*
X26800Y16800D02*
X26900Y17000D01*
X26800Y17200D01*
X27000Y17100D01*
X27200Y17200D01*
X27100Y17000D01*
X27200Y16800D01*
X27000Y16900D01*
X26800Y16800D01*
Y17800D02*
X26900Y18000D01*
X26800Y18200D01*
X27000Y18100D01*
X27200Y18200D01*
X27100Y18000D01*
X27200Y17800D01*
X27000Y17900D01*
X26800Y17800D01*
X43800Y16800D02*
X43900Y17000D01*
X43800Y17200D01*
X44000Y17100D01*
X44200Y17200D01*
X44100Y17000D01*
X44200Y16800D01*
X44000Y16900D01*
X43800Y16800D01*
Y17800D02*
X43900Y18000D01*
X43800Y18200D01*
X44000Y18100D01*
X44200Y18200D01*
X44100Y18000D01*
X44200Y17800D01*
X44000Y17900D01*
X43800Y17800D01*
X44800Y16800D02*
X44900Y17000D01*
X44800Y17200D01*
X45000Y17100D01*
X45200Y17200D01*
X45100Y17000D01*
X45200Y16800D01*
X45000Y16900D01*
X44800Y16800D01*
Y17800D02*
X44900Y18000D01*
X44800Y18200D01*
X45000Y18100D01*
X45200Y18200D01*
X45100Y18000D01*
X45200Y17800D01*
X45000Y17900D01*
X44800Y17800D01*
X41800D02*
X41900Y18000D01*
X41800Y18200D01*
X42000Y18100D01*
X42200Y18200D01*
X42100Y18000D01*
X42200Y17800D01*
X42000Y17900D01*
X41800Y17800D01*
X31800Y16800D02*
X31900Y17000D01*
X31800Y17200D01*
X32000Y17100D01*
X32200Y17200D01*
X32100Y17000D01*
X32200Y16800D01*
X32000Y16900D01*
X31800Y16800D01*
X32800D02*
X32900Y17000D01*
X32800Y17200D01*
X33000Y17100D01*
X33200Y17200D01*
X33100Y17000D01*
X33200Y16800D01*
X33000Y16900D01*
X32800Y16800D01*
X35800Y16800D02*
X35900Y17000D01*
X35800Y17200D01*
X36000Y17100D01*
X36200Y17200D01*
X36100Y17000D01*
X36200Y16800D01*
X36000Y16900D01*
X35800Y16800D01*
X36800Y16800D02*
X36900Y17000D01*
X36800Y17200D01*
X37000Y17100D01*
X37200Y17200D01*
X37100Y17000D01*
X37200Y16800D01*
X37000Y16900D01*
X36800Y16800D01*
X28800Y17800D02*
X28900Y18000D01*
X28800Y18200D01*
X29000Y18100D01*
X29200Y18200D01*
X29100Y18000D01*
X29200Y17800D01*
X29000Y17900D01*
X28800Y17800D01*
X33800D02*
X33900Y18000D01*
X33800Y18200D01*
X34000Y18100D01*
X34200Y18200D01*
X34100Y18000D01*
X34200Y17800D01*
X34000Y17900D01*
X33800Y17800D01*
X31800D02*
X31900Y18000D01*
X31800Y18200D01*
X32000Y18100D01*
X32200Y18200D01*
X32100Y18000D01*
X32200Y17800D01*
X32000Y17900D01*
X31800Y17800D01*
X30800D02*
X30900Y18000D01*
X30800Y18200D01*
X31000Y18100D01*
X31200Y18200D01*
X31100Y18000D01*
X31200Y17800D01*
X31000Y17900D01*
X30800Y17800D01*
X29800Y16800D02*
X29900Y17000D01*
X29800Y17200D01*
X30000Y17100D01*
X30200Y17200D01*
X30100Y17000D01*
X30200Y16800D01*
X30000Y16900D01*
X29800Y16800D01*
X30800D02*
X30900Y17000D01*
X30800Y17200D01*
X31000Y17100D01*
X31200Y17200D01*
X31100Y17000D01*
X31200Y16800D01*
X31000Y16900D01*
X30800Y16800D01*
X33800Y16800D02*
X33900Y17000D01*
X33800Y17200D01*
X34000Y17100D01*
X34200Y17200D01*
X34100Y17000D01*
X34200Y16800D01*
X34000Y16900D01*
X33800Y16800D01*
X34800Y16800D02*
X34900Y17000D01*
X34800Y17200D01*
X35000Y17100D01*
X35200Y17200D01*
X35100Y17000D01*
X35200Y16800D01*
X35000Y16900D01*
X34800Y16800D01*
X27800D02*
X27900Y17000D01*
X27800Y17200D01*
X28000Y17100D01*
X28200Y17200D01*
X28100Y17000D01*
X28200Y16800D01*
X28000Y16900D01*
X27800Y16800D01*
X29800Y17800D02*
X29900Y18000D01*
X29800Y18200D01*
X30000Y18100D01*
X30200Y18200D01*
X30100Y18000D01*
X30200Y17800D01*
X30000Y17900D01*
X29800Y17800D01*
X28800Y16800D02*
X28900Y17000D01*
X28800Y17200D01*
X29000Y17100D01*
X29200Y17200D01*
X29100Y17000D01*
X29200Y16800D01*
X29000Y16900D01*
X28800Y16800D01*
X32800Y17800D02*
X32900Y18000D01*
X32800Y18200D01*
X33000Y18100D01*
X33200Y18200D01*
X33100Y18000D01*
X33200Y17800D01*
X33000Y17900D01*
X32800Y17800D01*
X34800D02*
X34900Y18000D01*
X34800Y18200D01*
X35000Y18100D01*
X35200Y18200D01*
X35100Y18000D01*
X35200Y17800D01*
X35000Y17900D01*
X34800Y17800D01*
X41800Y16800D02*
X41900Y17000D01*
X41800Y17200D01*
X42000Y17100D01*
X42200Y17200D01*
X42100Y17000D01*
X42200Y16800D01*
X42000Y16900D01*
X41800Y16800D01*
X40800Y17800D02*
X40900Y18000D01*
X40800Y18200D01*
X41000Y18100D01*
X41200Y18200D01*
X41100Y18000D01*
X41200Y17800D01*
X41000Y17900D01*
X40800Y17800D01*
X39800Y16800D02*
X39900Y17000D01*
X39800Y17200D01*
X40000Y17100D01*
X40200Y17200D01*
X40100Y17000D01*
X40200Y16800D01*
X40000Y16900D01*
X39800Y16800D01*
X38800D02*
X38900Y17000D01*
X38800Y17200D01*
X39000Y17100D01*
X39200Y17200D01*
X39100Y17000D01*
X39200Y16800D01*
X39000Y16900D01*
X38800Y16800D01*
X37800Y16800D02*
X37900Y17000D01*
X37800Y17200D01*
X38000Y17100D01*
X38200Y17200D01*
X38100Y17000D01*
X38200Y16800D01*
X38000Y16900D01*
X37800Y16800D01*
X36800Y17800D02*
X36900Y18000D01*
X36800Y18200D01*
X37000Y18100D01*
X37200Y18200D01*
X37100Y18000D01*
X37200Y17800D01*
X37000Y17900D01*
X36800Y17800D01*
X37800D02*
X37900Y18000D01*
X37800Y18200D01*
X38000Y18100D01*
X38200Y18200D01*
X38100Y18000D01*
X38200Y17800D01*
X38000Y17900D01*
X37800Y17800D01*
X38800D02*
X38900Y18000D01*
X38800Y18200D01*
X39000Y18100D01*
X39200Y18200D01*
X39100Y18000D01*
X39200Y17800D01*
X39000Y17900D01*
X38800Y17800D01*
X39800D02*
X39900Y18000D01*
X39800Y18200D01*
X40000Y18100D01*
X40200Y18200D01*
X40100Y18000D01*
X40200Y17800D01*
X40000Y17900D01*
X39800Y17800D01*
X42800Y16800D02*
X42900Y17000D01*
X42800Y17200D01*
X43000Y17100D01*
X43200Y17200D01*
X43100Y17000D01*
X43200Y16800D01*
X43000Y16900D01*
X42800Y16800D01*
Y17800D02*
X42900Y18000D01*
X42800Y18200D01*
X43000Y18100D01*
X43200Y18200D01*
X43100Y18000D01*
X43200Y17800D01*
X43000Y17900D01*
X42800Y17800D01*
X40800Y16800D02*
X40900Y17000D01*
X40800Y17200D01*
X41000Y17100D01*
X41200Y17200D01*
X41100Y17000D01*
X41200Y16800D01*
X41000Y16900D01*
X40800Y16800D01*
X27800Y17800D02*
X27900Y18000D01*
X27800Y18200D01*
X28000Y18100D01*
X28200Y18200D01*
X28100Y18000D01*
X28200Y17800D01*
X28000Y17900D01*
X27800Y17800D01*
X35800D02*
X35900Y18000D01*
X35800Y18200D01*
X36000Y18100D01*
X36200Y18200D01*
X36100Y18000D01*
X36200Y17800D01*
X36000Y17900D01*
X35800Y17800D01*
X22300Y2800D02*
X22400Y3000D01*
X22300Y3200D01*
X22500Y3100D01*
X22700Y3200D01*
X22600Y3000D01*
X22700Y2800D01*
X22500Y2900D01*
X22300Y2800D01*
X21300D02*
X21400Y3000D01*
X21300Y3200D01*
X21500Y3100D01*
X21700Y3200D01*
X21600Y3000D01*
X21700Y2800D01*
X21500Y2900D01*
X21300Y2800D01*
X20300D02*
X20400Y3000D01*
X20300Y3200D01*
X20500Y3100D01*
X20700Y3200D01*
X20600Y3000D01*
X20700Y2800D01*
X20500Y2900D01*
X20300Y2800D01*
X19300Y2800D02*
X19400Y3000D01*
X19300Y3200D01*
X19500Y3100D01*
X19700Y3200D01*
X19600Y3000D01*
X19700Y2800D01*
X19500Y2900D01*
X19300Y2800D01*
X18300D02*
X18400Y3000D01*
X18300Y3200D01*
X18500Y3100D01*
X18700Y3200D01*
X18600Y3000D01*
X18700Y2800D01*
X18500Y2900D01*
X18300Y2800D01*
X18300Y1800D02*
X18400Y2000D01*
X18300Y2200D01*
X18500Y2100D01*
X18700Y2200D01*
X18600Y2000D01*
X18700Y1800D01*
X18500Y1900D01*
X18300Y1800D01*
X19300D02*
X19400Y2000D01*
X19300Y2200D01*
X19500Y2100D01*
X19700Y2200D01*
X19600Y2000D01*
X19700Y1800D01*
X19500Y1900D01*
X19300Y1800D01*
X20300D02*
X20400Y2000D01*
X20300Y2200D01*
X20500Y2100D01*
X20700Y2200D01*
X20600Y2000D01*
X20700Y1800D01*
X20500Y1900D01*
X20300Y1800D01*
X21300D02*
X21400Y2000D01*
X21300Y2200D01*
X21500Y2100D01*
X21700Y2200D01*
X21600Y2000D01*
X21700Y1800D01*
X21500Y1900D01*
X21300Y1800D01*
X22300D02*
X22400Y2000D01*
X22300Y2200D01*
X22500Y2100D01*
X22700Y2200D01*
X22600Y2000D01*
X22700Y1800D01*
X22500Y1900D01*
X22300Y1800D01*
X59300Y6800D02*
X59400Y7000D01*
X59300Y7200D01*
X59500Y7100D01*
X59700Y7200D01*
X59600Y7000D01*
X59700Y6800D01*
X59500Y6900D01*
X59300Y6800D01*
X60300D02*
X60400Y7000D01*
X60300Y7200D01*
X60500Y7100D01*
X60700Y7200D01*
X60600Y7000D01*
X60700Y6800D01*
X60500Y6900D01*
X60300Y6800D01*
X59300Y7800D02*
X59400Y8000D01*
X59300Y8200D01*
X59500Y8100D01*
X59700Y8200D01*
X59600Y8000D01*
X59700Y7800D01*
X59500Y7900D01*
X59300Y7800D01*
X60300D02*
X60400Y8000D01*
X60300Y8200D01*
X60500Y8100D01*
X60700Y8200D01*
X60600Y8000D01*
X60700Y7800D01*
X60500Y7900D01*
X60300Y7800D01*
X59300Y13800D02*
X59400Y14000D01*
X59300Y14200D01*
X59500Y14100D01*
X59700Y14200D01*
X59600Y14000D01*
X59700Y13800D01*
X59500Y13900D01*
X59300Y13800D01*
Y12800D02*
X59400Y13000D01*
X59300Y13200D01*
X59500Y13100D01*
X59700Y13200D01*
X59600Y13000D01*
X59700Y12800D01*
X59500Y12900D01*
X59300Y12800D01*
Y11800D02*
X59400Y12000D01*
X59300Y12200D01*
X59500Y12100D01*
X59700Y12200D01*
X59600Y12000D01*
X59700Y11800D01*
X59500Y11900D01*
X59300Y11800D01*
Y10800D02*
X59400Y11000D01*
X59300Y11200D01*
X59500Y11100D01*
X59700Y11200D01*
X59600Y11000D01*
X59700Y10800D01*
X59500Y10900D01*
X59300Y10800D01*
Y9800D02*
X59400Y10000D01*
X59300Y10200D01*
X59500Y10100D01*
X59700Y10200D01*
X59600Y10000D01*
X59700Y9800D01*
X59500Y9900D01*
X59300Y9800D01*
X60300D02*
X60400Y10000D01*
X60300Y10200D01*
X60500Y10100D01*
X60700Y10200D01*
X60600Y10000D01*
X60700Y9800D01*
X60500Y9900D01*
X60300Y9800D01*
Y10800D02*
X60400Y11000D01*
X60300Y11200D01*
X60500Y11100D01*
X60700Y11200D01*
X60600Y11000D01*
X60700Y10800D01*
X60500Y10900D01*
X60300Y10800D01*
Y11800D02*
X60400Y12000D01*
X60300Y12200D01*
X60500Y12100D01*
X60700Y12200D01*
X60600Y12000D01*
X60700Y11800D01*
X60500Y11900D01*
X60300Y11800D01*
Y12800D02*
X60400Y13000D01*
X60300Y13200D01*
X60500Y13100D01*
X60700Y13200D01*
X60600Y13000D01*
X60700Y12800D01*
X60500Y12900D01*
X60300Y12800D01*
Y13800D02*
X60400Y14000D01*
X60300Y14200D01*
X60500Y14100D01*
X60700Y14200D01*
X60600Y14000D01*
X60700Y13800D01*
X60500Y13900D01*
X60300Y13800D01*
X59300Y8800D02*
X59400Y9000D01*
X59300Y9200D01*
X59500Y9100D01*
X59700Y9200D01*
X59600Y9000D01*
X59700Y8800D01*
X59500Y8900D01*
X59300Y8800D01*
X60300D02*
X60400Y9000D01*
X60300Y9200D01*
X60500Y9100D01*
X60700Y9200D01*
X60600Y9000D01*
X60700Y8800D01*
X60500Y8900D01*
X60300Y8800D01*
X48000Y11250D02*
X48100Y11450D01*
X48000Y11650D01*
X48200Y11550D01*
X48400Y11650D01*
X48300Y11450D01*
X48400Y11250D01*
X48200Y11350D01*
X48000Y11250D01*
X47000D02*
X47100Y11450D01*
X47000Y11650D01*
X47200Y11550D01*
X47400Y11650D01*
X47300Y11450D01*
X47400Y11250D01*
X47200Y11350D01*
X47000Y11250D01*
X5200Y-2200D02*
X5300Y-2000D01*
X5200Y-1800D01*
X5400Y-1900D01*
X5600Y-1800D01*
X5500Y-2000D01*
X5600Y-2200D01*
X5400Y-2100D01*
X5200Y-2200D01*
X5200Y-3200D02*
X5300Y-3000D01*
X5200Y-2800D01*
X5400Y-2900D01*
X5600Y-2800D01*
X5500Y-3000D01*
X5600Y-3200D01*
X5400Y-3100D01*
X5200Y-3200D01*
X60300Y-3200D02*
X60400Y-3000D01*
X60300Y-2800D01*
X60500Y-2900D01*
X60700Y-2800D01*
X60600Y-3000D01*
X60700Y-3200D01*
X60500Y-3100D01*
X60300Y-3200D01*
X59300D02*
X59400Y-3000D01*
X59300Y-2800D01*
X59500Y-2900D01*
X59700Y-2800D01*
X59600Y-3000D01*
X59700Y-3200D01*
X59500Y-3100D01*
X59300Y-3200D01*
X60300Y1800D02*
X60400Y2000D01*
X60300Y2200D01*
X60500Y2100D01*
X60700Y2200D01*
X60600Y2000D01*
X60700Y1800D01*
X60500Y1900D01*
X60300Y1800D01*
Y800D02*
X60400Y1000D01*
X60300Y1200D01*
X60500Y1100D01*
X60700Y1200D01*
X60600Y1000D01*
X60700Y800D01*
X60500Y900D01*
X60300Y800D01*
Y-200D02*
X60400Y0D01*
X60300Y200D01*
X60500Y100D01*
X60700Y200D01*
X60600Y0D01*
X60700Y-200D01*
X60500Y-100D01*
X60300Y-200D01*
Y-1200D02*
X60400Y-1000D01*
X60300Y-800D01*
X60500Y-900D01*
X60700Y-800D01*
X60600Y-1000D01*
X60700Y-1200D01*
X60500Y-1100D01*
X60300Y-1200D01*
Y-2200D02*
X60400Y-2000D01*
X60300Y-1800D01*
X60500Y-1900D01*
X60700Y-1800D01*
X60600Y-2000D01*
X60700Y-2200D01*
X60500Y-2100D01*
X60300Y-2200D01*
X59300D02*
X59400Y-2000D01*
X59300Y-1800D01*
X59500Y-1900D01*
X59700Y-1800D01*
X59600Y-2000D01*
X59700Y-2200D01*
X59500Y-2100D01*
X59300Y-2200D01*
Y-1200D02*
X59400Y-1000D01*
X59300Y-800D01*
X59500Y-900D01*
X59700Y-800D01*
X59600Y-1000D01*
X59700Y-1200D01*
X59500Y-1100D01*
X59300Y-1200D01*
Y-200D02*
X59400Y-0D01*
X59300Y200D01*
X59500Y100D01*
X59700Y200D01*
X59600Y-0D01*
X59700Y-200D01*
X59500Y-100D01*
X59300Y-200D01*
Y800D02*
X59400Y1000D01*
X59300Y1200D01*
X59500Y1100D01*
X59700Y1200D01*
X59600Y1000D01*
X59700Y800D01*
X59500Y900D01*
X59300Y800D01*
Y1800D02*
X59400Y2000D01*
X59300Y2200D01*
X59500Y2100D01*
X59700Y2200D01*
X59600Y2000D01*
X59700Y1800D01*
X59500Y1900D01*
X59300Y1800D01*
X60300Y-4200D02*
X60400Y-4000D01*
X60300Y-3800D01*
X60500Y-3900D01*
X60700Y-3800D01*
X60600Y-4000D01*
X60700Y-4200D01*
X60500Y-4100D01*
X60300Y-4200D01*
X59300D02*
X59400Y-4000D01*
X59300Y-3800D01*
X59500Y-3900D01*
X59700Y-3800D01*
X59600Y-4000D01*
X59700Y-4200D01*
X59500Y-4100D01*
X59300Y-4200D01*
X60300Y-5200D02*
X60400Y-5000D01*
X60300Y-4800D01*
X60500Y-4900D01*
X60700Y-4800D01*
X60600Y-5000D01*
X60700Y-5200D01*
X60500Y-5100D01*
X60300Y-5200D01*
X59300Y-5200D02*
X59400Y-5000D01*
X59300Y-4800D01*
X59500Y-4900D01*
X59700Y-4800D01*
X59600Y-5000D01*
X59700Y-5200D01*
X59500Y-5100D01*
X59300Y-5200D01*
Y-12200D02*
X59400Y-12000D01*
X59300Y-11800D01*
X59500Y-11900D01*
X59700Y-11800D01*
X59600Y-12000D01*
X59700Y-12200D01*
X59500Y-12100D01*
X59300Y-12200D01*
Y-14200D02*
X59400Y-14000D01*
X59300Y-13800D01*
X59500Y-13900D01*
X59700Y-13800D01*
X59600Y-14000D01*
X59700Y-14200D01*
X59500Y-14100D01*
X59300Y-14200D01*
Y-13200D02*
X59400Y-13000D01*
X59300Y-12800D01*
X59500Y-12900D01*
X59700Y-12800D01*
X59600Y-13000D01*
X59700Y-13200D01*
X59500Y-13100D01*
X59300Y-13200D01*
X60300Y-10200D02*
X60400Y-10000D01*
X60300Y-9800D01*
X60500Y-9900D01*
X60700Y-9800D01*
X60600Y-10000D01*
X60700Y-10200D01*
X60500Y-10100D01*
X60300Y-10200D01*
Y-11200D02*
X60400Y-11000D01*
X60300Y-10800D01*
X60500Y-10900D01*
X60700Y-10800D01*
X60600Y-11000D01*
X60700Y-11200D01*
X60500Y-11100D01*
X60300Y-11200D01*
Y-12200D02*
X60400Y-12000D01*
X60300Y-11800D01*
X60500Y-11900D01*
X60700Y-11800D01*
X60600Y-12000D01*
X60700Y-12200D01*
X60500Y-12100D01*
X60300Y-12200D01*
Y-13200D02*
X60400Y-13000D01*
X60300Y-12800D01*
X60500Y-12900D01*
X60700Y-12800D01*
X60600Y-13000D01*
X60700Y-13200D01*
X60500Y-13100D01*
X60300Y-13200D01*
Y-14200D02*
X60400Y-14000D01*
X60300Y-13800D01*
X60500Y-13900D01*
X60700Y-13800D01*
X60600Y-14000D01*
X60700Y-14200D01*
X60500Y-14100D01*
X60300Y-14200D01*
X59300Y-11200D02*
X59400Y-11000D01*
X59300Y-10800D01*
X59500Y-10900D01*
X59700Y-10800D01*
X59600Y-11000D01*
X59700Y-11200D01*
X59500Y-11100D01*
X59300Y-11200D01*
Y-10200D02*
X59400Y-10000D01*
X59300Y-9800D01*
X59500Y-9900D01*
X59700Y-9800D01*
X59600Y-10000D01*
X59700Y-10200D01*
X59500Y-10100D01*
X59300Y-10200D01*
X1600Y6700D02*
X1700Y6900D01*
X1600Y7100D01*
X1800Y7000D01*
X2000Y7100D01*
X1900Y6900D01*
X2000Y6700D01*
X1800Y6800D01*
X1600Y6700D01*
X1600Y4928D02*
X1700Y5128D01*
X1600Y5328D01*
X1800Y5228D01*
X2000Y5328D01*
X1900Y5128D01*
X2000Y4928D01*
X1800Y5028D01*
X1600Y4928D01*
X2784Y7192D02*
X2884Y7292D01*
X2984D01*
X2884Y7392D01*
X2984Y7492D01*
X2884D01*
X2784Y7592D01*
X2684Y7492D01*
X2584D01*
X2684Y7392D01*
X2584Y7292D01*
X2684D01*
X2784Y7192D01*
Y4436D02*
X2884Y4536D01*
X2984D01*
X2884Y4636D01*
X2984Y4736D01*
X2884D01*
X2784Y4836D01*
X2684Y4736D01*
X2584D01*
X2684Y4636D01*
X2584Y4536D01*
X2684D01*
X2784Y4436D01*
X59870Y18480D02*
Y18380D01*
X60070D01*
Y18480D01*
X60170D01*
Y18680D01*
X60070D01*
Y18780D01*
X59870D01*
Y18680D01*
X59770D01*
Y18480D01*
X59870D01*
Y-18680D02*
Y-18780D01*
X60070D01*
Y-18680D01*
X60170D01*
Y-18480D01*
X60070D01*
Y-18380D01*
X59870D01*
Y-18480D01*
X59770D01*
Y-18680D01*
X59870D01*
X2930D02*
Y-18780D01*
X3130D01*
Y-18680D01*
X3230D01*
Y-18480D01*
X3130D01*
Y-18380D01*
X2930D01*
Y-18480D01*
X2830D01*
Y-18680D01*
X2930D01*
Y18480D02*
Y18380D01*
X3130D01*
Y18480D01*
X3230D01*
Y18680D01*
X3130D01*
Y18780D01*
X2930D01*
Y18680D01*
X2830D01*
Y18480D01*
X2930D01*
X11400Y-15800D02*
X11500Y-15600D01*
X11400Y-15400D01*
X11600Y-15500D01*
X11800Y-15400D01*
X11700Y-15600D01*
X11800Y-15800D01*
X11600Y-15700D01*
X11400Y-15800D01*
X12400Y-15800D02*
X12500Y-15600D01*
X12400Y-15400D01*
X12600Y-15500D01*
X12800Y-15400D01*
X12700Y-15600D01*
X12800Y-15800D01*
X12600Y-15700D01*
X12400Y-15800D01*
X10600Y-3400D02*
X10700Y-3200D01*
X10600Y-3000D01*
X10800Y-3100D01*
X11000Y-3000D01*
X10900Y-3200D01*
X11000Y-3400D01*
X10800Y-3300D01*
X10600Y-3400D01*
Y-2400D02*
X10700Y-2200D01*
X10600Y-2000D01*
X10800Y-2100D01*
X11000Y-2000D01*
X10900Y-2200D01*
X11000Y-2400D01*
X10800Y-2300D01*
X10600Y-2400D01*
X49400Y13800D02*
X49500Y14000D01*
X49400Y14200D01*
X49600Y14100D01*
X49800Y14200D01*
X49700Y14000D01*
X49800Y13800D01*
X49600Y13900D01*
X49400Y13800D01*
X50400Y13800D02*
X50500Y14000D01*
X50400Y14200D01*
X50600Y14100D01*
X50800Y14200D01*
X50700Y14000D01*
X50800Y13800D01*
X50600Y13900D01*
X50400Y13800D01*
X12800Y17250D02*
X12900D01*
X13000Y17350D01*
X13100Y17250D01*
X13200D01*
Y17350D01*
X13100Y17450D01*
X13200Y17550D01*
Y17650D01*
X13100D01*
X13000Y17550D01*
X12900Y17650D01*
X12800D01*
Y17550D01*
X12900Y17450D01*
X12800Y17350D01*
Y17250D01*
X9600Y17300D02*
X9700D01*
X9800Y17400D01*
X9900Y17300D01*
X10000D01*
Y17400D01*
X9900Y17500D01*
X10000Y17600D01*
Y17700D01*
X9900D01*
X9800Y17600D01*
X9700Y17700D01*
X9600D01*
Y17600D01*
X9700Y17500D01*
X9600Y17400D01*
Y17300D01*
X13050Y12000D02*
X13150D01*
X13250Y12100D01*
X13350Y12000D01*
X13450D01*
Y12100D01*
X13350Y12200D01*
X13450Y12300D01*
Y12400D01*
X13350D01*
X13250Y12300D01*
X13150Y12400D01*
X13050D01*
Y12300D01*
X13150Y12200D01*
X13050Y12100D01*
Y12000D01*
X55400Y10450D02*
X55600Y10650D01*
X55800Y10450D01*
X55600Y10250D01*
X55400Y10450D01*
X52000D02*
X52200Y10650D01*
X52400Y10450D01*
X52200Y10250D01*
X52000Y10450D01*
X55400Y6900D02*
X55600Y7100D01*
X55800Y6900D01*
X55600Y6700D01*
X55400Y6900D01*
X18300Y13200D02*
X18500Y13400D01*
X18700Y13200D01*
X18500Y13000D01*
X18300Y13200D01*
X15000D02*
X15200Y13400D01*
X15400Y13200D01*
X15200Y13000D01*
X15000Y13200D01*
X10550Y11250D02*
X10750Y11450D01*
X10950Y11250D01*
X10750Y11050D01*
X10550Y11250D01*
X25450Y15750D02*
X25550D01*
X25650Y15850D01*
X25750Y15750D01*
X25850D01*
Y15850D01*
X25750Y15950D01*
X25850Y16050D01*
Y16150D01*
X25750D01*
X25650Y16050D01*
X25550Y16150D01*
X25450D01*
Y16050D01*
X25550Y15950D01*
X25450Y15850D01*
Y15750D01*
X17000Y-2400D02*
X17100D01*
X17200Y-2300D01*
X17300Y-2400D01*
X17400D01*
Y-2300D01*
X17300Y-2200D01*
X17400Y-2100D01*
Y-2000D01*
X17300D01*
X17200Y-2100D01*
X17100Y-2000D01*
X17000D01*
Y-2100D01*
X17100Y-2200D01*
X17000Y-2300D01*
Y-2400D01*
X21500Y-2400D02*
X21600D01*
X21700Y-2300D01*
X21800Y-2400D01*
X21900D01*
Y-2300D01*
X21800Y-2200D01*
X21900Y-2100D01*
Y-2000D01*
X21800D01*
X21700Y-2100D01*
X21600Y-2000D01*
X21500D01*
Y-2100D01*
X21600Y-2200D01*
X21500Y-2300D01*
Y-2400D01*
X24600Y-5100D02*
X24700D01*
X24800Y-5000D01*
X24900Y-5100D01*
X25000D01*
Y-5000D01*
X24900Y-4900D01*
X25000Y-4800D01*
Y-4700D01*
X24900D01*
X24800Y-4800D01*
X24700Y-4700D01*
X24600D01*
Y-4800D01*
X24700Y-4900D01*
X24600Y-5000D01*
Y-5100D01*
X15400Y-7650D02*
X15500D01*
X15600Y-7550D01*
X15700Y-7650D01*
X15800D01*
Y-7550D01*
X15700Y-7450D01*
X15800Y-7350D01*
Y-7250D01*
X15700D01*
X15600Y-7350D01*
X15500Y-7250D01*
X15400D01*
Y-7350D01*
X15500Y-7450D01*
X15400Y-7550D01*
Y-7650D01*
X19450Y-13800D02*
X19550D01*
X19650Y-13700D01*
X19750Y-13800D01*
X19850D01*
Y-13700D01*
X19750Y-13600D01*
X19850Y-13500D01*
Y-13400D01*
X19750D01*
X19650Y-13500D01*
X19550Y-13400D01*
X19450D01*
Y-13500D01*
X19550Y-13600D01*
X19450Y-13700D01*
Y-13800D01*
X15400D02*
X15500D01*
X15600Y-13700D01*
X15700Y-13800D01*
X15800D01*
Y-13700D01*
X15700Y-13600D01*
X15800Y-13500D01*
Y-13400D01*
X15700D01*
X15600Y-13500D01*
X15500Y-13400D01*
X15400D01*
Y-13500D01*
X15500Y-13600D01*
X15400Y-13700D01*
Y-13800D01*
X21950D02*
X22050D01*
X22150Y-13700D01*
X22250Y-13800D01*
X22350D01*
Y-13700D01*
X22250Y-13600D01*
X22350Y-13500D01*
Y-13400D01*
X22250D01*
X22150Y-13500D01*
X22050Y-13400D01*
X21950D01*
Y-13500D01*
X22050Y-13600D01*
X21950Y-13700D01*
Y-13800D01*
X24600Y-11650D02*
X24700D01*
X24800Y-11550D01*
X24900Y-11650D01*
X25000D01*
Y-11550D01*
X24900Y-11450D01*
X25000Y-11350D01*
Y-11250D01*
X24900D01*
X24800Y-11350D01*
X24700Y-11250D01*
X24600D01*
Y-11350D01*
X24700Y-11450D01*
X24600Y-11550D01*
Y-11650D01*
X37850Y-8450D02*
X37950D01*
X38050Y-8350D01*
X38150Y-8450D01*
X38250D01*
Y-8350D01*
X38150Y-8250D01*
X38250Y-8150D01*
Y-8050D01*
X38150D01*
X38050Y-8150D01*
X37950Y-8050D01*
X37850D01*
Y-8150D01*
X37950Y-8250D01*
X37850Y-8350D01*
Y-8450D01*
Y-7700D02*
X37950D01*
X38050Y-7600D01*
X38150Y-7700D01*
X38250D01*
Y-7600D01*
X38150Y-7500D01*
X38250Y-7400D01*
Y-7300D01*
X38150D01*
X38050Y-7400D01*
X37950Y-7300D01*
X37850D01*
Y-7400D01*
X37950Y-7500D01*
X37850Y-7600D01*
Y-7700D01*
Y-7100D02*
X37950D01*
X38050Y-7000D01*
X38150Y-7100D01*
X38250D01*
Y-7000D01*
X38150Y-6900D01*
X38250Y-6800D01*
Y-6700D01*
X38150D01*
X38050Y-6800D01*
X37950Y-6700D01*
X37850D01*
Y-6800D01*
X37950Y-6900D01*
X37850Y-7000D01*
Y-7100D01*
X25350Y3550D02*
X25550Y3750D01*
X25750Y3550D01*
X25550Y3350D01*
X25350Y3550D01*
X28450Y2800D02*
X28650Y3000D01*
X28850Y2800D01*
X28650Y2600D01*
X28450Y2800D01*
X27300D02*
X27500Y3000D01*
X27700Y2800D01*
X27500Y2600D01*
X27300Y2800D01*
X31100Y-11900D02*
X31300Y-11700D01*
X31500Y-11900D01*
X31300Y-12100D01*
X31100Y-11900D01*
X49900Y5900D02*
X50000D01*
X50100Y6000D01*
X50200Y5900D01*
X50300D01*
Y6000D01*
X50200Y6100D01*
X50300Y6200D01*
Y6300D01*
X50200D01*
X50100Y6200D01*
X50000Y6300D01*
X49900D01*
Y6200D01*
X50000Y6100D01*
X49900Y6000D01*
Y5900D01*
X49150D02*
X49250D01*
X49350Y6000D01*
X49450Y5900D01*
X49550D01*
Y6000D01*
X49450Y6100D01*
X49550Y6200D01*
Y6300D01*
X49450D01*
X49350Y6200D01*
X49250Y6300D01*
X49150D01*
Y6200D01*
X49250Y6100D01*
X49150Y6000D01*
Y5900D01*
X45900Y6750D02*
X46000D01*
X46100Y6850D01*
X46200Y6750D01*
X46300D01*
Y6850D01*
X46200Y6950D01*
X46300Y7050D01*
Y7150D01*
X46200D01*
X46100Y7050D01*
X46000Y7150D01*
X45900D01*
Y7050D01*
X46000Y6950D01*
X45900Y6850D01*
Y6750D01*
X22600Y6200D02*
X22700D01*
X22800Y6300D01*
X22900Y6200D01*
X23000D01*
Y6300D01*
X22900Y6400D01*
X23000Y6500D01*
Y6600D01*
X22900D01*
X22800Y6500D01*
X22700Y6600D01*
X22600D01*
Y6500D01*
X22700Y6400D01*
X22600Y6300D01*
Y6200D01*
X7500Y-10500D02*
X7600D01*
X7700Y-10400D01*
X7800Y-10500D01*
X7900D01*
Y-10400D01*
X7800Y-10300D01*
X7900Y-10200D01*
Y-10100D01*
X7800D01*
X7700Y-10200D01*
X7600Y-10100D01*
X7500D01*
Y-10200D01*
X7600Y-10300D01*
X7500Y-10400D01*
Y-10500D01*
X9850D02*
X9950D01*
X10050Y-10400D01*
X10150Y-10500D01*
X10250D01*
Y-10400D01*
X10150Y-10300D01*
X10250Y-10200D01*
Y-10100D01*
X10150D01*
X10050Y-10200D01*
X9950Y-10100D01*
X9850D01*
Y-10200D01*
X9950Y-10300D01*
X9850Y-10400D01*
Y-10500D01*
X26750Y5350D02*
X26850D01*
X26950Y5450D01*
X27050Y5350D01*
X27150D01*
Y5450D01*
X27050Y5550D01*
X27150Y5650D01*
Y5750D01*
X27050D01*
X26950Y5650D01*
X26850Y5750D01*
X26750D01*
Y5650D01*
X26850Y5550D01*
X26750Y5450D01*
Y5350D01*
X26000Y9000D02*
X26100D01*
X26200Y9100D01*
X26300Y9000D01*
X26400D01*
Y9100D01*
X26300Y9200D01*
X26400Y9300D01*
Y9400D01*
X26300D01*
X26200Y9300D01*
X26100Y9400D01*
X26000D01*
Y9300D01*
X26100Y9200D01*
X26000Y9100D01*
Y9000D01*
X6100Y16650D02*
X6200D01*
X6300Y16750D01*
X6400Y16650D01*
X6500D01*
Y16750D01*
X6400Y16850D01*
X6500Y16950D01*
Y17050D01*
X6400D01*
X6300Y16950D01*
X6200Y17050D01*
X6100D01*
Y16950D01*
X6200Y16850D01*
X6100Y16750D01*
Y16650D01*
X8100Y-15800D02*
X8200D01*
X8300Y-15700D01*
X8400Y-15800D01*
X8500D01*
Y-15700D01*
X8400Y-15600D01*
X8500Y-15500D01*
Y-15400D01*
X8400D01*
X8300Y-15500D01*
X8200Y-15400D01*
X8100D01*
Y-15500D01*
X8200Y-15600D01*
X8100Y-15700D01*
Y-15800D01*
Y-13650D02*
X8200D01*
X8300Y-13550D01*
X8400Y-13650D01*
X8500D01*
Y-13550D01*
X8400Y-13450D01*
X8500Y-13350D01*
Y-13250D01*
X8400D01*
X8300Y-13350D01*
X8200Y-13250D01*
X8100D01*
Y-13350D01*
X8200Y-13450D01*
X8100Y-13550D01*
Y-13650D01*
X7550Y-11200D02*
X7650D01*
X7750Y-11100D01*
X7850Y-11200D01*
X7950D01*
Y-11100D01*
X7850Y-11000D01*
X7950Y-10900D01*
Y-10800D01*
X7850D01*
X7750Y-10900D01*
X7650Y-10800D01*
X7550D01*
Y-10900D01*
X7650Y-11000D01*
X7550Y-11100D01*
Y-11200D01*
X6050Y7400D02*
X6150D01*
X6250Y7500D01*
X6350Y7400D01*
X6450D01*
Y7500D01*
X6350Y7600D01*
X6450Y7700D01*
Y7800D01*
X6350D01*
X6250Y7700D01*
X6150Y7800D01*
X6050D01*
Y7700D01*
X6150Y7600D01*
X6050Y7500D01*
Y7400D01*
X7200Y11700D02*
X7300D01*
X7400Y11800D01*
X7500Y11700D01*
X7600D01*
Y11800D01*
X7500Y11900D01*
X7600Y12000D01*
Y12100D01*
X7500D01*
X7400Y12000D01*
X7300Y12100D01*
X7200D01*
Y12000D01*
X7300Y11900D01*
X7200Y11800D01*
Y11700D01*
X20500Y-1600D02*
X20600D01*
X20700Y-1500D01*
X20800Y-1600D01*
X20900D01*
Y-1500D01*
X20800Y-1400D01*
X20900Y-1300D01*
Y-1200D01*
X20800D01*
X20700Y-1300D01*
X20600Y-1200D01*
X20500D01*
Y-1300D01*
X20600Y-1400D01*
X20500Y-1500D01*
Y-1600D01*
X19000D02*
X19100D01*
X19200Y-1500D01*
X19300Y-1600D01*
X19400D01*
Y-1500D01*
X19300Y-1400D01*
X19400Y-1300D01*
Y-1200D01*
X19300D01*
X19200Y-1300D01*
X19100Y-1200D01*
X19000D01*
Y-1300D01*
X19100Y-1400D01*
X19000Y-1500D01*
Y-1600D01*
X26900Y6800D02*
X27000D01*
X27100Y6900D01*
X27200Y6800D01*
X27300D01*
Y6900D01*
X27200Y7000D01*
X27300Y7100D01*
Y7200D01*
X27200D01*
X27100Y7100D01*
X27000Y7200D01*
X26900D01*
Y7100D01*
X27000Y7000D01*
X26900Y6900D01*
Y6800D01*
X46650Y-6400D02*
X46750D01*
X46850Y-6300D01*
X46950Y-6400D01*
X47050D01*
Y-6300D01*
X46950Y-6200D01*
X47050Y-6100D01*
Y-6000D01*
X46950D01*
X46850Y-6100D01*
X46750Y-6000D01*
X46650D01*
Y-6100D01*
X46750Y-6200D01*
X46650Y-6300D01*
Y-6400D01*
X49750Y-7750D02*
X49850D01*
X49950Y-7650D01*
X50050Y-7750D01*
X50150D01*
Y-7650D01*
X50050Y-7550D01*
X50150Y-7450D01*
Y-7350D01*
X50050D01*
X49950Y-7450D01*
X49850Y-7350D01*
X49750D01*
Y-7450D01*
X49850Y-7550D01*
X49750Y-7650D01*
Y-7750D01*
X49150D02*
X49250D01*
X49350Y-7650D01*
X49450Y-7750D01*
X49550D01*
Y-7650D01*
X49450Y-7550D01*
X49550Y-7450D01*
Y-7350D01*
X49450D01*
X49350Y-7450D01*
X49250Y-7350D01*
X49150D01*
Y-7450D01*
X49250Y-7550D01*
X49150Y-7650D01*
Y-7750D01*
X35600Y-6500D02*
X35700D01*
X35800Y-6400D01*
X35900Y-6500D01*
X36000D01*
Y-6400D01*
X35900Y-6300D01*
X36000Y-6200D01*
Y-6100D01*
X35900D01*
X35800Y-6200D01*
X35700Y-6100D01*
X35600D01*
Y-6200D01*
X35700Y-6300D01*
X35600Y-6400D01*
Y-6500D01*
X31650Y-8100D02*
X31750D01*
X31850Y-8000D01*
X31950Y-8100D01*
X32050D01*
Y-8000D01*
X31950Y-7900D01*
X32050Y-7800D01*
Y-7700D01*
X31950D01*
X31850Y-7800D01*
X31750Y-7700D01*
X31650D01*
Y-7800D01*
X31750Y-7900D01*
X31650Y-8000D01*
Y-8100D01*
X24600D02*
X24700D01*
X24800Y-8000D01*
X24900Y-8100D01*
X25000D01*
Y-8000D01*
X24900Y-7900D01*
X25000Y-7800D01*
Y-7700D01*
X24900D01*
X24800Y-7800D01*
X24700Y-7700D01*
X24600D01*
Y-7800D01*
X24700Y-7900D01*
X24600Y-8000D01*
Y-8100D01*
X32300D02*
X32400D01*
X32500Y-8000D01*
X32600Y-8100D01*
X32700D01*
Y-8000D01*
X32600Y-7900D01*
X32700Y-7800D01*
Y-7700D01*
X32600D01*
X32500Y-7800D01*
X32400Y-7700D01*
X32300D01*
Y-7800D01*
X32400Y-7900D01*
X32300Y-8000D01*
Y-8100D01*
X24000D02*
X24100D01*
X24200Y-8000D01*
X24300Y-8100D01*
X24400D01*
Y-8000D01*
X24300Y-7900D01*
X24400Y-7800D01*
Y-7700D01*
X24300D01*
X24200Y-7800D01*
X24100Y-7700D01*
X24000D01*
Y-7800D01*
X24100Y-7900D01*
X24000Y-8000D01*
Y-8100D01*
X23500Y-4450D02*
X23600D01*
X23700Y-4350D01*
X23800Y-4450D01*
X23900D01*
Y-4350D01*
X23800Y-4250D01*
X23900Y-4150D01*
Y-4050D01*
X23800D01*
X23700Y-4150D01*
X23600Y-4050D01*
X23500D01*
Y-4150D01*
X23600Y-4250D01*
X23500Y-4350D01*
Y-4450D01*
X24250D02*
X24350D01*
X24450Y-4350D01*
X24550Y-4450D01*
X24650D01*
Y-4350D01*
X24550Y-4250D01*
X24650Y-4150D01*
Y-4050D01*
X24550D01*
X24450Y-4150D01*
X24350Y-4050D01*
X24250D01*
Y-4150D01*
X24350Y-4250D01*
X24250Y-4350D01*
Y-4450D01*
X50300Y-11500D02*
X50400D01*
X50500Y-11400D01*
X50600Y-11500D01*
X50700D01*
Y-11400D01*
X50600Y-11300D01*
X50700Y-11200D01*
Y-11100D01*
X50600D01*
X50500Y-11200D01*
X50400Y-11100D01*
X50300D01*
Y-11200D01*
X50400Y-11300D01*
X50300Y-11400D01*
Y-11500D01*
X53400Y5400D02*
X53500D01*
X53600Y5500D01*
X53700Y5400D01*
X53800D01*
Y5500D01*
X53700Y5600D01*
X53800Y5700D01*
Y5800D01*
X53700D01*
X53600Y5700D01*
X53500Y5800D01*
X53400D01*
Y5700D01*
X53500Y5600D01*
X53400Y5500D01*
Y5400D01*
Y4400D02*
X53500D01*
X53600Y4500D01*
X53700Y4400D01*
X53800D01*
Y4500D01*
X53700Y4600D01*
X53800Y4700D01*
Y4800D01*
X53700D01*
X53600Y4700D01*
X53500Y4800D01*
X53400D01*
Y4700D01*
X53500Y4600D01*
X53400Y4500D01*
Y4400D01*
X16000Y-5700D02*
X16100D01*
X16200Y-5600D01*
X16300Y-5700D01*
X16400D01*
Y-5600D01*
X16300Y-5500D01*
X16400Y-5400D01*
Y-5300D01*
X16300D01*
X16200Y-5400D01*
X16100Y-5300D01*
X16000D01*
Y-5400D01*
X16100Y-5500D01*
X16000Y-5600D01*
Y-5700D01*
X19600D02*
X19700D01*
X19800Y-5600D01*
X19900Y-5700D01*
X20000D01*
Y-5600D01*
X19900Y-5500D01*
X20000Y-5400D01*
Y-5300D01*
X19900D01*
X19800Y-5400D01*
X19700Y-5300D01*
X19600D01*
Y-5400D01*
X19700Y-5500D01*
X19600Y-5600D01*
Y-5700D01*
X23200Y-6050D02*
X23300D01*
X23400Y-5950D01*
X23500Y-6050D01*
X23600D01*
Y-5950D01*
X23500Y-5850D01*
X23600Y-5750D01*
Y-5650D01*
X23500D01*
X23400Y-5750D01*
X23300Y-5650D01*
X23200D01*
Y-5750D01*
X23300Y-5850D01*
X23200Y-5950D01*
Y-6050D01*
X24000Y-12300D02*
X24100D01*
X24200Y-12200D01*
X24300Y-12300D01*
X24400D01*
Y-12200D01*
X24300Y-12100D01*
X24400Y-12000D01*
Y-11900D01*
X24300D01*
X24200Y-12000D01*
X24100Y-11900D01*
X24000D01*
Y-12000D01*
X24100Y-12100D01*
X24000Y-12200D01*
Y-12300D01*
X17300Y-13200D02*
X17400D01*
X17500Y-13100D01*
X17600Y-13200D01*
X17700D01*
Y-13100D01*
X17600Y-13000D01*
X17700Y-12900D01*
Y-12800D01*
X17600D01*
X17500Y-12900D01*
X17400Y-12800D01*
X17300D01*
Y-12900D01*
X17400Y-13000D01*
X17300Y-13100D01*
Y-13200D01*
X26800Y14800D02*
X26900D01*
X27000Y14900D01*
X27100Y14800D01*
X27200D01*
Y14900D01*
X27100Y15000D01*
X27200Y15100D01*
Y15200D01*
X27100D01*
X27000Y15100D01*
X26900Y15200D01*
X26800D01*
Y15100D01*
X26900Y15000D01*
X26800Y14900D01*
Y14800D01*
X43650Y5200D02*
X43850Y5400D01*
X44050Y5200D01*
X43850Y5000D01*
X43650Y5200D01*
X38100Y-9400D02*
X38300Y-9200D01*
X38500Y-9400D01*
X38300Y-9600D01*
X38100Y-9400D01*
X43650Y-10150D02*
X43850Y-9950D01*
X44050Y-10150D01*
X43850Y-10350D01*
X43650Y-10150D01*
X24250Y2400D02*
X24450Y2600D01*
X24650Y2400D01*
X24450Y2200D01*
X24250Y2400D01*
X44350Y13400D02*
X44550Y13600D01*
X44750Y13400D01*
X44550Y13200D01*
X44350Y13400D01*
X42600D02*
X42800Y13600D01*
X43000Y13400D01*
X42800Y13200D01*
X42600Y13400D01*
X56400Y2000D02*
X56600Y2200D01*
X56800Y2000D01*
X56600Y1800D01*
X56400Y2000D01*
X35800Y8500D02*
X36000Y8700D01*
X36200Y8500D01*
X36000Y8300D01*
X35800Y8500D01*
X37300Y8850D02*
X37500Y9050D01*
X37700Y8850D01*
X37500Y8650D01*
X37300Y8850D01*
X45050Y7800D02*
X45250Y8000D01*
X45450Y7800D01*
X45250Y7600D01*
X45050Y7800D01*
X46150Y-4950D02*
X46350Y-4750D01*
X46550Y-4950D01*
X46350Y-5150D01*
X46150Y-4950D01*
X44700Y7400D02*
X44900Y7600D01*
X45100Y7400D01*
X44900Y7200D01*
X44700Y7400D01*
X45800Y-5750D02*
X46000Y-5550D01*
X46200Y-5750D01*
X46000Y-5950D01*
X45800Y-5750D01*
X57000Y-7200D02*
X57200Y-7000D01*
X57400Y-7200D01*
X57200Y-7400D01*
X57000Y-7200D01*
X53250D02*
X53450Y-7000D01*
X53650Y-7200D01*
X53450Y-7400D01*
X53250Y-7200D01*
X57400Y-7550D02*
X57600Y-7350D01*
X57800Y-7550D01*
X57600Y-7750D01*
X57400Y-7550D01*
X52700D02*
X52900Y-7350D01*
X53100Y-7550D01*
X52900Y-7750D01*
X52700Y-7550D01*
X55400Y-13850D02*
X55600Y-13650D01*
X55800Y-13850D01*
X55600Y-14050D01*
X55400Y-13850D01*
X55800Y-8800D02*
X56000Y-8600D01*
X56200Y-8800D01*
X56000Y-9000D01*
X55800Y-8800D01*
X52200D02*
X52400Y-8600D01*
X52600Y-8800D01*
X52400Y-9000D01*
X52200Y-8800D01*
X46500Y-12000D02*
X46700Y-11800D01*
X46900Y-12000D01*
X46700Y-12200D01*
X46500Y-12000D01*
X45800D02*
X46000Y-11800D01*
X46200Y-12000D01*
X46000Y-12200D01*
X45800Y-12000D01*
X56800Y6800D02*
X56900D01*
X57000Y6900D01*
X57100Y6800D01*
X57200D01*
Y6900D01*
X57100Y7000D01*
X57200Y7100D01*
Y7200D01*
X57100D01*
X57000Y7100D01*
X56900Y7200D01*
X56800D01*
Y7100D01*
X56900Y7000D01*
X56800Y6900D01*
Y6800D01*
Y7800D02*
X56900D01*
X57000Y7900D01*
X57100Y7800D01*
X57200D01*
Y7900D01*
X57100Y8000D01*
X57200Y8100D01*
Y8200D01*
X57100D01*
X57000Y8100D01*
X56900Y8200D01*
X56800D01*
Y8100D01*
X56900Y8000D01*
X56800Y7900D01*
Y7800D01*
X44350Y6500D02*
X44550Y6700D01*
X44750Y6500D01*
X44550Y6300D01*
X44350Y6500D01*
X38300Y3100D02*
X38500Y3300D01*
X38700Y3100D01*
X38500Y2900D01*
X38300Y3100D01*
X39300Y2750D02*
X39500Y2950D01*
X39700Y2750D01*
X39500Y2550D01*
X39300Y2750D01*
X40300Y2400D02*
X40500Y2600D01*
X40700Y2400D01*
X40500Y2200D01*
X40300Y2400D01*
X40800Y2000D02*
X41000Y2200D01*
X41200Y2000D01*
X41000Y1800D01*
X40800Y2000D01*
X39800Y1650D02*
X40000Y1850D01*
X40200Y1650D01*
X40000Y1450D01*
X39800Y1650D01*
X38800Y1300D02*
X39000Y1500D01*
X39200Y1300D01*
X39000Y1100D01*
X38800Y1300D01*
X37800Y950D02*
X38000Y1150D01*
X38200Y950D01*
X38000Y750D01*
X37800Y950D01*
X36800Y600D02*
X37000Y800D01*
X37200Y600D01*
X37000Y400D01*
X36800Y600D01*
X45800Y-6650D02*
X46000Y-6450D01*
X46200Y-6650D01*
X46000Y-6850D01*
X45800Y-6650D01*
X44700Y-5350D02*
X44900Y-5150D01*
X45100Y-5350D01*
X44900Y-5550D01*
X44700Y-5350D01*
X45400Y-7000D02*
X45600Y-6800D01*
X45800Y-7000D01*
X45600Y-7200D01*
X45400Y-7000D01*
X44000Y-9200D02*
X44200Y-9000D01*
X44400Y-9200D01*
X44200Y-9400D01*
X44000Y-9200D01*
X45050Y-7500D02*
X45250Y-7300D01*
X45450Y-7500D01*
X45250Y-7700D01*
X45050Y-7500D01*
X40700Y-8000D02*
X40900Y-7800D01*
X41100Y-8000D01*
X40900Y-8200D01*
X40700Y-8000D01*
X39650D02*
X39850Y-7800D01*
X40050Y-8000D01*
X39850Y-8200D01*
X39650Y-8000D01*
X40000Y-8800D02*
X40200Y-8600D01*
X40400Y-8800D01*
X40200Y-9000D01*
X40000Y-8800D01*
X41500Y-9800D02*
X41700Y-9600D01*
X41900Y-9800D01*
X41700Y-10000D01*
X41500Y-9800D01*
X39300Y-10000D02*
X39500Y-9800D01*
X39700Y-10000D01*
X39500Y-10200D01*
X39300Y-10000D01*
X40350Y-10500D02*
X40550Y-10300D01*
X40750Y-10500D01*
X40550Y-10700D01*
X40350Y-10500D01*
X38950Y-11000D02*
X39150Y-10800D01*
X39350Y-11000D01*
X39150Y-11200D01*
X38950Y-11000D01*
X38250Y-5400D02*
X38450Y-5200D01*
X38650Y-5400D01*
X38450Y-5600D01*
X38250Y-5400D01*
X20350Y-400D02*
X20550Y-200D01*
X20750Y-400D01*
X20550Y-600D01*
X20350Y-400D01*
X23550D02*
X23750Y-200D01*
X23950Y-400D01*
X23750Y-600D01*
X23550Y-400D01*
X49750Y1450D02*
X49850D01*
X49950Y1550D01*
X50050Y1450D01*
X50150D01*
Y1550D01*
X50050Y1650D01*
X50150Y1750D01*
Y1850D01*
X50050D01*
X49950Y1750D01*
X49850Y1850D01*
X49750D01*
Y1750D01*
X49850Y1650D01*
X49750Y1550D01*
Y1450D01*
X50500Y-7500D02*
X50700Y-7300D01*
X50900Y-7500D01*
X50700Y-7700D01*
X50500Y-7500D01*
X9050Y1200D02*
X9250Y1400D01*
X9450Y1200D01*
X9250Y1000D01*
X9050Y1200D01*
X10000Y2400D02*
X10200Y2600D01*
X10400Y2400D01*
X10200Y2200D01*
X10000Y2400D01*
X8550Y3200D02*
X8750Y3400D01*
X8950Y3200D01*
X8750Y3000D01*
X8550Y3200D01*
X8150Y1550D02*
X8350Y1750D01*
X8550Y1550D01*
X8350Y1350D01*
X8150Y1550D01*
X7800Y4000D02*
X8000Y4200D01*
X8200Y4000D01*
X8000Y3800D01*
X7800Y4000D01*
X6600Y-3500D02*
X6800Y-3300D01*
X7000Y-3500D01*
X6800Y-3700D01*
X6600Y-3500D01*
X6200Y-400D02*
X6400Y-200D01*
X6600Y-400D01*
X6400Y-600D01*
X6200Y-400D01*
Y3200D02*
X6400Y3400D01*
X6600Y3200D01*
X6400Y3000D01*
X6200Y3200D01*
X6600Y-6400D02*
X6800Y-6200D01*
X7000Y-6400D01*
X6800Y-6600D01*
X6600Y-6400D01*
X7500Y-3500D02*
X7700Y-3300D01*
X7900Y-3500D01*
X7700Y-3700D01*
X7500Y-3500D01*
X9500D02*
X9700Y-3300D01*
X9900Y-3500D01*
X9700Y-3700D01*
X9500Y-3500D01*
X28800Y1900D02*
X29000Y2100D01*
X29200Y1900D01*
X29000Y1700D01*
X28800Y1900D01*
X24300D02*
X24500Y2100D01*
X24700Y1900D01*
X24500Y1700D01*
X24300Y1900D01*
Y-800D02*
X24500Y-600D01*
X24700Y-800D01*
X24500Y-1000D01*
X24300Y-800D01*
X18500D02*
X18700Y-600D01*
X18900Y-800D01*
X18700Y-1000D01*
X18500Y-800D01*
X24650Y6400D02*
X24850Y6600D01*
X25050Y6400D01*
X24850Y6200D01*
X24650Y6400D01*
X28300D02*
X28500Y6600D01*
X28700Y6400D01*
X28500Y6200D01*
X28300Y6400D01*
X23950Y1500D02*
X24150Y1700D01*
X24350Y1500D01*
X24150Y1300D01*
X23950Y1500D01*
X33800D02*
X34000Y1700D01*
X34200Y1500D01*
X34000Y1300D01*
X33800Y1500D01*
X47450Y-5350D02*
X47650Y-5150D01*
X47850Y-5350D01*
X47650Y-5550D01*
X47450Y-5350D01*
X35950Y-2000D02*
X36150Y-1800D01*
X36350Y-2000D01*
X36150Y-2200D01*
X35950Y-2000D01*
X37800D02*
X38000Y-1800D01*
X38200Y-2000D01*
X38000Y-2200D01*
X37800Y-2000D01*
X47100Y700D02*
X47300Y900D01*
X47500Y700D01*
X47300Y500D01*
X47100Y700D01*
X49000Y2050D02*
X49200Y2250D01*
X49400Y2050D01*
X49200Y1850D01*
X49000Y2050D01*
X46650Y6500D02*
X46850Y6700D01*
X47050Y6500D01*
X46850Y6300D01*
X46650Y6500D01*
X44000Y11450D02*
X44200Y11650D01*
X44400Y11450D01*
X44200Y11250D01*
X44000Y11450D01*
X38250Y-5900D02*
X38450Y-5700D01*
X38650Y-5900D01*
X38450Y-6100D01*
X38250Y-5900D01*
X44000Y-7000D02*
X44200Y-6800D01*
X44400Y-7000D01*
X44200Y-7200D01*
X44000Y-7000D01*
X39950Y13300D02*
X40150Y13500D01*
X40350Y13300D01*
X40150Y13100D01*
X39950Y13300D01*
X46650Y7500D02*
X46850Y7700D01*
X47050Y7500D01*
X46850Y7300D01*
X46650Y7500D01*
X36300Y14050D02*
X36500Y14250D01*
X36700Y14050D01*
X36500Y13850D01*
X36300Y14050D01*
X46400Y8000D02*
X46600Y8200D01*
X46800Y8000D01*
X46600Y7800D01*
X46400Y8000D01*
X37300Y14400D02*
X37500Y14600D01*
X37700Y14400D01*
X37500Y14200D01*
X37300Y14400D01*
X42950Y250D02*
X43150Y450D01*
X43350Y250D01*
X43150Y50D01*
X42950Y250D01*
X38300Y13800D02*
X38500Y14000D01*
X38700Y13800D01*
X38500Y13600D01*
X38300Y13800D01*
X39050Y13450D02*
X39250Y13650D01*
X39450Y13450D01*
X39250Y13250D01*
X39050Y13450D01*
X46500Y2000D02*
X46700Y2200D01*
X46900Y2000D01*
X46700Y1800D01*
X46500Y2000D01*
Y-7000D02*
X46700Y-6800D01*
X46900Y-7000D01*
X46700Y-7200D01*
X46500Y-7000D01*
X45050Y700D02*
X45250Y900D01*
X45450Y700D01*
X45250Y500D01*
X45050Y700D01*
X46650Y-7500D02*
X46850Y-7300D01*
X47050Y-7500D01*
X46850Y-7700D01*
X46650Y-7500D01*
X44700Y1100D02*
X44900Y1300D01*
X45100Y1100D01*
X44900Y900D01*
X44700Y1100D01*
X46650Y5500D02*
X46850Y5700D01*
X47050Y5500D01*
X46850Y5300D01*
X46650Y5500D01*
X46400Y5000D02*
X46600Y5200D01*
X46800Y5000D01*
X46600Y4800D01*
X46400Y5000D01*
Y6000D02*
X46600Y6200D01*
X46800Y6000D01*
X46600Y5800D01*
X46400Y6000D01*
X46650Y4500D02*
X46850Y4700D01*
X47050Y4500D01*
X46850Y4300D01*
X46650Y4500D01*
X46400Y4000D02*
X46600Y4200D01*
X46800Y4000D01*
X46600Y3800D01*
X46400Y4000D01*
X46650Y3500D02*
X46850Y3700D01*
X47050Y3500D01*
X46850Y3300D01*
X46650Y3500D01*
X46400Y3000D02*
X46600Y3200D01*
X46800Y3000D01*
X46600Y2800D01*
X46400Y3000D01*
X46650Y2500D02*
X46850Y2700D01*
X47050Y2500D01*
X46850Y2300D01*
X46650Y2500D01*
X47850Y-4950D02*
X48050Y-4750D01*
X48250Y-4950D01*
X48050Y-5150D01*
X47850Y-4950D01*
Y-5750D02*
X48050Y-5550D01*
X48250Y-5750D01*
X48050Y-5950D01*
X47850Y-5750D01*
X46650Y-9500D02*
X46850Y-9300D01*
X47050Y-9500D01*
X46850Y-9700D01*
X46650Y-9500D01*
X41500Y-2000D02*
X41700Y-1800D01*
X41900Y-2000D01*
X41700Y-2200D01*
X41500Y-2000D01*
X40000Y-13800D02*
X40200Y-13600D01*
X40400Y-13800D01*
X40200Y-14000D01*
X40000Y-13800D01*
X46650Y-11500D02*
X46850Y-11300D01*
X47050Y-11500D01*
X46850Y-11700D01*
X46650Y-11500D01*
X41100Y-2350D02*
X41300Y-2150D01*
X41500Y-2350D01*
X41300Y-2550D01*
X41100Y-2350D01*
Y-11550D02*
X41300Y-11350D01*
X41500Y-11550D01*
X41300Y-11750D01*
X41100Y-11550D01*
X37600Y-2700D02*
X37800Y-2500D01*
X38000Y-2700D01*
X37800Y-2900D01*
X37600Y-2700D01*
X40700D02*
X40900Y-2500D01*
X41100Y-2700D01*
X40900Y-2900D01*
X40700Y-2700D01*
Y-12050D02*
X40900Y-11850D01*
X41100Y-12050D01*
X40900Y-12250D01*
X40700Y-12050D01*
X46500Y-8000D02*
X46700Y-7800D01*
X46900Y-8000D01*
X46700Y-8200D01*
X46500Y-8000D01*
X46650Y-8500D02*
X46850Y-8300D01*
X47050Y-8500D01*
X46850Y-8700D01*
X46650Y-8500D01*
X46500Y-9000D02*
X46700Y-8800D01*
X46900Y-9000D01*
X46700Y-9200D01*
X46500Y-9000D01*
Y-10000D02*
X46700Y-9800D01*
X46900Y-10000D01*
X46700Y-10200D01*
X46500Y-10000D01*
X46650Y-10500D02*
X46850Y-10300D01*
X47050Y-10500D01*
X46850Y-10700D01*
X46650Y-10500D01*
X46500Y-11000D02*
X46700Y-10800D01*
X46900Y-11000D01*
X46700Y-11200D01*
X46500Y-11000D01*
X40350Y-12700D02*
X40550Y-12500D01*
X40750Y-12700D01*
X40550Y-12900D01*
X40350Y-12700D01*
X39650Y-13300D02*
X39850Y-13100D01*
X40050Y-13300D01*
X39850Y-13500D01*
X39650Y-13300D01*
Y-12600D02*
X39850Y-12400D01*
X40050Y-12600D01*
X39850Y-12800D01*
X39650Y-12600D01*
X38700Y-13650D02*
X38900Y-13450D01*
X39100Y-13650D01*
X38900Y-13850D01*
X38700Y-13650D01*
X38950Y-12250D02*
X39150Y-12050D01*
X39350Y-12250D01*
X39150Y-12450D01*
X38950Y-12250D01*
X34600Y-14350D02*
X34800Y-14150D01*
X35000Y-14350D01*
X34800Y-14550D01*
X34600Y-14350D01*
X24000Y-13600D02*
X24200Y-13400D01*
X24400Y-13600D01*
X24200Y-13800D01*
X24000Y-13600D01*
X26950Y1150D02*
X27150Y1350D01*
X27350Y1150D01*
X27150Y950D01*
X26950Y1150D01*
X34800D02*
X35000Y1350D01*
X35200Y1150D01*
X35000Y950D01*
X34800Y1150D01*
X28100Y-6400D02*
X28300Y-6200D01*
X28500Y-6400D01*
X28300Y-6600D01*
X28100Y-6400D01*
X27650Y-9400D02*
X27850Y-9200D01*
X28050Y-9400D01*
X27850Y-9600D01*
X27650Y-9400D01*
X34050Y-14000D02*
X34250Y-13800D01*
X34450Y-14000D01*
X34250Y-14200D01*
X34050Y-14000D01*
X33600Y-13650D02*
X33800Y-13450D01*
X34000Y-13650D01*
X33800Y-13850D01*
X33600Y-13650D01*
X33050Y-13300D02*
X33250Y-13100D01*
X33450Y-13300D01*
X33250Y-13500D01*
X33050Y-13300D01*
X32600Y-12950D02*
X32800Y-12750D01*
X33000Y-12950D01*
X32800Y-13150D01*
X32600Y-12950D01*
X32050Y-12600D02*
X32250Y-12400D01*
X32450Y-12600D01*
X32250Y-12800D01*
X32050Y-12600D01*
X31550Y-12250D02*
X31750Y-12050D01*
X31950Y-12250D01*
X31750Y-12450D01*
X31550Y-12250D01*
X33050Y-2950D02*
X33250Y-2750D01*
X33450Y-2950D01*
X33250Y-3150D01*
X33050Y-2950D01*
X25450Y-1700D02*
X25650Y-1500D01*
X25850Y-1700D01*
X25650Y-1900D01*
X25450Y-1700D01*
X32550Y-2850D02*
X32750Y-2650D01*
X32950Y-2850D01*
X32750Y-3050D01*
X32550Y-2850D01*
X25000Y-2050D02*
X25200Y-1850D01*
X25400Y-2050D01*
X25200Y-2250D01*
X25000Y-2050D01*
X32050Y-2950D02*
X32250Y-2750D01*
X32450Y-2950D01*
X32250Y-3150D01*
X32050Y-2950D01*
X25400Y-2400D02*
X25600Y-2200D01*
X25800Y-2400D01*
X25600Y-2600D01*
X25400Y-2400D01*
X30950Y-2950D02*
X31150Y-2750D01*
X31350Y-2950D01*
X31150Y-3150D01*
X30950Y-2950D01*
X26450Y-3400D02*
X26650Y-3200D01*
X26850Y-3400D01*
X26650Y-3600D01*
X26450Y-3400D01*
X26700Y-3900D02*
X26900Y-3700D01*
X27100Y-3900D01*
X26900Y-4100D01*
X26700Y-3900D01*
X28250Y-8400D02*
X28450Y-8200D01*
X28650Y-8400D01*
X28450Y-8600D01*
X28250Y-8400D01*
X27400Y800D02*
X27600Y1000D01*
X27800Y800D01*
X27600Y600D01*
X27400Y800D01*
X32800D02*
X33000Y1000D01*
X33200Y800D01*
X33000Y600D01*
X32800Y800D01*
X28700Y-6950D02*
X28900Y-6750D01*
X29100Y-6950D01*
X28900Y-7150D01*
X28700Y-6950D01*
X28650Y-4400D02*
X28850Y-4200D01*
X29050Y-4400D01*
X28850Y-4600D01*
X28650Y-4400D01*
X28800Y450D02*
X29000Y650D01*
X29200Y450D01*
X29000Y250D01*
X28800Y450D01*
X31800D02*
X32000Y650D01*
X32200Y450D01*
X32000Y250D01*
X31800Y450D01*
X29700Y-4400D02*
X29900Y-4200D01*
X30100Y-4400D01*
X29900Y-4600D01*
X29700Y-4400D01*
X26700D02*
X26900Y-4200D01*
X27100Y-4400D01*
X26900Y-4600D01*
X26700Y-4400D01*
X29400Y-11550D02*
X29600Y-11350D01*
X29800Y-11550D01*
X29600Y-11750D01*
X29400Y-11550D01*
X26950Y-9400D02*
X27150Y-9200D01*
X27350Y-9400D01*
X27150Y-9600D01*
X26950Y-9400D01*
X26800Y-8900D02*
X27000Y-8700D01*
X27200Y-8900D01*
X27000Y-9100D01*
X26800Y-8900D01*
X26950Y-8400D02*
X27150Y-8200D01*
X27350Y-8400D01*
X27150Y-8600D01*
X26950Y-8400D01*
X29050Y-7450D02*
X29250Y-7250D01*
X29450Y-7450D01*
X29250Y-7650D01*
X29050Y-7450D01*
X26800D02*
X27000Y-7250D01*
X27200Y-7450D01*
X27000Y-7650D01*
X26800Y-7450D01*
X29400Y-6950D02*
X29600Y-6750D01*
X29800Y-6950D01*
X29600Y-7150D01*
X29400Y-6950D01*
X26950D02*
X27150Y-6750D01*
X27350Y-6950D01*
X27150Y-7150D01*
X26950Y-6950D01*
X29400Y-6400D02*
X29600Y-6200D01*
X29800Y-6400D01*
X29600Y-6600D01*
X29400Y-6400D01*
X26800D02*
X27000Y-6200D01*
X27200Y-6400D01*
X27000Y-6600D01*
X26800Y-6400D01*
X29400Y-5900D02*
X29600Y-5700D01*
X29800Y-5900D01*
X29600Y-6100D01*
X29400Y-5900D01*
X26950D02*
X27150Y-5700D01*
X27350Y-5900D01*
X27150Y-6100D01*
X26950Y-5900D01*
X30400Y-3400D02*
X30600Y-3200D01*
X30800Y-3400D01*
X30600Y-3600D01*
X30400Y-3400D01*
X31550Y-2850D02*
X31750Y-2650D01*
X31950Y-2850D01*
X31750Y-3050D01*
X31550Y-2850D01*
X40800Y13050D02*
X41000Y13250D01*
X41200Y13050D01*
X41000Y12850D01*
X40800Y13050D01*
X19300Y14400D02*
X19500Y14600D01*
X19700Y14400D01*
X19500Y14200D01*
X19300Y14400D01*
X20300Y14050D02*
X20500Y14250D01*
X20700Y14050D01*
X20500Y13850D01*
X20300Y14050D01*
X19800Y13700D02*
X20000Y13900D01*
X20200Y13700D01*
X20000Y13500D01*
X19800Y13700D01*
X20800Y13500D02*
X21000Y13700D01*
X21200Y13500D01*
X21000Y13300D01*
X20800Y13500D01*
X21800Y13300D02*
X22000Y13500D01*
X22200Y13300D01*
X22000Y13100D01*
X21800Y13300D01*
X22800Y13050D02*
X23000Y13250D01*
X23200Y13050D01*
X23000Y12850D01*
X22800Y13050D01*
X34800Y12800D02*
X35000Y13000D01*
X35200Y12800D01*
X35000Y12600D01*
X34800Y12800D01*
X20800Y12950D02*
X21000Y13150D01*
X21200Y12950D01*
X21000Y12750D01*
X20800Y12950D01*
X33300Y12550D02*
X33500Y12750D01*
X33700Y12550D01*
X33500Y12350D01*
X33300Y12550D01*
X23500Y-15500D02*
X23700Y-15300D01*
X23900Y-15500D01*
X23700Y-15700D01*
X23500Y-15500D01*
X35600Y-14350D02*
X35800Y-14150D01*
X36000Y-14350D01*
X35800Y-14550D01*
X35600Y-14350D01*
X23000Y-15650D02*
X23200Y-15450D01*
X23400Y-15650D01*
X23200Y-15850D01*
X23000Y-15650D01*
X36100Y-14700D02*
X36300Y-14500D01*
X36500Y-14700D01*
X36300Y-14900D01*
X36100Y-14700D01*
X41650Y-14150D02*
X41850Y-13950D01*
X42050Y-14150D01*
X41850Y-14350D01*
X41650Y-14150D01*
X41800Y-14700D02*
X42000Y-14500D01*
X42200Y-14700D01*
X42000Y-14900D01*
X41800Y-14700D01*
X24650Y-15500D02*
X24850Y-15300D01*
X25050Y-15500D01*
X24850Y-15700D01*
X24650Y-15500D01*
X21500Y-15600D02*
X21700Y-15400D01*
X21900Y-15600D01*
X21700Y-15800D01*
X21500Y-15600D01*
X41700Y12000D02*
X41900Y12200D01*
X42100Y12000D01*
X41900Y11800D01*
X41700Y12000D01*
X35800Y9200D02*
X36000Y9400D01*
X36200Y9200D01*
X36000Y9000D01*
X35800Y9200D01*
X42250D02*
X42450Y9400D01*
X42650Y9200D01*
X42450Y9000D01*
X42250Y9200D01*
X34800Y-2000D02*
X35000Y-1800D01*
X35200Y-2000D01*
X35000Y-2200D01*
X34800Y-2000D01*
X41900Y-3050D02*
X42100Y-2850D01*
X42300Y-3050D01*
X42100Y-3250D01*
X41900Y-3050D01*
X38300Y-8900D02*
X38500Y-8700D01*
X38700Y-8900D01*
X38500Y-9100D01*
X38300Y-8900D01*
X21000Y-15800D02*
X21200Y-15600D01*
X21400Y-15800D01*
X21200Y-16000D01*
X21000Y-15800D01*
X45050Y-14900D02*
X45250Y-14700D01*
X45450Y-14900D01*
X45250Y-15100D01*
X45050Y-14900D01*
X25900Y-16350D02*
X26100Y-16150D01*
X26300Y-16350D01*
X26100Y-16550D01*
X25900Y-16350D01*
X45400Y-15350D02*
X45600Y-15150D01*
X45800Y-15350D01*
X45600Y-15550D01*
X45400Y-15350D01*
X19000Y-15600D02*
X19200Y-15400D01*
X19400Y-15600D01*
X19200Y-15800D01*
X19000Y-15600D01*
X44700D02*
X44900Y-15400D01*
X45100Y-15600D01*
X44900Y-15800D01*
X44700Y-15600D01*
X18500Y-15800D02*
X18700Y-15600D01*
X18900Y-15800D01*
X18700Y-16000D01*
X18500Y-15800D01*
X44350Y-16000D02*
X44550Y-15800D01*
X44750Y-16000D01*
X44550Y-16200D01*
X44350Y-16000D01*
X35300Y12700D02*
X35500Y12900D01*
X35700Y12700D01*
X35500Y12500D01*
X35300Y12700D01*
X51700Y-14200D02*
X51900Y-14000D01*
X52100Y-14200D01*
X51900Y-14400D01*
X51700Y-14200D01*
X55800Y-14550D02*
X56000Y-14350D01*
X56200Y-14550D01*
X56000Y-14750D01*
X55800Y-14550D01*
X27900Y-5900D02*
X28100Y-5700D01*
X28300Y-5900D01*
X28100Y-6100D01*
X27900Y-5900D01*
Y-8900D02*
X28100Y-8700D01*
X28300Y-8900D01*
X28100Y-9100D01*
X27900Y-8900D01*
X38600Y-3400D02*
X38800Y-3200D01*
X39000Y-3400D01*
X38800Y-3600D01*
X38600Y-3400D01*
X25500Y-1200D02*
X25700Y-1000D01*
X25900Y-1200D01*
X25700Y-1400D01*
X25500Y-1200D01*
X25750Y3000D02*
X25950Y3200D01*
X26150Y3000D01*
X25950Y2800D01*
X25750Y3000D01*
X13200Y-8950D02*
X13400Y-8750D01*
X13600Y-8950D01*
X13400Y-9150D01*
X13200Y-8950D01*
Y-8450D02*
X13400Y-8250D01*
X13600Y-8450D01*
X13400Y-8650D01*
X13200Y-8450D01*
Y-7950D02*
X13400Y-7750D01*
X13600Y-7950D01*
X13400Y-8150D01*
X13200Y-7950D01*
Y-6900D02*
X13400Y-6700D01*
X13600Y-6900D01*
X13400Y-7100D01*
X13200Y-6900D01*
Y-6400D02*
X13400Y-6200D01*
X13600Y-6400D01*
X13400Y-6600D01*
X13200Y-6400D01*
X12700Y-400D02*
X12900Y-200D01*
X13100Y-400D01*
X12900Y-600D01*
X12700Y-400D01*
X19800D02*
X20000Y-200D01*
X20200Y-400D01*
X20000Y-600D01*
X19800Y-400D01*
X13200Y0D02*
X13400Y200D01*
X13600Y0D01*
X13400Y-200D01*
X13200Y0D01*
X18800D02*
X19000Y200D01*
X19200Y0D01*
X19000Y-200D01*
X18800Y0D01*
X12800Y-11400D02*
X13000Y-11200D01*
X13200Y-11400D01*
X13000Y-11600D01*
X12800Y-11400D01*
X8200D02*
X8400Y-11200D01*
X8600Y-11400D01*
X8400Y-11600D01*
X8200Y-11400D01*
X12650Y-11950D02*
X12850Y-11750D01*
X13050Y-11950D01*
X12850Y-12150D01*
X12650Y-11950D01*
X8600D02*
X8800Y-11750D01*
X9000Y-11950D01*
X8800Y-12150D01*
X8600Y-11950D01*
X12800Y-12450D02*
X13000Y-12250D01*
X13200Y-12450D01*
X13000Y-12650D01*
X12800Y-12450D01*
X9400D02*
X9600Y-12250D01*
X9800Y-12450D01*
X9600Y-12650D01*
X9400Y-12450D01*
X15450Y-15600D02*
X15650Y-15400D01*
X15850Y-15600D01*
X15650Y-15800D01*
X15450Y-15600D01*
X52250Y-14900D02*
X52450Y-14700D01*
X52650Y-14900D01*
X52450Y-15100D01*
X52250Y-14900D01*
X15900Y-17400D02*
X16100Y-17200D01*
X16300Y-17400D01*
X16100Y-17600D01*
X15900Y-17400D01*
X53250Y-15300D02*
X53450Y-15100D01*
X53650Y-15300D01*
X53450Y-15500D01*
X53250Y-15300D01*
X15550Y-17800D02*
X15750Y-17600D01*
X15950Y-17800D01*
X15750Y-18000D01*
X15550Y-17800D01*
X13200Y-5400D02*
X13400Y-5200D01*
X13600Y-5400D01*
X13400Y-5600D01*
X13200Y-5400D01*
X12200D02*
X12400Y-5200D01*
X12600Y-5400D01*
X12400Y-5600D01*
X12200Y-5400D01*
X12400Y5600D02*
X12600Y5800D01*
X12800Y5600D01*
X12600Y5400D01*
X12400Y5600D01*
X10000D02*
X10200Y5800D01*
X10400Y5600D01*
X10200Y5400D01*
X10000Y5600D01*
X14100Y6000D02*
X14300Y6200D01*
X14500Y6000D01*
X14300Y5800D01*
X14100Y6000D01*
Y8600D02*
X14300Y8800D01*
X14500Y8600D01*
X14300Y8400D01*
X14100Y8600D01*
X31450Y-22600D02*
X31650Y-22400D01*
X31850Y-22600D01*
X31650Y-22800D01*
X31450Y-22600D01*
Y-23800D02*
X31550D01*
X31650Y-23700D01*
X31750Y-23800D01*
X31850D01*
Y-23700D01*
X31750Y-23600D01*
X31850Y-23500D01*
Y-23400D01*
X31750D01*
X31650Y-23500D01*
X31550Y-23400D01*
X31450D01*
Y-23500D01*
X31550Y-23600D01*
X31450Y-23700D01*
Y-23800D01*
Y-25800D02*
Y-25400D01*
X31850D01*
Y-25800D01*
X31450D01*
Y-26800D02*
X31550Y-26600D01*
X31450Y-26400D01*
X31650Y-26500D01*
X31850Y-26400D01*
X31750Y-26600D01*
X31850Y-26800D01*
X31650Y-26700D01*
X31450Y-26800D01*
X31650Y-27800D02*
X31750Y-27700D01*
X31850D01*
X31750Y-27600D01*
X31850Y-27500D01*
X31750D01*
X31650Y-27400D01*
X31550Y-27500D01*
X31450D01*
X31550Y-27600D01*
X31450Y-27700D01*
X31550D01*
X31650Y-27800D01*
Y-28800D02*
X31450Y-28400D01*
X31850D01*
X31650Y-28800D01*
X31550Y-29700D02*
Y-29800D01*
X31750D01*
Y-29700D01*
X31850D01*
Y-29500D01*
X31750D01*
Y-29400D01*
X31550D01*
Y-29500D01*
X31450D01*
Y-29700D01*
X31550D01*
D18*
X24200Y12000D02*
X24177Y12093D01*
X24114Y12165D01*
X24024Y12199D01*
X23929Y12187D01*
X23850Y12133D01*
X23806Y12048D01*
Y11952D01*
X23850Y11867D01*
X23929Y11813D01*
X24024Y11801D01*
X24114Y11835D01*
X24177Y11907D01*
X24200Y12000D01*
X16200Y15000D02*
X16177Y15093D01*
X16114Y15165D01*
X16024Y15199D01*
X15929Y15187D01*
X15850Y15133D01*
X15806Y15048D01*
Y14952D01*
X15850Y14867D01*
X15929Y14813D01*
X16024Y14801D01*
X16114Y14835D01*
X16177Y14907D01*
X16200Y15000D01*
X18200Y12000D02*
X18177Y12093D01*
X18114Y12165D01*
X18024Y12199D01*
X17929Y12187D01*
X17850Y12133D01*
X17806Y12048D01*
Y11952D01*
X17850Y11867D01*
X17929Y11813D01*
X18024Y11801D01*
X18114Y11835D01*
X18177Y11907D01*
X18200Y12000D01*
X19200Y15000D02*
X19177Y15093D01*
X19114Y15165D01*
X19024Y15199D01*
X18929Y15187D01*
X18850Y15133D01*
X18806Y15048D01*
Y14952D01*
X18850Y14867D01*
X18929Y14813D01*
X19024Y14801D01*
X19114Y14835D01*
X19177Y14907D01*
X19200Y15000D01*
X22200Y12000D02*
X22177Y12093D01*
X22114Y12165D01*
X22024Y12199D01*
X21929Y12187D01*
X21850Y12133D01*
X21806Y12048D01*
Y11952D01*
X21850Y11867D01*
X21929Y11813D01*
X22024Y11801D01*
X22114Y11835D01*
X22177Y11907D01*
X22200Y12000D01*
X20200Y12000D02*
X20177Y12093D01*
X20114Y12165D01*
X20024Y12199D01*
X19929Y12187D01*
X19850Y12133D01*
X19806Y12048D01*
Y11952D01*
X19850Y11867D01*
X19929Y11813D01*
X20024Y11801D01*
X20114Y11835D01*
X20177Y11907D01*
X20200Y12000D01*
X19200Y12000D02*
X19177Y12093D01*
X19114Y12165D01*
X19024Y12199D01*
X18929Y12187D01*
X18850Y12133D01*
X18806Y12048D01*
Y11952D01*
X18850Y11867D01*
X18929Y11813D01*
X19024Y11801D01*
X19114Y11835D01*
X19177Y11907D01*
X19200Y12000D01*
X21200D02*
X21177Y12093D01*
X21114Y12165D01*
X21024Y12199D01*
X20929Y12187D01*
X20850Y12133D01*
X20806Y12048D01*
Y11952D01*
X20850Y11867D01*
X20929Y11813D01*
X21024Y11801D01*
X21114Y11835D01*
X21177Y11907D01*
X21200Y12000D01*
X20200Y15000D02*
X20177Y15093D01*
X20114Y15165D01*
X20024Y15199D01*
X19929Y15187D01*
X19850Y15133D01*
X19806Y15048D01*
Y14952D01*
X19850Y14867D01*
X19929Y14813D01*
X20024Y14801D01*
X20114Y14835D01*
X20177Y14907D01*
X20200Y15000D01*
X21200Y15000D02*
X21177Y15093D01*
X21114Y15165D01*
X21024Y15199D01*
X20929Y15187D01*
X20850Y15133D01*
X20806Y15048D01*
Y14952D01*
X20850Y14867D01*
X20929Y14813D01*
X21024Y14801D01*
X21114Y14835D01*
X21177Y14907D01*
X21200Y15000D01*
X17200Y12000D02*
X17177Y12093D01*
X17114Y12165D01*
X17024Y12199D01*
X16929Y12187D01*
X16850Y12133D01*
X16806Y12048D01*
Y11952D01*
X16850Y11867D01*
X16929Y11813D01*
X17024Y11801D01*
X17114Y11835D01*
X17177Y11907D01*
X17200Y12000D01*
X22200Y15000D02*
X22177Y15093D01*
X22114Y15165D01*
X22024Y15199D01*
X21929Y15187D01*
X21850Y15133D01*
X21806Y15048D01*
Y14952D01*
X21850Y14867D01*
X21929Y14813D01*
X22024Y14801D01*
X22114Y14835D01*
X22177Y14907D01*
X22200Y15000D01*
X23200Y15000D02*
X23177Y15093D01*
X23114Y15165D01*
X23024Y15199D01*
X22929Y15187D01*
X22850Y15133D01*
X22806Y15048D01*
Y14952D01*
X22850Y14867D01*
X22929Y14813D01*
X23024Y14801D01*
X23114Y14835D01*
X23177Y14907D01*
X23200Y15000D01*
X16200Y12000D02*
X16177Y12093D01*
X16114Y12165D01*
X16024Y12199D01*
X15929Y12187D01*
X15850Y12133D01*
X15806Y12048D01*
Y11952D01*
X15850Y11867D01*
X15929Y11813D01*
X16024Y11801D01*
X16114Y11835D01*
X16177Y11907D01*
X16200Y12000D01*
X23200Y12000D02*
X23177Y12093D01*
X23114Y12165D01*
X23024Y12199D01*
X22929Y12187D01*
X22850Y12133D01*
X22806Y12048D01*
Y11952D01*
X22850Y11867D01*
X22929Y11813D01*
X23024Y11801D01*
X23114Y11835D01*
X23177Y11907D01*
X23200Y12000D01*
X24200Y15000D02*
X24177Y15093D01*
X24114Y15165D01*
X24024Y15199D01*
X23929Y15187D01*
X23850Y15133D01*
X23806Y15048D01*
Y14952D01*
X23850Y14867D01*
X23929Y14813D01*
X24024Y14801D01*
X24114Y14835D01*
X24177Y14907D01*
X24200Y15000D01*
X18200Y15000D02*
X18177Y15093D01*
X18114Y15165D01*
X18024Y15199D01*
X17929Y15187D01*
X17850Y15133D01*
X17806Y15048D01*
Y14952D01*
X17850Y14867D01*
X17929Y14813D01*
X18024Y14801D01*
X18114Y14835D01*
X18177Y14907D01*
X18200Y15000D01*
X17200D02*
X17177Y15093D01*
X17114Y15165D01*
X17024Y15199D01*
X16929Y15187D01*
X16850Y15133D01*
X16806Y15048D01*
Y14952D01*
X16850Y14867D01*
X16929Y14813D01*
X17024Y14801D01*
X17114Y14835D01*
X17177Y14907D01*
X17200Y15000D01*
X34200Y12000D02*
X34177Y12093D01*
X34114Y12165D01*
X34024Y12199D01*
X33929Y12187D01*
X33850Y12133D01*
X33806Y12048D01*
Y11952D01*
X33850Y11867D01*
X33929Y11813D01*
X34024Y11801D01*
X34114Y11835D01*
X34177Y11907D01*
X34200Y12000D01*
X35200D02*
X35177Y12093D01*
X35114Y12165D01*
X35024Y12199D01*
X34929Y12187D01*
X34850Y12133D01*
X34806Y12048D01*
Y11952D01*
X34850Y11867D01*
X34929Y11813D01*
X35024Y11801D01*
X35114Y11835D01*
X35177Y11907D01*
X35200Y12000D01*
X37200Y15000D02*
X37177Y15093D01*
X37114Y15165D01*
X37024Y15199D01*
X36929Y15187D01*
X36850Y15133D01*
X36806Y15048D01*
Y14952D01*
X36850Y14867D01*
X36929Y14813D01*
X37024Y14801D01*
X37114Y14835D01*
X37177Y14907D01*
X37200Y15000D01*
X30200Y12000D02*
X30177Y12093D01*
X30114Y12165D01*
X30024Y12199D01*
X29929Y12187D01*
X29850Y12133D01*
X29806Y12048D01*
Y11952D01*
X29850Y11867D01*
X29929Y11813D01*
X30024Y11801D01*
X30114Y11835D01*
X30177Y11907D01*
X30200Y12000D01*
X32200D02*
X32177Y12093D01*
X32114Y12165D01*
X32024Y12199D01*
X31929Y12187D01*
X31850Y12133D01*
X31806Y12048D01*
Y11952D01*
X31850Y11867D01*
X31929Y11813D01*
X32024Y11801D01*
X32114Y11835D01*
X32177Y11907D01*
X32200Y12000D01*
X31200Y12000D02*
X31177Y12093D01*
X31114Y12165D01*
X31024Y12199D01*
X30929Y12187D01*
X30850Y12133D01*
X30806Y12048D01*
Y11952D01*
X30850Y11867D01*
X30929Y11813D01*
X31024Y11801D01*
X31114Y11835D01*
X31177Y11907D01*
X31200Y12000D01*
X29200D02*
X29177Y12093D01*
X29114Y12165D01*
X29024Y12199D01*
X28929Y12187D01*
X28850Y12133D01*
X28806Y12048D01*
Y11952D01*
X28850Y11867D01*
X28929Y11813D01*
X29024Y11801D01*
X29114Y11835D01*
X29177Y11907D01*
X29200Y12000D01*
X39200Y12000D02*
X39177Y12093D01*
X39114Y12165D01*
X39024Y12199D01*
X38929Y12187D01*
X38850Y12133D01*
X38806Y12048D01*
Y11952D01*
X38850Y11867D01*
X38929Y11813D01*
X39024Y11801D01*
X39114Y11835D01*
X39177Y11907D01*
X39200Y12000D01*
X36200Y15000D02*
X36177Y15093D01*
X36114Y15165D01*
X36024Y15199D01*
X35929Y15187D01*
X35850Y15133D01*
X35806Y15048D01*
Y14952D01*
X35850Y14867D01*
X35929Y14813D01*
X36024Y14801D01*
X36114Y14835D01*
X36177Y14907D01*
X36200Y15000D01*
X35200D02*
X35177Y15093D01*
X35114Y15165D01*
X35024Y15199D01*
X34929Y15187D01*
X34850Y15133D01*
X34806Y15048D01*
Y14952D01*
X34850Y14867D01*
X34929Y14813D01*
X35024Y14801D01*
X35114Y14835D01*
X35177Y14907D01*
X35200Y15000D01*
X30200D02*
X30177Y15093D01*
X30114Y15165D01*
X30024Y15199D01*
X29929Y15187D01*
X29850Y15133D01*
X29806Y15048D01*
Y14952D01*
X29850Y14867D01*
X29929Y14813D01*
X30024Y14801D01*
X30114Y14835D01*
X30177Y14907D01*
X30200Y15000D01*
X39200D02*
X39177Y15093D01*
X39114Y15165D01*
X39024Y15199D01*
X38929Y15187D01*
X38850Y15133D01*
X38806Y15048D01*
Y14952D01*
X38850Y14867D01*
X38929Y14813D01*
X39024Y14801D01*
X39114Y14835D01*
X39177Y14907D01*
X39200Y15000D01*
X29200D02*
X29177Y15093D01*
X29114Y15165D01*
X29024Y15199D01*
X28929Y15187D01*
X28850Y15133D01*
X28806Y15048D01*
Y14952D01*
X28850Y14867D01*
X28929Y14813D01*
X29024Y14801D01*
X29114Y14835D01*
X29177Y14907D01*
X29200Y15000D01*
X31200D02*
X31177Y15093D01*
X31114Y15165D01*
X31024Y15199D01*
X30929Y15187D01*
X30850Y15133D01*
X30806Y15048D01*
Y14952D01*
X30850Y14867D01*
X30929Y14813D01*
X31024Y14801D01*
X31114Y14835D01*
X31177Y14907D01*
X31200Y15000D01*
X37200Y12000D02*
X37177Y12093D01*
X37114Y12165D01*
X37024Y12199D01*
X36929Y12187D01*
X36850Y12133D01*
X36806Y12048D01*
Y11952D01*
X36850Y11867D01*
X36929Y11813D01*
X37024Y11801D01*
X37114Y11835D01*
X37177Y11907D01*
X37200Y12000D01*
X32200Y15000D02*
X32177Y15093D01*
X32114Y15165D01*
X32024Y15199D01*
X31929Y15187D01*
X31850Y15133D01*
X31806Y15048D01*
Y14952D01*
X31850Y14867D01*
X31929Y14813D01*
X32024Y14801D01*
X32114Y14835D01*
X32177Y14907D01*
X32200Y15000D01*
X36200Y12000D02*
X36177Y12093D01*
X36114Y12165D01*
X36024Y12199D01*
X35929Y12187D01*
X35850Y12133D01*
X35806Y12048D01*
Y11952D01*
X35850Y11867D01*
X35929Y11813D01*
X36024Y11801D01*
X36114Y11835D01*
X36177Y11907D01*
X36200Y12000D01*
X28200D02*
X28177Y12093D01*
X28114Y12165D01*
X28024Y12199D01*
X27929Y12187D01*
X27850Y12133D01*
X27806Y12048D01*
Y11952D01*
X27850Y11867D01*
X27929Y11813D01*
X28024Y11801D01*
X28114Y11835D01*
X28177Y11907D01*
X28200Y12000D01*
X28200Y15000D02*
X28177Y15093D01*
X28114Y15165D01*
X28024Y15199D01*
X27929Y15187D01*
X27850Y15133D01*
X27806Y15048D01*
Y14952D01*
X27850Y14867D01*
X27929Y14813D01*
X28024Y14801D01*
X28114Y14835D01*
X28177Y14907D01*
X28200Y15000D01*
X33200D02*
X33177Y15093D01*
X33114Y15165D01*
X33024Y15199D01*
X32929Y15187D01*
X32850Y15133D01*
X32806Y15048D01*
Y14952D01*
X32850Y14867D01*
X32929Y14813D01*
X33024Y14801D01*
X33114Y14835D01*
X33177Y14907D01*
X33200Y15000D01*
X34200Y15000D02*
X34177Y15093D01*
X34114Y15165D01*
X34024Y15199D01*
X33929Y15187D01*
X33850Y15133D01*
X33806Y15048D01*
Y14952D01*
X33850Y14867D01*
X33929Y14813D01*
X34024Y14801D01*
X34114Y14835D01*
X34177Y14907D01*
X34200Y15000D01*
X38200D02*
X38177Y15093D01*
X38114Y15165D01*
X38024Y15199D01*
X37929Y15187D01*
X37850Y15133D01*
X37806Y15048D01*
Y14952D01*
X37850Y14867D01*
X37929Y14813D01*
X38024Y14801D01*
X38114Y14835D01*
X38177Y14907D01*
X38200Y15000D01*
X40200D02*
X40177Y15093D01*
X40114Y15165D01*
X40024Y15199D01*
X39929Y15187D01*
X39850Y15133D01*
X39806Y15048D01*
Y14952D01*
X39850Y14867D01*
X39929Y14813D01*
X40024Y14801D01*
X40114Y14835D01*
X40177Y14907D01*
X40200Y15000D01*
X41200D02*
X41177Y15093D01*
X41114Y15165D01*
X41024Y15199D01*
X40929Y15187D01*
X40850Y15133D01*
X40806Y15048D01*
Y14952D01*
X40850Y14867D01*
X40929Y14813D01*
X41024Y14801D01*
X41114Y14835D01*
X41177Y14907D01*
X41200Y15000D01*
X41200Y12000D02*
X41177Y12093D01*
X41114Y12165D01*
X41024Y12199D01*
X40929Y12187D01*
X40850Y12133D01*
X40806Y12048D01*
Y11952D01*
X40850Y11867D01*
X40929Y11813D01*
X41024Y11801D01*
X41114Y11835D01*
X41177Y11907D01*
X41200Y12000D01*
X40200Y12000D02*
X40177Y12093D01*
X40114Y12165D01*
X40024Y12199D01*
X39929Y12187D01*
X39850Y12133D01*
X39806Y12048D01*
Y11952D01*
X39850Y11867D01*
X39929Y11813D01*
X40024Y11801D01*
X40114Y11835D01*
X40177Y11907D01*
X40200Y12000D01*
X38200D02*
X38177Y12093D01*
X38114Y12165D01*
X38024Y12199D01*
X37929Y12187D01*
X37850Y12133D01*
X37806Y12048D01*
Y11952D01*
X37850Y11867D01*
X37929Y11813D01*
X38024Y11801D01*
X38114Y11835D01*
X38177Y11907D01*
X38200Y12000D01*
X33200Y12000D02*
X33177Y12093D01*
X33114Y12165D01*
X33024Y12199D01*
X32929Y12187D01*
X32850Y12133D01*
X32806Y12048D01*
Y11952D01*
X32850Y11867D01*
X32929Y11813D01*
X33024Y11801D01*
X33114Y11835D01*
X33177Y11907D01*
X33200Y12000D01*
Y7400D02*
X33177Y7493D01*
X33114Y7565D01*
X33024Y7599D01*
X32929Y7587D01*
X32850Y7533D01*
X32806Y7448D01*
Y7352D01*
X32850Y7267D01*
X32929Y7213D01*
X33024Y7201D01*
X33114Y7235D01*
X33177Y7307D01*
X33200Y7400D01*
X38200Y7400D02*
X38177Y7493D01*
X38114Y7565D01*
X38024Y7599D01*
X37929Y7587D01*
X37850Y7533D01*
X37806Y7448D01*
Y7352D01*
X37850Y7267D01*
X37929Y7213D01*
X38024Y7201D01*
X38114Y7235D01*
X38177Y7307D01*
X38200Y7400D01*
X40200D02*
X40177Y7493D01*
X40114Y7565D01*
X40024Y7599D01*
X39929Y7587D01*
X39850Y7533D01*
X39806Y7448D01*
Y7352D01*
X39850Y7267D01*
X39929Y7213D01*
X40024Y7201D01*
X40114Y7235D01*
X40177Y7307D01*
X40200Y7400D01*
X41200Y7400D02*
X41177Y7493D01*
X41114Y7565D01*
X41024Y7599D01*
X40929Y7587D01*
X40850Y7533D01*
X40806Y7448D01*
Y7352D01*
X40850Y7267D01*
X40929Y7213D01*
X41024Y7201D01*
X41114Y7235D01*
X41177Y7307D01*
X41200Y7400D01*
X41200Y10400D02*
X41177Y10493D01*
X41114Y10565D01*
X41024Y10599D01*
X40929Y10587D01*
X40850Y10533D01*
X40806Y10448D01*
Y10352D01*
X40850Y10267D01*
X40929Y10213D01*
X41024Y10201D01*
X41114Y10235D01*
X41177Y10307D01*
X41200Y10400D01*
X40200D02*
X40177Y10493D01*
X40114Y10565D01*
X40024Y10599D01*
X39929Y10587D01*
X39850Y10533D01*
X39806Y10448D01*
Y10352D01*
X39850Y10267D01*
X39929Y10213D01*
X40024Y10201D01*
X40114Y10235D01*
X40177Y10307D01*
X40200Y10400D01*
X38200D02*
X38177Y10493D01*
X38114Y10565D01*
X38024Y10599D01*
X37929Y10587D01*
X37850Y10533D01*
X37806Y10448D01*
Y10352D01*
X37850Y10267D01*
X37929Y10213D01*
X38024Y10201D01*
X38114Y10235D01*
X38177Y10307D01*
X38200Y10400D01*
X34200D02*
X34177Y10493D01*
X34114Y10565D01*
X34024Y10599D01*
X33929Y10587D01*
X33850Y10533D01*
X33806Y10448D01*
Y10352D01*
X33850Y10267D01*
X33929Y10213D01*
X34024Y10201D01*
X34114Y10235D01*
X34177Y10307D01*
X34200Y10400D01*
X33200Y10400D02*
X33177Y10493D01*
X33114Y10565D01*
X33024Y10599D01*
X32929Y10587D01*
X32850Y10533D01*
X32806Y10448D01*
Y10352D01*
X32850Y10267D01*
X32929Y10213D01*
X33024Y10201D01*
X33114Y10235D01*
X33177Y10307D01*
X33200Y10400D01*
X28200D02*
X28177Y10493D01*
X28114Y10565D01*
X28024Y10599D01*
X27929Y10587D01*
X27850Y10533D01*
X27806Y10448D01*
Y10352D01*
X27850Y10267D01*
X27929Y10213D01*
X28024Y10201D01*
X28114Y10235D01*
X28177Y10307D01*
X28200Y10400D01*
X28200Y7400D02*
X28177Y7493D01*
X28114Y7565D01*
X28024Y7599D01*
X27929Y7587D01*
X27850Y7533D01*
X27806Y7448D01*
Y7352D01*
X27850Y7267D01*
X27929Y7213D01*
X28024Y7201D01*
X28114Y7235D01*
X28177Y7307D01*
X28200Y7400D01*
X36200D02*
X36177Y7493D01*
X36114Y7565D01*
X36024Y7599D01*
X35929Y7587D01*
X35850Y7533D01*
X35806Y7448D01*
Y7352D01*
X35850Y7267D01*
X35929Y7213D01*
X36024Y7201D01*
X36114Y7235D01*
X36177Y7307D01*
X36200Y7400D01*
X32200Y10400D02*
X32177Y10493D01*
X32114Y10565D01*
X32024Y10599D01*
X31929Y10587D01*
X31850Y10533D01*
X31806Y10448D01*
Y10352D01*
X31850Y10267D01*
X31929Y10213D01*
X32024Y10201D01*
X32114Y10235D01*
X32177Y10307D01*
X32200Y10400D01*
X37200Y7400D02*
X37177Y7493D01*
X37114Y7565D01*
X37024Y7599D01*
X36929Y7587D01*
X36850Y7533D01*
X36806Y7448D01*
Y7352D01*
X36850Y7267D01*
X36929Y7213D01*
X37024Y7201D01*
X37114Y7235D01*
X37177Y7307D01*
X37200Y7400D01*
X31200Y10400D02*
X31177Y10493D01*
X31114Y10565D01*
X31024Y10599D01*
X30929Y10587D01*
X30850Y10533D01*
X30806Y10448D01*
Y10352D01*
X30850Y10267D01*
X30929Y10213D01*
X31024Y10201D01*
X31114Y10235D01*
X31177Y10307D01*
X31200Y10400D01*
X29200D02*
X29177Y10493D01*
X29114Y10565D01*
X29024Y10599D01*
X28929Y10587D01*
X28850Y10533D01*
X28806Y10448D01*
Y10352D01*
X28850Y10267D01*
X28929Y10213D01*
X29024Y10201D01*
X29114Y10235D01*
X29177Y10307D01*
X29200Y10400D01*
X39200D02*
X39177Y10493D01*
X39114Y10565D01*
X39024Y10599D01*
X38929Y10587D01*
X38850Y10533D01*
X38806Y10448D01*
Y10352D01*
X38850Y10267D01*
X38929Y10213D01*
X39024Y10201D01*
X39114Y10235D01*
X39177Y10307D01*
X39200Y10400D01*
X30200D02*
X30177Y10493D01*
X30114Y10565D01*
X30024Y10599D01*
X29929Y10587D01*
X29850Y10533D01*
X29806Y10448D01*
Y10352D01*
X29850Y10267D01*
X29929Y10213D01*
X30024Y10201D01*
X30114Y10235D01*
X30177Y10307D01*
X30200Y10400D01*
X35200D02*
X35177Y10493D01*
X35114Y10565D01*
X35024Y10599D01*
X34929Y10587D01*
X34850Y10533D01*
X34806Y10448D01*
Y10352D01*
X34850Y10267D01*
X34929Y10213D01*
X35024Y10201D01*
X35114Y10235D01*
X35177Y10307D01*
X35200Y10400D01*
X36200D02*
X36177Y10493D01*
X36114Y10565D01*
X36024Y10599D01*
X35929Y10587D01*
X35850Y10533D01*
X35806Y10448D01*
Y10352D01*
X35850Y10267D01*
X35929Y10213D01*
X36024Y10201D01*
X36114Y10235D01*
X36177Y10307D01*
X36200Y10400D01*
X39200Y7400D02*
X39177Y7493D01*
X39114Y7565D01*
X39024Y7599D01*
X38929Y7587D01*
X38850Y7533D01*
X38806Y7448D01*
Y7352D01*
X38850Y7267D01*
X38929Y7213D01*
X39024Y7201D01*
X39114Y7235D01*
X39177Y7307D01*
X39200Y7400D01*
X29200Y7400D02*
X29177Y7493D01*
X29114Y7565D01*
X29024Y7599D01*
X28929Y7587D01*
X28850Y7533D01*
X28806Y7448D01*
Y7352D01*
X28850Y7267D01*
X28929Y7213D01*
X29024Y7201D01*
X29114Y7235D01*
X29177Y7307D01*
X29200Y7400D01*
X31200D02*
X31177Y7493D01*
X31114Y7565D01*
X31024Y7599D01*
X30929Y7587D01*
X30850Y7533D01*
X30806Y7448D01*
Y7352D01*
X30850Y7267D01*
X30929Y7213D01*
X31024Y7201D01*
X31114Y7235D01*
X31177Y7307D01*
X31200Y7400D01*
X32200Y7400D02*
X32177Y7493D01*
X32114Y7565D01*
X32024Y7599D01*
X31929Y7587D01*
X31850Y7533D01*
X31806Y7448D01*
Y7352D01*
X31850Y7267D01*
X31929Y7213D01*
X32024Y7201D01*
X32114Y7235D01*
X32177Y7307D01*
X32200Y7400D01*
X30200D02*
X30177Y7493D01*
X30114Y7565D01*
X30024Y7599D01*
X29929Y7587D01*
X29850Y7533D01*
X29806Y7448D01*
Y7352D01*
X29850Y7267D01*
X29929Y7213D01*
X30024Y7201D01*
X30114Y7235D01*
X30177Y7307D01*
X30200Y7400D01*
X37200Y10400D02*
X37177Y10493D01*
X37114Y10565D01*
X37024Y10599D01*
X36929Y10587D01*
X36850Y10533D01*
X36806Y10448D01*
Y10352D01*
X36850Y10267D01*
X36929Y10213D01*
X37024Y10201D01*
X37114Y10235D01*
X37177Y10307D01*
X37200Y10400D01*
X35200Y7400D02*
X35177Y7493D01*
X35114Y7565D01*
X35024Y7599D01*
X34929Y7587D01*
X34850Y7533D01*
X34806Y7448D01*
Y7352D01*
X34850Y7267D01*
X34929Y7213D01*
X35024Y7201D01*
X35114Y7235D01*
X35177Y7307D01*
X35200Y7400D01*
X34200D02*
X34177Y7493D01*
X34114Y7565D01*
X34024Y7599D01*
X33929Y7587D01*
X33850Y7533D01*
X33806Y7448D01*
Y7352D01*
X33850Y7267D01*
X33929Y7213D01*
X34024Y7201D01*
X34114Y7235D01*
X34177Y7307D01*
X34200Y7400D01*
X29200Y5000D02*
X29177Y5093D01*
X29114Y5165D01*
X29024Y5199D01*
X28929Y5187D01*
X28850Y5133D01*
X28806Y5048D01*
Y4952D01*
X28850Y4867D01*
X28929Y4813D01*
X29024Y4801D01*
X29114Y4835D01*
X29177Y4907D01*
X29200Y5000D01*
X30200D02*
X30177Y5093D01*
X30114Y5165D01*
X30024Y5199D01*
X29929Y5187D01*
X29850Y5133D01*
X29806Y5048D01*
Y4952D01*
X29850Y4867D01*
X29929Y4813D01*
X30024Y4801D01*
X30114Y4835D01*
X30177Y4907D01*
X30200Y5000D01*
X31200D02*
X31177Y5093D01*
X31114Y5165D01*
X31024Y5199D01*
X30929Y5187D01*
X30850Y5133D01*
X30806Y5048D01*
Y4952D01*
X30850Y4867D01*
X30929Y4813D01*
X31024Y4801D01*
X31114Y4835D01*
X31177Y4907D01*
X31200Y5000D01*
X32200D02*
X32177Y5093D01*
X32114Y5165D01*
X32024Y5199D01*
X31929Y5187D01*
X31850Y5133D01*
X31806Y5048D01*
Y4952D01*
X31850Y4867D01*
X31929Y4813D01*
X32024Y4801D01*
X32114Y4835D01*
X32177Y4907D01*
X32200Y5000D01*
X33200Y5000D02*
X33177Y5093D01*
X33114Y5165D01*
X33024Y5199D01*
X32929Y5187D01*
X32850Y5133D01*
X32806Y5048D01*
Y4952D01*
X32850Y4867D01*
X32929Y4813D01*
X33024Y4801D01*
X33114Y4835D01*
X33177Y4907D01*
X33200Y5000D01*
X34200Y5000D02*
X34177Y5093D01*
X34114Y5165D01*
X34024Y5199D01*
X33929Y5187D01*
X33850Y5133D01*
X33806Y5048D01*
Y4952D01*
X33850Y4867D01*
X33929Y4813D01*
X34024Y4801D01*
X34114Y4835D01*
X34177Y4907D01*
X34200Y5000D01*
X35200D02*
X35177Y5093D01*
X35114Y5165D01*
X35024Y5199D01*
X34929Y5187D01*
X34850Y5133D01*
X34806Y5048D01*
Y4952D01*
X34850Y4867D01*
X34929Y4813D01*
X35024Y4801D01*
X35114Y4835D01*
X35177Y4907D01*
X35200Y5000D01*
X36200D02*
X36177Y5093D01*
X36114Y5165D01*
X36024Y5199D01*
X35929Y5187D01*
X35850Y5133D01*
X35806Y5048D01*
Y4952D01*
X35850Y4867D01*
X35929Y4813D01*
X36024Y4801D01*
X36114Y4835D01*
X36177Y4907D01*
X36200Y5000D01*
X38200D02*
X38177Y5093D01*
X38114Y5165D01*
X38024Y5199D01*
X37929Y5187D01*
X37850Y5133D01*
X37806Y5048D01*
Y4952D01*
X37850Y4867D01*
X37929Y4813D01*
X38024Y4801D01*
X38114Y4835D01*
X38177Y4907D01*
X38200Y5000D01*
X39200D02*
X39177Y5093D01*
X39114Y5165D01*
X39024Y5199D01*
X38929Y5187D01*
X38850Y5133D01*
X38806Y5048D01*
Y4952D01*
X38850Y4867D01*
X38929Y4813D01*
X39024Y4801D01*
X39114Y4835D01*
X39177Y4907D01*
X39200Y5000D01*
X40200D02*
X40177Y5093D01*
X40114Y5165D01*
X40024Y5199D01*
X39929Y5187D01*
X39850Y5133D01*
X39806Y5048D01*
Y4952D01*
X39850Y4867D01*
X39929Y4813D01*
X40024Y4801D01*
X40114Y4835D01*
X40177Y4907D01*
X40200Y5000D01*
X41200D02*
X41177Y5093D01*
X41114Y5165D01*
X41024Y5199D01*
X40929Y5187D01*
X40850Y5133D01*
X40806Y5048D01*
Y4952D01*
X40850Y4867D01*
X40929Y4813D01*
X41024Y4801D01*
X41114Y4835D01*
X41177Y4907D01*
X41200Y5000D01*
Y-1000D02*
X41177Y-907D01*
X41114Y-835D01*
X41024Y-801D01*
X40929Y-813D01*
X40850Y-867D01*
X40806Y-952D01*
Y-1048D01*
X40850Y-1133D01*
X40929Y-1187D01*
X41024Y-1199D01*
X41114Y-1165D01*
X41177Y-1093D01*
X41200Y-1000D01*
X40200Y-1000D02*
X40177Y-907D01*
X40114Y-835D01*
X40024Y-801D01*
X39929Y-813D01*
X39850Y-867D01*
X39806Y-952D01*
Y-1048D01*
X39850Y-1133D01*
X39929Y-1187D01*
X40024Y-1199D01*
X40114Y-1165D01*
X40177Y-1093D01*
X40200Y-1000D01*
X39200D02*
X39177Y-907D01*
X39114Y-835D01*
X39024Y-801D01*
X38929Y-813D01*
X38850Y-867D01*
X38806Y-952D01*
Y-1048D01*
X38850Y-1133D01*
X38929Y-1187D01*
X39024Y-1199D01*
X39114Y-1165D01*
X39177Y-1093D01*
X39200Y-1000D01*
X38200D02*
X38177Y-907D01*
X38114Y-835D01*
X38024Y-801D01*
X37929Y-813D01*
X37850Y-867D01*
X37806Y-952D01*
Y-1048D01*
X37850Y-1133D01*
X37929Y-1187D01*
X38024Y-1199D01*
X38114Y-1165D01*
X38177Y-1093D01*
X38200Y-1000D01*
X37200Y-1000D02*
X37177Y-907D01*
X37114Y-835D01*
X37024Y-801D01*
X36929Y-813D01*
X36850Y-867D01*
X36806Y-952D01*
Y-1048D01*
X36850Y-1133D01*
X36929Y-1187D01*
X37024Y-1199D01*
X37114Y-1165D01*
X37177Y-1093D01*
X37200Y-1000D01*
X36200Y-1000D02*
X36177Y-907D01*
X36114Y-835D01*
X36024Y-801D01*
X35929Y-813D01*
X35850Y-867D01*
X35806Y-952D01*
Y-1048D01*
X35850Y-1133D01*
X35929Y-1187D01*
X36024Y-1199D01*
X36114Y-1165D01*
X36177Y-1093D01*
X36200Y-1000D01*
X35200D02*
X35177Y-907D01*
X35114Y-835D01*
X35024Y-801D01*
X34929Y-813D01*
X34850Y-867D01*
X34806Y-952D01*
Y-1048D01*
X34850Y-1133D01*
X34929Y-1187D01*
X35024Y-1199D01*
X35114Y-1165D01*
X35177Y-1093D01*
X35200Y-1000D01*
X34200D02*
X34177Y-907D01*
X34114Y-835D01*
X34024Y-801D01*
X33929Y-813D01*
X33850Y-867D01*
X33806Y-952D01*
Y-1048D01*
X33850Y-1133D01*
X33929Y-1187D01*
X34024Y-1199D01*
X34114Y-1165D01*
X34177Y-1093D01*
X34200Y-1000D01*
X33200Y-1000D02*
X33177Y-907D01*
X33114Y-835D01*
X33024Y-801D01*
X32929Y-813D01*
X32850Y-867D01*
X32806Y-952D01*
Y-1048D01*
X32850Y-1133D01*
X32929Y-1187D01*
X33024Y-1199D01*
X33114Y-1165D01*
X33177Y-1093D01*
X33200Y-1000D01*
X32200Y-1000D02*
X32177Y-907D01*
X32114Y-835D01*
X32024Y-801D01*
X31929Y-813D01*
X31850Y-867D01*
X31806Y-952D01*
Y-1048D01*
X31850Y-1133D01*
X31929Y-1187D01*
X32024Y-1199D01*
X32114Y-1165D01*
X32177Y-1093D01*
X32200Y-1000D01*
X30200Y-1000D02*
X30177Y-907D01*
X30114Y-835D01*
X30024Y-801D01*
X29929Y-813D01*
X29850Y-867D01*
X29806Y-952D01*
Y-1048D01*
X29850Y-1133D01*
X29929Y-1187D01*
X30024Y-1199D01*
X30114Y-1165D01*
X30177Y-1093D01*
X30200Y-1000D01*
X31200D02*
X31177Y-907D01*
X31114Y-835D01*
X31024Y-801D01*
X30929Y-813D01*
X30850Y-867D01*
X30806Y-952D01*
Y-1048D01*
X30850Y-1133D01*
X30929Y-1187D01*
X31024Y-1199D01*
X31114Y-1165D01*
X31177Y-1093D01*
X31200Y-1000D01*
X28200Y-1000D02*
X28177Y-907D01*
X28114Y-835D01*
X28024Y-801D01*
X27929Y-813D01*
X27850Y-867D01*
X27806Y-952D01*
Y-1048D01*
X27850Y-1133D01*
X27929Y-1187D01*
X28024Y-1199D01*
X28114Y-1165D01*
X28177Y-1093D01*
X28200Y-1000D01*
Y5000D02*
X28177Y5093D01*
X28114Y5165D01*
X28024Y5199D01*
X27929Y5187D01*
X27850Y5133D01*
X27806Y5048D01*
Y4952D01*
X27850Y4867D01*
X27929Y4813D01*
X28024Y4801D01*
X28114Y4835D01*
X28177Y4907D01*
X28200Y5000D01*
X37200D02*
X37177Y5093D01*
X37114Y5165D01*
X37024Y5199D01*
X36929Y5187D01*
X36850Y5133D01*
X36806Y5048D01*
Y4952D01*
X36850Y4867D01*
X36929Y4813D01*
X37024Y4801D01*
X37114Y4835D01*
X37177Y4907D01*
X37200Y5000D01*
X29200Y-1000D02*
X29177Y-907D01*
X29114Y-835D01*
X29024Y-801D01*
X28929Y-813D01*
X28850Y-867D01*
X28806Y-952D01*
Y-1048D01*
X28850Y-1133D01*
X28929Y-1187D01*
X29024Y-1199D01*
X29114Y-1165D01*
X29177Y-1093D01*
X29200Y-1000D01*
X5000Y-4500D02*
X4977Y-4407D01*
X4914Y-4335D01*
X4824Y-4301D01*
X4729Y-4313D01*
X4650Y-4367D01*
X4606Y-4452D01*
Y-4548D01*
X4650Y-4633D01*
X4729Y-4687D01*
X4824Y-4699D01*
X4914Y-4665D01*
X4977Y-4593D01*
X5000Y-4500D01*
X1000D02*
X977Y-4407D01*
X914Y-4335D01*
X824Y-4301D01*
X729Y-4313D01*
X650Y-4367D01*
X606Y-4452D01*
Y-4548D01*
X650Y-4633D01*
X729Y-4687D01*
X824Y-4699D01*
X914Y-4665D01*
X977Y-4593D01*
X1000Y-4500D01*
X2000Y-10500D02*
X1977Y-10407D01*
X1914Y-10335D01*
X1824Y-10301D01*
X1729Y-10313D01*
X1650Y-10367D01*
X1606Y-10452D01*
Y-10548D01*
X1650Y-10633D01*
X1729Y-10687D01*
X1824Y-10699D01*
X1914Y-10665D01*
X1977Y-10593D01*
X2000Y-10500D01*
X1000Y-10500D02*
X977Y-10407D01*
X914Y-10335D01*
X824Y-10301D01*
X729Y-10313D01*
X650Y-10367D01*
X606Y-10452D01*
Y-10548D01*
X650Y-10633D01*
X729Y-10687D01*
X824Y-10699D01*
X914Y-10665D01*
X977Y-10593D01*
X1000Y-10500D01*
X4000Y-4500D02*
X3977Y-4407D01*
X3914Y-4335D01*
X3824Y-4301D01*
X3729Y-4313D01*
X3650Y-4367D01*
X3606Y-4452D01*
Y-4548D01*
X3650Y-4633D01*
X3729Y-4687D01*
X3824Y-4699D01*
X3914Y-4665D01*
X3977Y-4593D01*
X4000Y-4500D01*
X2000D02*
X1977Y-4407D01*
X1914Y-4335D01*
X1824Y-4301D01*
X1729Y-4313D01*
X1650Y-4367D01*
X1606Y-4452D01*
Y-4548D01*
X1650Y-4633D01*
X1729Y-4687D01*
X1824Y-4699D01*
X1914Y-4665D01*
X1977Y-4593D01*
X2000Y-4500D01*
X3000D02*
X2977Y-4407D01*
X2914Y-4335D01*
X2824Y-4301D01*
X2729Y-4313D01*
X2650Y-4367D01*
X2606Y-4452D01*
Y-4548D01*
X2650Y-4633D01*
X2729Y-4687D01*
X2824Y-4699D01*
X2914Y-4665D01*
X2977Y-4593D01*
X3000Y-4500D01*
X5000Y-10500D02*
X4977Y-10407D01*
X4914Y-10335D01*
X4824Y-10301D01*
X4729Y-10313D01*
X4650Y-10367D01*
X4606Y-10452D01*
Y-10548D01*
X4650Y-10633D01*
X4729Y-10687D01*
X4824Y-10699D01*
X4914Y-10665D01*
X4977Y-10593D01*
X5000Y-10500D01*
X3000D02*
X2977Y-10407D01*
X2914Y-10335D01*
X2824Y-10301D01*
X2729Y-10313D01*
X2650Y-10367D01*
X2606Y-10452D01*
Y-10548D01*
X2650Y-10633D01*
X2729Y-10687D01*
X2824Y-10699D01*
X2914Y-10665D01*
X2977Y-10593D01*
X3000Y-10500D01*
X4000D02*
X3977Y-10407D01*
X3914Y-10335D01*
X3824Y-10301D01*
X3729Y-10313D01*
X3650Y-10367D01*
X3606Y-10452D01*
Y-10548D01*
X3650Y-10633D01*
X3729Y-10687D01*
X3824Y-10699D01*
X3914Y-10665D01*
X3977Y-10593D01*
X4000Y-10500D01*
X16200Y7000D02*
X16177Y7093D01*
X16114Y7165D01*
X16024Y7199D01*
X15929Y7187D01*
X15850Y7133D01*
X15806Y7048D01*
Y6952D01*
X15850Y6867D01*
X15929Y6813D01*
X16024Y6801D01*
X16114Y6835D01*
X16177Y6907D01*
X16200Y7000D01*
X19200Y7000D02*
X19177Y7093D01*
X19114Y7165D01*
X19024Y7199D01*
X18929Y7187D01*
X18850Y7133D01*
X18806Y7048D01*
Y6952D01*
X18850Y6867D01*
X18929Y6813D01*
X19024Y6801D01*
X19114Y6835D01*
X19177Y6907D01*
X19200Y7000D01*
X16200Y10000D02*
X16177Y10093D01*
X16114Y10165D01*
X16024Y10199D01*
X15929Y10187D01*
X15850Y10133D01*
X15806Y10048D01*
Y9952D01*
X15850Y9867D01*
X15929Y9813D01*
X16024Y9801D01*
X16114Y9835D01*
X16177Y9907D01*
X16200Y10000D01*
X19200Y10000D02*
X19177Y10093D01*
X19114Y10165D01*
X19024Y10199D01*
X18929Y10187D01*
X18850Y10133D01*
X18806Y10048D01*
Y9952D01*
X18850Y9867D01*
X18929Y9813D01*
X19024Y9801D01*
X19114Y9835D01*
X19177Y9907D01*
X19200Y10000D01*
X17700Y16400D02*
X17677Y16493D01*
X17614Y16565D01*
X17524Y16599D01*
X17429Y16587D01*
X17350Y16533D01*
X17306Y16448D01*
Y16352D01*
X17350Y16267D01*
X17429Y16213D01*
X17524Y16201D01*
X17614Y16235D01*
X17677Y16307D01*
X17700Y16400D01*
X3400Y-12500D02*
X3377Y-12407D01*
X3314Y-12335D01*
X3224Y-12301D01*
X3129Y-12313D01*
X3050Y-12367D01*
X3006Y-12452D01*
Y-12548D01*
X3050Y-12633D01*
X3129Y-12687D01*
X3224Y-12699D01*
X3314Y-12665D01*
X3377Y-12593D01*
X3400Y-12500D01*
X2400D02*
X2377Y-12407D01*
X2314Y-12335D01*
X2224Y-12301D01*
X2129Y-12313D01*
X2050Y-12367D01*
X2006Y-12452D01*
Y-12548D01*
X2050Y-12633D01*
X2129Y-12687D01*
X2224Y-12699D01*
X2314Y-12665D01*
X2377Y-12593D01*
X2400Y-12500D01*
X3400Y-13500D02*
X3377Y-13407D01*
X3314Y-13335D01*
X3224Y-13301D01*
X3129Y-13313D01*
X3050Y-13367D01*
X3006Y-13452D01*
Y-13548D01*
X3050Y-13633D01*
X3129Y-13687D01*
X3224Y-13699D01*
X3314Y-13665D01*
X3377Y-13593D01*
X3400Y-13500D01*
X2400D02*
X2377Y-13407D01*
X2314Y-13335D01*
X2224Y-13301D01*
X2129Y-13313D01*
X2050Y-13367D01*
X2006Y-13452D01*
Y-13548D01*
X2050Y-13633D01*
X2129Y-13687D01*
X2224Y-13699D01*
X2314Y-13665D01*
X2377Y-13593D01*
X2400Y-13500D01*
X44400Y-16800D02*
X44377Y-16707D01*
X44314Y-16635D01*
X44224Y-16601D01*
X44129Y-16613D01*
X44050Y-16667D01*
X44006Y-16752D01*
Y-16848D01*
X44050Y-16933D01*
X44129Y-16987D01*
X44224Y-16999D01*
X44314Y-16965D01*
X44377Y-16893D01*
X44400Y-16800D01*
X8400Y11250D02*
X8377Y11343D01*
X8314Y11415D01*
X8224Y11449D01*
X8129Y11437D01*
X8050Y11383D01*
X8006Y11298D01*
Y11202D01*
X8050Y11117D01*
X8129Y11063D01*
X8224Y11051D01*
X8314Y11085D01*
X8377Y11157D01*
X8400Y11250D01*
X12200Y2000D02*
X12177Y2093D01*
X12114Y2165D01*
X12024Y2199D01*
X11929Y2187D01*
X11850Y2133D01*
X11806Y2048D01*
Y1952D01*
X11850Y1867D01*
X11929Y1813D01*
X12024Y1801D01*
X12114Y1835D01*
X12177Y1907D01*
X12200Y2000D01*
X11650Y3200D02*
X11627Y3293D01*
X11564Y3365D01*
X11474Y3399D01*
X11379Y3387D01*
X11300Y3333D01*
X11256Y3248D01*
Y3152D01*
X11300Y3067D01*
X11379Y3013D01*
X11474Y3001D01*
X11564Y3035D01*
X11627Y3107D01*
X11650Y3200D01*
X24200Y10000D02*
X24177Y10093D01*
X24114Y10165D01*
X24024Y10199D01*
X23929Y10187D01*
X23850Y10133D01*
X23806Y10048D01*
Y9952D01*
X23850Y9867D01*
X23929Y9813D01*
X24024Y9801D01*
X24114Y9835D01*
X24177Y9907D01*
X24200Y10000D01*
X21200D02*
X21177Y10093D01*
X21114Y10165D01*
X21024Y10199D01*
X20929Y10187D01*
X20850Y10133D01*
X20806Y10048D01*
Y9952D01*
X20850Y9867D01*
X20929Y9813D01*
X21024Y9801D01*
X21114Y9835D01*
X21177Y9907D01*
X21200Y10000D01*
X24200Y7000D02*
X24177Y7093D01*
X24114Y7165D01*
X24024Y7199D01*
X23929Y7187D01*
X23850Y7133D01*
X23806Y7048D01*
Y6952D01*
X23850Y6867D01*
X23929Y6813D01*
X24024Y6801D01*
X24114Y6835D01*
X24177Y6907D01*
X24200Y7000D01*
X3400Y-15000D02*
X3377Y-14907D01*
X3314Y-14835D01*
X3224Y-14801D01*
X3129Y-14813D01*
X3050Y-14867D01*
X3006Y-14952D01*
Y-15048D01*
X3050Y-15133D01*
X3129Y-15187D01*
X3224Y-15199D01*
X3314Y-15165D01*
X3377Y-15093D01*
X3400Y-15000D01*
X2400D02*
X2377Y-14907D01*
X2314Y-14835D01*
X2224Y-14801D01*
X2129Y-14813D01*
X2050Y-14867D01*
X2006Y-14952D01*
Y-15048D01*
X2050Y-15133D01*
X2129Y-15187D01*
X2224Y-15199D01*
X2314Y-15165D01*
X2377Y-15093D01*
X2400Y-15000D01*
Y-16000D02*
X2377Y-15907D01*
X2314Y-15835D01*
X2224Y-15801D01*
X2129Y-15813D01*
X2050Y-15867D01*
X2006Y-15952D01*
Y-16048D01*
X2050Y-16133D01*
X2129Y-16187D01*
X2224Y-16199D01*
X2314Y-16165D01*
X2377Y-16093D01*
X2400Y-16000D01*
X3400D02*
X3377Y-15907D01*
X3314Y-15835D01*
X3224Y-15801D01*
X3129Y-15813D01*
X3050Y-15867D01*
X3006Y-15952D01*
Y-16048D01*
X3050Y-16133D01*
X3129Y-16187D01*
X3224Y-16199D01*
X3314Y-16165D01*
X3377Y-16093D01*
X3400Y-16000D01*
X16200Y16400D02*
X16177Y16493D01*
X16114Y16565D01*
X16024Y16599D01*
X15929Y16587D01*
X15850Y16533D01*
X15806Y16448D01*
Y16352D01*
X15850Y16267D01*
X15929Y16213D01*
X16024Y16201D01*
X16114Y16235D01*
X16177Y16307D01*
X16200Y16400D01*
X21200Y7000D02*
X21177Y7093D01*
X21114Y7165D01*
X21024Y7199D01*
X20929Y7187D01*
X20850Y7133D01*
X20806Y7048D01*
Y6952D01*
X20850Y6867D01*
X20929Y6813D01*
X21024Y6801D01*
X21114Y6835D01*
X21177Y6907D01*
X21200Y7000D01*
X15400Y-1200D02*
X15377Y-1107D01*
X15314Y-1035D01*
X15224Y-1001D01*
X15129Y-1013D01*
X15050Y-1067D01*
X15006Y-1152D01*
Y-1248D01*
X15050Y-1333D01*
X15129Y-1387D01*
X15224Y-1399D01*
X15314Y-1365D01*
X15377Y-1293D01*
X15400Y-1200D01*
Y1000D02*
X15377Y1093D01*
X15314Y1165D01*
X15224Y1199D01*
X15129Y1187D01*
X15050Y1133D01*
X15006Y1048D01*
Y952D01*
X15050Y867D01*
X15129Y813D01*
X15224Y801D01*
X15314Y835D01*
X15377Y907D01*
X15400Y1000D01*
Y2400D02*
X15377Y2493D01*
X15314Y2565D01*
X15224Y2599D01*
X15129Y2587D01*
X15050Y2533D01*
X15006Y2448D01*
Y2352D01*
X15050Y2267D01*
X15129Y2213D01*
X15224Y2201D01*
X15314Y2235D01*
X15377Y2307D01*
X15400Y2400D01*
Y3800D02*
X15377Y3893D01*
X15314Y3965D01*
X15224Y3999D01*
X15129Y3987D01*
X15050Y3933D01*
X15006Y3848D01*
Y3752D01*
X15050Y3667D01*
X15129Y3613D01*
X15224Y3601D01*
X15314Y3635D01*
X15377Y3707D01*
X15400Y3800D01*
X31850Y-24600D02*
X31827Y-24507D01*
X31764Y-24435D01*
X31674Y-24401D01*
X31579Y-24413D01*
X31500Y-24467D01*
X31456Y-24552D01*
Y-24648D01*
X31500Y-24733D01*
X31579Y-24787D01*
X31674Y-24799D01*
X31764Y-24765D01*
X31827Y-24693D01*
X31850Y-24600D01*
M02*
