M72
M48
T1F00S00C0.0200
T2F00S00C0.0280
T3F00S00C0.0350
T4F00S00C0.0380
T5F00S00C0.0420
T6F00S00C0.0595
T7F00S00C0.0960
T8F00S00C0.1440
%
T01
X015750Y-017800
X013000Y-012450
X012850Y-011950
X013000Y-011400
X013400Y-008950
Y-008450
Y-007950
Y-006900
Y-006400
Y-005400
X012400
X009700Y-003500
X007700
X006800
Y-006400
X008400Y-011400
X008800Y-011950
X009600Y-012450
X015650Y-015600
X016100Y-017400
X018700Y-015800
X019200Y-015600
X021200Y-015800
X021700Y-015600
X023200Y-015650
X023700Y-015500
X024850
X026100Y-016350
X024200Y-013600
X027150Y-009400
X027000Y-008900
X027150Y-008400
X027000Y-007450
X027150Y-006950
X027000Y-006400
X027150Y-005900
X028100
X028300Y-006400
X028900Y-006950
X029250Y-007450
X028450Y-008400
X028100Y-008900
X027850Y-009400
X026900Y-004400
Y-003900
X026650Y-003400
X025600Y-002400
X025200Y-002050
X028850Y-004400
X029900
X030600Y-003400
X031150Y-002950
X031750Y-002850
X032250Y-002950
X032750Y-002850
X033250Y-002950
X035000Y-002000
X036150
X038000
X037800Y-002700
X038800Y-003400
X038450Y-005400
Y-005900
X038500Y-008900
X038300Y-009400
X039500Y-010000
X039150Y-011000
Y-012250
X039850Y-012600
Y-013300
X040200Y-013800
X040550Y-012700
X040900Y-012050
X041300Y-011550
X040550Y-010500
X041700Y-009800
X043850Y-010150
X044200Y-009200
Y-007000
X040900Y-008000
X039850
X040200Y-008800
X038900Y-013650
X041850Y-014150
X042000Y-014700
X044550Y-016000
X036300Y-014700
X035800Y-014350
X034800
X034250Y-014000
X033800Y-013650
X033250Y-013300
X032800Y-012950
X032250Y-012600
X031750Y-012250
X031300Y-011900
X029600Y-011550
Y-006950
Y-006400
Y-005900
X040900Y-002700
X041300Y-002350
X041700Y-002000
X042100Y-003050
X044900Y-005350
X046000Y-005750
Y-006650
X045600Y-007000
X045250Y-007500
X046850
X046700Y-007000
Y-008000
X046850Y-008500
X046700Y-009000
X046850Y-009500
X046700Y-010000
X046850Y-010500
X046700Y-011000
X046850Y-011500
X046700Y-012000
X046000
X045250Y-014900
X045600Y-015350
X044900Y-015600
X052450Y-014900
X051900Y-014200
X053450Y-015300
X056000Y-014550
X055600Y-013850
X056000Y-008800
X057200Y-007200
X057600Y-007550
X053450Y-007200
X052900Y-007550
X052400Y-008800
X050700Y-007500
X048050Y-005750
X047650Y-005350
X048050Y-004950
X046350
X047300Y000700
X046700Y002000
X046850Y002500
X046600Y003000
X046850Y003500
X046600Y004000
X046850Y004500
X046600Y005000
X046850Y005500
X046600Y006000
X046850Y006500
Y007500
X046600Y008000
X045250Y007800
X044900Y007400
Y001100
X045250Y000700
X049200Y002050
X056600Y002000
X055600Y006900
Y010450
X052200
X044200Y011450
X044550Y013400
X042800
X041000Y013050
X040150Y013300
X039250Y013450
X041900Y012000
X042450Y009200
X044550Y006500
X043850Y005200
X043150Y000250
X041000Y002000
X040500Y002400
X040000Y001650
X039000Y001300
X038000Y000950
X037000Y000600
X035000Y001150
X034000Y001500
X033000Y000800
X032000Y000450
X038500Y003100
X039500Y002750
X037500Y008850
X036000Y008500
Y009200
X035500Y012700
X035000Y012800
X033500Y012550
X023000Y013050
X022000Y013300
X021000Y013500
Y012950
X020000Y013700
X018500Y013200
X015200
X014300Y008600
Y006000
X019000Y000000
X018700Y-000800
X020000Y-000400
X020550
X023750
X024500Y-000800
X025700Y-001200
X025650Y-001700
X027150Y001150
X027600Y000800
X029000Y000450
Y001900
X028650Y002800
X027500
X025950Y003000
X025550Y003550
X024450Y002400
X024500Y001900
X024150Y001500
X024850Y006400
X028500
X012600Y005600
X010200
Y002400
X009250Y001200
X008350Y001550
X008750Y003200
X008000Y004000
X006400Y003200
Y-000400
X012900
X013400Y000000
X010750Y011250
X019500Y014400
X020500Y014050
X036500
X037500Y014400
X038500Y013800
T02
X007700Y-010300
X007750Y-011000
X010050Y-010300
X008300Y-013450
Y-015600
X015600Y-013600
X017500Y-013000
X019650Y-013600
X022150
X024200Y-012100
X024800Y-011450
Y-007900
X024200
X023400Y-005850
X023700Y-004250
X024450
X024800Y-004900
X019800Y-005500
X016200
X015600Y-007450
X017200Y-002200
X021700Y-002200
X031850Y-007900
X032500
X035800Y-006300
X038050Y-006900
Y-007500
Y-008250
X046850Y-006200
X049350Y-007550
X049950
X050500Y-011300
X049950Y001650
X050100Y006100
X049350
X046100Y006950
X053600Y005600
Y004600
X057000Y007000
Y008000
X027100Y007000
X026950Y005550
X026200Y009200
X022800Y006400
X020700Y-001400
X019200
X013250Y012200
X007400Y011900
X006250Y007600
X006300Y016850
X009800Y017500
X013000Y017450
X025650Y015950
X027000Y015000
T03
X000800Y-004500
X001800
X002800
X003800
X004800
X004800Y-010500
X003800
X002800
X001800
X000800Y-010500
X002200Y-012500
X003200
Y-013500
X002200
Y-015000
X003200
Y-016000
X002200
X044200Y-016800
X041000Y-001000
X040000Y-001000
X039000
X038000
X037000Y-001000
X036000Y-001000
X035000
X034000
X033000Y-001000
X032000Y-001000
X031000Y-001000
X030000
Y005000
X031000
X032000
X033000Y005000
X034000Y005000
X035000
X036000
X037000
X038000
X039000
X040000
X041000
X041000Y007400
X040000Y007400
X039000Y007400
X038000Y007400
X037000Y007400
X036000
X035000Y007400
X034000
X033000Y007400
X032000
X031000Y007400
X030000Y007400
Y010400
X031000
X032000
X033000Y010400
X034000Y010400
X035000
X036000
X037000Y010400
X038000Y010400
X039000
X040000
X041000
X041000Y012000
X040000Y012000
X039000Y012000
X038000Y012000
X037000Y012000
X036000
X035000Y012000
X034000
X033000Y012000
X032000
X031000Y012000
X030000Y012000
X029000Y012000
X028000Y012000
X028000Y010400
X029000Y010400
X029000Y007400
X028000Y007400
Y005000
X029000
X029000Y-001000
X028000Y-001000
X024000Y007000
X021000
X019000Y007000
X016000Y007000
Y010000
X016000Y012000
X017000Y012000
X018000Y012000
X019000
X020000Y012000
X021000Y012000
X022000
X023000Y012000
X024000Y012000
X024000Y010000
X021000
X019000
X015200Y003800
Y002400
Y001000
Y-001200
X012000Y002000
X011450Y003200
X008200Y011250
X016000Y015000
X017000Y015000
X018000
X019000Y015000
X020000Y015000
X021000Y015000
X022000Y015000
X023000Y015000
X024000Y015000
X028000
X029000Y015000
X017500Y016400
X016000
X030000Y015000
X031000
X032000
X033000Y015000
X034000Y015000
X035000
X036000
X037000Y015000
X038000Y015000
X039000
X040000
X041000
T04
X002318Y-000492
X003106
Y000492
X002318
X010800Y-000930
X011300Y009700
X010300
T05
X005400Y-002000
X005400Y-003000
X010800Y-003200
Y-002200
X011600Y-015600
X012600Y-015600
X059500Y-014000
Y-013000
Y-012000
X060500
Y-011000
Y-010000
X059500
Y-011000
X060500Y-013000
Y-014000
Y-005000
Y-004000
Y-003000
X059500
Y-002000
X060500
X059500Y-004000
Y-005000
Y-001000
Y-000000
X060500Y000000
Y001000
Y002000
X059500
Y001000
X060500Y-001000
Y007000
X059500
Y008000
X060500
Y009000
Y010000
X059500
Y011000
Y012000
Y013000
X060500
Y012000
Y011000
X059500Y009000
X048200Y011450
X047200
X022500Y003000
X021500
X020500
X019500Y003000
X019500Y002000
X018500
X018500Y003000
X020500Y002000
X021500
X022500
X001800Y005128
X001800Y006900
X001800Y009628
X001800Y011400
X026000Y017000
Y018000
X027000
Y017000
X028000
X029000
Y018000
X028000
X030000
X031000
X032000
X032000Y017000
X033000
X033000Y018000
X034000
Y017000
X035000Y017000
X036000
Y018000
X035000
X037000
X037000Y017000
X038000
Y018000
X039000
Y017000
X040000
Y018000
X041000
Y017000
X042000Y017000
Y018000
X043000
X044000
Y017000
X043000
X031000
X030000
X045000
Y018000
X049600Y014000
X050600Y014000
X059500Y014000
X060500
T06
X002784Y004636
Y007392
Y009136
Y011892
T07
X001255Y-002370
Y002370
X004213Y013150
X003031Y015000
X005394
T08
X059970Y-018580
X003030
Y018580
X059970
M30
