%FSLAX23Y23*%
%MOIN*%
G70*
G01*
G75*
%ADD10R,0.060X0.050*%
%ADD11R,0.050X0.060*%
%ADD12R,0.036X0.050*%
%ADD13R,0.036X0.036*%
%ADD14R,0.050X0.036*%
%ADD15R,0.032X0.095*%
%ADD16C,0.015*%
%ADD17C,0.012*%
%ADD18C,0.010*%
%ADD19C,0.030*%
%ADD20C,0.075*%
%ADD21O,0.065X0.075*%
%ADD22R,0.070X0.070*%
%ADD23R,0.065X0.070*%
%ADD24C,0.070*%
%ADD25C,0.050*%
%ADD26C,0.040*%
%ADD27C,0.008*%
%ADD28C,0.008*%
%ADD29R,0.068X0.058*%
%ADD30R,0.058X0.068*%
%ADD31R,0.044X0.058*%
%ADD32R,0.044X0.044*%
%ADD33R,0.058X0.044*%
%ADD34R,0.040X0.103*%
%ADD35C,0.083*%
%ADD36O,0.073X0.083*%
%ADD37R,0.078X0.078*%
%ADD38R,0.073X0.078*%
%ADD39C,0.078*%
%ADD40C,0.058*%
%ADD41C,0.048*%
%ADD42C,0.004*%
D17*
X13380Y5110D02*
X16380D01*
X7180Y10810D02*
X16380D01*
X6980Y9210D02*
X7180D01*
X6980Y7510D02*
X7180D01*
X6980Y5710D02*
X7180D01*
X6980Y11010D02*
X16580D01*
X16380Y9210D02*
X16580D01*
X16380Y7510D02*
X16580D01*
X16380Y5710D02*
X16580D01*
X7180Y4110D02*
X16380D01*
X6980Y3910D02*
X16580D01*
X13380Y4810D02*
X16380D01*
X13380Y4410D02*
X16380D01*
X13380Y4260D02*
X16380D01*
X7180Y4110D02*
Y10810D01*
X14180D02*
Y11010D01*
X11780Y10810D02*
Y11010D01*
X9380Y10810D02*
Y11010D01*
X6980Y3910D02*
Y11010D01*
X14180Y3910D02*
Y4110D01*
X11780Y3910D02*
Y4110D01*
X9380Y3910D02*
Y4110D01*
X16380D02*
Y10810D01*
X16580Y3910D02*
Y11010D01*
X13380Y4110D02*
Y5110D01*
X13880Y4410D02*
Y4810D01*
X15880Y4410D02*
Y4810D01*
X15180Y4110D02*
Y4410D01*
D42*
X8180Y3960D02*
Y4040D01*
X8220Y4080D01*
X8260Y4040D01*
Y3960D01*
Y4020D01*
X8180D01*
X10530Y4080D02*
Y3960D01*
X10590D01*
X10610Y3980D01*
Y4000D01*
X10590Y4020D01*
X10530D01*
X10590D01*
X10610Y4040D01*
Y4060D01*
X10590Y4080D01*
X10530D01*
X13010Y4060D02*
X12990Y4080D01*
X12950D01*
X12930Y4060D01*
Y3980D01*
X12950Y3960D01*
X12990D01*
X13010Y3980D01*
X15280Y4080D02*
Y3960D01*
X15340D01*
X15360Y3980D01*
Y4060D01*
X15340Y4080D01*
X15280D01*
X16490Y4710D02*
Y4830D01*
X16430Y4770D01*
X16510D01*
X16430Y6610D02*
X16450Y6630D01*
X16490D01*
X16510Y6610D01*
Y6590D01*
X16490Y6570D01*
X16470D01*
X16490D01*
X16510Y6550D01*
Y6530D01*
X16490Y6510D01*
X16450D01*
X16430Y6530D01*
X16510Y8310D02*
X16430D01*
X16510Y8390D01*
Y8410D01*
X16490Y8430D01*
X16450D01*
X16430Y8410D01*
Y10110D02*
X16470D01*
X16450D01*
Y10230D01*
X16430Y10210D01*
X15280Y10980D02*
Y10860D01*
X15340D01*
X15360Y10880D01*
Y10960D01*
X15340Y10980D01*
X15280D01*
X13010Y10960D02*
X12990Y10980D01*
X12950D01*
X12930Y10960D01*
Y10880D01*
X12950Y10860D01*
X12990D01*
X13010Y10880D01*
X10530Y10980D02*
Y10860D01*
X10590D01*
X10610Y10880D01*
Y10900D01*
X10590Y10920D01*
X10530D01*
X10590D01*
X10610Y10940D01*
Y10960D01*
X10590Y10980D01*
X10530D01*
X8180Y10860D02*
Y10940D01*
X8220Y10980D01*
X8260Y10940D01*
Y10860D01*
Y10920D01*
X8180D01*
X7030Y10110D02*
X7070D01*
X7050D01*
Y10230D01*
X7030Y10210D01*
X7110Y8310D02*
X7030D01*
X7110Y8390D01*
Y8410D01*
X7090Y8430D01*
X7050D01*
X7030Y8410D01*
Y6610D02*
X7050Y6630D01*
X7090D01*
X7110Y6610D01*
Y6590D01*
X7090Y6570D01*
X7070D01*
X7090D01*
X7110Y6550D01*
Y6530D01*
X7090Y6510D01*
X7050D01*
X7030Y6530D01*
X7090Y4710D02*
Y4830D01*
X7030Y4770D01*
X7110D01*
X13483Y4752D02*
X13470Y4765D01*
X13443D01*
X13430Y4752D01*
Y4738D01*
X13443Y4725D01*
X13470D01*
X13483Y4712D01*
Y4698D01*
X13470Y4685D01*
X13443D01*
X13430Y4698D01*
X13510Y4685D02*
X13537D01*
X13523D01*
Y4738D01*
X13510D01*
X13577D02*
X13630D01*
X13577Y4685D01*
X13630D01*
X13697D02*
X13670D01*
X13657Y4698D01*
Y4725D01*
X13670Y4738D01*
X13697D01*
X13710Y4725D01*
Y4712D01*
X13657D01*
X15930Y4685D02*
Y4765D01*
X15970D01*
X15983Y4752D01*
Y4725D01*
X15970Y4712D01*
X15930D01*
X15957D02*
X15983Y4685D01*
X16050D02*
X16023D01*
X16010Y4698D01*
Y4725D01*
X16023Y4738D01*
X16050D01*
X16063Y4725D01*
Y4712D01*
X16010D01*
X16090Y4738D02*
X16117Y4685D01*
X16143Y4738D01*
X13483Y4215D02*
X13430D01*
Y4175D01*
X13457D01*
X13430D01*
Y4135D01*
X13510D02*
X13537D01*
X13523D01*
Y4188D01*
X13510D01*
X13577Y4135D02*
X13603D01*
X13590D01*
Y4215D01*
X13577D01*
X13683Y4135D02*
X13657D01*
X13643Y4148D01*
Y4175D01*
X13657Y4188D01*
X13683D01*
X13697Y4175D01*
Y4162D01*
X13643D01*
X13723Y4135D02*
Y4188D01*
X13763D01*
X13777Y4175D01*
Y4135D01*
X13817Y4188D02*
X13843D01*
X13857Y4175D01*
Y4135D01*
X13817D01*
X13803Y4148D01*
X13817Y4162D01*
X13857D01*
X13883Y4135D02*
Y4188D01*
X13897D01*
X13910Y4175D01*
Y4135D01*
Y4175D01*
X13923Y4188D01*
X13937Y4175D01*
Y4135D01*
X14003D02*
X13976D01*
X13963Y4148D01*
Y4175D01*
X13976Y4188D01*
X14003D01*
X14016Y4175D01*
Y4162D01*
X13963D01*
X15283Y4202D02*
X15270Y4215D01*
X15243D01*
X15230Y4202D01*
Y4188D01*
X15243Y4175D01*
X15270D01*
X15283Y4162D01*
Y4148D01*
X15270Y4135D01*
X15243D01*
X15230Y4148D01*
X15310Y4215D02*
Y4135D01*
Y4175D01*
X15323Y4188D01*
X15350D01*
X15363Y4175D01*
Y4135D01*
X15430D02*
X15403D01*
X15390Y4148D01*
Y4175D01*
X15403Y4188D01*
X15430D01*
X15443Y4175D01*
Y4162D01*
X15390D01*
X15510Y4135D02*
X15483D01*
X15470Y4148D01*
Y4175D01*
X15483Y4188D01*
X15510D01*
X15523Y4175D01*
Y4162D01*
X15470D01*
X15563Y4202D02*
Y4188D01*
X15550D01*
X15577D01*
X15563D01*
Y4148D01*
X15577Y4135D01*
X15893D02*
X15920D01*
X15933Y4148D01*
Y4175D01*
X15920Y4188D01*
X15893D01*
X15880Y4175D01*
Y4148D01*
X15893Y4135D01*
X15973D02*
Y4202D01*
Y4175D01*
X15960D01*
X15987D01*
X15973D01*
Y4202D01*
X15987Y4215D01*
X9600Y4820D02*
Y4700D01*
X9660D01*
X9680Y4720D01*
Y4800D01*
X9660Y4820D01*
X9600D01*
X9780D02*
X9740D01*
X9720Y4800D01*
Y4720D01*
X9740Y4700D01*
X9780D01*
X9800Y4720D01*
Y4800D01*
X9780Y4820D01*
X9960Y4700D02*
Y4820D01*
X10040Y4700D01*
Y4820D01*
X10140D02*
X10100D01*
X10080Y4800D01*
Y4720D01*
X10100Y4700D01*
X10140D01*
X10160Y4720D01*
Y4800D01*
X10140Y4820D01*
X10200D02*
X10280D01*
X10240D01*
Y4700D01*
X10520Y4820D02*
X10440D01*
Y4760D01*
X10480D01*
X10440D01*
Y4700D01*
X10560D02*
Y4780D01*
X10600Y4820D01*
X10640Y4780D01*
Y4700D01*
Y4760D01*
X10560D01*
X10680Y4820D02*
Y4700D01*
X10740D01*
X10760Y4720D01*
Y4740D01*
X10740Y4760D01*
X10680D01*
X10740D01*
X10760Y4780D01*
Y4800D01*
X10740Y4820D01*
X10680D01*
X10800Y4740D02*
Y4840D01*
Y4720D02*
Y4700D01*
X8000Y4820D02*
X8040D01*
X8020D01*
Y4700D01*
X8000D01*
X8040D01*
X8100D02*
Y4820D01*
X8180Y4700D01*
Y4820D01*
X8300D02*
X8220D01*
Y4760D01*
X8260D01*
X8220D01*
Y4700D01*
X8400Y4820D02*
X8360D01*
X8340Y4800D01*
Y4720D01*
X8360Y4700D01*
X8400D01*
X8420Y4720D01*
Y4800D01*
X8400Y4820D01*
X8460Y4700D02*
Y4820D01*
X8520D01*
X8540Y4800D01*
Y4760D01*
X8520Y4740D01*
X8460D01*
X8500D02*
X8540Y4700D01*
X8580D02*
Y4820D01*
X8620Y4780D01*
X8660Y4820D01*
Y4700D01*
X8700D02*
Y4780D01*
X8740Y4820D01*
X8780Y4780D01*
Y4700D01*
Y4760D01*
X8700D01*
X8820Y4820D02*
X8900D01*
X8860D01*
Y4700D01*
X8940Y4820D02*
X8980D01*
X8960D01*
Y4700D01*
X8940D01*
X8980D01*
X9100Y4820D02*
X9060D01*
X9040Y4800D01*
Y4720D01*
X9060Y4700D01*
X9100D01*
X9120Y4720D01*
Y4800D01*
X9100Y4820D01*
X9160Y4700D02*
Y4820D01*
X9240Y4700D01*
Y4820D01*
X13430Y4365D02*
Y4285D01*
X13470D01*
X13483Y4298D01*
Y4352D01*
X13470Y4365D01*
X13430D01*
X13523Y4338D02*
X13550D01*
X13563Y4325D01*
Y4285D01*
X13523D01*
X13510Y4298D01*
X13523Y4312D01*
X13563D01*
X13603Y4352D02*
Y4338D01*
X13590D01*
X13617D01*
X13603D01*
Y4298D01*
X13617Y4285D01*
X13697D02*
X13670D01*
X13657Y4298D01*
Y4325D01*
X13670Y4338D01*
X13697D01*
X13710Y4325D01*
Y4312D01*
X13657D01*
X15700Y4199D02*
X15706Y4201D01*
X15714Y4210D01*
Y4150D01*
X16150Y4199D02*
X16156Y4201D01*
X16164Y4210D01*
Y4150D01*
X16050Y4500D02*
Y4620D01*
X16110D01*
X16130Y4600D01*
Y4560D01*
X16110Y4540D01*
X16050D01*
X16170Y4500D02*
X16210D01*
X16190D01*
Y4620D01*
X16170Y4600D01*
X13580Y4510D02*
Y4590D01*
X13620Y4630D01*
X13660Y4590D01*
Y4510D01*
Y4570D01*
X13580D01*
X14200Y4360D02*
X14240D01*
Y4350D01*
X14200Y4310D01*
Y4300D01*
X14260Y4330D02*
X14300D01*
X14320Y4300D02*
Y4340D01*
X14340Y4360D01*
X14360Y4340D01*
Y4300D01*
Y4330D01*
X14320D01*
X14380Y4300D02*
Y4360D01*
X14410D01*
X14420Y4350D01*
Y4330D01*
X14410Y4320D01*
X14380D01*
X14440Y4300D02*
Y4360D01*
X14470D01*
X14480Y4350D01*
Y4330D01*
X14470Y4320D01*
X14440D01*
X14460D02*
X14480Y4300D01*
X14500Y4330D02*
X14540D01*
X14600Y4300D02*
X14560D01*
X14600Y4340D01*
Y4350D01*
X14590Y4360D01*
X14570D01*
X14560Y4350D01*
X14620D02*
X14630Y4360D01*
X14650D01*
X14660Y4350D01*
Y4310D01*
X14650Y4300D01*
X14630D01*
X14620Y4310D01*
Y4350D01*
X14680Y4300D02*
X14700D01*
X14690D01*
Y4360D01*
X14680Y4350D01*
X14760Y4300D02*
Y4360D01*
X14730Y4330D01*
X14770D01*
X16000Y4360D02*
X16040D01*
X16020D01*
Y4300D01*
X16100Y4360D02*
X16080D01*
X16090D01*
Y4310D01*
X16080Y4300D01*
X16070D01*
X16060Y4310D01*
X16120Y4360D02*
Y4300D01*
X16160D01*
X15230Y4365D02*
Y4285D01*
X15270D01*
X15283Y4298D01*
Y4352D01*
X15270Y4365D01*
X15230D01*
X15310Y4338D02*
Y4285D01*
Y4312D01*
X15323Y4325D01*
X15337Y4338D01*
X15350D01*
X15403D02*
X15430D01*
X15443Y4325D01*
Y4285D01*
X15403D01*
X15390Y4298D01*
X15403Y4312D01*
X15443D01*
X15470Y4338D02*
Y4298D01*
X15483Y4285D01*
X15497Y4298D01*
X15510Y4285D01*
X15523Y4298D01*
Y4338D01*
X15550Y4285D02*
Y4338D01*
X15590D01*
X15603Y4325D01*
Y4285D01*
X15710Y4365D02*
Y4285D01*
X15750D01*
X15763Y4298D01*
Y4312D01*
Y4325D01*
X15750Y4338D01*
X15710D01*
X15790D02*
Y4298D01*
X15803Y4285D01*
X15843D01*
Y4272D01*
X15830Y4258D01*
X15816D01*
X15843Y4285D02*
Y4338D01*
X14200Y4150D02*
Y4210D01*
X14220Y4190D01*
X14240Y4210D01*
Y4150D01*
X14260Y4210D02*
X14300D01*
Y4200D01*
X14260Y4160D01*
Y4150D01*
X14300D01*
X14320Y4140D02*
X14360D01*
X14420Y4200D02*
X14410Y4210D01*
X14390D01*
X14380Y4200D01*
Y4190D01*
X14390Y4180D01*
X14410D01*
X14420Y4170D01*
Y4160D01*
X14410Y4150D01*
X14390D01*
X14380Y4160D01*
X14440Y4210D02*
Y4150D01*
Y4180D01*
X14480D01*
Y4210D01*
Y4150D01*
X14500Y4210D02*
X14520D01*
X14510D01*
Y4150D01*
X14500D01*
X14520D01*
X14590Y4210D02*
X14550D01*
Y4180D01*
X14570D01*
X14550D01*
Y4150D01*
X14610Y4210D02*
X14650D01*
X14630D01*
Y4150D01*
X14670D02*
Y4160D01*
X14680D01*
Y4150D01*
X14670D01*
X14720Y4210D02*
Y4150D01*
X14750D01*
X14760Y4160D01*
Y4200D01*
X14750Y4210D01*
X14720D01*
X14780D02*
Y4150D01*
X14810D01*
X14820Y4160D01*
Y4200D01*
X14810Y4210D01*
X14780D01*
X14840D02*
Y4150D01*
X14870D01*
X14880Y4160D01*
Y4170D01*
X14870Y4180D01*
X14840D01*
X14870D01*
X14880Y4190D01*
Y4200D01*
X14870Y4210D01*
X14840D01*
X13530Y5000D02*
X13510Y5020D01*
X13470D01*
X13450Y5000D01*
Y4980D01*
X13470Y4960D01*
X13510D01*
X13530Y4940D01*
Y4920D01*
X13510Y4900D01*
X13470D01*
X13450Y4920D01*
X13570Y5020D02*
Y4900D01*
X13630D01*
X13650Y4920D01*
Y4940D01*
X13630Y4960D01*
X13570D01*
X13630D01*
X13650Y4980D01*
Y5000D01*
X13630Y5020D01*
X13570D01*
X13770Y5000D02*
X13750Y5020D01*
X13710D01*
X13690Y5000D01*
Y4920D01*
X13710Y4900D01*
X13750D01*
X13770Y4920D01*
X14010Y5020D02*
X13930D01*
Y4960D01*
X13970D01*
X13930D01*
Y4900D01*
X14050D02*
Y5020D01*
X14110D01*
X14130Y5000D01*
Y4960D01*
X14110Y4940D01*
X14050D01*
X14250Y5000D02*
X14230Y5020D01*
X14190D01*
X14170Y5000D01*
Y4920D01*
X14190Y4900D01*
X14230D01*
X14250Y4920D01*
Y4960D01*
X14210D01*
X14290Y4900D02*
Y4980D01*
X14330Y5020D01*
X14370Y4980D01*
Y4900D01*
Y4960D01*
X14290D01*
X14530Y5020D02*
Y4900D01*
X14590D01*
X14610Y4920D01*
Y4940D01*
X14590Y4960D01*
X14530D01*
X14590D01*
X14610Y4980D01*
Y5000D01*
X14590Y5020D01*
X14530D01*
X14650Y4900D02*
Y5020D01*
X14710D01*
X14730Y5000D01*
Y4960D01*
X14710Y4940D01*
X14650D01*
X14690D02*
X14730Y4900D01*
X14850Y5020D02*
X14770D01*
Y4900D01*
X14850D01*
X14770Y4960D02*
X14810D01*
X14890Y4900D02*
Y4980D01*
X14930Y5020D01*
X14970Y4980D01*
Y4900D01*
Y4960D01*
X14890D01*
X15009Y5020D02*
Y4900D01*
Y4940D01*
X15089Y5020D01*
X15029Y4960D01*
X15089Y4900D01*
X15189Y5020D02*
X15149D01*
X15129Y5000D01*
Y4920D01*
X15149Y4900D01*
X15189D01*
X15209Y4920D01*
Y5000D01*
X15189Y5020D01*
X15249D02*
Y4920D01*
X15269Y4900D01*
X15309D01*
X15329Y4920D01*
Y5020D01*
X15369D02*
X15449D01*
X15409D01*
Y4900D01*
X7440Y10630D02*
X7413D01*
X7400Y10617D01*
Y10563D01*
X7413Y10550D01*
X7440D01*
X7453Y10563D01*
Y10617D01*
X7440Y10630D01*
X7480D02*
Y10577D01*
X7507Y10550D01*
X7533Y10577D01*
Y10630D01*
X7613D02*
X7560D01*
Y10550D01*
X7613D01*
X7560Y10590D02*
X7587D01*
X7640Y10550D02*
Y10630D01*
X7680D01*
X7693Y10617D01*
Y10590D01*
X7680Y10577D01*
X7640D01*
X7667D02*
X7693Y10550D01*
X7720D02*
Y10603D01*
X7747Y10630D01*
X7773Y10603D01*
Y10550D01*
Y10590D01*
X7720D01*
X7800Y10630D02*
Y10550D01*
X7853D01*
X7880Y10630D02*
Y10550D01*
X7933D01*
X8093Y10617D02*
X8080Y10630D01*
X8053D01*
X8040Y10617D01*
Y10603D01*
X8053Y10590D01*
X8080D01*
X8093Y10577D01*
Y10563D01*
X8080Y10550D01*
X8053D01*
X8040Y10563D01*
X8120Y10630D02*
X8146D01*
X8133D01*
Y10550D01*
X8120D01*
X8146D01*
X8186Y10630D02*
X8240D01*
Y10617D01*
X8186Y10563D01*
Y10550D01*
X8240D01*
X8320Y10630D02*
X8266D01*
Y10550D01*
X8320D01*
X8266Y10590D02*
X8293D01*
X8426Y10617D02*
X8440Y10630D01*
X8466D01*
X8480Y10617D01*
Y10603D01*
X8466Y10590D01*
X8453D01*
X8466D01*
X8480Y10577D01*
Y10563D01*
X8466Y10550D01*
X8440D01*
X8426Y10563D01*
X8506Y10550D02*
Y10563D01*
X8520D01*
Y10550D01*
X8506D01*
X8573Y10617D02*
X8586Y10630D01*
X8613D01*
X8626Y10617D01*
Y10563D01*
X8613Y10550D01*
X8586D01*
X8573Y10563D01*
Y10617D01*
X8653D02*
X8666Y10630D01*
X8693D01*
X8706Y10617D01*
Y10563D01*
X8693Y10550D01*
X8666D01*
X8653Y10563D01*
Y10617D01*
X8813Y10550D02*
X8840D01*
X8826D01*
Y10603D01*
X8813D01*
X8880Y10550D02*
Y10603D01*
X8920D01*
X8933Y10590D01*
Y10550D01*
X9039Y10603D02*
X9093Y10550D01*
X9066Y10577D01*
X9093Y10603D01*
X9039Y10550D01*
X9253D02*
X9199D01*
X9253Y10603D01*
Y10617D01*
X9239Y10630D01*
X9213D01*
X9199Y10617D01*
X9279Y10550D02*
Y10563D01*
X9293D01*
Y10550D01*
X9279D01*
X9346Y10617D02*
X9359Y10630D01*
X9386D01*
X9399Y10617D01*
Y10603D01*
X9386Y10590D01*
X9373D01*
X9386D01*
X9399Y10577D01*
Y10563D01*
X9386Y10550D01*
X9359D01*
X9346Y10563D01*
X9426Y10617D02*
X9439Y10630D01*
X9466D01*
X9479Y10617D01*
Y10563D01*
X9466Y10550D01*
X9439D01*
X9426Y10563D01*
Y10617D01*
X9586Y10550D02*
X9613D01*
X9599D01*
Y10603D01*
X9586D01*
X9653Y10550D02*
Y10603D01*
X9693D01*
X9706Y10590D01*
Y10550D01*
X7400Y10350D02*
Y10430D01*
X7440D01*
X7453Y10417D01*
Y10390D01*
X7440Y10377D01*
X7400D01*
X7480Y10350D02*
Y10430D01*
X7520D01*
X7533Y10417D01*
Y10390D01*
X7520Y10377D01*
X7480D01*
X7507D02*
X7533Y10350D01*
X7600Y10430D02*
X7573D01*
X7560Y10417D01*
Y10363D01*
X7573Y10350D01*
X7600D01*
X7613Y10363D01*
Y10417D01*
X7600Y10430D01*
X7640D02*
X7693D01*
X7667D01*
Y10350D01*
X7760Y10430D02*
X7733D01*
X7720Y10417D01*
Y10363D01*
X7733Y10350D01*
X7760D01*
X7773Y10363D01*
Y10417D01*
X7760Y10430D01*
X7880Y10350D02*
X7907D01*
X7893D01*
Y10430D01*
X7880Y10417D01*
X14013Y4567D02*
Y4553D01*
X14000D01*
X14027D01*
X14013D01*
Y4513D01*
X14027Y4500D01*
X14080D02*
X14107D01*
X14120Y4513D01*
Y4540D01*
X14107Y4553D01*
X14080D01*
X14067Y4540D01*
Y4513D01*
X14080Y4500D01*
X14147D02*
Y4553D01*
X14160D01*
X14173Y4540D01*
Y4500D01*
Y4540D01*
X14187Y4553D01*
X14200Y4540D01*
Y4500D01*
X14280Y4553D02*
X14240D01*
X14227Y4540D01*
Y4513D01*
X14240Y4500D01*
X14280D01*
X14307D02*
X14333D01*
X14320D01*
Y4553D01*
X14307D01*
X14373D02*
Y4500D01*
Y4527D01*
X14387Y4540D01*
X14400Y4553D01*
X14413D01*
X14507D02*
X14467D01*
X14453Y4540D01*
Y4513D01*
X14467Y4500D01*
X14507D01*
X14533Y4553D02*
Y4513D01*
X14546Y4500D01*
X14586D01*
Y4553D01*
X14613Y4500D02*
X14640D01*
X14626D01*
Y4553D01*
X14613D01*
X14693Y4567D02*
Y4553D01*
X14680D01*
X14706D01*
X14693D01*
Y4513D01*
X14706Y4500D01*
X14786Y4527D02*
Y4540D01*
X14773D01*
Y4527D01*
X14786D01*
X14800Y4540D01*
Y4567D01*
X14786Y4580D01*
X14760D01*
X14746Y4567D01*
Y4513D01*
X14760Y4500D01*
X14800D01*
X14853Y4473D02*
X14866D01*
X14880Y4487D01*
Y4553D01*
X14840D01*
X14826Y4540D01*
Y4513D01*
X14840Y4500D01*
X14880D01*
X14906D02*
Y4553D01*
X14920D01*
X14933Y4540D01*
Y4500D01*
Y4540D01*
X14946Y4553D01*
X14960Y4540D01*
Y4500D01*
X15000Y4553D02*
X15026D01*
X15040Y4540D01*
Y4500D01*
X15000D01*
X14986Y4513D01*
X15000Y4527D01*
X15040D01*
X15066Y4500D02*
X15093D01*
X15080D01*
Y4553D01*
X15066D01*
X15133Y4500D02*
X15160D01*
X15146D01*
Y4580D01*
X15133D01*
X15200Y4500D02*
Y4513D01*
X15213D01*
Y4500D01*
X15200D01*
X15320Y4553D02*
X15280D01*
X15266Y4540D01*
Y4513D01*
X15280Y4500D01*
X15320D01*
X15360D02*
X15386D01*
X15400Y4513D01*
Y4540D01*
X15386Y4553D01*
X15360D01*
X15346Y4540D01*
Y4513D01*
X15360Y4500D01*
X15426D02*
Y4553D01*
X15440D01*
X15453Y4540D01*
Y4500D01*
Y4540D01*
X15466Y4553D01*
X15480Y4540D01*
Y4500D01*
X14000Y4720D02*
X14047D01*
X14023D01*
Y4650D01*
X14082D02*
X14105D01*
X14117Y4662D01*
Y4685D01*
X14105Y4697D01*
X14082D01*
X14070Y4685D01*
Y4662D01*
X14082Y4650D01*
X14140D02*
Y4697D01*
X14152D01*
X14163Y4685D01*
Y4650D01*
Y4685D01*
X14175Y4697D01*
X14187Y4685D01*
Y4650D01*
X14280Y4720D02*
Y4650D01*
X14327D01*
X14385D02*
X14362D01*
X14350Y4662D01*
Y4685D01*
X14362Y4697D01*
X14385D01*
X14397Y4685D01*
Y4673D01*
X14350D01*
X14420Y4650D02*
Y4720D01*
X14443Y4697D01*
X14467Y4720D01*
Y4650D01*
X14525D02*
X14502D01*
X14490Y4662D01*
Y4685D01*
X14502Y4697D01*
X14525D01*
X14536Y4685D01*
Y4673D01*
X14490D01*
X14560Y4650D02*
Y4697D01*
X14595D01*
X14606Y4685D01*
Y4650D01*
X14630D02*
X14665D01*
X14676Y4662D01*
X14665Y4673D01*
X14641D01*
X14630Y4685D01*
X14641Y4697D01*
X14676D01*
X14735Y4650D02*
X14711D01*
X14700Y4662D01*
Y4685D01*
X14711Y4697D01*
X14735D01*
X14746Y4685D01*
Y4673D01*
X14700D01*
M02*
