%FSLAX23Y23*%
%MOIN*%
G70*
G01*
G75*
%ADD10R,0.060X0.050*%
%ADD11R,0.050X0.060*%
%ADD12R,0.036X0.050*%
%ADD13R,0.036X0.036*%
%ADD14R,0.050X0.036*%
%ADD15R,0.032X0.095*%
%ADD16C,0.015*%
%ADD17C,0.012*%
%ADD18C,0.010*%
%ADD19C,0.030*%
%ADD20C,0.075*%
%ADD21O,0.065X0.075*%
%ADD22R,0.070X0.070*%
%ADD23R,0.065X0.070*%
%ADD24C,0.070*%
%ADD25C,0.050*%
%ADD26C,0.040*%
%ADD27C,0.008*%
D16*
X12510Y9800D02*
Y9849D01*
Y9800D02*
X12559D01*
X12410D02*
Y9849D01*
X12510Y9700D02*
X12559D01*
X12510Y9651D02*
Y9700D01*
X12410Y9651D02*
Y9700D01*
X12010Y8500D02*
Y8550D01*
X10310Y8920D02*
Y8967D01*
Y8920D02*
X10357D01*
X10210D02*
Y8969D01*
X10160Y8920D02*
X10210D01*
X10310Y8873D02*
Y8920D01*
X10210Y8870D02*
Y8920D01*
X11110Y8500D02*
Y8550D01*
X10230Y8600D02*
X10280D01*
X10230D02*
Y8649D01*
X10181Y8600D02*
X10230D01*
Y7900D02*
X10370D01*
D17*
X10480Y8245D02*
X10800D01*
X10815Y8260D01*
X11130D01*
X11155Y8235D01*
X11490D01*
X11570D02*
X11605D01*
X11630Y8210D01*
X12055D01*
X12160Y8315D01*
Y8450D01*
X12210Y8500D01*
X12120Y8225D02*
X12210D01*
X12075Y8180D02*
X12120Y8225D01*
X11585Y8180D02*
X12075D01*
X12080Y8140D02*
X12115Y8175D01*
X12180D01*
X11145Y8200D02*
X11455D01*
X11115Y8230D02*
X11145Y8200D01*
X10850Y8230D02*
X11115D01*
X10830Y8210D02*
X10850Y8230D01*
X10525Y8210D02*
X10830D01*
X12190Y8580D02*
X12660D01*
X12110Y8500D02*
X12190Y8580D01*
X11615Y8140D02*
X12080D01*
X11135Y8165D02*
X11420D01*
X11100Y8200D02*
X11135Y8165D01*
X10880Y8200D02*
X11100D01*
X10850Y8170D02*
X10880Y8200D01*
X10810Y8170D02*
X10850D01*
X10855Y8130D02*
X10890Y8165D01*
X11090D01*
X11125Y8130D01*
X11385D01*
X11650Y8105D02*
X12100D01*
X12132Y8138D01*
X10375Y8080D02*
X11010D01*
D18*
X12360Y8250D02*
Y8450D01*
X12410Y8500D01*
X11960Y8250D02*
Y8450D01*
X11910Y8500D02*
X11960Y8450D01*
X11860Y8250D02*
Y8450D01*
X11810Y8500D02*
X11860Y8450D01*
X11760Y8250D02*
Y8450D01*
X11710Y8500D02*
X11760Y8450D01*
X11660Y8250D02*
Y8450D01*
X11610Y8500D02*
X11660Y8450D01*
X11460Y8310D02*
Y8450D01*
X11510Y8500D01*
X11360Y8310D02*
Y8450D01*
X11410Y8500D01*
X11260Y8310D02*
Y8450D01*
X11310Y8500D01*
X10910Y8130D02*
X11060D01*
X11160Y8310D02*
Y8450D01*
X11210Y8500D01*
X11610Y9430D02*
X11650D01*
X11710D02*
X12080D01*
X12110Y9460D02*
X12130D01*
X12410Y9470D02*
X12440Y9440D01*
X12130Y9460D02*
X12180D01*
X12350D02*
X12370Y9470D01*
X12410D01*
Y9390D02*
X12420Y9400D01*
X12370Y9390D02*
X12410D01*
X12350Y9410D02*
X12370Y9390D01*
X11740Y9400D02*
X12150D01*
X11730Y9390D02*
X11740Y9400D01*
X12140Y9430D02*
X12390D01*
X12080D02*
X12090Y9420D01*
X12130D01*
X12140Y9430D01*
X12160Y9410D02*
X12350D01*
X12150Y9400D02*
X12160Y9410D01*
X12440Y9440D02*
X12490D01*
X12420Y9400D02*
X12440D01*
X11690Y9390D02*
X11730D01*
X11650Y9430D02*
X11690Y9390D01*
X12180Y9460D02*
X12190Y9450D01*
X12240Y9460D02*
X12350D01*
X12190Y9450D02*
X12230D01*
X12240Y9460D01*
X12210Y9490D02*
X12770D01*
D19*
X11110Y8500D02*
Y8570D01*
X10170Y8610D02*
X10220D01*
X10230Y8600D01*
Y8500D02*
Y8600D01*
X12830Y8020D02*
Y8591D01*
X12794Y8627D02*
X12830Y8591D01*
X12690Y7880D02*
X12830Y8020D01*
X12510Y7880D02*
X12690D01*
X12090Y9100D02*
X12349D01*
D20*
X11810Y9800D02*
D03*
X11910Y9800D02*
D03*
X11710D02*
D03*
X11310Y9700D02*
D03*
X11310Y9800D02*
D03*
X11210Y9700D02*
D03*
Y9800D02*
D03*
X10710Y9700D02*
D03*
X10810D02*
D03*
X10910D02*
D03*
X11010D02*
D03*
Y9800D02*
D03*
X10910Y9800D02*
D03*
X10810Y9800D02*
D03*
X10710Y9800D02*
D03*
X10610D02*
D03*
X11110Y9700D02*
D03*
Y9800D02*
D03*
X11410Y9700D02*
D03*
Y9800D02*
D03*
X11510Y9700D02*
D03*
Y9800D02*
D03*
X12310Y9700D02*
D03*
Y9800D02*
D03*
X12210Y9700D02*
D03*
X12210Y9800D02*
D03*
X11710Y9700D02*
D03*
X11810D02*
D03*
X11910D02*
D03*
X12010D02*
D03*
Y9800D02*
D03*
X12110Y9700D02*
D03*
Y9800D02*
D03*
X11610Y9700D02*
D03*
Y9800D02*
D03*
X12410Y9700D02*
D03*
Y9800D02*
D03*
X12510Y9700D02*
D03*
Y9800D02*
D03*
X12410Y7880D02*
D03*
Y7980D02*
D03*
X12310Y7880D02*
D03*
X12310Y7980D02*
D03*
X12210D02*
D03*
Y7880D02*
D03*
X11010D02*
D03*
X11310Y8500D02*
D03*
X11210D02*
D03*
X10710Y8400D02*
D03*
X10810D02*
D03*
X10910D02*
D03*
X11010D02*
D03*
Y8500D02*
D03*
X10910D02*
D03*
X10810D02*
D03*
X10710D02*
D03*
X10610D02*
D03*
X11110D02*
D03*
X11410D02*
D03*
X11510D02*
D03*
X12310D02*
D03*
X12210D02*
D03*
X12010D02*
D03*
X11910D02*
D03*
X11810D02*
D03*
X11710D02*
D03*
X11610D02*
D03*
X12110D02*
D03*
X12410D02*
D03*
X12510Y8400D02*
D03*
Y8500D02*
D03*
X11810Y7980D02*
D03*
X12110Y7880D02*
D03*
X12010D02*
D03*
X11910Y7980D02*
D03*
X12110D02*
D03*
X11910Y7880D02*
D03*
X12010Y7980D02*
D03*
X11810Y7880D02*
D03*
X11210Y7980D02*
D03*
X11010D02*
D03*
X11310D02*
D03*
X11310Y7880D02*
D03*
X11110Y7980D02*
D03*
Y7880D02*
D03*
X11210D02*
D03*
X12510D02*
D03*
X11510Y7980D02*
D03*
X10610Y7880D02*
D03*
Y7980D02*
D03*
X10710Y7880D02*
D03*
Y7980D02*
D03*
X11510Y7880D02*
D03*
X11410D02*
D03*
X11410Y7980D02*
D03*
X10910Y7880D02*
D03*
Y7980D02*
D03*
X10810Y7880D02*
D03*
Y7980D02*
D03*
X11610Y7880D02*
D03*
Y7980D02*
D03*
X11710Y7880D02*
D03*
Y7980D02*
D03*
X12770Y9590D02*
D03*
X12830Y8240D02*
D03*
X10210Y8920D02*
D03*
X10230Y8400D02*
D03*
Y8300D02*
D03*
Y7900D02*
D03*
Y8000D02*
D03*
Y8200D02*
D03*
Y8100D02*
D03*
Y8500D02*
D03*
Y8600D02*
D03*
D21*
X11310Y8400D02*
D03*
X11210D02*
D03*
X11110D02*
D03*
X11410D02*
D03*
X11510D02*
D03*
X12310D02*
D03*
X12210D02*
D03*
X11710D02*
D03*
X11810D02*
D03*
X11910D02*
D03*
X12010D02*
D03*
X12110D02*
D03*
X12410D02*
D03*
X11610D02*
D03*
D22*
X10610Y9700D02*
D03*
Y8400D02*
D03*
X12510Y7980D02*
D03*
X12770Y9490D02*
D03*
X12830Y8140D02*
D03*
X10310Y8920D02*
D03*
X10230Y7800D02*
D03*
D24*
X10270Y9240D02*
D03*
D25*
X10520Y9330D02*
D03*
X10970Y9150D02*
D03*
X10920Y8850D02*
D03*
X11510D02*
D03*
X11560Y9150D02*
D03*
X11080Y9340D02*
D03*
X11680D02*
D03*
X12310D02*
D03*
X12690Y9150D02*
D03*
X12790D02*
D03*
X12740Y8850D02*
D03*
X10920Y8710D02*
D03*
X11520D02*
D03*
X12150Y8610D02*
D03*
X12750Y8710D02*
D03*
X10420Y9660D02*
D03*
X10180Y9720D02*
D03*
Y9600D02*
D03*
X12349Y9100D02*
D03*
X12090D02*
D03*
D26*
X10480Y8245D02*
D03*
X11490Y8235D02*
D03*
X11570D02*
D03*
X12210Y8225D02*
D03*
X11585Y8180D02*
D03*
X11455Y8200D02*
D03*
X10525Y8210D02*
D03*
X12660Y8580D02*
D03*
X12180Y8175D02*
D03*
X11615Y8140D02*
D03*
X11420Y8165D02*
D03*
X10810Y8170D02*
D03*
X10855Y8130D02*
D03*
X11385D02*
D03*
X11650Y8105D02*
D03*
X12132Y8138D02*
D03*
X11010Y8080D02*
D03*
X10375D02*
D03*
X10370Y7900D02*
D03*
X12360Y8250D02*
D03*
X11960D02*
D03*
X11860D02*
D03*
X11760D02*
D03*
X11660D02*
D03*
X11460Y8310D02*
D03*
X11360D02*
D03*
X11260D02*
D03*
X10910Y8130D02*
D03*
X11060D02*
D03*
X11160Y8310D02*
D03*
X11610Y9430D02*
D03*
X12440Y9400D02*
D03*
X11710Y9430D02*
D03*
X12390D02*
D03*
X12110Y9460D02*
D03*
X12490Y9440D02*
D03*
X12210Y9490D02*
D03*
D27*
X12529Y9750D02*
X12539Y9755D01*
X12547Y9761D01*
X12554Y9770D01*
X12559Y9779D01*
X12562Y9789D01*
X12564Y9800D01*
X12563Y9810D01*
X12560Y9819D01*
X12555Y9828D01*
X12549Y9836D01*
X12542Y9843D01*
X12534Y9848D01*
X12524Y9851D01*
X12515Y9853D01*
X12505Y9853D01*
X12495Y9851D01*
X12486Y9848D01*
X12478Y9843D01*
X12470Y9836D01*
X12464Y9828D01*
X12460Y9819D01*
X12456Y9828D01*
X12450Y9836D01*
X12442Y9843D01*
X12434Y9848D01*
X12425Y9851D01*
X12415Y9853D01*
X12405D01*
X12395Y9851D01*
X12386Y9848D01*
X12378Y9843D01*
X12370Y9836D01*
X12364Y9828D01*
X12360Y9819D01*
X12791Y9541D02*
X12800Y9546D01*
X12808Y9553D01*
X12815Y9561D01*
X12820Y9570D01*
X12823Y9580D01*
X12823Y9590D01*
X12823Y9600D01*
X12820Y9610D01*
X12815Y9618D01*
X12809Y9626D01*
X12802Y9633D01*
X12793Y9638D01*
X12784Y9642D01*
X12774Y9643D01*
X12764Y9643D01*
X12754Y9641D01*
X12745Y9637D01*
X12737Y9632D01*
X12729Y9625D01*
X12724Y9617D01*
X12720Y9608D01*
X12717Y9598D01*
X12717Y9588D01*
X12718Y9578D01*
X12721Y9569D01*
X12726Y9560D01*
X12732Y9552D01*
X12740Y9546D01*
X12749Y9541D01*
X12564Y9700D02*
X12562Y9711D01*
X12559Y9721D01*
X12554Y9730D01*
X12547Y9739D01*
X12539Y9745D01*
X12529Y9750D01*
X12460Y9681D02*
X12464Y9672D01*
X12470Y9664D01*
X12478Y9657D01*
X12486Y9652D01*
X12495Y9649D01*
X12505Y9647D01*
X12515Y9647D01*
X12524Y9649D01*
X12534Y9652D01*
X12542Y9657D01*
X12549Y9664D01*
X12555Y9672D01*
X12560Y9681D01*
X12563Y9690D01*
X12564Y9700D01*
X12360Y9681D02*
X12364Y9672D01*
X12370Y9664D01*
X12378Y9657D01*
X12386Y9652D01*
X12395Y9649D01*
X12405Y9647D01*
X12415D01*
X12425Y9649D01*
X12434Y9652D01*
X12442Y9657D01*
X12450Y9664D01*
X12456Y9672D01*
X12460Y9681D01*
X12360Y9819D02*
X12356Y9828D01*
X12350Y9836D01*
X12342Y9843D01*
X12334Y9848D01*
X12325Y9851D01*
X12315Y9853D01*
X12305Y9853D01*
X12295Y9851D01*
X12286Y9848D01*
X12278Y9843D01*
X12270Y9836D01*
X12264Y9828D01*
X12260Y9819D01*
X12260Y9681D02*
X12264Y9672D01*
X12270Y9664D01*
X12278Y9657D01*
X12286Y9652D01*
X12295Y9649D01*
X12305Y9647D01*
X12315D01*
X12325Y9649D01*
X12334Y9652D01*
X12342Y9657D01*
X12350Y9664D01*
X12356Y9672D01*
X12360Y9681D01*
X12260Y9819D02*
X12256Y9828D01*
X12250Y9836D01*
X12242Y9843D01*
X12234Y9848D01*
X12225Y9851D01*
X12215Y9853D01*
X12205Y9853D01*
X12195Y9851D01*
X12186Y9848D01*
X12178Y9843D01*
X12170Y9836D01*
X12164Y9828D01*
X12160Y9819D01*
Y9681D02*
X12164Y9672D01*
X12170Y9664D01*
X12178Y9657D01*
X12186Y9652D01*
X12195Y9649D01*
X12205Y9647D01*
X12215D01*
X12225Y9649D01*
X12234Y9652D01*
X12242Y9657D01*
X12250Y9664D01*
X12256Y9672D01*
X12260Y9681D01*
X12160Y9819D02*
X12156Y9828D01*
X12150Y9836D01*
X12142Y9843D01*
X12134Y9848D01*
X12125Y9851D01*
X12115Y9853D01*
X12105D01*
X12095Y9851D01*
X12086Y9848D01*
X12078Y9843D01*
X12070Y9836D01*
X12064Y9828D01*
X12060Y9819D01*
Y9681D02*
X12064Y9672D01*
X12070Y9664D01*
X12078Y9657D01*
X12086Y9652D01*
X12095Y9649D01*
X12105Y9647D01*
X12115D01*
X12125Y9649D01*
X12134Y9652D01*
X12142Y9657D01*
X12150Y9664D01*
X12156Y9672D01*
X12160Y9681D01*
X12239Y9511D02*
X12232Y9518D01*
X12224Y9523D01*
X12214Y9526D01*
X12204Y9526D01*
X12195Y9523D01*
X12186Y9517D01*
X12180Y9510D01*
X12176Y9501D01*
X12174Y9491D01*
X12175Y9481D01*
X12139D02*
X12132Y9488D01*
X12124Y9493D01*
X12114Y9496D01*
X12104Y9496D01*
X12095Y9493D01*
X12086Y9487D01*
X12080Y9480D01*
X12076Y9471D01*
X12074Y9461D01*
X12075Y9451D01*
X12060Y9819D02*
X12056Y9828D01*
X12050Y9836D01*
X12042Y9843D01*
X12034Y9848D01*
X12025Y9851D01*
X12015Y9853D01*
X12005D01*
X11995Y9851D01*
X11986Y9848D01*
X11978Y9843D01*
X11970Y9836D01*
X11964Y9828D01*
X11960Y9819D01*
Y9681D02*
X11964Y9672D01*
X11970Y9664D01*
X11978Y9657D01*
X11986Y9652D01*
X11995Y9649D01*
X12005Y9647D01*
X12015D01*
X12025Y9649D01*
X12034Y9652D01*
X12042Y9657D01*
X12050Y9664D01*
X12056Y9672D01*
X12060Y9681D01*
X11960Y9819D02*
X11956Y9828D01*
X11950Y9836D01*
X11942Y9843D01*
X11934Y9848D01*
X11925Y9851D01*
X11915Y9853D01*
X11905D01*
X11895Y9851D01*
X11886Y9848D01*
X11878Y9843D01*
X11870Y9836D01*
X11864Y9828D01*
X11860Y9819D01*
Y9681D02*
X11864Y9672D01*
X11870Y9664D01*
X11878Y9657D01*
X11886Y9652D01*
X11895Y9649D01*
X11905Y9647D01*
X11915D01*
X11925Y9649D01*
X11934Y9652D01*
X11942Y9657D01*
X11950Y9664D01*
X11956Y9672D01*
X11960Y9681D01*
X11860Y9819D02*
X11856Y9828D01*
X11850Y9836D01*
X11842Y9843D01*
X11834Y9848D01*
X11825Y9851D01*
X11815Y9853D01*
X11805Y9853D01*
X11795Y9851D01*
X11786Y9848D01*
X11778Y9843D01*
X11770Y9836D01*
X11764Y9828D01*
X11760Y9819D01*
X11760Y9681D02*
X11764Y9672D01*
X11770Y9664D01*
X11778Y9657D01*
X11786Y9652D01*
X11795Y9649D01*
X11805Y9647D01*
X11815D01*
X11825Y9649D01*
X11834Y9652D01*
X11842Y9657D01*
X11850Y9664D01*
X11856Y9672D01*
X11860Y9681D01*
X11760Y9819D02*
X11756Y9828D01*
X11750Y9836D01*
X11742Y9843D01*
X11734Y9848D01*
X11725Y9851D01*
X11715Y9853D01*
X11705D01*
X11695Y9851D01*
X11686Y9848D01*
X11678Y9843D01*
X11670Y9836D01*
X11664Y9828D01*
X11660Y9819D01*
Y9681D02*
X11664Y9672D01*
X11670Y9664D01*
X11678Y9657D01*
X11686Y9652D01*
X11695Y9649D01*
X11705Y9647D01*
X11715D01*
X11725Y9649D01*
X11734Y9652D01*
X11742Y9657D01*
X11750Y9664D01*
X11756Y9672D01*
X11760Y9681D01*
X12526Y9440D02*
X12524Y9451D01*
X12519Y9461D01*
X12511Y9469D01*
X12475Y9407D02*
X12485Y9404D01*
X12495Y9404D01*
X12505Y9407D01*
X12514Y9413D01*
X12520Y9421D01*
X12525Y9430D01*
X12526Y9440D01*
X12419Y9371D02*
X12427Y9366D01*
X12437Y9364D01*
X12447Y9365D01*
X12456Y9368D01*
X12464Y9374D01*
X12471Y9381D01*
X12475Y9390D01*
X12476Y9400D01*
X12680Y8550D02*
X12687Y8556D01*
X12692Y8563D01*
X12695Y8571D01*
X12696Y8580D01*
X12695Y8590D01*
X12691Y8599D01*
X12684Y8607D01*
X12676Y8612D01*
X12667Y8615D01*
X12657Y8616D01*
X12647Y8614D01*
X12639Y8609D01*
X12632Y8602D01*
X12150Y9379D02*
X12158Y9381D01*
X12165Y9385D01*
X12150Y9379D02*
X12158Y9381D01*
X12165Y9385D01*
X11739Y9451D02*
X11733Y9458D01*
X11725Y9463D01*
X11716Y9466D01*
X11706Y9466D01*
X11697Y9464D01*
X11689Y9459D01*
X11682Y9452D01*
X11677Y9444D01*
X11674Y9435D01*
X11665Y9445D02*
X11658Y9449D01*
X11650Y9451D01*
X11665Y9445D02*
X11658Y9449D01*
X11650Y9451D01*
X12410Y9369D02*
X12419Y9371D01*
X12410Y9369D02*
X12419Y9371D01*
X12388Y9100D02*
X12387Y9110D01*
X12383Y9119D01*
X12377Y9127D01*
X12369Y9133D01*
X12360Y9137D01*
X12350Y9139D01*
X12340Y9138D01*
X12331Y9135D01*
X12323Y9129D01*
X12355Y9375D02*
X12362Y9371D01*
X12370Y9369D01*
X12355Y9375D02*
X12362Y9371D01*
X12370Y9369D01*
X12323Y9071D02*
X12331Y9065D01*
X12340Y9062D01*
X12350Y9061D01*
X12360Y9063D01*
X12369Y9067D01*
X12377Y9073D01*
X12383Y9081D01*
X12387Y9090D01*
X12388Y9100D01*
X12190Y8602D02*
X12182Y8600D01*
X12174Y8596D01*
X12190Y8602D02*
X12182Y8600D01*
X12174Y8596D01*
X12129Y8550D02*
X12120Y8553D01*
X12110Y8554D01*
X12100Y8553D01*
X12091Y8550D01*
X12116Y9129D02*
X12108Y9135D01*
X12099Y9138D01*
X12089Y9139D01*
X12079Y9137D01*
X12070Y9133D01*
X12062Y9127D01*
X12056Y9119D01*
X12052Y9110D01*
X12051Y9100D01*
X12052Y9090D01*
X12056Y9081D01*
X12062Y9073D01*
X12070Y9067D01*
X12079Y9063D01*
X12089Y9061D01*
X12099Y9062D01*
X12108Y9065D01*
X12116Y9071D01*
X12029Y8550D02*
X12020Y8553D01*
X12010Y8554D01*
X12000Y8553D01*
X11991Y8550D01*
X11929D02*
X11920Y8553D01*
X11910Y8554D01*
X11900Y8553D01*
X11891Y8550D01*
X11730Y9369D02*
X11738Y9371D01*
X11745Y9375D01*
X11730Y9369D02*
X11738Y9371D01*
X11745Y9375D01*
X11675D02*
X11682Y9371D01*
X11690Y9369D01*
X11675Y9375D02*
X11682Y9371D01*
X11690Y9369D01*
X11829Y8550D02*
X11820Y8553D01*
X11810Y8554D01*
X11800Y8553D01*
X11791Y8550D01*
X11729D02*
X11720Y8553D01*
X11710Y8554D01*
X11700Y8553D01*
X11691Y8550D01*
X11660Y9819D02*
X11656Y9828D01*
X11650Y9836D01*
X11642Y9843D01*
X11634Y9848D01*
X11625Y9851D01*
X11615Y9853D01*
X11605D01*
X11595Y9851D01*
X11586Y9848D01*
X11578Y9843D01*
X11570Y9836D01*
X11564Y9828D01*
X11560Y9819D01*
Y9681D02*
X11564Y9672D01*
X11570Y9664D01*
X11578Y9657D01*
X11586Y9652D01*
X11595Y9649D01*
X11605Y9647D01*
X11615D01*
X11625Y9649D01*
X11634Y9652D01*
X11642Y9657D01*
X11650Y9664D01*
X11656Y9672D01*
X11660Y9681D01*
X11560Y9819D02*
X11556Y9828D01*
X11550Y9836D01*
X11542Y9843D01*
X11534Y9848D01*
X11525Y9851D01*
X11515Y9853D01*
X11505D01*
X11495Y9851D01*
X11486Y9848D01*
X11478Y9843D01*
X11470Y9836D01*
X11464Y9828D01*
X11460Y9819D01*
X11456Y9828D01*
X11450Y9836D01*
X11442Y9843D01*
X11434Y9848D01*
X11425Y9851D01*
X11415Y9853D01*
X11405Y9853D01*
X11395Y9851D01*
X11386Y9848D01*
X11378Y9843D01*
X11370Y9836D01*
X11364Y9828D01*
X11360Y9819D01*
X11460Y9681D02*
X11464Y9672D01*
X11470Y9664D01*
X11478Y9657D01*
X11486Y9652D01*
X11495Y9649D01*
X11505Y9647D01*
X11515D01*
X11525Y9649D01*
X11534Y9652D01*
X11542Y9657D01*
X11550Y9664D01*
X11556Y9672D01*
X11560Y9681D01*
X11360Y9819D02*
X11356Y9828D01*
X11350Y9836D01*
X11342Y9843D01*
X11334Y9848D01*
X11325Y9851D01*
X11315Y9853D01*
X11305Y9853D01*
X11295Y9851D01*
X11286Y9848D01*
X11278Y9843D01*
X11270Y9836D01*
X11264Y9828D01*
X11260Y9819D01*
X11360Y9681D02*
X11364Y9672D01*
X11370Y9664D01*
X11378Y9657D01*
X11386Y9652D01*
X11395Y9649D01*
X11405Y9647D01*
X11415D01*
X11425Y9649D01*
X11434Y9652D01*
X11442Y9657D01*
X11450Y9664D01*
X11456Y9672D01*
X11460Y9681D01*
X11260D02*
X11264Y9672D01*
X11270Y9664D01*
X11278Y9657D01*
X11286Y9652D01*
X11295Y9649D01*
X11305Y9647D01*
X11315D01*
X11325Y9649D01*
X11334Y9652D01*
X11342Y9657D01*
X11350Y9664D01*
X11356Y9672D01*
X11360Y9681D01*
X11639Y9451D02*
X11632Y9458D01*
X11624Y9463D01*
X11614Y9466D01*
X11604Y9465D01*
X11594Y9462D01*
X11586Y9457D01*
X11579Y9449D01*
X11575Y9440D01*
X11574Y9430D01*
X11575Y9420D01*
X11579Y9411D01*
X11586Y9403D01*
X11594Y9398D01*
X11604Y9395D01*
X11614Y9394D01*
X11624Y9397D01*
X11632Y9402D01*
X11639Y9409D01*
X11260Y9819D02*
X11256Y9828D01*
X11250Y9836D01*
X11242Y9843D01*
X11234Y9848D01*
X11225Y9851D01*
X11215Y9853D01*
X11205D01*
X11195Y9851D01*
X11186Y9848D01*
X11178Y9843D01*
X11170Y9836D01*
X11164Y9828D01*
X11160Y9819D01*
X11156Y9828D01*
X11150Y9836D01*
X11142Y9843D01*
X11134Y9848D01*
X11125Y9851D01*
X11115Y9853D01*
X11105D01*
X11095Y9851D01*
X11086Y9848D01*
X11078Y9843D01*
X11070Y9836D01*
X11064Y9828D01*
X11060Y9819D01*
X11056Y9828D01*
X11050Y9836D01*
X11042Y9843D01*
X11034Y9848D01*
X11025Y9851D01*
X11015Y9853D01*
X11005D01*
X10995Y9851D01*
X10986Y9848D01*
X10978Y9843D01*
X10970Y9836D01*
X10964Y9828D01*
X10960Y9819D01*
X11160Y9681D02*
X11164Y9672D01*
X11170Y9664D01*
X11178Y9657D01*
X11186Y9652D01*
X11195Y9649D01*
X11205Y9647D01*
X11215D01*
X11225Y9649D01*
X11234Y9652D01*
X11242Y9657D01*
X11250Y9664D01*
X11256Y9672D01*
X11260Y9681D01*
X10960Y9819D02*
X10956Y9828D01*
X10950Y9836D01*
X10942Y9843D01*
X10934Y9848D01*
X10925Y9851D01*
X10915Y9853D01*
X10905Y9853D01*
X10895Y9851D01*
X10886Y9848D01*
X10878Y9843D01*
X10870Y9836D01*
X10864Y9828D01*
X10860Y9819D01*
X11060Y9681D02*
X11064Y9672D01*
X11070Y9664D01*
X11078Y9657D01*
X11086Y9652D01*
X11095Y9649D01*
X11105Y9647D01*
X11115D01*
X11125Y9649D01*
X11134Y9652D01*
X11142Y9657D01*
X11150Y9664D01*
X11156Y9672D01*
X11160Y9681D01*
X10960D02*
X10964Y9672D01*
X10970Y9664D01*
X10978Y9657D01*
X10986Y9652D01*
X10995Y9649D01*
X11005Y9647D01*
X11015D01*
X11025Y9649D01*
X11034Y9652D01*
X11042Y9657D01*
X11050Y9664D01*
X11056Y9672D01*
X11060Y9681D01*
X10860D02*
X10864Y9672D01*
X10870Y9664D01*
X10878Y9657D01*
X10886Y9652D01*
X10895Y9649D01*
X10905Y9647D01*
X10915D01*
X10925Y9649D01*
X10934Y9652D01*
X10942Y9657D01*
X10950Y9664D01*
X10956Y9672D01*
X10960Y9681D01*
X10860Y9819D02*
X10856Y9828D01*
X10850Y9836D01*
X10842Y9843D01*
X10834Y9848D01*
X10825Y9851D01*
X10815Y9853D01*
X10805Y9853D01*
X10795Y9851D01*
X10786Y9848D01*
X10778Y9843D01*
X10770Y9836D01*
X10764Y9828D01*
X10760Y9819D01*
X10756Y9828D01*
X10750Y9836D01*
X10742Y9843D01*
X10734Y9848D01*
X10725Y9851D01*
X10715Y9853D01*
X10705D01*
X10695Y9851D01*
X10686Y9848D01*
X10678Y9843D01*
X10670Y9836D01*
X10664Y9828D01*
X10660Y9819D01*
X10656Y9828D01*
X10650Y9836D01*
X10642Y9843D01*
X10634Y9848D01*
X10624Y9852D01*
X10614Y9853D01*
X10604Y9853D01*
X10595Y9851D01*
X10585Y9847D01*
X10577Y9842D01*
X10570Y9835D01*
X10564Y9827D01*
X10560Y9818D01*
X10557Y9808D01*
X10557Y9798D01*
X10558Y9788D01*
X10561Y9779D01*
X10566Y9770D01*
X10572Y9762D01*
X10580Y9756D01*
X10589Y9751D01*
X10760Y9681D02*
X10764Y9672D01*
X10770Y9664D01*
X10778Y9657D01*
X10786Y9652D01*
X10795Y9649D01*
X10805Y9647D01*
X10815D01*
X10825Y9649D01*
X10834Y9652D01*
X10842Y9657D01*
X10850Y9664D01*
X10856Y9672D01*
X10860Y9681D01*
X10661Y9679D02*
X10666Y9670D01*
X10672Y9662D01*
X10679Y9656D01*
X10688Y9651D01*
X10697Y9648D01*
X10706Y9647D01*
X10716Y9647D01*
X10726Y9649D01*
X10735Y9653D01*
X10743Y9658D01*
X10750Y9664D01*
X10756Y9672D01*
X10760Y9681D01*
X10319Y9240D02*
X10318Y9250D01*
X10315Y9259D01*
X10310Y9268D01*
X10304Y9276D01*
X10296Y9282D01*
X10287Y9286D01*
X10277Y9288D01*
X10268Y9289D01*
X10258Y9287D01*
X10248Y9284D01*
X10240Y9279D01*
X10233Y9272D01*
X10227Y9264D01*
X10223Y9255D01*
X10221Y9245D01*
Y9235D01*
X10223Y9225D01*
X10227Y9216D01*
X10233Y9208D01*
X10240Y9201D01*
X10248Y9196D01*
X10258Y9193D01*
X10268Y9191D01*
X10277Y9192D01*
X10287Y9194D01*
X10296Y9198D01*
X10304Y9204D01*
X10310Y9212D01*
X10315Y9221D01*
X10318Y9230D01*
X10319Y9240D01*
X11629Y8550D02*
X11620Y8553D01*
X11610Y8554D01*
X11600Y8553D01*
X11591Y8550D01*
X11529D02*
X11520Y8553D01*
X11510Y8554D01*
X11500Y8553D01*
X11491Y8550D01*
X11429D02*
X11420Y8553D01*
X11410Y8554D01*
X11400Y8553D01*
X11391Y8550D01*
X11329D02*
X11320Y8553D01*
X11310Y8554D01*
X11300Y8553D01*
X11291Y8550D01*
X10259Y8941D02*
X10254Y8950D01*
X10248Y8958D01*
X10240Y8964D01*
X10231Y8969D01*
X10222Y8972D01*
X10212Y8973D01*
X10202Y8973D01*
X10192Y8970D01*
X10183Y8966D01*
X10175Y8960D01*
X10168Y8953D01*
X10162Y8944D01*
X10159Y8935D01*
X10157Y8925D01*
Y8915D01*
X10159Y8905D01*
X10162Y8896D01*
X10168Y8887D01*
X10175Y8880D01*
X10183Y8874D01*
X10192Y8870D01*
X10202Y8867D01*
X10212Y8867D01*
X10222Y8868D01*
X10231Y8871D01*
X10240Y8876D01*
X10248Y8882D01*
X10254Y8890D01*
X10259Y8899D01*
X11229Y8550D02*
X11220Y8553D01*
X11210Y8554D01*
X11200Y8553D01*
X11191Y8550D01*
X11129D02*
X11120Y8553D01*
X11110Y8554D01*
X11100Y8553D01*
X11091Y8550D01*
X11029D02*
X11020Y8553D01*
X11010Y8554D01*
X11000Y8553D01*
X10991Y8550D01*
X10929D02*
X10920Y8553D01*
X10910Y8554D01*
X10900Y8553D01*
X10891Y8550D01*
X10829D02*
X10820Y8553D01*
X10810Y8554D01*
X10800Y8553D01*
X10791Y8550D01*
X10729D02*
X10720Y8553D01*
X10710Y8554D01*
X10700Y8553D01*
X10691Y8550D01*
X10629D02*
X10620Y8553D01*
X10610Y8554D01*
X10600Y8553D01*
X10591Y8550D01*
X10283Y8600D02*
X10283Y8610D01*
X10280Y8619D01*
X10275Y8628D01*
X10269Y8636D01*
X10262Y8643D01*
X10253Y8648D01*
X10244Y8652D01*
X10234Y8653D01*
X10224Y8653D01*
X10215Y8651D01*
X10205Y8648D01*
X10197Y8642D01*
X10190Y8635D01*
X10184Y8627D01*
X10180Y8618D01*
X10177Y8609D01*
X10177Y8599D01*
X10178Y8589D01*
X10181Y8579D01*
X10249Y8550D02*
X10259Y8555D01*
X10267Y8561D01*
X10274Y8570D01*
X10279Y8579D01*
X10282Y8589D01*
X10283Y8600D01*
X12810Y9900D02*
X12910Y9800D01*
X12781Y9900D02*
X12910Y9771D01*
X12743Y9900D02*
X12910Y9733D01*
X12705Y9900D02*
X12910Y9695D01*
X12563Y9700D02*
X12764Y9900D01*
X12562Y9813D02*
X12649Y9900D01*
X12555Y9729D02*
X12726Y9900D01*
X12535Y9747D02*
X12687Y9900D01*
X12548Y9837D02*
X12611Y9900D01*
X12667D02*
X12910Y9657D01*
X12628Y9900D02*
X12910Y9618D01*
X12590Y9900D02*
X12910Y9580D01*
X12774Y9643D02*
X12910Y9779D01*
X12552Y9900D02*
X12910Y9542D01*
X12562Y9814D02*
X12741Y9635D01*
X12566Y9511D02*
X12882Y9828D01*
X12528Y9511D02*
X12863Y9847D01*
X12604Y9511D02*
X12901Y9809D01*
X12559Y9779D02*
X12723Y9615D01*
X12524Y9852D02*
X12573Y9900D01*
X12476Y9841D02*
X12535Y9900D01*
X12476D02*
X12524Y9852D01*
X12440Y9844D02*
X12496Y9900D01*
X12438D02*
X12489Y9849D01*
X12412Y9853D02*
X12458Y9900D01*
X12399D02*
X12467Y9832D01*
X12353Y9832D02*
X12420Y9900D01*
X12458Y9823D02*
X12469Y9834D01*
X12361Y9900D02*
X12408Y9853D01*
X12514Y9900D02*
X12770Y9643D01*
X12451Y9511D02*
X12825Y9885D01*
X12413Y9511D02*
X12802Y9900D01*
X12489Y9511D02*
X12844Y9866D01*
X12819Y9612D02*
X12910Y9703D01*
X12822Y9576D02*
X12910Y9664D01*
X12802Y9633D02*
X12910Y9741D01*
X12821Y9537D02*
X12910Y9626D01*
X12563Y9698D02*
X12720Y9541D01*
X12542Y9757D02*
X12717Y9582D01*
X12791Y9541D02*
X12821D01*
X12719D02*
X12749D01*
X12823Y9590D02*
X12910Y9504D01*
X12821Y9499D02*
X12910Y9588D01*
X12815Y9561D02*
X12910Y9466D01*
X12821Y9461D02*
X12910Y9550D01*
X12680Y9511D02*
X12727Y9558D01*
X12554Y9669D02*
X12712Y9511D01*
X12533Y9652D02*
X12674Y9511D01*
X12719D02*
Y9541D01*
X12642Y9511D02*
X12717Y9586D01*
X12499Y9648D02*
X12636Y9511D01*
X12447Y9661D02*
X12597Y9511D01*
X12422Y9648D02*
X12559Y9511D01*
X12375D02*
X12510Y9647D01*
X12357Y9675D02*
X12521Y9511D01*
X12339Y9655D02*
X12483Y9511D01*
X12239D02*
X12719D01*
X12518Y9463D02*
X12524Y9469D01*
X12511D02*
X12719D01*
X12298Y9511D02*
X12463Y9675D01*
X12251Y9666D02*
X12406Y9511D01*
X12337D02*
X12481Y9655D01*
X12309Y9647D02*
X12445Y9511D01*
X12331Y9849D02*
X12382Y9900D01*
X12295Y9851D02*
X12344Y9900D01*
X12247D02*
X12295Y9851D01*
X12220Y9853D02*
X12267Y9900D01*
X12170D02*
X12217Y9853D01*
X12137Y9846D02*
X12191Y9900D01*
X12132D02*
X12185Y9847D01*
X12106Y9853D02*
X12153Y9900D01*
X12056D02*
X12103Y9853D01*
X12027Y9851D02*
X12076Y9900D01*
X12323D02*
X12379Y9844D01*
X12285Y9900D02*
X12342Y9843D01*
X12246Y9840D02*
X12306Y9900D01*
X12208D02*
X12271Y9837D01*
X12156Y9827D02*
X12229Y9900D01*
X12094D02*
X12165Y9829D01*
X12050Y9835D02*
X12115Y9900D01*
X12017D02*
X12076Y9841D01*
X11986Y9848D02*
X12038Y9900D01*
X11979D02*
X12029Y9850D01*
X11941Y9900D02*
X11991Y9850D01*
X11915Y9853D02*
X11962Y9900D01*
X11865D02*
X11911Y9853D01*
X11834Y9848D02*
X11886Y9900D01*
X11800Y9853D02*
X11847Y9900D01*
X11750D02*
X11798Y9852D01*
X11723Y9852D02*
X11771Y9900D01*
X11674D02*
X11722Y9852D01*
X11636Y9900D02*
X11687Y9848D01*
X11943Y9842D02*
X12000Y9900D01*
X11903D02*
X11969Y9834D01*
X11854Y9830D02*
X11924Y9900D01*
X11827D02*
X11881Y9845D01*
X11788Y9900D02*
X11863Y9825D01*
X11747Y9838D02*
X11809Y9900D01*
X11712D02*
X11773Y9839D01*
X11657Y9825D02*
X11733Y9900D01*
X11639Y9845D02*
X11695Y9900D01*
X12353Y9832D02*
X12362Y9823D01*
X12260Y9511D02*
X12397Y9648D01*
X12231Y9520D02*
X12373Y9662D01*
X12196Y9523D02*
X12320Y9648D01*
X12229Y9650D02*
X12368Y9511D01*
X12144Y9659D02*
X12292Y9511D01*
X12127Y9492D02*
X12287Y9652D01*
X12191Y9650D02*
X12330Y9511D01*
X12118Y9647D02*
X12254Y9511D01*
X12154Y9481D02*
X12177Y9504D01*
X12139Y9481D02*
X12175D01*
X11858Y9677D02*
X11866Y9670D01*
X11650Y9664D02*
X11662Y9676D01*
X12055Y9671D02*
X12202Y9525D01*
X12047Y9451D02*
X12266Y9670D01*
X12035Y9653D02*
X12179Y9509D01*
X12009Y9451D02*
X12205Y9647D01*
X12003Y9647D02*
X12169Y9481D01*
X11949Y9663D02*
X12117Y9495D01*
X11880Y9656D02*
X12074Y9462D01*
X11925Y9649D02*
X12087Y9487D01*
X11718Y9465D02*
X11900Y9647D01*
X12821Y9439D02*
Y9541D01*
Y9517D02*
X12910Y9428D01*
X12821Y9478D02*
X12910Y9389D01*
X12821Y9440D02*
X12910Y9351D01*
X12784Y9439D02*
X12910Y9313D01*
X12719Y9439D02*
Y9469D01*
X12525Y9432D02*
X12562Y9469D01*
X12719Y9439D02*
X12821D01*
X12678Y9469D02*
X12910Y9237D01*
X12639Y9469D02*
X12910Y9198D01*
X12601Y9469D02*
X12910Y9160D01*
X12746Y9439D02*
X12910Y9275D01*
X12563Y9469D02*
X12910Y9122D01*
X12525Y9469D02*
X12910Y9084D01*
Y8650D02*
Y9800D01*
X12525Y9431D02*
X12910Y9046D01*
X12508Y9409D02*
X12910Y9007D01*
X12466Y9375D02*
X12910Y8931D01*
X12375Y9129D02*
X12715Y9469D01*
X12388Y9104D02*
X12723Y9439D01*
X12338Y9389D02*
X12910Y8817D01*
X12299Y9389D02*
X12910Y8778D01*
X12261Y9389D02*
X12910Y8740D01*
X12346Y9139D02*
X12676Y9469D01*
X12298Y9129D02*
X12638Y9469D01*
X12260Y9129D02*
X12600Y9469D01*
X12222Y9129D02*
X12498Y9405D01*
X12063Y8550D02*
X12910Y9397D01*
X12026Y8551D02*
X12910Y9435D01*
X11987Y8550D02*
X12910Y9473D01*
X12223Y9389D02*
X12910Y8702D01*
X12185Y9389D02*
X12910Y8664D01*
X11948Y8550D02*
X12910Y9512D01*
X11914Y8553D02*
X12799Y9439D01*
X12156Y9380D02*
X12898Y8638D01*
X11872Y8550D02*
X12761Y9439D01*
X12439Y9364D02*
X12910Y8893D01*
X12611Y8602D02*
X12910Y8901D01*
X12396Y9369D02*
X12910Y8855D01*
X12688Y8602D02*
X12910Y8824D01*
X12663Y8616D02*
X12910Y8863D01*
X12497Y8602D02*
X12910Y9015D01*
X12459Y8602D02*
X12910Y9053D01*
X12420Y8602D02*
X12910Y9092D01*
X12573Y8602D02*
X12910Y8939D01*
X12535Y8602D02*
X12910Y8977D01*
X12750Y8550D02*
X12910Y8710D01*
X12712Y8550D02*
X12910Y8748D01*
X12695Y8571D02*
X12910Y8786D01*
X12810Y8550D02*
X12910Y8650D01*
X12788Y8550D02*
X12910Y8672D01*
X12695Y8573D02*
X12718Y8550D01*
X12680D02*
X12810D01*
X12306Y8602D02*
X12910Y9206D01*
X12268Y8602D02*
X12910Y9244D01*
X12229Y8602D02*
X12910Y9283D01*
X12382Y8602D02*
X12910Y9130D01*
X12344Y8602D02*
X12910Y9168D01*
X12386Y9111D02*
X12879Y8619D01*
X12197Y9071D02*
X12653Y8615D01*
X12191Y8602D02*
X12910Y9321D01*
X12190Y8602D02*
X12632D01*
X12159Y9071D02*
X12628Y8602D01*
X12381Y9078D02*
X12860Y8600D01*
X12312Y9071D02*
X12821Y8561D01*
X12104Y8553D02*
X12910Y9359D01*
X12359Y9062D02*
X12841Y8581D01*
X12274Y9071D02*
X12795Y8550D01*
X12236Y9071D02*
X12757Y8550D01*
X11743Y9373D02*
X12514Y8602D01*
X12121Y9071D02*
X12590Y8602D01*
X12093Y9061D02*
X12552Y8602D01*
X12169Y9389D02*
X12341D01*
X12355Y9375D01*
X11971Y9451D02*
X12178Y9657D01*
X11933Y9451D02*
X12134Y9652D01*
X11857Y9451D02*
X12070Y9664D01*
X11841Y9656D02*
X12046Y9451D01*
X11895D02*
X12093Y9649D01*
X11818Y9451D02*
X12014Y9647D01*
X12118Y9379D02*
X12360Y9137D01*
X12080Y9379D02*
X12327Y9132D01*
X12077Y9137D02*
X12329Y9389D01*
X12042Y9379D02*
X12292Y9129D01*
X12004Y9379D02*
X12254Y9129D01*
X11966Y9379D02*
X12216Y9129D01*
X11928Y9379D02*
X12178Y9129D01*
X11889Y9379D02*
X12139Y9129D01*
X11851Y9379D02*
X12091Y9139D01*
X11780Y9451D02*
X11983Y9654D01*
X11753Y9668D02*
X11970Y9451D01*
X11742D02*
X11964Y9673D01*
X11813Y9647D02*
X12008Y9451D01*
X11739D02*
X12075D01*
X11732Y9651D02*
X11932Y9451D01*
X11662Y9447D02*
X11875Y9660D01*
X11646Y9660D02*
X11856Y9451D01*
X11696Y9648D02*
X11894Y9451D01*
X11639D02*
X11650D01*
X11749Y9379D02*
X12150D01*
X11635Y9404D02*
X12437Y8602D01*
X11813Y9379D02*
X12063Y9129D01*
X11775Y9379D02*
X12051Y9103D01*
X11665Y9445D02*
X11674Y9435D01*
X11641Y9409D02*
X11675Y9375D01*
X12184Y9129D02*
X12423Y9368D01*
X12370Y9369D02*
X12410D01*
X12111Y9133D02*
X12354Y9376D01*
X12146Y9129D02*
X12386Y9369D01*
X12116Y9129D02*
X12323D01*
X12116Y9071D02*
X12323D01*
X12129Y8550D02*
X12174Y8596D01*
X12029Y8550D02*
X12091D01*
X11722Y8552D02*
X12240Y9071D01*
X11708Y9369D02*
X12475Y8602D01*
X11929Y8550D02*
X11991D01*
X11690Y9369D02*
X11730D01*
X11798Y8552D02*
X12317Y9071D01*
X11757Y8550D02*
X12278Y9071D01*
X11681Y8550D02*
X12202Y9071D01*
X11834Y8550D02*
X12345Y9061D01*
X11643Y8550D02*
X12164Y9071D01*
X11829Y8550D02*
X11891D01*
X11729D02*
X11791D01*
X11610Y9854D02*
X11656Y9900D01*
X11559D02*
X11606Y9853D01*
X11530Y9850D02*
X11580Y9900D01*
X11492Y9851D02*
X11542Y9900D01*
X11445D02*
X11494Y9851D01*
X11418Y9853D02*
X11466Y9900D01*
X11418Y9853D02*
X11466Y9900D01*
X11368D02*
X11415Y9853D01*
X11304Y9853D02*
X11351Y9900D01*
X11254D02*
X11301Y9853D01*
X11597Y9900D02*
X11666Y9831D01*
X11552Y9833D02*
X11618Y9900D01*
X11521D02*
X11578Y9843D01*
X11483Y9900D02*
X11536Y9847D01*
X11445Y9841D02*
X11504Y9900D01*
X11407D02*
X11470Y9836D01*
X11355Y9828D02*
X11427Y9900D01*
X11336Y9847D02*
X11389Y9900D01*
X11330D02*
X11384Y9847D01*
X11292Y9900D02*
X11364Y9828D01*
X11226Y9851D02*
X11275Y9900D01*
X11182Y9846D02*
X11236Y9900D01*
X10210D02*
X12810D01*
X11177D02*
X11227Y9851D01*
X11139Y9900D02*
X11190Y9850D01*
X11113Y9853D02*
X11160Y9900D01*
X11063D02*
X11109Y9853D01*
X11032Y9849D02*
X11084Y9900D01*
X10998Y9852D02*
X11046Y9900D01*
X10948D02*
X10997Y9852D01*
X11216Y9900D02*
X11275Y9841D01*
X11249Y9836D02*
X11313Y9900D01*
X11141Y9843D02*
X11198Y9900D01*
X11101D02*
X11168Y9833D01*
X11053Y9831D02*
X11122Y9900D01*
X11025D02*
X11080Y9844D01*
X10987Y9900D02*
X11062Y9824D01*
X10946Y9839D02*
X11007Y9900D01*
X10910D02*
X10972Y9838D01*
X11604Y9465D02*
X11789Y9651D01*
X11428Y9650D02*
X11611Y9466D01*
X11634Y9457D02*
X11825Y9649D01*
X11557Y9674D02*
X11779Y9451D01*
X11538Y9654D02*
X11741Y9451D01*
X11621Y9648D02*
X11817Y9451D01*
X11507Y9647D02*
X11692Y9461D01*
X11451Y9665D02*
X11675Y9440D01*
X11343Y9658D02*
X11574Y9427D01*
X11388Y9651D02*
X11584Y9455D01*
X11159Y9822D02*
X11164Y9828D01*
X10921Y9852D02*
X10969Y9900D01*
X10872D02*
X10919Y9853D01*
X10857Y9826D02*
X10931Y9900D01*
X10838Y9845D02*
X10893Y9900D01*
X10361Y8948D02*
X11074Y9661D01*
X10361Y8910D02*
X11099Y9648D01*
X10346Y8971D02*
X11023Y9648D01*
X10269Y8971D02*
X10967Y9669D01*
X10307Y8971D02*
X10988Y9651D01*
X10230Y8970D02*
X10907Y9647D01*
X10808Y9853D02*
X10855Y9900D01*
X10834D02*
X10886Y9848D01*
X10757Y9900D02*
X10804Y9853D01*
X10728Y9850D02*
X10778Y9900D01*
X10689Y9849D02*
X10740Y9900D01*
X10643D02*
X10692Y9851D01*
X10681Y9900D02*
X10733Y9849D01*
X10617Y9853D02*
X10664Y9900D01*
X10566D02*
X10613Y9853D01*
X10528Y9900D02*
X10582Y9846D01*
X10751Y9834D02*
X10816Y9900D01*
X10796D02*
X10866Y9830D01*
X10719Y9900D02*
X10777Y9842D01*
X10644Y9842D02*
X10702Y9900D01*
X10605D02*
X10670Y9835D01*
X10559Y9751D02*
X10589D01*
X10490Y9900D02*
X10564Y9827D01*
X10414Y9900D02*
X10563Y9751D01*
X10376Y9900D02*
X10559Y9717D01*
X10452Y9900D02*
X10557Y9795D01*
X10337Y9900D02*
X10559Y9678D01*
X10110Y9690D02*
X10320Y9900D01*
X10110Y9652D02*
X10358Y9900D01*
X10110Y9728D02*
X10282Y9900D01*
X10110Y9766D02*
X10244Y9900D01*
X10110Y9800D02*
X10210Y9900D01*
X10110Y9423D02*
X10587Y9900D01*
X10110Y9385D02*
X10625Y9900D01*
X10110Y9461D02*
X10549Y9900D01*
X10110Y9346D02*
X10557Y9793D01*
X10110Y9308D02*
X10568Y9766D01*
X10110Y9499D02*
X10511Y9900D01*
X10110Y9537D02*
X10473Y9900D01*
X10110Y9575D02*
X10435Y9900D01*
X10110Y9614D02*
X10396Y9900D01*
X10855Y9672D02*
X10861Y9678D01*
X10318Y9249D02*
X10716Y9647D01*
X10305Y9274D02*
X10684Y9653D01*
X10661Y9649D02*
Y9679D01*
X10559Y9649D02*
Y9751D01*
X10110Y9270D02*
X10559Y9719D01*
Y9649D02*
X10661D01*
X10281Y9288D02*
X10642Y9649D01*
X10259Y8971D02*
X10361D01*
X10192Y8971D02*
X10879Y9657D01*
X10259Y8941D02*
Y8971D01*
X10252Y8953D02*
X10259Y8961D01*
X10110Y9232D02*
X10559Y9681D01*
X10110Y9003D02*
X10771Y9664D01*
X10110Y9155D02*
X10604Y9649D01*
X10110Y9194D02*
X10565Y9649D01*
X10110Y9440D02*
X10262Y9288D01*
X10110Y9402D02*
X10236Y9276D01*
X10110Y9364D02*
X10222Y9251D01*
X10110Y9117D02*
X10222Y9229D01*
X10110Y9079D02*
X10236Y9205D01*
X10110Y9041D02*
X10261Y9192D01*
X10110Y8964D02*
X10794Y9649D01*
X10110Y8926D02*
X10838Y9655D01*
X10110Y9211D02*
X10350Y8971D01*
X10110Y9173D02*
X10312Y8971D01*
X10110Y9135D02*
X10274Y8971D01*
X10110Y9096D02*
X10259Y8947D01*
X10110Y9058D02*
X10196Y8972D01*
X10110Y9020D02*
X10172Y8958D01*
X10110Y8982D02*
X10158Y8934D01*
X11254Y9670D02*
X12323Y8602D01*
X11234Y9652D02*
X12285Y8602D01*
X11148Y9662D02*
X12208Y8602D01*
X11316Y9647D02*
X12361Y8602D01*
X11201Y9647D02*
X12246Y8602D01*
X11124Y9648D02*
X12175Y8597D01*
X11058Y9676D02*
X12156Y8577D01*
X11040Y9656D02*
X12137Y8558D01*
X11011Y9647D02*
X12104Y8553D01*
X10819Y9647D02*
X11913Y8553D01*
X10952Y9667D02*
X12069Y8550D01*
X10845Y9660D02*
X11955Y8550D01*
X10756Y9672D02*
X11878Y8550D01*
X10930Y9651D02*
X12031Y8550D01*
X10894Y9649D02*
X11992Y8551D01*
X10737Y9654D02*
X11840Y8550D01*
X10661Y9653D02*
X11764Y8550D01*
X10650D02*
X11768Y9667D01*
X10705Y9647D02*
X11799Y8552D01*
X10627Y9649D02*
X11724Y8552D01*
X10536Y8550D02*
X11646Y9660D01*
X10459Y8550D02*
X11572Y9663D01*
X10261Y9900D02*
X11608Y8553D01*
X10588Y9649D02*
X11687Y8550D01*
X10574D02*
X11680Y9656D01*
X10140Y9830D02*
X11417Y8553D01*
X10383Y8550D02*
X11485Y9653D01*
X10110Y9746D02*
X11303Y8553D01*
X10283Y8603D02*
X11331Y9651D01*
X10273Y8631D02*
X11292Y9650D01*
X10299Y9900D02*
X11649Y8550D01*
X10223Y9900D02*
X11573Y8550D01*
X10197Y9887D02*
X11535Y8550D01*
X10345D02*
X11465Y9671D01*
X10178Y9868D02*
X11495Y8551D01*
X10159Y9849D02*
X11458Y8550D01*
X10121Y9811D02*
X11382Y8550D01*
X10268D02*
X11377Y9658D01*
X10110Y9784D02*
X11344Y8550D01*
X11607Y9394D02*
X12399Y8602D01*
X11417Y8553D02*
X12253Y9389D01*
X11302Y8553D02*
X12128Y9379D01*
X11608Y8553D02*
X12126Y9071D01*
X11567Y8550D02*
X12079Y9063D01*
X11529Y8550D02*
X12057Y9079D01*
X11490Y8550D02*
X12053Y9113D01*
X11629Y8550D02*
X11691D01*
X11529D02*
X11591D01*
X11452D02*
X12291Y9389D01*
X11376Y8550D02*
X12215Y9389D01*
X11337Y8550D02*
X12176Y9389D01*
X11261Y8550D02*
X12090Y9379D01*
X11429Y8550D02*
X11491D01*
X11329D02*
X11391D01*
X11224Y8552D02*
X12052Y9379D01*
X11185Y8550D02*
X12014Y9379D01*
X11146Y8550D02*
X11975Y9379D01*
X11112Y8553D02*
X11937Y9379D01*
X11070Y8550D02*
X11899Y9379D01*
X10806Y8553D02*
X11652Y9399D01*
X11032Y8550D02*
X11861Y9379D01*
X10615Y8553D02*
X11708Y9647D01*
X10995Y8551D02*
X11823Y9379D01*
X10920Y8553D02*
X11738Y9371D01*
X10956Y8550D02*
X11785Y9379D01*
X10765Y8550D02*
X11609Y9394D01*
X10497Y8550D02*
X11596Y9648D01*
X10879Y8550D02*
X11698Y9369D01*
X10841Y8550D02*
X11671Y9380D01*
X10421Y8550D02*
X11518Y9647D01*
X10306Y8550D02*
X11403Y9647D01*
X10727Y8551D02*
X11583Y9406D01*
X10688Y8550D02*
X11575Y9436D01*
X10361Y8872D02*
X11163Y9674D01*
X10252Y8649D02*
X11269Y9665D01*
X10218Y8652D02*
X11212Y9647D01*
X10318Y9232D02*
X10998Y8552D01*
X10218Y8652D02*
X11212Y9647D01*
X10361Y8869D02*
Y8971D01*
X10259Y8869D02*
Y8899D01*
X10248Y8882D02*
X10259Y8871D01*
X10361Y8960D02*
X10771Y8550D01*
X10306Y9206D02*
X10962Y8550D01*
X10281Y9192D02*
X10921Y8552D01*
X10361Y8922D02*
X10733Y8550D01*
X10361Y8884D02*
X10694Y8551D01*
X10337Y8869D02*
X10656Y8550D01*
X10299Y8869D02*
X10615Y8553D01*
X10261Y8869D02*
X10580Y8550D01*
X10224Y8868D02*
X10542Y8550D01*
X10144Y8616D02*
X11182Y9655D01*
X10110Y9707D02*
X11267Y8550D01*
X10110Y9555D02*
X11111Y8553D01*
X10110Y9249D02*
X10806Y8553D01*
X10110Y8888D02*
X10159Y8938D01*
X10110Y8650D02*
Y9800D01*
Y8850D02*
X10160Y8900D01*
X10110Y8735D02*
X10259Y8884D01*
X10110Y8812D02*
X10177Y8878D01*
X10110Y9669D02*
X11229Y8550D01*
X10110Y9631D02*
X11191Y8550D01*
X10110Y9593D02*
X11153Y8550D01*
X10110Y9516D02*
X11076Y8550D01*
X10110Y9478D02*
X11038Y8550D01*
X10110Y9326D02*
X10886Y8550D01*
X10110Y9287D02*
X10847Y8550D01*
X10110Y8944D02*
X10504Y8550D01*
X10110Y8906D02*
X10466Y8550D01*
X11229D02*
X11291D01*
X11129D02*
X11191D01*
X11029D02*
X11091D01*
X10259Y8869D02*
X10361D01*
X10929Y8550D02*
X10991D01*
X10829D02*
X10891D01*
X10729D02*
X10791D01*
X10629D02*
X10691D01*
X10280Y8582D02*
X10313Y8550D01*
X10279Y8622D02*
X10351Y8550D01*
X10265Y8560D02*
X10275Y8550D01*
X10110Y8659D02*
X10320Y8869D01*
X10125Y8635D02*
X10358Y8869D01*
X10110Y8697D02*
X10282Y8869D01*
X10110Y8791D02*
X10252Y8649D01*
X10110Y8774D02*
X10203Y8867D01*
X10110Y8753D02*
X10212Y8650D01*
X10110Y8715D02*
X10190Y8635D01*
X10110Y8676D02*
X10177Y8609D01*
X10110Y8867D02*
X10427Y8550D01*
X10110Y8829D02*
X10389Y8550D01*
X10249D02*
X10591D01*
X10163Y8597D02*
X10178Y8612D01*
X10110Y8650D02*
X10181Y8579D01*
X10163Y8597D02*
X10178Y8612D01*
M02*
