%FSLAX23Y23*%
%MOIN*%
G70*
G01*
G75*
%ADD10R,0.060X0.050*%
%ADD11R,0.050X0.060*%
%ADD12R,0.036X0.050*%
%ADD13R,0.036X0.036*%
%ADD14R,0.050X0.036*%
%ADD15R,0.032X0.095*%
%ADD16C,0.015*%
%ADD17C,0.012*%
%ADD18C,0.010*%
%ADD19C,0.030*%
%ADD20C,0.075*%
%ADD21O,0.065X0.075*%
%ADD22R,0.070X0.070*%
%ADD23R,0.065X0.070*%
%ADD24C,0.070*%
%ADD25C,0.050*%
%ADD26C,0.040*%
%ADD27C,0.008*%
%ADD28C,0.008*%
%ADD29R,0.068X0.058*%
%ADD30R,0.058X0.068*%
%ADD31R,0.044X0.058*%
%ADD32R,0.044X0.044*%
%ADD33R,0.058X0.044*%
%ADD34R,0.040X0.103*%
%ADD35C,0.083*%
%ADD36O,0.073X0.083*%
%ADD37R,0.078X0.078*%
%ADD38R,0.073X0.078*%
%ADD39C,0.078*%
%ADD40C,0.058*%
%ADD41C,0.048*%
%ADD42C,0.004*%
D42*
X11789Y9800D02*
X11831D01*
X11810Y9779D02*
Y9821D01*
X11889Y9800D02*
X11931D01*
X11910Y9779D02*
Y9821D01*
X11689Y9800D02*
X11731D01*
X11710Y9779D02*
Y9821D01*
X11289Y9700D02*
X11331D01*
X11310Y9679D02*
Y9721D01*
X11289Y9800D02*
X11331D01*
X11310Y9779D02*
Y9821D01*
X11189Y9700D02*
X11231D01*
X11210Y9679D02*
Y9721D01*
X11189Y9800D02*
X11231D01*
X11210Y9779D02*
Y9821D01*
X10589Y9700D02*
X10631D01*
X10610Y9679D02*
Y9721D01*
X10689Y9700D02*
X10731D01*
X10710Y9679D02*
Y9721D01*
X10789Y9700D02*
X10831D01*
X10810Y9679D02*
Y9721D01*
X10889Y9700D02*
X10931D01*
X10910Y9679D02*
Y9721D01*
X10989Y9700D02*
X11031D01*
X11010Y9679D02*
Y9721D01*
X10989Y9800D02*
X11031D01*
X11010Y9779D02*
Y9821D01*
X10889Y9800D02*
X10931D01*
X10910Y9779D02*
Y9821D01*
X10789Y9800D02*
X10831D01*
X10810Y9779D02*
Y9821D01*
X10689Y9800D02*
X10731D01*
X10710Y9779D02*
Y9821D01*
X10589Y9800D02*
X10631D01*
X10610Y9779D02*
Y9821D01*
X11089Y9700D02*
X11131D01*
X11110Y9679D02*
Y9721D01*
X11089Y9800D02*
X11131D01*
X11110Y9779D02*
Y9821D01*
X11389Y9700D02*
X11431D01*
X11410Y9679D02*
Y9721D01*
X11389Y9800D02*
X11431D01*
X11410Y9779D02*
Y9821D01*
X11489Y9700D02*
X11531D01*
X11510Y9679D02*
Y9721D01*
X11489Y9800D02*
X11531D01*
X11510Y9779D02*
Y9821D01*
X12289Y9700D02*
X12331D01*
X12310Y9679D02*
Y9721D01*
X12289Y9800D02*
X12331D01*
X12310Y9779D02*
Y9821D01*
X12189Y9700D02*
X12231D01*
X12210Y9679D02*
Y9721D01*
X12189Y9800D02*
X12231D01*
X12210Y9779D02*
Y9821D01*
X11689Y9700D02*
X11731D01*
X11710Y9679D02*
Y9721D01*
X11789Y9700D02*
X11831D01*
X11810Y9679D02*
Y9721D01*
X11889Y9700D02*
X11931D01*
X11910Y9679D02*
Y9721D01*
X11989Y9700D02*
X12031D01*
X12010Y9679D02*
Y9721D01*
X11989Y9800D02*
X12031D01*
X12010Y9779D02*
Y9821D01*
X12089Y9700D02*
X12131D01*
X12110Y9679D02*
Y9721D01*
X12089Y9800D02*
X12131D01*
X12110Y9779D02*
Y9821D01*
X11589Y9700D02*
X11631D01*
X11610Y9679D02*
Y9721D01*
X11589Y9800D02*
X11631D01*
X11610Y9779D02*
Y9821D01*
X12389Y9700D02*
X12431D01*
X12410Y9679D02*
Y9721D01*
X12389Y9800D02*
X12431D01*
X12410Y9779D02*
Y9821D01*
X12489Y9700D02*
X12531D01*
X12510Y9679D02*
Y9721D01*
X12489Y9800D02*
X12531D01*
X12510Y9779D02*
Y9821D01*
X12389Y7880D02*
X12431D01*
X12410Y7859D02*
Y7901D01*
X12389Y7980D02*
X12431D01*
X12410Y7959D02*
Y8001D01*
X12289Y7880D02*
X12331D01*
X12310Y7859D02*
Y7901D01*
X12289Y7980D02*
X12331D01*
X12310Y7959D02*
Y8001D01*
X12189Y7980D02*
X12231D01*
X12210Y7959D02*
Y8001D01*
X12189Y7880D02*
X12231D01*
X12210Y7859D02*
Y7901D01*
X10989Y7880D02*
X11031D01*
X11010Y7859D02*
Y7901D01*
X11289Y8400D02*
X11331D01*
X11310Y8379D02*
Y8421D01*
X11289Y8500D02*
X11331D01*
X11310Y8479D02*
Y8521D01*
X11189Y8400D02*
X11231D01*
X11210Y8379D02*
Y8421D01*
X11189Y8500D02*
X11231D01*
X11210Y8479D02*
Y8521D01*
X10589Y8400D02*
X10631D01*
X10610Y8379D02*
Y8421D01*
X10689Y8400D02*
X10731D01*
X10710Y8379D02*
Y8421D01*
X10789Y8400D02*
X10831D01*
X10810Y8379D02*
Y8421D01*
X10889Y8400D02*
X10931D01*
X10910Y8379D02*
Y8421D01*
X10989Y8400D02*
X11031D01*
X11010Y8379D02*
Y8421D01*
X10989Y8500D02*
X11031D01*
X11010Y8479D02*
Y8521D01*
X10889Y8500D02*
X10931D01*
X10910Y8479D02*
Y8521D01*
X10789Y8500D02*
X10831D01*
X10810Y8479D02*
Y8521D01*
X10689Y8500D02*
X10731D01*
X10710Y8479D02*
Y8521D01*
X10589Y8500D02*
X10631D01*
X10610Y8479D02*
Y8521D01*
X11089Y8400D02*
X11131D01*
X11110Y8379D02*
Y8421D01*
X11089Y8500D02*
X11131D01*
X11110Y8479D02*
Y8521D01*
X11389Y8400D02*
X11431D01*
X11410Y8379D02*
Y8421D01*
X11389Y8500D02*
X11431D01*
X11410Y8479D02*
Y8521D01*
X11489Y8400D02*
X11531D01*
X11510Y8379D02*
Y8421D01*
X11489Y8500D02*
X11531D01*
X11510Y8479D02*
Y8521D01*
X12289Y8400D02*
X12331D01*
X12310Y8379D02*
Y8421D01*
X12289Y8500D02*
X12331D01*
X12310Y8479D02*
Y8521D01*
X12189Y8400D02*
X12231D01*
X12210Y8379D02*
Y8421D01*
X12189Y8500D02*
X12231D01*
X12210Y8479D02*
Y8521D01*
X11689Y8400D02*
X11731D01*
X11710Y8379D02*
Y8421D01*
X11789Y8400D02*
X11831D01*
X11810Y8379D02*
Y8421D01*
X11889Y8400D02*
X11931D01*
X11910Y8379D02*
Y8421D01*
X11989Y8400D02*
X12031D01*
X12010Y8379D02*
Y8421D01*
X11989Y8500D02*
X12031D01*
X12010Y8479D02*
Y8521D01*
X11889Y8500D02*
X11931D01*
X11910Y8479D02*
Y8521D01*
X11789Y8500D02*
X11831D01*
X11810Y8479D02*
Y8521D01*
X11689Y8500D02*
X11731D01*
X11710Y8479D02*
Y8521D01*
X11589Y8500D02*
X11631D01*
X11610Y8479D02*
Y8521D01*
X12089Y8400D02*
X12131D01*
X12110Y8379D02*
Y8421D01*
X12089Y8500D02*
X12131D01*
X12110Y8479D02*
Y8521D01*
X12389Y8400D02*
X12431D01*
X12410Y8379D02*
Y8421D01*
X12389Y8500D02*
X12431D01*
X12410Y8479D02*
Y8521D01*
X12489Y8400D02*
X12531D01*
X12510Y8379D02*
Y8421D01*
X12489Y8500D02*
X12531D01*
X12510Y8479D02*
Y8521D01*
X11589Y8400D02*
X11631D01*
X11610Y8379D02*
Y8421D01*
X11789Y7980D02*
X11831D01*
X11810Y7959D02*
Y8001D01*
X12089Y7880D02*
X12131D01*
X12110Y7859D02*
Y7901D01*
X11989Y7880D02*
X12031D01*
X12010Y7859D02*
Y7901D01*
X11889Y7980D02*
X11931D01*
X11910Y7959D02*
Y8001D01*
X12089Y7980D02*
X12131D01*
X12110Y7959D02*
Y8001D01*
X11889Y7880D02*
X11931D01*
X11910Y7859D02*
Y7901D01*
X11989Y7980D02*
X12031D01*
X12010Y7959D02*
Y8001D01*
X11789Y7880D02*
X11831D01*
X11810Y7859D02*
Y7901D01*
X11189Y7980D02*
X11231D01*
X11210Y7959D02*
Y8001D01*
X10989Y7980D02*
X11031D01*
X11010Y7959D02*
Y8001D01*
X11289Y7980D02*
X11331D01*
X11310Y7959D02*
Y8001D01*
X11289Y7880D02*
X11331D01*
X11310Y7859D02*
Y7901D01*
X11089Y7980D02*
X11131D01*
X11110Y7959D02*
Y8001D01*
X11089Y7880D02*
X11131D01*
X11110Y7859D02*
Y7901D01*
X11189Y7880D02*
X11231D01*
X11210Y7859D02*
Y7901D01*
X12489Y7880D02*
X12531D01*
X12510Y7859D02*
Y7901D01*
X11489Y7980D02*
X11531D01*
X11510Y7959D02*
Y8001D01*
X10589Y7880D02*
X10631D01*
X10610Y7859D02*
Y7901D01*
X10589Y7980D02*
X10631D01*
X10610Y7959D02*
Y8001D01*
X10689Y7880D02*
X10731D01*
X10710Y7859D02*
Y7901D01*
X10689Y7980D02*
X10731D01*
X10710Y7959D02*
Y8001D01*
X11489Y7880D02*
X11531D01*
X11510Y7859D02*
Y7901D01*
X11389Y7880D02*
X11431D01*
X11410Y7859D02*
Y7901D01*
X11389Y7980D02*
X11431D01*
X11410Y7959D02*
Y8001D01*
X10889Y7880D02*
X10931D01*
X10910Y7859D02*
Y7901D01*
X10889Y7980D02*
X10931D01*
X10910Y7959D02*
Y8001D01*
X10789Y7880D02*
X10831D01*
X10810Y7859D02*
Y7901D01*
X10789Y7980D02*
X10831D01*
X10810Y7959D02*
Y8001D01*
X11589Y7880D02*
X11631D01*
X11610Y7859D02*
Y7901D01*
X11589Y7980D02*
X11631D01*
X11610Y7959D02*
Y8001D01*
X11689Y7880D02*
X11731D01*
X11710Y7859D02*
Y7901D01*
X11689Y7980D02*
X11731D01*
X11710Y7959D02*
Y8001D01*
X12489Y7980D02*
X12531D01*
X12510Y7959D02*
Y8001D01*
X10251Y9240D02*
X10289D01*
X10270Y9221D02*
Y9259D01*
X12749Y9490D02*
X12791D01*
X12770Y9469D02*
Y9511D01*
X12749Y9590D02*
X12791D01*
X12770Y9569D02*
Y9611D01*
X12809Y8140D02*
X12851D01*
X12830Y8119D02*
Y8161D01*
X12809Y8240D02*
X12851D01*
X12830Y8219D02*
Y8261D01*
X10289Y8920D02*
X10331D01*
X10310Y8899D02*
Y8941D01*
X10189Y8920D02*
X10231D01*
X10210Y8899D02*
Y8941D01*
X10209Y8400D02*
X10251D01*
X10230Y8379D02*
Y8421D01*
X10209Y8300D02*
X10251D01*
X10230Y8279D02*
Y8321D01*
X10209Y7900D02*
X10251D01*
X10230Y7879D02*
Y7921D01*
X10209Y7800D02*
X10251D01*
X10230Y7779D02*
Y7821D01*
X10209Y8000D02*
X10251D01*
X10230Y7979D02*
Y8021D01*
X10209Y8200D02*
X10251D01*
X10230Y8179D02*
Y8221D01*
X10209Y8100D02*
X10251D01*
X10230Y8079D02*
Y8121D01*
X10209Y8500D02*
X10251D01*
X10230Y8479D02*
Y8521D01*
X10209Y8600D02*
X10251D01*
X10230Y8579D02*
Y8621D01*
X10506Y9330D02*
X10534D01*
X10520Y9316D02*
Y9344D01*
X10470Y8245D02*
X10490D01*
X10480Y8235D02*
Y8255D01*
X11480Y8235D02*
X11500D01*
X11490Y8225D02*
Y8245D01*
X11560Y8235D02*
X11580D01*
X11570Y8225D02*
Y8245D01*
X12200Y8225D02*
X12220D01*
X12210Y8215D02*
Y8235D01*
X11575Y8180D02*
X11595D01*
X11585Y8170D02*
Y8190D01*
X11445Y8200D02*
X11465D01*
X11455Y8190D02*
Y8210D01*
X10515D02*
X10535D01*
X10525Y8200D02*
Y8220D01*
X12650Y8580D02*
X12670D01*
X12660Y8570D02*
Y8590D01*
X12170Y8175D02*
X12190D01*
X12180Y8165D02*
Y8185D01*
X11605Y8140D02*
X11625D01*
X11615Y8130D02*
Y8150D01*
X11410Y8165D02*
X11430D01*
X11420Y8155D02*
Y8175D01*
X10800Y8170D02*
X10820D01*
X10810Y8160D02*
Y8180D01*
X10845Y8130D02*
X10865D01*
X10855Y8120D02*
Y8140D01*
X11375Y8130D02*
X11395D01*
X11385Y8120D02*
Y8140D01*
X11640Y8105D02*
X11660D01*
X11650Y8095D02*
Y8115D01*
X12122Y8138D02*
X12142D01*
X12132Y8128D02*
Y8148D01*
X11000Y8080D02*
X11020D01*
X11010Y8070D02*
Y8090D01*
X10365Y8080D02*
X10385D01*
X10375Y8070D02*
Y8090D01*
X10360Y7900D02*
X10380D01*
X10370Y7890D02*
Y7910D01*
X12350Y8250D02*
X12370D01*
X12360Y8240D02*
Y8260D01*
X11950Y8250D02*
X11970D01*
X11960Y8240D02*
Y8260D01*
X11850Y8250D02*
X11870D01*
X11860Y8240D02*
Y8260D01*
X11750Y8250D02*
X11770D01*
X11760Y8240D02*
Y8260D01*
X11650Y8250D02*
X11670D01*
X11660Y8240D02*
Y8260D01*
X11450Y8310D02*
X11470D01*
X11460Y8300D02*
Y8320D01*
X11350Y8310D02*
X11370D01*
X11360Y8300D02*
Y8320D01*
X11250Y8310D02*
X11270D01*
X11260Y8300D02*
Y8320D01*
X10900Y8130D02*
X10920D01*
X10910Y8120D02*
Y8140D01*
X11050Y8130D02*
X11070D01*
X11060Y8120D02*
Y8140D01*
X11150Y8310D02*
X11170D01*
X11160Y8300D02*
Y8320D01*
X11600Y9430D02*
X11620D01*
X11610Y9420D02*
Y9440D01*
X12430Y9400D02*
X12450D01*
X12440Y9390D02*
Y9410D01*
X11700Y9430D02*
X11720D01*
X11710Y9420D02*
Y9440D01*
X12380Y9430D02*
X12400D01*
X12390Y9420D02*
Y9440D01*
X12100Y9460D02*
X12120D01*
X12110Y9450D02*
Y9470D01*
X12480Y9440D02*
X12500D01*
X12490Y9430D02*
Y9450D01*
X12200Y9490D02*
X12220D01*
X12210Y9480D02*
Y9500D01*
X10956Y9150D02*
X10984D01*
X10970Y9136D02*
Y9164D01*
X10906Y8850D02*
X10934D01*
X10920Y8836D02*
Y8864D01*
X11496Y8850D02*
X11524D01*
X11510Y8836D02*
Y8864D01*
X11546Y9150D02*
X11574D01*
X11560Y9136D02*
Y9164D01*
X11066Y9340D02*
X11094D01*
X11080Y9326D02*
Y9354D01*
X11666Y9340D02*
X11694D01*
X11680Y9326D02*
Y9354D01*
X12296Y9340D02*
X12324D01*
X12310Y9326D02*
Y9354D01*
X12676Y9150D02*
X12704D01*
X12690Y9136D02*
Y9164D01*
X12776Y9150D02*
X12804D01*
X12790Y9136D02*
Y9164D01*
X12726Y8850D02*
X12754D01*
X12740Y8836D02*
Y8864D01*
X10906Y8710D02*
X10934D01*
X10920Y8696D02*
Y8724D01*
X11506Y8710D02*
X11534D01*
X11520Y8696D02*
Y8724D01*
X12136Y8610D02*
X12164D01*
X12150Y8596D02*
Y8624D01*
X12736Y8710D02*
X12764D01*
X12750Y8696D02*
Y8724D01*
X10406Y9660D02*
X10434D01*
X10420Y9646D02*
Y9674D01*
X10166Y9720D02*
X10194D01*
X10180Y9706D02*
Y9734D01*
X10166Y9600D02*
X10194D01*
X10180Y9586D02*
Y9614D01*
X12335Y9100D02*
X12363D01*
X12349Y9086D02*
Y9114D01*
X12076Y9100D02*
X12104D01*
X12090Y9086D02*
Y9114D01*
M02*
