%FSLAX23Y23*%
%MOIN*%
G70*
G01*
G75*
%ADD10R,0.060X0.050*%
%ADD11R,0.050X0.060*%
%ADD12R,0.036X0.050*%
%ADD13R,0.036X0.036*%
%ADD14R,0.050X0.036*%
%ADD15R,0.032X0.095*%
%ADD16C,0.015*%
%ADD17C,0.012*%
%ADD18C,0.010*%
%ADD19C,0.030*%
%ADD20C,0.075*%
%ADD21O,0.065X0.075*%
%ADD22R,0.070X0.070*%
%ADD23R,0.065X0.070*%
%ADD24C,0.070*%
%ADD25C,0.050*%
%ADD26C,0.040*%
%ADD27C,0.008*%
%ADD28C,0.008*%
%ADD29R,0.068X0.058*%
%ADD30R,0.058X0.068*%
%ADD31R,0.044X0.058*%
%ADD32R,0.044X0.044*%
%ADD33R,0.058X0.044*%
%ADD34R,0.040X0.103*%
%ADD35C,0.083*%
%ADD36O,0.073X0.083*%
%ADD37R,0.078X0.078*%
%ADD38R,0.073X0.078*%
%ADD39C,0.078*%
%ADD40C,0.058*%
%ADD41C,0.048*%
D29*
X10180Y9520D02*
D03*
Y9800D02*
D03*
X10270Y9520D02*
D03*
Y9800D02*
D03*
D30*
X12660Y8710D02*
D03*
Y8800D02*
D03*
X12830D02*
D03*
Y8710D02*
D03*
X11010Y8800D02*
D03*
Y8710D02*
D03*
X11610Y8800D02*
D03*
Y8710D02*
D03*
X12170Y8800D02*
D03*
Y8710D02*
D03*
D31*
X12692Y9700D02*
D03*
D32*
X12655Y9780D02*
D03*
X12730D02*
D03*
X10270Y9625D02*
D03*
Y9700D02*
D03*
D33*
X10350Y9662D02*
D03*
D34*
X10970Y9240D02*
D03*
X10920Y9240D02*
D03*
X10870D02*
D03*
X10820Y9240D02*
D03*
X10770Y9240D02*
D03*
X10720Y9240D02*
D03*
X10670Y9240D02*
D03*
X10620D02*
D03*
X10570Y9240D02*
D03*
X10520Y9240D02*
D03*
X10970Y8946D02*
D03*
X10920Y8946D02*
D03*
X10870D02*
D03*
X10820Y8946D02*
D03*
X10770Y8946D02*
D03*
X10720Y8946D02*
D03*
X10670Y8946D02*
D03*
X10620D02*
D03*
X10570Y8946D02*
D03*
X10520Y8946D02*
D03*
X11460Y9240D02*
D03*
X11160Y9240D02*
D03*
X11260Y9240D02*
D03*
X11510D02*
D03*
X11360D02*
D03*
X11410Y9240D02*
D03*
X11310D02*
D03*
X11210Y9240D02*
D03*
X11110Y8946D02*
D03*
X11310Y8946D02*
D03*
X11360Y8946D02*
D03*
X11460D02*
D03*
X11210D02*
D03*
X11160Y8946D02*
D03*
X11410D02*
D03*
X11260Y8946D02*
D03*
X11560Y8946D02*
D03*
X11560Y9240D02*
D03*
X11110Y9240D02*
D03*
X11510Y8946D02*
D03*
X11760Y9240D02*
D03*
X12060Y9240D02*
D03*
X11860D02*
D03*
X11960D02*
D03*
X11810D02*
D03*
X12110D02*
D03*
X11910Y9240D02*
D03*
X12010D02*
D03*
X12010Y8946D02*
D03*
X11860Y8946D02*
D03*
X11910Y8946D02*
D03*
X11760Y8946D02*
D03*
X12110Y8946D02*
D03*
X11960D02*
D03*
X11810D02*
D03*
X12160Y8946D02*
D03*
X11710Y8946D02*
D03*
X12060D02*
D03*
X12160Y9240D02*
D03*
X11710Y9240D02*
D03*
X12490D02*
D03*
X12590D02*
D03*
X12690D02*
D03*
X12740D02*
D03*
X12640Y9240D02*
D03*
X12440Y9240D02*
D03*
X12540Y8946D02*
D03*
X12590Y8946D02*
D03*
X12490D02*
D03*
X12390Y8946D02*
D03*
X12440Y8946D02*
D03*
X12690D02*
D03*
X12390Y9240D02*
D03*
X12640Y8946D02*
D03*
X12540Y9240D02*
D03*
X12340Y8946D02*
D03*
X12790Y8946D02*
D03*
X12790Y9240D02*
D03*
X12340Y9240D02*
D03*
X12740Y8946D02*
D03*
D35*
X11810Y9800D02*
D03*
X11910Y9800D02*
D03*
X11710D02*
D03*
X11310Y9800D02*
D03*
X11210Y9800D02*
D03*
X11010D02*
D03*
X10910Y9800D02*
D03*
X10810Y9800D02*
D03*
X10710Y9800D02*
D03*
X10610D02*
D03*
X11110D02*
D03*
X11410D02*
D03*
X11510D02*
D03*
X12310D02*
D03*
X12210Y9800D02*
D03*
X12010Y9800D02*
D03*
X12110D02*
D03*
X11610Y9700D02*
D03*
Y9800D02*
D03*
X12410D02*
D03*
X12510Y9700D02*
D03*
Y9800D02*
D03*
X12770Y9590D02*
D03*
X12830Y8240D02*
D03*
X10210Y8920D02*
D03*
X10230Y8400D02*
D03*
Y8300D02*
D03*
Y7900D02*
D03*
Y8000D02*
D03*
Y8200D02*
D03*
Y8100D02*
D03*
Y8500D02*
D03*
Y8600D02*
D03*
D36*
X11310Y9700D02*
D03*
X11210D02*
D03*
X10710D02*
D03*
X10810D02*
D03*
X10910D02*
D03*
X11010D02*
D03*
X11110D02*
D03*
X11410D02*
D03*
X11510D02*
D03*
X12310D02*
D03*
X12210D02*
D03*
X11710D02*
D03*
X11810D02*
D03*
X11910D02*
D03*
X12010D02*
D03*
X12110D02*
D03*
X12410D02*
D03*
Y7880D02*
D03*
Y7980D02*
D03*
X12310Y7880D02*
D03*
X12310Y7980D02*
D03*
X12210D02*
D03*
Y7880D02*
D03*
X11010D02*
D03*
X11310Y8400D02*
D03*
Y8500D02*
D03*
X11210Y8400D02*
D03*
Y8500D02*
D03*
X10710Y8400D02*
D03*
X10810D02*
D03*
X10910D02*
D03*
X11010D02*
D03*
Y8500D02*
D03*
X10910D02*
D03*
X10810D02*
D03*
X10710D02*
D03*
X10610D02*
D03*
X11110Y8400D02*
D03*
Y8500D02*
D03*
X11410Y8400D02*
D03*
Y8500D02*
D03*
X11510Y8400D02*
D03*
Y8500D02*
D03*
X12310Y8400D02*
D03*
Y8500D02*
D03*
X12210Y8400D02*
D03*
Y8500D02*
D03*
X11710Y8400D02*
D03*
X11810D02*
D03*
X11910D02*
D03*
X12010D02*
D03*
Y8500D02*
D03*
X11910D02*
D03*
X11810D02*
D03*
X11710D02*
D03*
X11610D02*
D03*
X12110Y8400D02*
D03*
Y8500D02*
D03*
X12410Y8400D02*
D03*
Y8500D02*
D03*
X12510Y8400D02*
D03*
Y8500D02*
D03*
X11610Y8400D02*
D03*
X11810Y7980D02*
D03*
X12110Y7880D02*
D03*
X12010D02*
D03*
X11910Y7980D02*
D03*
X12110D02*
D03*
X11910Y7880D02*
D03*
X12010Y7980D02*
D03*
X11810Y7880D02*
D03*
X11210Y7980D02*
D03*
X11010D02*
D03*
X11310D02*
D03*
X11310Y7880D02*
D03*
X11110Y7980D02*
D03*
Y7880D02*
D03*
X11210D02*
D03*
X12510D02*
D03*
X11510Y7980D02*
D03*
X10610Y7880D02*
D03*
Y7980D02*
D03*
X10710Y7880D02*
D03*
Y7980D02*
D03*
X11510Y7880D02*
D03*
X11410D02*
D03*
X11410Y7980D02*
D03*
X10910Y7880D02*
D03*
Y7980D02*
D03*
X10810Y7880D02*
D03*
Y7980D02*
D03*
X11610Y7880D02*
D03*
Y7980D02*
D03*
X11710Y7880D02*
D03*
Y7980D02*
D03*
D37*
X10610Y9700D02*
D03*
X12770Y9490D02*
D03*
X12830Y8140D02*
D03*
X10310Y8920D02*
D03*
X10230Y7800D02*
D03*
D38*
X10610Y8400D02*
D03*
X12510Y7980D02*
D03*
D39*
X10270Y9240D02*
D03*
D40*
X10520Y9330D02*
D03*
X10970Y9150D02*
D03*
X10920Y8850D02*
D03*
X11510D02*
D03*
X11560Y9150D02*
D03*
X11080Y9340D02*
D03*
X11680D02*
D03*
X12310D02*
D03*
X12690Y9150D02*
D03*
X12790D02*
D03*
X12740Y8850D02*
D03*
X10920Y8710D02*
D03*
X11520D02*
D03*
X12150Y8610D02*
D03*
X12750Y8710D02*
D03*
X10420Y9660D02*
D03*
X10180Y9720D02*
D03*
Y9600D02*
D03*
X12349Y9100D02*
D03*
X12090D02*
D03*
D41*
X10480Y8245D02*
D03*
X11490Y8235D02*
D03*
X11570D02*
D03*
X12210Y8225D02*
D03*
X11585Y8180D02*
D03*
X11455Y8200D02*
D03*
X10525Y8210D02*
D03*
X12660Y8580D02*
D03*
X12180Y8175D02*
D03*
X11615Y8140D02*
D03*
X11420Y8165D02*
D03*
X10810Y8170D02*
D03*
X10855Y8130D02*
D03*
X11385D02*
D03*
X11650Y8105D02*
D03*
X12132Y8138D02*
D03*
X11010Y8080D02*
D03*
X10375D02*
D03*
X10370Y7900D02*
D03*
X12360Y8250D02*
D03*
X11960D02*
D03*
X11860D02*
D03*
X11760D02*
D03*
X11660D02*
D03*
X11460Y8310D02*
D03*
X11360D02*
D03*
X11260D02*
D03*
X10910Y8130D02*
D03*
X11060D02*
D03*
X11160Y8310D02*
D03*
X11610Y9430D02*
D03*
X12440Y9400D02*
D03*
X11710Y9430D02*
D03*
X12390D02*
D03*
X12110Y9460D02*
D03*
X12490Y9440D02*
D03*
X12210Y9490D02*
D03*
M02*
