M72
M48
T1F00S00C0.0200
T2F00S00C0.0280
T3F00S00C0.0380
T4F00S00C0.0420
%
T01
X126600Y085800
X123600Y082500
X122100Y082250
X121800Y081750
X121318Y081382
X119600Y082500
X118600
X117600
X116600
X115700Y082350
X115850Y081800
X116150Y081400
X116500Y081050
X114900Y082350
X114550Y082000
X114200Y081650
X113850Y081300
X113600Y083100
X114600
X112600
X111600
X110600Y081300
X110100Y080800
X109100Y081300
X108550
X108100Y081700
X105250Y082100
X104800Y082450
X103750Y080800
X103700Y079000
X116100Y094300
X117100
X121100Y094600
X122100Y094900
X123900Y094300
X124400Y094000
X124900Y094400
T02
X127500Y087100
X127400Y088500
X126900Y091500
X127900
X123490Y091000
X120900
X123100Y093400
X116800
X115600Y091500
X115100Y088500
X115200Y087100
X121500Y086100
X109700Y091500
X110800Y093400
X105200Y093300
X109200Y088500
Y087100
X104200Y096600
X101800Y097200
Y096000
T03
X102700Y092400
T04
X102300Y078000
X125100Y078800
Y079800
Y084000
Y085000
X128300Y082400
Y081400
X124100Y079800
Y078800
X123100
X122100
Y079800
X123100
X121100
Y078800
X120100
X119100
Y079800
X118100
X118100Y078800
X117100
X116100
X115100
Y079800
X116100
X117100
X120100
Y084000
X119100
X118100
X117100
Y085000
X118100
X119100
X120100
X121100
X122100
X123100
Y084000
X122100
X121100
X124100
Y085000
X116100
X115100
X114100
X113100
Y084000
X112100
Y085000
X111100
X110100
Y084000
X111100
X114100
X115100
X116100
X114100Y079800
X113100
X112100
X111100
X110100
Y078800
X111100
X112100
X113100
X114100
X109100
Y079800
X108100
X107100
X106100
Y078800
X107100
X108100
X108100Y084000
X109100
Y085000
X108100
X107100
Y084000
X106100
Y085000
X102300Y085000
Y084000
Y083000
Y082000
Y081000
Y080000
Y079000
Y086000
X102100Y089200
X103100
X106100Y097000
X107100
X108100
X109100
X109100Y098000
X108100Y098000
X107100Y098000
X106100
X110100
Y097000
X111100
X112100
X113100
X113100Y098000
X112100Y098000
X111100
X114100
Y097000
X115100
Y098000
X116100
X117100
Y097000
X118100
X118100Y098000
X119100Y098000
Y097000
X120100
Y098000
X121100
Y097000
X122100
X122100Y098000
X123100Y098000
Y097000
X124100
Y098000
X116100Y097000
X125100Y097000
Y098000
X127700Y095900
Y094900
M30
