%FSLAX23Y23*%
%MOIN*%
G70*
G01*
G75*
%ADD10R,0.060X0.050*%
%ADD11R,0.050X0.060*%
%ADD12R,0.036X0.050*%
%ADD13R,0.036X0.036*%
%ADD14R,0.050X0.036*%
%ADD15R,0.032X0.095*%
%ADD16C,0.015*%
%ADD17C,0.012*%
%ADD18C,0.010*%
%ADD19C,0.030*%
%ADD20C,0.075*%
%ADD21O,0.065X0.075*%
%ADD22R,0.070X0.070*%
%ADD23R,0.065X0.070*%
%ADD24C,0.070*%
%ADD25C,0.050*%
%ADD26C,0.040*%
%ADD27C,0.008*%
%ADD28C,0.008*%
D17*
X10245Y9475D02*
X10320D01*
X10245Y9565D02*
X10320D01*
X10130D02*
X10205D01*
X10130Y9475D02*
X10205D01*
X10320D02*
Y9565D01*
X10130Y9475D02*
Y9565D01*
X10245Y9755D02*
X10320D01*
X10245Y9845D02*
X10320D01*
X10130D02*
X10205D01*
X10130Y9755D02*
X10205D01*
X10320D02*
Y9845D01*
X10130Y9755D02*
Y9845D01*
X12615Y8660D02*
X12705D01*
X12615Y8850D02*
X12705D01*
Y8660D02*
Y8735D01*
X12615Y8660D02*
Y8735D01*
Y8775D02*
Y8850D01*
X12705Y8775D02*
Y8850D01*
X12635Y9695D02*
Y9740D01*
X12750Y9695D02*
Y9740D01*
X12635Y9695D02*
X12655D01*
X12690Y9785D02*
X12695D01*
X12730Y9695D02*
X12750D01*
X10310Y9605D02*
X10355D01*
X10310Y9720D02*
X10355D01*
Y9605D02*
Y9625D01*
X10265Y9660D02*
Y9665D01*
X10355Y9700D02*
Y9720D01*
X12785Y8660D02*
X12875D01*
X12785Y8850D02*
X12875D01*
Y8660D02*
Y8735D01*
X12785Y8660D02*
Y8735D01*
Y8775D02*
Y8850D01*
X12875Y8775D02*
Y8850D01*
X10965Y8660D02*
X11055D01*
X10965Y8850D02*
X11055D01*
Y8660D02*
Y8735D01*
X10965Y8660D02*
Y8735D01*
Y8775D02*
Y8850D01*
X11055Y8775D02*
Y8850D01*
X11565Y8660D02*
X11655D01*
X11565Y8850D02*
X11655D01*
Y8660D02*
Y8735D01*
X11565Y8660D02*
Y8735D01*
Y8775D02*
Y8850D01*
X11655Y8775D02*
Y8850D01*
X12125Y8660D02*
X12215D01*
X12125Y8850D02*
X12215D01*
Y8660D02*
Y8735D01*
X12125Y8660D02*
Y8735D01*
Y8775D02*
Y8850D01*
X12215Y8775D02*
Y8850D01*
X10830Y9600D02*
Y9530D01*
Y9563D02*
X10840Y9573D01*
X10847Y9577D01*
X10857D01*
X10863Y9573D01*
X10867Y9563D01*
Y9530D01*
X10925Y9600D02*
Y9530D01*
Y9567D02*
X10918Y9573D01*
X10912Y9577D01*
X10902D01*
X10895Y9573D01*
X10888Y9567D01*
X10885Y9557D01*
Y9550D01*
X10888Y9540D01*
X10895Y9533D01*
X10902Y9530D01*
X10912D01*
X10918Y9533D01*
X10925Y9540D01*
X10984Y9590D02*
X10980Y9597D01*
X10970Y9600D01*
X10964D01*
X10954Y9597D01*
X10947Y9587D01*
X10944Y9570D01*
Y9553D01*
X10947Y9540D01*
X10954Y9533D01*
X10964Y9530D01*
X10967D01*
X10977Y9533D01*
X10984Y9540D01*
X10987Y9550D01*
Y9553D01*
X10984Y9563D01*
X10977Y9570D01*
X10967Y9573D01*
X10964D01*
X10954Y9570D01*
X10947Y9563D01*
X10944Y9553D01*
X11009Y9600D02*
X11046D01*
X11026Y9573D01*
X11036D01*
X11042Y9570D01*
X11046Y9567D01*
X11049Y9557D01*
Y9550D01*
X11046Y9540D01*
X11039Y9533D01*
X11029Y9530D01*
X11019D01*
X11009Y9533D01*
X11006Y9537D01*
X11002Y9543D01*
X11085Y9600D02*
X11075Y9597D01*
X11068Y9587D01*
X11065Y9570D01*
Y9560D01*
X11068Y9543D01*
X11075Y9533D01*
X11085Y9530D01*
X11091D01*
X11101Y9533D01*
X11108Y9543D01*
X11111Y9560D01*
Y9570D01*
X11108Y9587D01*
X11101Y9597D01*
X11091Y9600D01*
X11085D01*
X11170Y9577D02*
X11167Y9567D01*
X11160Y9560D01*
X11150Y9557D01*
X11147D01*
X11137Y9560D01*
X11130Y9567D01*
X11127Y9577D01*
Y9580D01*
X11130Y9590D01*
X11137Y9597D01*
X11147Y9600D01*
X11150D01*
X11160Y9597D01*
X11167Y9590D01*
X11170Y9577D01*
Y9560D01*
X11167Y9543D01*
X11160Y9533D01*
X11150Y9530D01*
X11144D01*
X11134Y9533D01*
X11130Y9540D01*
X11291Y9590D02*
X11284Y9597D01*
X11274Y9600D01*
X11261D01*
X11251Y9597D01*
X11244Y9590D01*
Y9583D01*
X11248Y9577D01*
X11251Y9573D01*
X11258Y9570D01*
X11278Y9563D01*
X11284Y9560D01*
X11288Y9557D01*
X11291Y9550D01*
Y9540D01*
X11284Y9533D01*
X11274Y9530D01*
X11261D01*
X11251Y9533D01*
X11244Y9540D01*
X11307Y9600D02*
Y9530D01*
Y9600D02*
X11337D01*
X11347Y9597D01*
X11350Y9593D01*
X11353Y9587D01*
Y9580D01*
X11350Y9573D01*
X11347Y9570D01*
X11337Y9567D01*
X11307D02*
X11337D01*
X11347Y9563D01*
X11350Y9560D01*
X11353Y9553D01*
Y9543D01*
X11350Y9537D01*
X11347Y9533D01*
X11337Y9530D01*
X11307D01*
X11419Y9583D02*
X11416Y9590D01*
X11409Y9597D01*
X11402Y9600D01*
X11389D01*
X11382Y9597D01*
X11376Y9590D01*
X11372Y9583D01*
X11369Y9573D01*
Y9557D01*
X11372Y9547D01*
X11376Y9540D01*
X11382Y9533D01*
X11389Y9530D01*
X11402D01*
X11409Y9533D01*
X11416Y9540D01*
X11419Y9547D01*
X11494Y9600D02*
Y9530D01*
Y9600D02*
X11537D01*
X11494Y9567D02*
X11520D01*
X11545Y9563D02*
X11575D01*
X11585Y9567D01*
X11588Y9570D01*
X11592Y9577D01*
Y9587D01*
X11588Y9593D01*
X11585Y9597D01*
X11575Y9600D01*
X11545D01*
Y9530D01*
X11657Y9583D02*
X11654Y9590D01*
X11647Y9597D01*
X11640Y9600D01*
X11627D01*
X11620Y9597D01*
X11614Y9590D01*
X11610Y9583D01*
X11607Y9573D01*
Y9557D01*
X11610Y9547D01*
X11614Y9540D01*
X11620Y9533D01*
X11627Y9530D01*
X11640D01*
X11647Y9533D01*
X11654Y9540D01*
X11657Y9547D01*
Y9557D01*
X11640D02*
X11657D01*
X11726Y9530D02*
X11700Y9600D01*
X11673Y9530D01*
X11683Y9553D02*
X11716D01*
X11798Y9600D02*
Y9530D01*
Y9600D02*
X11828D01*
X11838Y9597D01*
X11841Y9593D01*
X11844Y9587D01*
Y9580D01*
X11841Y9573D01*
X11838Y9570D01*
X11828Y9567D01*
X11798D02*
X11828D01*
X11838Y9563D01*
X11841Y9560D01*
X11844Y9553D01*
Y9543D01*
X11841Y9537D01*
X11838Y9533D01*
X11828Y9530D01*
X11798D01*
X11860Y9600D02*
Y9530D01*
Y9600D02*
X11890D01*
X11900Y9597D01*
X11903Y9593D01*
X11907Y9587D01*
Y9580D01*
X11903Y9573D01*
X11900Y9570D01*
X11890Y9567D01*
X11860D01*
X11883D02*
X11907Y9530D01*
X11966Y9600D02*
X11922D01*
Y9530D01*
X11966D01*
X11922Y9567D02*
X11949D01*
X12031Y9530D02*
X12004Y9600D01*
X11977Y9530D01*
X11987Y9553D02*
X12021D01*
X12047Y9600D02*
Y9530D01*
X12094Y9600D02*
X12047Y9553D01*
X12064Y9570D02*
X12094Y9530D01*
X12129Y9600D02*
X12123Y9597D01*
X12116Y9590D01*
X12113Y9583D01*
X12109Y9573D01*
Y9557D01*
X12113Y9547D01*
X12116Y9540D01*
X12123Y9533D01*
X12129Y9530D01*
X12143D01*
X12149Y9533D01*
X12156Y9540D01*
X12159Y9547D01*
X12163Y9557D01*
Y9573D01*
X12159Y9583D01*
X12156Y9590D01*
X12149Y9597D01*
X12143Y9600D01*
X12129D01*
X12179D02*
Y9550D01*
X12182Y9540D01*
X12189Y9533D01*
X12199Y9530D01*
X12206D01*
X12216Y9533D01*
X12222Y9540D01*
X12226Y9550D01*
Y9600D01*
X12268D02*
Y9530D01*
X12245Y9600D02*
X12292D01*
D18*
X10560Y9650D02*
Y9750D01*
X10660D02*
X10660Y9650D01*
X10560Y9750D02*
X10660D01*
X10560D02*
Y9850D01*
Y9650D02*
X12558Y9650D01*
X10560Y9850D02*
X12558D01*
Y9650D02*
Y9850D01*
X10320Y9190D02*
Y9290D01*
X10220Y9190D02*
X10320D01*
X10220Y9290D02*
X10320D01*
X10220Y9190D02*
Y9290D01*
X12720Y9440D02*
X12820D01*
X12720Y9640D02*
X12820D01*
X12720Y9440D02*
Y9640D01*
X12820Y9440D02*
Y9640D01*
X12780Y8090D02*
X12880D01*
X12780Y8290D02*
X12880D01*
X12780Y8090D02*
Y8290D01*
X12880Y8090D02*
Y8290D01*
X10360Y8870D02*
X10360Y8970D01*
X10160Y8870D02*
Y8970D01*
Y8870D02*
X10360D01*
X10160Y8970D02*
X10360D01*
X10280Y7750D02*
Y8650D01*
X10180Y7750D02*
Y8650D01*
X10280D01*
X10180Y7750D02*
X10280D01*
X10180Y7850D02*
X10280D01*
X10455Y9780D02*
X10435D01*
X10445D01*
Y9730D01*
X10435Y9720D01*
X10425D01*
X10415Y9730D01*
X10475Y9770D02*
X10485Y9780D01*
X10505D01*
X10515Y9770D01*
Y9760D01*
X10505Y9750D01*
X10495D01*
X10505D01*
X10515Y9740D01*
Y9730D01*
X10505Y9720D01*
X10485D01*
X10475Y9730D01*
X10810Y8240D02*
Y8180D01*
X10840D01*
X10850Y8190D01*
Y8230D01*
X10840Y8240D01*
X10810D01*
X10910D02*
X10870D01*
Y8180D01*
X10910D01*
X10870Y8210D02*
X10890D01*
X10930Y8180D02*
X10950D01*
X10940D01*
Y8240D01*
X10930Y8230D01*
X10720Y8240D02*
X10700D01*
X10710D01*
Y8190D01*
X10700Y8180D01*
X10690D01*
X10680Y8190D01*
X10740Y8180D02*
X10760D01*
X10750D01*
Y8240D01*
X10740Y8230D01*
X12080Y8190D02*
X12070Y8200D01*
X12050D01*
X12040Y8190D01*
Y8150D01*
X12050Y8140D01*
X12070D01*
X12080Y8150D01*
X12100Y8200D02*
Y8190D01*
X12120Y8170D01*
X12140Y8190D01*
Y8200D01*
X12120Y8170D02*
Y8140D01*
X12200Y8190D02*
X12190Y8200D01*
X12170D01*
X12160Y8190D01*
Y8150D01*
X12170Y8140D01*
X12190D01*
X12200Y8150D01*
X12220Y8200D02*
Y8140D01*
X12260D01*
X12310Y8200D02*
X12290D01*
X12280Y8190D01*
Y8150D01*
X12290Y8140D01*
X12310D01*
X12320Y8150D01*
Y8190D01*
X12310Y8200D01*
X12340Y8140D02*
Y8200D01*
X12380Y8140D01*
Y8200D01*
X12440D02*
X12400D01*
Y8140D01*
X12440D01*
X12400Y8170D02*
X12420D01*
X11930Y8200D02*
X11910D01*
X11920D01*
Y8150D01*
X11910Y8140D01*
X11900D01*
X11890Y8150D01*
X11980Y8140D02*
Y8200D01*
X11950Y8170D01*
X11990D01*
X11725Y9070D02*
X11758D01*
Y9062D01*
X11725Y9028D01*
Y9020D01*
X11800D02*
Y9070D01*
X11775Y9045D01*
X11808D01*
X11825Y9070D02*
Y9020D01*
X11858D01*
X11908Y9062D02*
X11900Y9070D01*
X11883D01*
X11875Y9062D01*
Y9028D01*
X11883Y9020D01*
X11900D01*
X11908Y9028D01*
X11925Y9070D02*
X11958Y9020D01*
Y9070D02*
X11925Y9020D01*
X12008D02*
X11975D01*
X12008Y9053D01*
Y9062D01*
X12000Y9070D01*
X11983D01*
X11975Y9062D01*
X12050Y9020D02*
Y9070D01*
X12025Y9045D01*
X12058D01*
X12108Y9070D02*
X12075D01*
Y9045D01*
X12092Y9053D01*
X12100D01*
X12108Y9045D01*
Y9028D01*
X12100Y9020D01*
X12083D01*
X12075Y9028D01*
X12110Y9415D02*
X12068D01*
X12060Y9407D01*
Y9390D01*
X12068Y9382D01*
X12110D01*
Y9332D02*
Y9365D01*
X12085D01*
X12093Y9348D01*
Y9340D01*
X12085Y9332D01*
X12068D01*
X12060Y9340D01*
Y9357D01*
X12068Y9365D01*
X12385Y9075D02*
X12418D01*
Y9067D01*
X12385Y9033D01*
Y9025D01*
X12460D02*
Y9075D01*
X12435Y9050D01*
X12468D01*
X12485Y9075D02*
Y9025D01*
X12518D01*
X12568Y9067D02*
X12560Y9075D01*
X12543D01*
X12535Y9067D01*
Y9033D01*
X12543Y9025D01*
X12560D01*
X12568Y9033D01*
X12585Y9075D02*
X12618Y9025D01*
Y9075D02*
X12585Y9025D01*
X12668Y9075D02*
X12635D01*
Y9050D01*
X12652Y9058D01*
X12660D01*
X12668Y9050D01*
Y9033D01*
X12660Y9025D01*
X12643D01*
X12635Y9033D01*
X12710Y9025D02*
Y9075D01*
X12685Y9050D01*
X12718D01*
X12735Y9025D02*
X12752D01*
X12743D01*
Y9075D01*
X12735Y9067D01*
X12745Y9410D02*
X12703D01*
X12695Y9402D01*
Y9385D01*
X12703Y9377D01*
X12745D01*
X12695Y9335D02*
X12745D01*
X12720Y9360D01*
Y9327D01*
X11140Y9075D02*
X11173D01*
Y9067D01*
X11140Y9033D01*
Y9025D01*
X11215D02*
Y9075D01*
X11190Y9050D01*
X11223D01*
X11240Y9075D02*
Y9025D01*
X11273D01*
X11323Y9067D02*
X11315Y9075D01*
X11298D01*
X11290Y9067D01*
Y9033D01*
X11298Y9025D01*
X11315D01*
X11323Y9033D01*
X11340Y9075D02*
X11373Y9025D01*
Y9075D02*
X11340Y9025D01*
X11423Y9075D02*
X11390D01*
Y9050D01*
X11407Y9058D01*
X11415D01*
X11423Y9050D01*
Y9033D01*
X11415Y9025D01*
X11398D01*
X11390Y9033D01*
X11465Y9025D02*
Y9075D01*
X11440Y9050D01*
X11473D01*
X11490Y9025D02*
X11507D01*
X11498D01*
Y9075D01*
X11490Y9067D01*
X11510Y9420D02*
X11468D01*
X11460Y9412D01*
Y9395D01*
X11468Y9387D01*
X11510D01*
X11502Y9370D02*
X11510Y9362D01*
Y9345D01*
X11502Y9337D01*
X11493D01*
X11485Y9345D01*
Y9353D01*
Y9345D01*
X11477Y9337D01*
X11468D01*
X11460Y9345D01*
Y9362D01*
X11468Y9370D01*
X10925Y9420D02*
X10883D01*
X10875Y9412D01*
Y9395D01*
X10883Y9387D01*
X10925D01*
X10875Y9337D02*
Y9370D01*
X10908Y9337D01*
X10917D01*
X10925Y9345D01*
Y9362D01*
X10917Y9370D01*
X10390Y9610D02*
Y9568D01*
X10398Y9560D01*
X10415D01*
X10423Y9568D01*
Y9610D01*
X10440Y9560D02*
X10457D01*
X10448D01*
Y9610D01*
X10440Y9602D01*
X10130Y9162D02*
X10138Y9170D01*
X10155D01*
X10163Y9162D01*
Y9153D01*
X10155Y9145D01*
X10147D01*
X10155D01*
X10163Y9137D01*
Y9128D01*
X10155Y9120D01*
X10138D01*
X10130Y9128D01*
X10180Y9120D02*
Y9128D01*
X10188D01*
Y9120D01*
X10180D01*
X10222Y9162D02*
X10230Y9170D01*
X10247D01*
X10255Y9162D01*
Y9153D01*
X10247Y9145D01*
X10238D01*
X10247D01*
X10255Y9137D01*
Y9128D01*
X10247Y9120D01*
X10230D01*
X10222Y9128D01*
X10272Y9170D02*
Y9137D01*
X10288Y9120D01*
X10305Y9137D01*
Y9170D01*
X10070Y9250D02*
X10103D01*
X10087D01*
Y9200D01*
X10120D02*
Y9250D01*
X10145D01*
X10153Y9242D01*
Y9225D01*
X10145Y9217D01*
X10120D01*
X10170Y9200D02*
X10187D01*
X10178D01*
Y9250D01*
X10170Y9242D01*
X12540Y8840D02*
X12590D01*
Y8815D01*
X12582Y8807D01*
X12565D01*
X12557Y8815D01*
Y8840D01*
Y8823D02*
X12540Y8807D01*
Y8790D02*
Y8773D01*
Y8782D01*
X12590D01*
X12582Y8790D01*
Y8748D02*
X12590Y8740D01*
Y8723D01*
X12582Y8715D01*
X12548D01*
X12540Y8723D01*
Y8740D01*
X12548Y8748D01*
X12582D01*
X12540Y8698D02*
Y8682D01*
Y8690D01*
X12590D01*
X12582Y8698D01*
X12690Y9830D02*
Y9870D01*
X12680Y9880D01*
X12660D01*
X12650Y9870D01*
Y9830D01*
X12660Y9820D01*
X12680D01*
X12670Y9840D02*
X12690Y9820D01*
X12680D02*
X12690Y9830D01*
X12710Y9820D02*
X12730D01*
X12720D01*
Y9880D01*
X12710Y9870D01*
X12952Y8227D02*
X12960Y8235D01*
Y8252D01*
X12952Y8260D01*
X12918D01*
X12910Y8252D01*
Y8235D01*
X12918Y8227D01*
X12935D01*
Y8243D01*
X12910Y8210D02*
X12960D01*
X12910Y8177D01*
X12960D01*
Y8160D02*
X12910D01*
Y8135D01*
X12918Y8127D01*
X12952D01*
X12960Y8135D01*
Y8160D01*
X10223Y8822D02*
X10215Y8830D01*
X10198D01*
X10190Y8822D01*
Y8788D01*
X10198Y8780D01*
X10215D01*
X10223Y8788D01*
Y8805D01*
X10207D01*
X10240Y8780D02*
Y8830D01*
X10273Y8780D01*
Y8830D01*
X10290D02*
Y8780D01*
X10315D01*
X10323Y8788D01*
Y8822D01*
X10315Y8830D01*
X10290D01*
X12540Y9525D02*
X12555D01*
X12547D01*
Y9480D01*
X12540D01*
X12555D01*
X12577D02*
Y9525D01*
X12600D01*
X12607Y9517D01*
Y9502D01*
X12600Y9495D01*
X12577D01*
X12592D02*
X12607Y9480D01*
X12652Y9487D02*
Y9517D01*
X12645Y9525D01*
X12630D01*
X12622Y9517D01*
Y9487D01*
X12630Y9480D01*
X12645D01*
X12637Y9495D02*
X12652Y9480D01*
X12645D02*
X12652Y9487D01*
X12573Y9610D02*
X12557D01*
X12565D01*
Y9568D01*
X12557Y9560D01*
X12548D01*
X12540Y9568D01*
X12590Y9560D02*
Y9610D01*
X12615D01*
X12623Y9602D01*
Y9585D01*
X12615Y9577D01*
X12590D01*
X12640Y9560D02*
X12657D01*
X12648D01*
Y9610D01*
X12640Y9602D01*
X10055Y8355D02*
X10115D01*
Y8395D01*
X10055Y8445D02*
Y8425D01*
X10065Y8415D01*
X10105D01*
X10115Y8425D01*
Y8445D01*
X10105Y8455D01*
X10065D01*
X10055Y8445D01*
X10065Y8515D02*
X10055Y8505D01*
Y8485D01*
X10065Y8475D01*
X10105D01*
X10115Y8485D01*
Y8505D01*
X10105Y8515D01*
X10085D01*
Y8495D01*
X10055Y8535D02*
Y8555D01*
Y8545D01*
X10115D01*
Y8535D01*
Y8555D01*
X10065Y8625D02*
X10055Y8615D01*
Y8595D01*
X10065Y8585D01*
X10105D01*
X10115Y8595D01*
Y8615D01*
X10105Y8625D01*
X10045Y7800D02*
Y7780D01*
Y7790D01*
X10095D01*
X10105Y7780D01*
Y7770D01*
X10095Y7760D01*
X10105Y7860D02*
Y7820D01*
X10065Y7860D01*
X10055D01*
X10045Y7850D01*
Y7830D01*
X10055Y7820D01*
X10183Y9422D02*
X10175Y9430D01*
X10158D01*
X10150Y9422D01*
Y9388D01*
X10158Y9380D01*
X10175D01*
X10183Y9388D01*
X10200Y9380D02*
X10217D01*
X10208D01*
Y9430D01*
X10200Y9422D01*
X10242D02*
X10250Y9430D01*
X10267D01*
X10275Y9422D01*
Y9388D01*
X10267Y9380D01*
X10250D01*
X10242Y9388D01*
Y9422D01*
X10292Y9380D02*
X10308D01*
X10300D01*
Y9430D01*
X10292Y9422D01*
X10173Y9912D02*
X10165Y9920D01*
X10148D01*
X10140Y9912D01*
Y9878D01*
X10148Y9870D01*
X10165D01*
X10173Y9878D01*
X10190Y9870D02*
X10207D01*
X10198D01*
Y9920D01*
X10190Y9912D01*
X10232D02*
X10240Y9920D01*
X10257D01*
X10265Y9912D01*
Y9878D01*
X10257Y9870D01*
X10240D01*
X10232Y9878D01*
Y9912D01*
X10282D02*
X10290Y9920D01*
X10307D01*
X10315Y9912D01*
Y9878D01*
X10307Y9870D01*
X10290D01*
X10282Y9878D01*
Y9912D01*
X12292Y8807D02*
X12300Y8815D01*
Y8832D01*
X12292Y8840D01*
X12258D01*
X12250Y8832D01*
Y8815D01*
X12258Y8807D01*
X12250Y8790D02*
Y8773D01*
Y8782D01*
X12300D01*
X12292Y8790D01*
Y8748D02*
X12300Y8740D01*
Y8723D01*
X12292Y8715D01*
X12258D01*
X12250Y8723D01*
Y8740D01*
X12258Y8748D01*
X12292D01*
X12300Y8665D02*
Y8698D01*
X12275D01*
X12283Y8682D01*
Y8673D01*
X12275Y8665D01*
X12258D01*
X12250Y8673D01*
Y8690D01*
X12258Y8698D01*
X12947Y8812D02*
X12955Y8820D01*
Y8837D01*
X12947Y8845D01*
X12913D01*
X12905Y8837D01*
Y8820D01*
X12913Y8812D01*
X12905Y8795D02*
Y8778D01*
Y8787D01*
X12955D01*
X12947Y8795D01*
Y8753D02*
X12955Y8745D01*
Y8728D01*
X12947Y8720D01*
X12913D01*
X12905Y8728D01*
Y8745D01*
X12913Y8753D01*
X12947D01*
X12905Y8678D02*
X12955D01*
X12930Y8703D01*
Y8670D01*
X11727Y8807D02*
X11735Y8815D01*
Y8832D01*
X11727Y8840D01*
X11693D01*
X11685Y8832D01*
Y8815D01*
X11693Y8807D01*
X11685Y8790D02*
Y8773D01*
Y8782D01*
X11735D01*
X11727Y8790D01*
Y8748D02*
X11735Y8740D01*
Y8723D01*
X11727Y8715D01*
X11693D01*
X11685Y8723D01*
Y8740D01*
X11693Y8748D01*
X11727D01*
Y8698D02*
X11735Y8690D01*
Y8673D01*
X11727Y8665D01*
X11718D01*
X11710Y8673D01*
Y8682D01*
Y8673D01*
X11702Y8665D01*
X11693D01*
X11685Y8673D01*
Y8690D01*
X11693Y8698D01*
X11127Y8802D02*
X11135Y8810D01*
Y8827D01*
X11127Y8835D01*
X11093D01*
X11085Y8827D01*
Y8810D01*
X11093Y8802D01*
X11085Y8785D02*
Y8768D01*
Y8777D01*
X11135D01*
X11127Y8785D01*
Y8743D02*
X11135Y8735D01*
Y8718D01*
X11127Y8710D01*
X11093D01*
X11085Y8718D01*
Y8735D01*
X11093Y8743D01*
X11127D01*
X11085Y8660D02*
Y8693D01*
X11118Y8660D01*
X11127D01*
X11135Y8668D01*
Y8685D01*
X11127Y8693D01*
X10454Y8855D02*
Y8806D01*
X10456Y8798D01*
X10462Y8795D01*
X10468D01*
X10445Y8835D02*
X10465D01*
X10491D02*
X10485Y8832D01*
X10479Y8826D01*
X10476Y8818D01*
Y8812D01*
X10479Y8804D01*
X10485Y8798D01*
X10491Y8795D01*
X10499D01*
X10505Y8798D01*
X10511Y8804D01*
X10514Y8812D01*
Y8818D01*
X10511Y8826D01*
X10505Y8832D01*
X10499Y8835D01*
X10491D01*
X10527D02*
Y8795D01*
Y8824D02*
X10535Y8832D01*
X10541Y8835D01*
X10550D01*
X10555Y8832D01*
X10558Y8824D01*
Y8795D01*
Y8824D02*
X10567Y8832D01*
X10572Y8835D01*
X10581D01*
X10587Y8832D01*
X10590Y8824D01*
Y8795D01*
X10643Y8826D02*
X10637Y8832D01*
X10631Y8835D01*
X10623D01*
X10617Y8832D01*
X10611Y8826D01*
X10608Y8818D01*
Y8812D01*
X10611Y8804D01*
X10617Y8798D01*
X10623Y8795D01*
X10631D01*
X10637Y8798D01*
X10643Y8804D01*
X10661Y8855D02*
X10664Y8852D01*
X10667Y8855D01*
X10664Y8858D01*
X10661Y8855D01*
X10664Y8835D02*
Y8795D01*
X10678Y8835D02*
Y8795D01*
Y8818D02*
X10680Y8826D01*
X10686Y8832D01*
X10692Y8835D01*
X10700D01*
X10740Y8826D02*
X10734Y8832D01*
X10729Y8835D01*
X10720D01*
X10714Y8832D01*
X10709Y8826D01*
X10706Y8818D01*
Y8812D01*
X10709Y8804D01*
X10714Y8798D01*
X10720Y8795D01*
X10729D01*
X10734Y8798D01*
X10740Y8804D01*
X10753Y8835D02*
Y8806D01*
X10756Y8798D01*
X10762Y8795D01*
X10770D01*
X10776Y8798D01*
X10784Y8806D01*
Y8835D02*
Y8795D01*
X10806Y8855D02*
X10809Y8852D01*
X10811Y8855D01*
X10809Y8858D01*
X10806Y8855D01*
X10809Y8835D02*
Y8795D01*
X10831Y8855D02*
Y8806D01*
X10833Y8798D01*
X10839Y8795D01*
X10845D01*
X10822Y8835D02*
X10842D01*
X10496Y8690D02*
X10473Y8750D01*
X10450Y8690D01*
X10459Y8710D02*
X10487D01*
X10510Y8730D02*
Y8670D01*
Y8721D02*
X10515Y8727D01*
X10521Y8730D01*
X10530D01*
X10535Y8727D01*
X10541Y8721D01*
X10544Y8713D01*
Y8707D01*
X10541Y8699D01*
X10535Y8693D01*
X10530Y8690D01*
X10521D01*
X10515Y8693D01*
X10510Y8699D01*
X10557Y8730D02*
Y8690D01*
Y8713D02*
X10560Y8721D01*
X10565Y8727D01*
X10571Y8730D01*
X10580D01*
X10591Y8750D02*
X10594Y8747D01*
X10597Y8750D01*
X10594Y8753D01*
X10591Y8750D01*
X10594Y8730D02*
Y8690D01*
X10607Y8750D02*
Y8690D01*
X10670Y8736D02*
Y8739D01*
X10673Y8744D01*
X10675Y8747D01*
X10681Y8750D01*
X10693D01*
X10698Y8747D01*
X10701Y8744D01*
X10704Y8739D01*
Y8733D01*
X10701Y8727D01*
X10695Y8719D01*
X10667Y8690D01*
X10707D01*
X10737Y8750D02*
X10729Y8747D01*
X10723Y8739D01*
X10720Y8724D01*
Y8716D01*
X10723Y8701D01*
X10729Y8693D01*
X10737Y8690D01*
X10743D01*
X10752Y8693D01*
X10757Y8701D01*
X10760Y8716D01*
Y8724D01*
X10757Y8739D01*
X10752Y8747D01*
X10743Y8750D01*
X10737D01*
X10774Y8739D02*
X10779Y8741D01*
X10788Y8750D01*
Y8690D01*
X10846Y8750D02*
X10818Y8710D01*
X10860D01*
X10846Y8750D02*
Y8690D01*
D27*
X10592Y9560D02*
X10618D01*
X10591Y9555D02*
X10619D01*
X10589Y9550D02*
X10621D01*
X10587Y9545D02*
X10623D01*
X10650Y9455D02*
Y9469D01*
X10645Y9455D02*
Y9483D01*
X10585Y9540D02*
X10625D01*
X10603Y9590D02*
X10607D01*
X10601Y9585D02*
X10609D01*
X10600Y9580D02*
X10610D01*
X10598Y9575D02*
X10612D01*
X10596Y9570D02*
X10614D01*
X10594Y9565D02*
X10616D01*
X10625Y9455D02*
Y9539D01*
X10620Y9455D02*
Y9553D01*
X10605Y9595D02*
X10655Y9455D01*
X10640D02*
Y9497D01*
X10635Y9455D02*
Y9511D01*
X10630Y9455D02*
Y9525D01*
X10610Y9455D02*
Y9581D01*
X10605Y9455D02*
Y9595D01*
X10600Y9455D02*
Y9581D01*
X10615Y9455D02*
Y9567D01*
X10595Y9455D02*
Y9567D01*
X10590Y9455D02*
Y9553D01*
X10575Y9510D02*
X10635D01*
X10571Y9500D02*
X10639D01*
X10569Y9495D02*
X10641D01*
X10568Y9490D02*
X10642D01*
X10566Y9485D02*
X10644D01*
X10564Y9480D02*
X10646D01*
X10584Y9535D02*
X10626D01*
X10582Y9530D02*
X10628D01*
X10580Y9525D02*
X10630D01*
X10578Y9520D02*
X10632D01*
X10576Y9515D02*
X10634D01*
X10573Y9505D02*
X10637D01*
X10562Y9475D02*
X10648D01*
X10560Y9470D02*
X10650D01*
X10555Y9455D02*
X10605Y9595D01*
X10559Y9465D02*
X10651D01*
X10557Y9460D02*
X10653D01*
X10555Y9455D02*
X10655D01*
X10585D02*
Y9539D01*
X10580Y9455D02*
Y9525D01*
X10575Y9455D02*
Y9511D01*
X10570Y9455D02*
Y9497D01*
X10565Y9455D02*
Y9483D01*
X10560Y9455D02*
Y9469D01*
X10976Y9375D02*
X10986Y9364D01*
X10968Y9375D02*
X10985Y9359D01*
X10961Y9342D02*
X10988Y9369D01*
X10961Y9375D02*
X10983Y9354D01*
X10963Y9336D02*
X10984Y9358D01*
X10965Y9331D02*
X10981Y9347D01*
X10970Y9315D02*
X10990Y9375D01*
X10965Y9331D02*
X10981Y9347D01*
X10966Y9326D02*
X10977Y9337D01*
X10962Y9339D02*
X10974Y9327D01*
X10966Y9328D02*
X10972Y9322D01*
X10959Y9347D02*
X10987Y9375D01*
X10950D02*
X10990D01*
X10958Y9352D02*
X10980Y9375D01*
X10956Y9358D02*
X10973Y9375D01*
X10954Y9363D02*
X10966Y9375D01*
X10952Y9368D02*
X10959Y9375D01*
X10954D02*
X10981Y9348D01*
X10951Y9371D02*
X10979Y9343D01*
X10955Y9360D02*
X10978Y9338D01*
X10950Y9375D02*
X10970Y9315D01*
X10958Y9350D02*
X10976Y9332D01*
X11570Y9375D02*
X11577Y9367D01*
X11562Y9375D02*
X11576Y9362D01*
X11550Y9344D02*
X11579Y9373D01*
X11555Y9375D02*
X11574Y9357D01*
X11552Y9339D02*
X11576Y9363D01*
X11554Y9334D02*
X11572Y9352D01*
X11560Y9315D02*
X11580Y9375D01*
X11556Y9328D02*
X11569Y9341D01*
X11556Y9328D02*
X11569Y9341D01*
X11554Y9334D02*
X11563Y9325D01*
X11557Y9323D02*
X11565Y9331D01*
X11548Y9375D02*
X11572Y9351D01*
X11540Y9375D02*
X11580D01*
X11549Y9349D02*
X11574Y9375D01*
X11547Y9355D02*
X11567Y9375D01*
X11545Y9360D02*
X11560Y9375D01*
X11543Y9365D02*
X11553Y9375D01*
X11543Y9366D02*
X11569Y9341D01*
X11541Y9375D02*
X11570Y9346D01*
X11546Y9356D02*
X11567Y9335D01*
X11540Y9375D02*
X11560Y9315D01*
X11550Y9345D02*
X11565Y9330D01*
X12171Y9375D02*
X12178Y9368D01*
X12163Y9375D02*
X12176Y9363D01*
X12151Y9343D02*
X12179Y9372D01*
X12156Y9375D02*
X12174Y9357D01*
X12152Y9338D02*
X12175Y9361D01*
X12154Y9333D02*
X12172Y9350D01*
X12160Y9315D02*
X12180Y9375D01*
X12154Y9333D02*
X12172Y9350D01*
X12156Y9327D02*
X12168Y9340D01*
X12153Y9336D02*
X12163Y9325D01*
X12158Y9322D02*
X12165Y9329D01*
X12149Y9349D02*
X12175Y9375D01*
X12140D02*
X12180D01*
X12149D02*
X12172Y9352D01*
X12147Y9354D02*
X12168Y9375D01*
X12145Y9359D02*
X12161Y9375D01*
X12143Y9365D02*
X12154Y9375D01*
X12142D02*
X12171Y9347D01*
X12142Y9368D02*
X12169Y9341D01*
X12146Y9357D02*
X12167Y9336D01*
X12140Y9375D02*
X12160Y9315D01*
X12149Y9347D02*
X12165Y9331D01*
X12800Y9375D02*
X12807Y9367D01*
X12793Y9375D02*
X12806Y9362D01*
X12780Y9344D02*
X12809Y9373D01*
X12786Y9375D02*
X12804Y9357D01*
X12782Y9339D02*
X12806Y9362D01*
X12784Y9333D02*
X12802Y9351D01*
X12790Y9315D02*
X12810Y9375D01*
X12784Y9333D02*
X12802Y9351D01*
X12786Y9328D02*
X12799Y9341D01*
X12783Y9335D02*
X12793Y9325D01*
X12787Y9323D02*
X12795Y9330D01*
X12779Y9349D02*
X12804Y9375D01*
X12770D02*
X12810D01*
X12779D02*
X12802Y9351D01*
X12777Y9354D02*
X12797Y9375D01*
X12775Y9360D02*
X12790Y9375D01*
X12773Y9365D02*
X12783Y9375D01*
X12773Y9367D02*
X12799Y9341D01*
X12772Y9375D02*
X12800Y9346D01*
X12776Y9356D02*
X12797Y9336D01*
X12770Y9375D02*
X12790Y9315D01*
X12780Y9346D02*
X12795Y9330D01*
X10410Y8280D02*
Y8620D01*
Y8280D02*
X11480D01*
X12710D02*
Y8620D01*
X10410D02*
X12710D01*
X11640Y8280D02*
X12710D01*
X11480D02*
Y8300D01*
X10430D02*
X11480D01*
X10430D02*
Y8600D01*
X12690D01*
Y8300D02*
Y8600D01*
X11640Y8300D02*
X12690D01*
X11640Y8280D02*
Y8300D01*
X10597Y8225D02*
X10623D01*
X10596Y8220D02*
X10624D01*
X10594Y8215D02*
X10626D01*
X10592Y8210D02*
X10628D01*
X10655Y8120D02*
Y8134D01*
X10650Y8120D02*
Y8148D01*
X10590Y8205D02*
X10630D01*
X10608Y8255D02*
X10612D01*
X10606Y8250D02*
X10614D01*
X10605Y8245D02*
X10615D01*
X10603Y8240D02*
X10617D01*
X10601Y8235D02*
X10619D01*
X10599Y8230D02*
X10621D01*
X10630Y8120D02*
Y8204D01*
X10625Y8120D02*
Y8218D01*
X10610Y8260D02*
X10660Y8120D01*
X10645D02*
Y8162D01*
X10640Y8120D02*
Y8176D01*
X10635Y8120D02*
Y8190D01*
X10615Y8120D02*
Y8246D01*
X10610Y8120D02*
Y8260D01*
X10605Y8120D02*
Y8246D01*
X10620Y8120D02*
Y8232D01*
X10600Y8120D02*
Y8232D01*
X10595Y8120D02*
Y8218D01*
X10578Y8170D02*
X10642D01*
X10576Y8165D02*
X10644D01*
X10574Y8160D02*
X10646D01*
X10573Y8155D02*
X10648D01*
X10571Y8150D02*
X10649D01*
X10569Y8145D02*
X10651D01*
X10589Y8200D02*
X10631D01*
X10587Y8195D02*
X10633D01*
X10585Y8190D02*
X10635D01*
X10583Y8185D02*
X10637D01*
X10581Y8180D02*
X10639D01*
X10580Y8175D02*
X10640D01*
X10567Y8140D02*
X10653D01*
X10565Y8135D02*
X10655D01*
X10560Y8120D02*
X10610Y8260D01*
X10564Y8130D02*
X10656D01*
X10562Y8125D02*
X10658D01*
X10560Y8120D02*
X10660D01*
X10590D02*
Y8204D01*
X10585Y8120D02*
Y8190D01*
X10580Y8120D02*
Y8176D01*
X10575Y8120D02*
Y8162D01*
X10570Y8120D02*
Y8148D01*
X10565Y8120D02*
Y8134D01*
X12555Y8246D02*
Y8260D01*
X12550Y8232D02*
Y8260D01*
X12545Y8218D02*
Y8260D01*
X12540Y8204D02*
Y8260D01*
X12535Y8190D02*
Y8260D01*
X12530Y8176D02*
Y8260D01*
X12490Y8175D02*
X12530D01*
X12525Y8162D02*
Y8260D01*
X12495Y8162D02*
Y8260D01*
X12492Y8170D02*
X12528D01*
X12496Y8160D02*
X12524D01*
X12498Y8155D02*
X12523D01*
X12494Y8165D02*
X12526D01*
X12520Y8148D02*
Y8260D01*
X12515Y8134D02*
Y8260D01*
X12510Y8120D02*
X12560Y8260D01*
X12499Y8150D02*
X12521D01*
X12503Y8140D02*
X12517D01*
X12501Y8145D02*
X12519D01*
X12505Y8134D02*
Y8260D01*
X12510Y8120D02*
Y8260D01*
X12500Y8148D02*
Y8260D01*
X12505Y8135D02*
X12515D01*
X12508Y8125D02*
X12512D01*
X12506Y8130D02*
X12514D01*
X12462Y8255D02*
X12558D01*
X12464Y8250D02*
X12556D01*
X12460Y8260D02*
X12560D01*
X12465Y8245D02*
X12555D01*
X12469Y8235D02*
X12551D01*
X12467Y8240D02*
X12553D01*
X12470Y8232D02*
Y8260D01*
X12475Y8218D02*
Y8260D01*
X12465Y8246D02*
Y8260D01*
X12471Y8230D02*
X12549D01*
X12474Y8220D02*
X12546D01*
X12472Y8225D02*
X12547D01*
X12478Y8210D02*
X12542D01*
X12480Y8205D02*
X12540D01*
X12476Y8215D02*
X12544D01*
X12483Y8195D02*
X12537D01*
X12485Y8190D02*
X12535D01*
X12481Y8200D02*
X12539D01*
X12485Y8190D02*
Y8260D01*
X12490Y8176D02*
Y8260D01*
X12460D02*
X12510Y8120D01*
X12487Y8185D02*
X12533D01*
X12489Y8180D02*
X12531D01*
X12480Y8204D02*
Y8260D01*
X11480Y8080D02*
Y8100D01*
X10430Y8080D02*
X11480D01*
X10430Y7780D02*
Y8080D01*
Y7780D02*
X12690D01*
Y8080D01*
X11640D02*
X12690D01*
X11640D02*
Y8100D01*
X10410D02*
X11480D01*
X10410Y7760D02*
X12710D01*
X10410D02*
Y8100D01*
X11640D02*
X12710D01*
Y7760D02*
Y8100D01*
X10535Y9075D02*
X10568D01*
Y9067D01*
X10535Y9033D01*
Y9025D01*
X10610D02*
Y9075D01*
X10585Y9050D01*
X10618D01*
X10635Y9075D02*
Y9025D01*
X10668D01*
X10718Y9067D02*
X10710Y9075D01*
X10693D01*
X10685Y9067D01*
Y9033D01*
X10693Y9025D01*
X10710D01*
X10718Y9033D01*
X10735Y9075D02*
X10768Y9025D01*
Y9075D02*
X10735Y9025D01*
X10818Y9075D02*
X10785D01*
Y9050D01*
X10802Y9058D01*
X10810D01*
X10818Y9050D01*
Y9033D01*
X10810Y9025D01*
X10793D01*
X10785Y9033D01*
X10860Y9025D02*
Y9075D01*
X10835Y9050D01*
X10868D01*
X10885Y9025D02*
X10902D01*
X10893D01*
Y9075D01*
X10885Y9067D01*
D28*
X11000Y9118D02*
X10990Y9116D01*
X10982Y9111D01*
X10977Y9103D01*
X10975Y9093D01*
X10977Y9084D01*
X10982Y9075D01*
X10990Y9070D01*
X11000Y9068D01*
X11590Y9118D02*
X11580Y9116D01*
X11572Y9111D01*
X11567Y9103D01*
X11565Y9093D01*
X11567Y9084D01*
X11572Y9075D01*
X11580Y9070D01*
X11590Y9068D01*
X12190Y9118D02*
X12180Y9116D01*
X12172Y9111D01*
X12167Y9103D01*
X12165Y9093D01*
X12167Y9084D01*
X12172Y9075D01*
X12180Y9070D01*
X12190Y9068D01*
X12820Y9118D02*
X12810Y9116D01*
X12802Y9111D01*
X12797Y9103D01*
X12795Y9093D01*
X12797Y9084D01*
X12802Y9075D01*
X12810Y9070D01*
X12820Y9068D01*
X11000Y8973D02*
Y9068D01*
X10490Y8973D02*
X10490Y9213D01*
X11000Y9118D02*
X11000Y9213D01*
X11590Y8973D02*
Y9068D01*
X11080Y8973D02*
X11080Y9213D01*
X11590Y9118D02*
X11590Y9213D01*
X12190Y8973D02*
Y9068D01*
X11680Y8973D02*
X11680Y9213D01*
X12190Y9118D02*
X12190Y9213D01*
X12820Y8973D02*
Y9068D01*
X12310Y8973D02*
X12310Y9213D01*
X12820Y9118D02*
X12820Y9213D01*
M02*
